<?xml version="1.0" encoding="utf-8"?>
<!-- Generator: Adobe Illustrator 17.0.0, SVG Export Plug-In . SVG Version: 6.00 Build 0)  -->
<!DOCTYPE svg PUBLIC "-//W3C//DTD SVG 1.1//EN" "http://www.w3.org/Graphics/SVG/1.1/DTD/svg11.dtd">
<svg version="1.1" id="Layer_1" xmlns="http://www.w3.org/2000/svg" xmlns:xlink="http://www.w3.org/1999/xlink" x="0px" y="0px"
	 width="80px" height="80px" viewBox="0 0 80 80" enable-background="new 0 0 80 80" xml:space="preserve">
<g id="XMLID_5604_">
	<circle id="XMLID_5614_" fill="#0780C2" cx="15.394" cy="52.652" r="13.464"/>
	
		<ellipse id="XMLID_5613_" transform="matrix(0.7071 -0.7071 0.7071 0.7071 -28.6933 19.9252)" fill="#4DC4F1" cx="9.705" cy="44.599" rx="3.534" ry="2.452"/>
	<g id="XMLID_5609_">
		<polygon id="XMLID_5612_" fill="#4DC4F1" points="69.217,59.48 44.491,77.58 32.132,61.909 56.857,43.809 		"/>
		<polygon id="XMLID_5611_" fill="#0780C2" points="78.07,61.852 69.217,59.48 56.857,43.809 65.711,46.181 		"/>
		<polygon id="XMLID_5610_" fill="#5EC3BA" points="78.07,61.852 53.345,79.952 44.491,77.58 69.217,59.48 		"/>
	</g>
	<g id="XMLID_5605_">
		<polygon id="XMLID_5608_" fill="#0780C2" points="62.811,37.823 40.932,43.338 25.1,27.714 25.035,27.701 46.914,22.134 
			62.746,37.758 62.798,37.771 62.772,37.784 		"/>
		<polygon id="XMLID_5607_" fill="#4DC4F1" points="52.689,0.048 46.914,22.134 25.035,27.701 		"/>
		<polygon id="XMLID_5606_" fill="#5EC3BA" points="62.798,37.771 62.746,37.758 46.914,22.134 52.689,0.048 		"/>
	</g>
</g>
</svg>
