<?xml version="1.0" encoding="utf-8"?>
<!-- Generator: Adobe Illustrator 17.0.0, SVG Export Plug-In . SVG Version: 6.00 Build 0)  -->
<!DOCTYPE svg PUBLIC "-//W3C//DTD SVG 1.1//EN" "http://www.w3.org/Graphics/SVG/1.1/DTD/svg11.dtd">
<svg version="1.1" id="Layer_1" xmlns="http://www.w3.org/2000/svg" xmlns:xlink="http://www.w3.org/1999/xlink" x="0px" y="0px"
	 width="80px" height="80px" viewBox="0 0 80 80" enable-background="new 0 0 80 80" xml:space="preserve">
<g id="XMLID_5490_">
	<circle id="XMLID_5505_" fill="#4DC4F1" cx="30.695" cy="54.805" r="15.489"/>
	<circle id="XMLID_5504_" fill="#0780C2" cx="26.352" cy="55.752" r="2.852"/>
	<circle id="XMLID_5503_" fill="#0780C2" cx="35.039" cy="55.752" r="2.852"/>
	<circle id="XMLID_5502_" fill="#5EC3BA" cx="57.942" cy="30.661" r="15.489"/>
	<circle id="XMLID_5501_" fill="#0780C2" cx="61.683" cy="33.063" r="2.852"/>
	<circle id="XMLID_5500_" fill="#0780C2" cx="55.541" cy="26.92" r="2.852"/>
	<circle id="XMLID_5499_" fill="#4DC4F1" cx="22.058" cy="21.948" r="15.489"/>
	<path id="XMLID_5498_" fill="#BBBDBF" d="M20.57,54.804c0-7.638,5.533-13.969,12.807-15.241c-0.873-0.153-1.765-0.248-2.682-0.248
		c-8.554,0-15.489,6.935-15.489,15.489c0,8.554,6.935,15.489,15.489,15.489c0.916,0,1.809-0.095,2.682-0.248
		C26.104,68.773,20.57,62.442,20.57,54.804z"/>
	<path id="XMLID_5497_" fill="#BBBDBF" d="M52.354,41.614c-6.049-6.049-6.049-15.856,0-21.904c2.339-2.339,5.242-3.763,8.27-4.293
		c-4.803-0.84-9.924,0.583-13.634,4.293c-6.049,6.049-6.049,15.856,0,21.904c3.71,3.709,8.831,5.133,13.634,4.293
		C57.595,45.376,54.693,43.953,52.354,41.614z"/>
	<path id="XMLID_5496_" fill="#BBBDBF" d="M16.47,32.901c-6.049-6.049-6.049-15.856,0-21.904c2.339-2.339,5.242-3.763,8.27-4.293
		c-4.803-0.84-9.925,0.583-13.634,4.293c-6.049,6.049-6.049,15.856,0,21.904c3.71,3.71,8.831,5.133,13.634,4.293
		C21.711,36.663,18.809,35.24,16.47,32.901z"/>
	<circle id="XMLID_5495_" fill="#0780C2" cx="24.459" cy="18.207" r="2.852"/>
	<circle id="XMLID_5494_" fill="#0780C2" cx="18.317" cy="24.35" r="2.852"/>
	<path id="XMLID_5493_" fill="#0780C2" d="M5.941,5.831L7.327,1.37c0.479-1.541,2.517-1.864,3.449-0.546l2.698,3.814l4.672-0.06
		c1.614-0.021,2.55,1.818,1.585,3.111l-2.794,3.744l1.5,4.424c0.518,1.528-0.941,2.987-2.469,2.469l-4.424-1.5l-3.744,2.794
		c-1.293,0.965-3.132,0.028-3.111-1.585l0.06-4.672l-3.814-2.698c-1.318-0.932-0.995-2.97,0.546-3.449L5.941,5.831z"/>
	<path id="XMLID_5492_" fill="#0780C2" d="M30.695,77.598l-4.135,2.174c-1.428,0.751-3.098-0.462-2.825-2.052l0.79-4.605
		l-3.345-3.261c-1.156-1.126-0.518-3.089,1.079-3.321l4.623-0.672l2.068-4.189c0.714-1.447,2.778-1.447,3.492,0l2.068,4.189
		l4.623,0.672c1.597,0.232,2.235,2.195,1.079,3.321l-3.345,3.261l0.79,4.605c0.273,1.59-1.397,2.803-2.825,2.052L30.695,77.598z"/>
	<path id="XMLID_5491_" fill="#0780C2" d="M74.059,14.544l4.461,1.387c1.541,0.479,1.864,2.517,0.546,3.449l-3.814,2.698l0.06,4.672
		c0.021,1.614-1.818,2.55-3.111,1.585l-3.744-2.794l-4.424,1.5c-1.528,0.518-2.987-0.941-2.469-2.469l1.5-4.424l-2.794-3.744
		c-0.965-1.293-0.028-3.132,1.585-3.111l4.672,0.06l2.698-3.814c0.932-1.318,2.97-0.995,3.449,0.546L74.059,14.544z"/>
</g>
</svg>
