<?xml version="1.0" encoding="utf-8"?>
<!-- Generator: Adobe Illustrator 17.0.0, SVG Export Plug-In . SVG Version: 6.00 Build 0)  -->
<!DOCTYPE svg PUBLIC "-//W3C//DTD SVG 1.1//EN" "http://www.w3.org/Graphics/SVG/1.1/DTD/svg11.dtd">
<svg version="1.1" id="Layer_6" xmlns="http://www.w3.org/2000/svg" xmlns:xlink="http://www.w3.org/1999/xlink" x="0px" y="0px"
	 width="80px" height="80px" viewBox="0 0 80 80" enable-background="new 0 0 80 80" xml:space="preserve">
<g>
	
		<linearGradient id="XMLID_2_" gradientUnits="userSpaceOnUse" x1="3434.407" y1="-4478.7852" x2="4195.1338" y2="-5239.5122" gradientTransform="matrix(0.08 0 0 -0.08 -265.54 -349.06)">
		<stop  offset="0" style="stop-color:#0580C3"/>
		<stop  offset="1" style="stop-color:#49C6F3"/>
	</linearGradient>
	<path id="XMLID_197_" fill="url(#XMLID_2_)" d="M76.87,40.122c1.145-2.561,1.901-5.297,2.241-8.071
		c0.534-4.385,0.029-8.731-1.494-12.903c-2.561-7.024-7.693-12.631-14.474-15.794S48.765-0.138,41.741,2.423
		c-0.524,0.194-1.038,0.398-1.552,0.621c-2.581-1.154-5.326-1.931-8.12-2.27c-4.395-0.534-8.751-0.029-12.932,1.494
		C12.114,4.829,6.506,9.961,3.344,16.742C0.181,23.514-0.149,31.12,2.412,38.143c0.223,0.601,0.456,1.203,0.718,1.785
		C1.985,42.49,1.229,45.225,0.889,48c-0.534,4.385-0.029,8.731,1.494,12.912c2.561,7.024,7.693,12.631,14.474,15.794
		c3.745,1.746,7.722,2.629,11.816,2.629c3.26,0,6.49-0.572,9.585-1.698c0.543-0.194,1.087-0.417,1.61-0.64
		c2.571,1.145,5.307,1.901,8.081,2.231c1.106,0.136,2.231,0.204,3.337,0.204c3.24,0,6.451-0.572,9.546-1.698
		c7.024-2.561,12.631-7.693,15.794-14.474c3.163-6.772,3.492-14.377,0.931-21.401C77.345,41.267,77.112,40.695,76.87,40.122z"/>
	<path id="XMLID_207_" fill="#FFFFFF" d="M67.103,40.105c1.577-2.477,2.595-5.324,2.946-8.234c0.369-3.081,0.018-6.135-1.054-9.072
		c-1.802-4.937-5.414-8.883-10.18-11.108s-10.108-2.459-15.054-0.658c-1.288,0.468-2.513,1.063-3.649,1.766
		c-2.486-1.586-5.333-2.613-8.252-2.964c-3.09-0.378-6.144-0.018-9.09,1.054c-4.937,1.802-8.883,5.414-11.108,10.18
		s-2.459,10.108-0.658,15.054c0.495,1.351,1.126,2.631,1.874,3.82c-1.577,2.477-2.604,5.333-2.955,8.243
		c-0.369,3.081-0.018,6.135,1.054,9.081c1.802,4.937,5.414,8.883,10.18,11.108c2.649,1.234,5.468,1.856,8.306,1.856
		c2.27,0,4.549-0.396,6.748-1.198c1.306-0.477,2.531-1.072,3.685-1.793c2.477,1.568,5.324,2.585,8.225,2.928
		c0.784,0.09,1.568,0.144,2.351,0.144c2.279,0,4.522-0.396,6.711-1.198c4.937-1.802,8.883-5.414,11.108-10.18
		c2.225-4.766,2.459-10.108,0.658-15.054C68.463,42.537,67.85,41.276,67.103,40.105z M43.86,11.286
		c10.063-3.658,21.224,1.54,24.882,11.603c2.063,5.675,1.405,11.846-1.802,16.963c-1.982-3.054-4.784-5.504-8.171-7.081
		c-4.766-2.225-10.108-2.459-15.054-0.658c-1.297,0.468-2.531,1.072-3.685,1.793c-2.685-1.703-5.73-2.73-8.91-3
		C30.536,22.475,35.536,14.313,43.86,11.286z M39.896,45.78c-2.27-1.486-4.225-3.432-5.712-5.739
		c1.504-2.315,3.504-4.306,5.856-5.811c2.279,1.477,4.243,3.423,5.739,5.73C44.266,42.285,42.257,44.276,39.896,45.78z
		 M45.941,40.222c0.712,1.144,1.315,2.36,1.793,3.658c0.595,1.631,0.964,3.306,1.108,4.991c-3.144-0.27-6.108-1.306-8.684-2.928
		c1.946-1.243,3.658-2.829,5.063-4.694C45.473,40.915,45.716,40.573,45.941,40.222z M39.635,45.942
		c-1.09,0.667-2.252,1.234-3.486,1.685c-1.658,0.604-3.342,0.964-5.027,1.108c0.297-3.045,1.315-5.919,2.892-8.432
		c1.252,1.919,2.838,3.612,4.694,5C39.014,45.519,39.329,45.735,39.635,45.942z M34.014,39.78c-0.703-1.126-1.297-2.333-1.757-3.612
		c-0.604-1.649-0.964-3.324-1.099-4.991c3.117,0.27,6.063,1.288,8.621,2.892c-1.928,1.243-3.631,2.82-5.027,4.667
		C34.491,39.078,34.248,39.429,34.014,39.78z M41.275,34.754c-0.315-0.234-0.649-0.468-0.982-0.685
		c1.099-0.676,2.279-1.252,3.513-1.703c1.64-0.595,3.333-0.964,5.027-1.108c-0.297,3.054-1.315,5.937-2.901,8.45
		C44.689,37.807,43.122,36.132,41.275,34.754z M11.915,21.177c2.189-4.703,6.081-8.261,10.955-10.036
		c5.693-2.072,11.873-1.405,16.99,1.82c-3.108,1.991-5.603,4.82-7.198,8.252c-2.225,4.766-2.459,10.108-0.658,15.054
		c0.486,1.333,1.108,2.595,1.847,3.775c-1.676,2.631-2.703,5.612-3,8.72c-8.414,0.577-16.558-4.414-19.585-12.729
		C9.501,31.15,9.726,25.88,11.915,21.177z M36.131,68.77c-4.874,1.775-10.144,1.54-14.846-0.649
		c-4.703-2.189-8.261-6.081-10.036-10.955c-2.072-5.684-1.405-11.855,1.811-16.972c1.982,3.036,4.775,5.459,8.144,7.036
		c2.649,1.234,5.468,1.856,8.306,1.856c2.27,0,4.549-0.396,6.748-1.198c1.279-0.468,2.504-1.063,3.649-1.766
		c2.694,1.73,5.766,2.766,8.973,3.036c0.234,3.261-0.36,6.54-1.775,9.576C44.896,63.428,41.004,66.996,36.131,68.77z M57.094,68.851
		c-5.666,2.063-11.828,1.405-16.936-1.784c3.099-1.991,5.576-4.811,7.171-8.225c2.225-4.766,2.459-10.108,0.658-15.054
		c-0.486-1.351-1.117-2.631-1.874-3.82c1.676-2.631,2.712-5.621,3.009-8.738c3.243-0.225,6.513,0.369,9.549,1.784
		c4.703,2.189,8.261,6.081,10.036,10.955C72.364,54.032,67.157,65.194,57.094,68.851z"/>
</g>
</svg>
