<?xml version="1.0" encoding="utf-8"?>
<!-- Generator: Adobe Illustrator 17.0.0, SVG Export Plug-In . SVG Version: 6.00 Build 0)  -->
<!DOCTYPE svg PUBLIC "-//W3C//DTD SVG 1.1//EN" "http://www.w3.org/Graphics/SVG/1.1/DTD/svg11.dtd">
<svg version="1.1" id="Layer_1_2_" xmlns="http://www.w3.org/2000/svg" xmlns:xlink="http://www.w3.org/1999/xlink" x="0px" y="0px"
	 width="184.667px" height="53.667px" viewBox="0 0 184.667 53.667" enable-background="new 0 0 184.667 53.667"
	 xml:space="preserve">
<g id="_x3C_Group_x3E__3_">
	<g id="_x3C_Group_x3E__xA0_Image_3_">
		<path fill="#0984C5" d="M15.856,40.583c-4.199,0.006-8.398,0.022-12.597,0.011c-0.986-0.003-1.541-0.646-1.908-1.488
			c0-11.744,0-23.487,0-35.231c0.156-0.842,0.654-1.341,1.497-1.497c7.023,0,14.046,0,21.069,0c0.141,0.157,0.164,0.347,0.127,0.54
			C23.913,3.614,23.8,4.314,23.56,4.984c-0.149,0.253-0.419,0.32-0.663,0.424c-3.926,1.67-6.098,4.656-6.64,8.861
			c-0.082,0.633-0.021,0.707,0.625,0.837c0.944,0.19,1.835,0.539,2.718,0.908c0.195,0.082,0.381,0.181,0.507,0.362
			c0.064,0.12,0.138,0.243,0.275,0.275c0.588,0.14,0.578,0.528,0.491,1.016c-0.108,0.609-0.292,1.177-0.618,1.699
			c-0.158,0.398-0.561,0.564-0.823,0.866c-0.238,0.275-0.509,0.52-0.755,0.789c-0.279,0.304-0.344,0.571-0.001,0.873
			c0.159,0.14,0.243,0.343,0.28,0.557c0.016,0.156,0.055,0.306,0.175,0.411c0.45,0.392,0.468,0.87,0.324,1.405
			c-0.098,0.366-0.209,0.734-0.246,1.113c-0.089,0.89-0.46,1.594-1.264,2.036c-0.754,0.379-1.581,0.481-2.397,0.551
			c-5.016,0.429-9.144-1.597-11.845-5.2c0.002,4.972,0,9.925,0.002,14.878c0,0.209-0.023,0.426,0.133,0.601
			c0.144,0.127,0.318,0.121,0.491,0.121c3.299,0,6.597,0.003,9.896-0.001c0.136,0,0.267-0.021,0.396-0.058
			c0.439-0.034,0.872-0.187,1.32-0.089c0.242,0.131,0.366,0.35,0.337,0.611C16.213,39.429,16.126,40.029,15.856,40.583z"/>
		<path fill="#118BCA" d="M20.117,19.417c0.236-0.62,0.535-1.209,0.631-1.888c0.059-0.414,0.063-0.639-0.399-0.713
			c-0.188-0.03-0.346-0.16-0.346-0.392c0.461-0.029,0.868-0.212,1.289-0.394c3.881-1.681,7.723-1.585,11.49,0.349
			c1.181,0.606,2.244,1.397,3.173,2.36c0.398,0.412,0.502,0.392,0.676-0.162c1.214-3.866,0.509-7.359-2.152-10.409
			c-1.694-1.942-3.891-3.025-6.433-3.38c-1.321-0.184-2.64-0.091-3.938,0.243c-0.215,0.055-0.437,0.183-0.651-0.01
			c0.099-0.891,0.478-1.732,0.461-2.643c1.343,0,2.686,0,4.03,0c1.176,0.246,2.357,0.45,3.486,0.9
			c7.016,2.793,10.12,11.014,6.659,17.719c-0.202,0.392-0.178,0.67,0.011,1.044c3.937,7.781-0.92,17.16-9.533,18.425
			c-0.36,0.053-0.724,0.113-1.086,0.113c-3.875,0.007-7.751,0.003-11.626,0.002c-0.062-0.504,0.145-0.966,0.243-1.442
			c0.066-0.319,0.041-0.589-0.13-0.856c0.034-0.269,0.272-0.236,0.44-0.278c2.222-0.556,4.109-1.662,5.624-3.39
			c1.49-1.7,2.323-3.683,2.531-5.925c0.064-0.687-0.004-0.746-0.665-0.891c-1.037-0.227-2.033-0.568-2.963-1.079
			c-0.413-0.227-0.783-0.236-1.19,0.002c-0.38,0.222-0.781,0.412-1.209,0.531c-0.198,0.055-0.399,0.165-0.603,0.013
			c1.221-0.634,1.017-1.927,1.364-2.963c0.179-0.534,0.186-1.035-0.352-1.412c-0.16-0.112-0.202-0.319-0.084-0.514
			c0.482,0.102,0.735,0.528,1.087,0.804c0.318,0.25,0.552,0.293,0.844,0.014c0.484-0.464,0.956-0.94,1.424-1.421
			c0.231-0.237,0.203-0.454-0.006-0.705c-0.43-0.517-0.89-0.996-1.413-1.423C20.586,19.473,20.353,19.466,20.117,19.417z"/>
		<path fill="#F9FBFD" d="M2.847,2.378C2.129,2.657,1.628,3.154,1.35,3.875c0-0.499-0.195-1.193,0.055-1.442
			S2.348,2.378,2.847,2.378z"/>
		<path fill="#209BD5" d="M62.953,13.986c4.275,0.348,7.412,2.46,9.154,6.342c2.106,4.693,2.085,9.52,0.002,14.218
			c-1.986,4.479-6.341,6.8-11.226,6.332c-2.793-0.268-5.179-1.314-7.079-3.381c-1.506-1.638-2.429-3.594-2.929-5.752
			c-0.21-0.905-0.401-1.815-0.38-2.752c-0.11-0.463,0.034-0.941-0.079-1.404c0-0.113,0-0.226,0-0.339
			c0.112-0.463-0.031-0.94,0.079-1.403c0.258-3.581,1.399-6.776,4.131-9.241c1.799-1.623,3.953-2.437,6.358-2.616
			C61.64,13.925,62.296,13.929,62.953,13.986z"/>
		<path fill="#2DA9DE" d="M108.066,40.941c-3.079-0.083-6.034-0.926-8.641-2.844c-0.5-0.368-0.962-0.764-1.057-1.439
			c-0.062-0.44,0.059-0.797,0.417-1.061c0.346-0.255,0.695-0.169,1.02,0.037c0.777,0.492,1.528,1.027,2.321,1.491
			c3.332,1.952,6.843,2.12,10.398,0.798c2.239-0.833,3.207-2.901,2.694-5.217c-0.257-1.161-1.032-1.897-2.024-2.442
			c-1.253-0.688-2.62-1.068-3.998-1.405c-1.84-0.451-3.694-0.851-5.443-1.612c-0.936-0.407-1.84-0.871-2.603-1.559
			c-2.103-1.894-2.488-5.309-0.857-7.845c1.348-2.095,3.357-3.217,5.755-3.644c3.257-0.579,6.375-0.187,9.253,1.552
			c0.593,0.358,1.125,0.799,1.611,1.293c0.217,0.22,0.404,0.462,0.531,0.745c0.26,0.578,0.185,1.084-0.209,1.419
			c-0.47,0.398-0.904,0.187-1.303-0.112c-1.076-0.804-2.139-1.639-3.389-2.153c-2.679-1.102-5.388-1.166-8.017,0.112
			c-2.154,1.048-3.077,3.154-2.558,5.424c0.251,1.097,0.953,1.812,1.897,2.329c1.411,0.771,2.963,1.13,4.507,1.504
			c1.769,0.428,3.522,0.91,5.203,1.618c0.51,0.215,1.009,0.466,1.49,0.739c2.088,1.186,2.839,3.076,2.736,5.371
			c-0.143,3.205-2.078,5.013-4.873,6.107C111.409,40.742,109.808,40.894,108.066,40.941z"/>
		<path fill="#41BEED" d="M159.427,14.025c3.317,0.232,5.64,1.828,6.836,5.051c0.412-0.728,0.783-1.412,1.305-1.992
			c1.739-1.934,3.928-2.933,6.506-3.082c0.913-0.053,1.833-0.101,2.738,0.117c0.443,0.987-0.017,1.942-0.948,1.971
			c-1.036-0.017-2.072-0.001-3.081,0.267c-3.119,0.83-4.85,2.978-5.633,5.998c-0.27,1.042-0.351,2.112-0.35,3.189
			c0.003,4.641,0.002,9.281-0.001,13.922c0,0.742-0.255,1.147-0.796,1.306c-0.672,0.198-1.299-0.189-1.403-0.882
			c-0.034-0.226-0.028-0.459-0.028-0.689c-0.002-3.375,0.007-6.75-0.005-10.125c-0.008-2.166-0.022-4.333-0.084-6.498
			c-0.034-1.191-0.28-2.352-0.767-3.454c-0.791-1.786-2.227-2.658-4.097-2.93c-0.187-0.027-0.386,0.008-0.557-0.107
			c0.421-0.298,0.561-0.738,0.632-1.221c0.037-0.252,0.093-0.489-0.232-0.606C159.366,14.227,159.354,14.117,159.427,14.025z"/>
		<path fill="#39B5E7" d="M134.213,14.138c3.59,0.587,6.148,2.586,7.827,5.759c1.028,1.943,1.508,4.04,1.618,6.226
			c0.134,2.683-0.08,5.32-1.144,7.828c-1.609,3.794-4.381,6.165-8.493,6.833c-1.674,0.272-3.353,0.232-4.993-0.28
			c-0.224-0.363,0.011-0.701,0.071-1.043c0.069-0.39,0.157-0.75-0.327-0.947c-0.13-0.053-0.176-0.194-0.105-0.341
			c0.12-0.093,0.257-0.083,0.384-0.04c0.881,0.3,1.803,0.418,2.717,0.427c3.098,0.029,5.787-0.859,7.561-3.621
			c1.186-1.847,1.648-3.917,1.738-6.065c0.086-2.068,0.089-4.142-0.546-6.155c-0.925-2.933-2.617-5.132-5.682-6.058
			c-0.411-0.124-0.891-0.049-1.226-0.403c0.001-0.104,0.063-0.17,0.141-0.228c0.605-0.448,0.748-0.954,0.456-1.632
			C134.169,14.307,134.139,14.223,134.213,14.138z"/>
		<path fill="#3BB7E8" d="M159.427,14.025c-0.044,0.362,0.505,0.001,0.466,0.393c-0.046,0.457-0.104,0.904-0.295,1.329
			c-0.11,0.243-0.277,0.354-0.536,0.342c-1.308-0.03-2.609,0.039-3.843,0.514c-2.825,1.086-4.274,3.288-4.883,6.141
			c-0.192,0.902-0.247,1.818-0.245,2.741c0.008,4.448,0.004,8.897,0.003,13.345c0,0.192,0.001,0.384-0.001,0.575
			c-0.011,0.925-0.41,1.419-1.144,1.416c-0.72-0.003-1.132-0.513-1.133-1.429c-0.002-7.977-0.002-15.953-0.001-23.93
			c0-0.552,0.044-1.098,0.671-1.33c0.815-0.302,1.496,0.137,1.517,1.004c0.026,1.054,0.008,2.109,0.009,3.164
			c0,0.184,0,0.368,0,0.727c0.335-0.569,0.556-1.003,0.831-1.401c1.419-2.046,3.335-3.243,5.844-3.528
			C157.608,13.993,158.512,13.969,159.427,14.025z"/>
		<path fill="#1590CD" d="M44.052,21.594c0-5.925-0.001-11.85,0.001-17.775c0-0.907,0.378-1.344,1.125-1.332
			c0.558,0.01,0.988,0.364,1.076,0.922c0.041,0.263,0.035,0.535,0.035,0.803c0.001,11.62,0,23.24-0.001,34.86
			c0,0.249,0.007,0.5-0.023,0.747c-0.074,0.602-0.55,1.012-1.135,1c-0.62-0.012-1.021-0.401-1.069-1.047
			c-0.015-0.21-0.008-0.422-0.008-0.632C44.052,33.29,44.053,27.442,44.052,21.594z"/>
		<path fill="#32ADE2" d="M134.213,14.138c0.601,0.841,0.348,1.704-0.607,2.072c-0.2,0.172-0.432,0.129-0.662,0.097
			c-0.558-0.115-1.118-0.101-1.678-0.012c-1.515,0.216-2.975,0.59-4.238,1.51c-1.912,1.392-2.98,3.33-3.483,5.588
			c-0.715,3.206-0.647,6.406,0.4,9.533c0.742,2.219,2.153,3.915,4.313,4.923c0.17,0.079,0.37,0.129,0.428,0.348
			c0.033,0.065,0.059,0.182,0.1,0.188c0.81,0.114,0.555,0.661,0.464,1.134c-0.064,0.331-0.148,0.657-0.223,0.986
			c-2.374-0.557-4.255-1.872-5.723-3.786c-1.584-2.063-2.36-4.451-2.643-7.003c-0.301-2.713-0.147-5.4,0.767-7.995
			c1.326-3.764,3.777-6.396,7.733-7.416c1.432-0.369,2.896-0.482,4.369-0.197C133.751,14.15,133.985,14.13,134.213,14.138z"/>
		<path fill="#239ED8" d="M87.121,28.87c-2.33-0.47-4.615-1.065-6.76-2.141c-4.678-2.348-3.943-7.989-1.083-10.421
			c1.577-1.341,3.399-2.064,5.424-2.27c2.398-0.244,4.743,0.01,6.972,1.005c1.115,0.498,2.114,1.159,2.967,2.036
			c0.328,0.337,0.578,0.717,0.646,1.192c0.059,0.416-0.097,0.758-0.431,1.004c-0.32,0.235-0.663,0.174-0.971-0.02
			c-0.339-0.214-0.667-0.45-0.981-0.7c-2.817-2.237-5.972-2.983-9.445-2.003c-2.05,0.579-3.518,1.83-3.886,4.076
			c-0.303,1.848,0.414,3.336,2.066,4.222c1.398,0.75,2.934,1.094,4.456,1.473c0.388,0.096,0.77,0.214,1.155,0.321
			C87.805,27.228,87.752,28.144,87.121,28.87z"/>
		<path fill="#28A3DB" d="M87.121,28.87c0.072-0.195,0.156-0.386,0.214-0.585c0.163-0.556,0.282-1.114-0.085-1.644
			c1.944,0.46,3.842,1.047,5.578,2.064c2.265,1.328,2.893,3.424,2.633,5.863c-0.298,2.792-2.043,4.538-4.531,5.438
			c-4.948,1.789-9.61,1.031-13.906-1.988c-0.542-0.381-0.995-0.852-0.97-1.6c0.026-0.761,0.684-1.188,1.353-0.829
			c0.504,0.271,0.976,0.607,1.446,0.938c3.328,2.344,6.966,2.741,10.794,1.627c1.65-0.48,2.869-1.515,3.279-3.297
			c0.459-1.994-0.256-3.616-2.05-4.603c-1.1-0.605-2.298-0.944-3.497-1.28C87.292,28.951,87.208,28.906,87.121,28.87z"/>
		<path fill="#47C3F1" d="M175.864,16.089c0.783-0.116,0.878-0.723,0.943-1.34c0.022-0.208,0.004-0.42,0.005-0.63
			c2.843,0.34,4.815,1.831,5.881,4.49c0.51,1.273,0.786,2.61,0.792,3.978c0.025,5.658,0.023,11.316,0.025,16.975
			c0,0.795-0.42,1.257-1.103,1.259c-0.693,0.003-1.112-0.48-1.113-1.312c-0.003-5.045-0.002-10.089-0.003-15.134
			c0-1.654-0.111-3.295-0.689-4.865c-0.746-2.027-2.251-3.07-4.356-3.324C176.117,16.171,175.992,16.122,175.864,16.089z"/>
		<path fill="#A4D5ED" d="M62.953,13.986c-0.657,0.001-1.313,0.002-1.97,0.003C61.639,13.826,62.296,13.826,62.953,13.986z"/>
		<path fill="#68B9E0" d="M50.495,25.846c0.008,0.47,0.09,0.944-0.079,1.403C50.395,26.779,50.334,26.306,50.495,25.846z"/>
		<path fill="#68B9E0" d="M50.416,27.588c0.17,0.46,0.087,0.934,0.079,1.404C50.334,28.532,50.396,28.059,50.416,27.588z"/>
		<path fill="#FEFEFE" d="M17.936,27.267c0.741-0.143,1.412-0.47,2.067-0.822c0.277-0.149,0.485-0.109,0.742,0.029
			c1.117,0.602,2.296,1.044,3.552,1.246c0.401,0.065,0.459,0.259,0.446,0.622c-0.143,4.208-3.072,8.057-7.244,9.485
			c-0.503,0.172-1.019,0.306-1.53,0.457c-0.422,0.05-0.844,0.099-1.266,0.149c-0.186,0.066-0.379,0.035-0.569,0.035
			C10.79,38.471,7.445,38.471,4.1,38.468c-0.188,0-0.383,0.046-0.563-0.052c-0.006-5-0.012-9.999-0.017-14.999
			c0-0.337,0-0.674,0-1.161c0.793,1.071,1.559,1.966,2.49,2.699c3.504,2.76,7.414,3.559,11.723,2.406
			C17.805,27.343,17.869,27.299,17.936,27.267z"/>
		<path fill="#FEFEFE" d="M19.494,4.599c-1.697,1.197-3.017,2.601-3.944,4.334c-2.129,3.979-2.202,8.013-0.209,12.066
			c0.173,0.353,0.176,0.606-0.01,0.948c-0.571,1.048-0.97,2.169-1.179,3.344c-0.07,0.392-0.233,0.448-0.573,0.425
			C7.863,25.335,3.571,20.809,3.527,15.071C3.502,11.734,3.524,8.396,3.517,5.059C3.516,4.737,3.523,4.542,3.958,4.543
			c5.083,0.016,10.166,0.01,15.248,0.011C19.259,4.554,19.312,4.57,19.494,4.599z"/>
		<path fill="#FEFEFE" d="M23.455,5.021c1.117-0.265,2.235-0.484,3.397-0.474c5.361,0.045,9.928,4.234,10.444,9.573
			c0.177,1.837-0.116,3.578-0.824,5.278c-0.256-0.049-0.348-0.255-0.483-0.395c-4.011-4.153-9.998-5.179-15.141-2.567
			c-0.326,0.165-0.566,0.104-0.846-0.011c-1.079-0.648-2.265-1.015-3.489-1.233c-0.454-0.081-0.448-0.302-0.419-0.625
			c0.364-3.975,2.251-6.959,5.791-8.853C22.388,5.444,22.931,5.25,23.455,5.021z"/>
		<path fill="#FEFEFE" d="M20.117,19.417c0.225-0.163,0.415-0.174,0.651,0.028c0.611,0.525,1.183,1.082,1.695,1.706
			c0.162,0.198,0.177,0.331,0.006,0.535c-0.556,0.661-1.16,1.267-1.832,1.811c-0.21,0.17-0.35,0.158-0.536-0.014
			c-0.406-0.376-0.824-0.738-1.237-1.105c-0.735-1.003-0.739-1.007,0.176-1.937C19.387,20.088,19.757,19.758,20.117,19.417z"/>
		<path fill="#FAFCFD" d="M18.32,17.988c-0.454,0.478-0.88,0.927-1.337,1.407c-0.314-0.627-0.493-1.278-0.662-2.013
			C17.07,17.473,17.714,17.742,18.32,17.988z"/>
		<path fill="#F9FBFD" d="M18.234,24.933c-0.611,0.182-1.205,0.433-1.889,0.531c0.099-0.616,0.309-1.141,0.505-1.672
			c0.115-0.313,0.229-0.209,0.388-0.043c0.211,0.219,0.437,0.423,0.657,0.634C18.128,24.491,18.421,24.564,18.234,24.933z"/>
		<path fill="#118BCA" d="M3.538,38.416c3.722,0.006,7.444,0.011,11.165,0.017c-0.161,0.152-0.362,0.095-0.546,0.095
			c-3.361,0.003-6.721,0.003-10.082,0C3.892,38.528,3.687,38.592,3.538,38.416z"/>
		<path fill="#118BCA" d="M18.234,24.933c0.076-0.3-0.278-0.335-0.34-0.551C18.303,24.384,18.589,24.461,18.234,24.933z"/>
		<path fill="#FEFEFE" d="M21.27,38.384c2.752-1.939,4.511-4.445,5.288-7.608c0.762-3.103,0.373-6.085-1.083-8.923
			c-0.156-0.304-0.178-0.532-0.009-0.84c0.584-1.063,0.998-2.196,1.208-3.392c0.066-0.377,0.241-0.442,0.584-0.43
			c4.805,0.169,9.14,3.99,9.899,8.74c0.993,6.217-3.071,11.704-9.361,12.416C25.682,38.586,23.519,38.384,21.27,38.384z"/>
		<path fill="#FCFDFD" d="M22.507,24.913c0.458-0.488,0.885-0.944,1.337-1.426c0.292,0.562,0.442,1.145,0.612,1.721
			c0.107,0.362-0.097,0.343-0.328,0.275C23.564,25.318,22.996,25.166,22.507,24.913z"/>
		<path fill="#FBFCFD" d="M22.579,18.032c0.496-0.284,1.07-0.414,1.635-0.566c0.25-0.067,0.289,0.045,0.221,0.276
			c-0.16,0.543-0.316,1.086-0.582,1.609C23.423,18.906,23.007,18.475,22.579,18.032z"/>
		<path fill="#FEFEFE" d="M52.912,25.852c0.08-1.465,0.359-2.888,0.923-4.245c1.241-2.987,3.377-4.9,6.647-5.334
			c2.683-0.356,5.213,0.04,7.326,1.904c1.66,1.465,2.572,3.366,2.986,5.508c0.58,2.998,0.562,5.991-0.35,8.926
			c-1.381,4.442-4.807,6.321-9.193,6.089c-1.701-0.09-3.278-0.516-4.647-1.524c-1.816-1.338-2.795-3.235-3.309-5.383
			c-0.214-0.894-0.324-1.814-0.468-2.724c-0.016-0.099,0.06-0.211,0.093-0.318C52.838,27.785,52.855,26.819,52.912,25.852z"/>
		<path fill="#A1D3EB" d="M52.912,25.852c0.003,0.966,0.005,1.933,0.008,2.899C52.728,27.785,52.757,26.819,52.912,25.852z"/>
		<path fill="#FEFEFE" d="M132.941,16.17c0.222,0.013,0.443,0.026,0.665,0.04c0.406,0.098,0.817,0.183,1.219,0.297
			c2.926,0.831,4.763,2.835,5.654,5.634c1.214,3.813,1.203,7.679-0.281,11.427c-1.252,3.162-3.703,4.809-7.092,5.099
			c-1.511,0.13-2.976-0.037-4.42-0.471c-3.464-1.388-4.958-4.212-5.5-7.673c-0.421-2.692-0.38-5.39,0.445-8.013
			c0.999-3.178,2.977-5.395,6.346-6.143c0.41-0.091,0.831-0.13,1.247-0.193C131.796,16.112,132.369,16.121,132.941,16.17z"/>
		<path fill="#39B5E7" d="M132.941,16.17c-0.572,0.001-1.145,0.003-1.717,0.004C131.796,16.013,132.369,16.019,132.941,16.17z"/>
	</g>
	<g id="_x3C_Group_x3E__xA0_Image_1_">
		<path fill="#FEFEFE" d="M178.194,52c-1.458,0-2.917,0-4.375,0c0.108-1.319,0.046-2.64,0.056-3.96
			c0.004-0.486,0.074-0.955,0.239-1.409c0.392-1.08,1.591-1.708,2.697-1.412c0.538,0.144,0.9,0.496,1.099,1.01
			c0.167,0.434,0.223,0.887,0.227,1.353C178.151,49.054,178.082,50.528,178.194,52z"/>
		<path fill="#FEFEFE" d="M182.684,52c-1.458,0-2.917,0-4.375,0c0.108-1.319,0.046-2.64,0.056-3.96
			c0.004-0.485,0.074-0.955,0.238-1.409c0.392-1.08,1.59-1.709,2.696-1.413c0.538,0.144,0.901,0.496,1.099,1.009
			c0.167,0.434,0.223,0.887,0.228,1.353C182.642,49.053,182.572,50.528,182.684,52z"/>
		<path fill="#0A1F33" d="M182.684,52c-0.259-0.151-0.246-0.399-0.246-0.652c0.004-1.244,0.002-2.489,0.001-3.733
			c0-0.191,0.005-0.384-0.014-0.574c-0.099-0.994-0.431-1.469-1.149-1.657c-0.865-0.226-1.785,0.106-2.28,0.826
			c-0.338,0.492-0.445,1.051-0.448,1.634c-0.005,1.168-0.003,2.336-0.002,3.504c0,0.249,0.033,0.506-0.239,0.653
			c-0.038,0-0.077,0-0.115,0c-0.259-0.151-0.246-0.399-0.246-0.653c0.004-1.245,0.002-2.49,0.001-3.734
			c0-0.191,0.005-0.384-0.014-0.574c-0.101-1.014-0.456-1.502-1.205-1.673c-0.921-0.21-1.871,0.188-2.32,0.985
			c-0.259,0.461-0.351,0.967-0.351,1.491c-0.002,1.168-0.002,2.336-0.001,3.505c0,0.249,0.033,0.506-0.239,0.653
			c-0.038,0-0.077,0-0.115,0c-0.229-0.138-0.247-0.354-0.247-0.595c0.006-2.031,0.002-4.063,0.005-6.094
			c0-0.222-0.054-0.52,0.277-0.528c0.378-0.009,0.303,0.313,0.31,0.552c0.005,0.189,0.001,0.378,0.001,0.708
			c0.56-0.908,1.28-1.313,2.232-1.299c0.938,0.013,1.68,0.334,2.08,1.243c0.224-0.011,0.241-0.225,0.342-0.345
			c0.685-0.812,1.931-1.131,2.994-0.756c0.83,0.294,1.32,1.073,1.334,2.207c0.018,1.456,0.002,2.913,0.012,4.369
			c0.002,0.23-0.046,0.411-0.243,0.539C182.761,52,182.723,52,182.684,52z"/>
		<path fill="#0B2034" d="M167.487,52c-0.112-0.183-0.326-0.169-0.491-0.248c-0.859-0.411-1.303-1.137-1.253-2.067
			c0.04-0.739,0.398-1.21,1.166-1.458c0.96-0.309,1.962-0.334,2.955-0.324c0.469,0.005,0.564-0.145,0.555-0.579
			c-0.034-1.608-0.751-2.207-2.351-1.937c-0.597,0.101-1.134,0.322-1.624,0.675c-0.165,0.119-0.377,0.281-0.54,0.021
			c-0.138-0.22,0.021-0.393,0.185-0.542c0.833-0.752,2.81-1.043,3.811-0.554c0.755,0.369,1.086,1.046,1.111,1.819
			c0.053,1.626,0.024,3.254,0.024,4.882c0,0.069-0.059,0.138-0.09,0.208c-0.593,0.194-0.667-0.224-0.739-0.67
			c-0.43,0.493-0.965,0.704-1.567,0.773C168.254,52,167.87,52,167.487,52z"/>
		<path fill="#0B2034" d="M160.464,52c-0.02-0.03-0.033-0.077-0.06-0.088c-2.334-0.922-3.208-3.457-1.946-5.65
			c0.714-1.241,2.194-1.811,3.631-1.397c1.206,0.347,2.008,1.637,1.943,3.068c-0.02,0.454-0.258,0.53-0.634,0.528
			c-1.419-0.008-2.839,0.023-4.257-0.017c-0.517-0.014-0.56,0.189-0.502,0.602c0.276,1.947,2.089,2.927,3.918,2.098
			c0.294-0.133,0.561-0.328,0.845-0.486c0.158-0.088,0.341-0.261,0.491-0.013c0.117,0.194,0.018,0.383-0.143,0.507
			c-0.523,0.403-1.096,0.697-1.77,0.744c-0.459,0.137-0.943-0.056-1.4,0.104C160.54,52,160.502,52,160.464,52z"/>
		<path fill="#0C2135" d="M155.973,52c-0.006-0.018-0.008-0.048-0.02-0.053c-1.521-0.637-1.759-0.992-1.766-2.659
			c-0.004-1.112-0.027-2.224,0.011-3.334c0.015-0.455-0.139-0.57-0.549-0.518c-0.207,0.027-0.421,0.007-0.632-0.001
			c-0.152-0.005-0.256-0.083-0.262-0.244c-0.006-0.162,0.096-0.253,0.245-0.261c0.267-0.015,0.537-0.028,0.804-0.009
			c0.311,0.023,0.399-0.109,0.386-0.402c-0.019-0.421-0.002-0.843-0.005-1.265c-0.001-0.213-0.009-0.425,0.175-0.581
			c0.115,0,0.23,0,0.345,0c0.197,0.576,0.102,1.172,0.09,1.757c-0.008,0.415,0.127,0.525,0.518,0.494
			c0.418-0.033,0.841-0.006,1.263-0.007c0.188,0,0.359,0.041,0.36,0.268c0,0.234-0.173,0.257-0.362,0.256
			c-0.459-0.004-0.919,0.014-1.378-0.006c-0.287-0.013-0.399,0.059-0.395,0.374c0.018,1.301-0.004,2.603,0.013,3.904
			c0.014,1.036,0.43,1.481,1.464,1.631c0.114,0.016,0.227,0.038,0.341,0.044c0.495,0.025,0.543,0.246,0.274,0.611
			C156.587,52,156.28,52,155.973,52z"/>
		<path fill="#102538" d="M151.023,51.079c0.318-0.253,0.677-0.459,0.988-0.056c0.316,0.408,0.057,0.728-0.297,0.977
			C151.023,52,151.023,52,151.023,51.079z"/>
		<path fill="#F9F9F9" d="M168.638,52c0.655-0.231,1.286-0.5,1.655-1.143c0.367,0.284-0.298,1.157,0.652,1.041
			c0,0.034-0.002,0.068-0.004,0.102C170.173,52,169.406,52,168.638,52z"/>
		<path fill="#3B4B5B" d="M160.579,52c0.451-0.252,0.935-0.052,1.4-0.104c-0.013,0.034-0.019,0.068-0.019,0.104
			C161.5,52,161.039,52,160.579,52z"/>
		<path fill="#FEFEFE" d="M170.409,49.022c-0.05,1.618-1.344,2.657-2.814,2.286c-0.66-0.167-1.122-0.697-1.157-1.327
			c-0.039-0.702,0.209-1.094,0.885-1.276c0.912-0.246,1.853-0.241,2.789-0.246C170.596,48.456,170.333,48.84,170.409,49.022z"/>
		<path fill="#FEFEFE" d="M161.031,47.889c-0.69,0-1.38,0-2.07,0c-0.174,0-0.331,0.027-0.316-0.258
			c0.064-1.232,1.122-2.275,2.37-2.31c1.429-0.04,2.362,0.841,2.423,2.26c0.013,0.289-0.117,0.312-0.336,0.31
			C162.411,47.886,161.721,47.889,161.031,47.889z"/>
	</g>
</g>
<rect x="118.229" y="2.314" fill="#FF8023" width="24.779" height="10.457"/>
<g>
	<path fill="#FFFFFF" d="M126.312,7.982c0.209,0.274,0.313,0.617,0.313,1.029c0,0.567-0.195,1.009-0.585,1.324
		c-0.39,0.315-0.933,0.472-1.632,0.472h-2.862V4.213h2.759c0.68,0,1.211,0.151,1.595,0.454c0.383,0.302,0.575,0.725,0.575,1.267
		c0,0.349-0.092,0.652-0.276,0.907c-0.184,0.256-0.441,0.446-0.771,0.57C125.808,7.518,126.103,7.708,126.312,7.982z M122.491,7.066
		h1.665c0.923,0,1.384-0.349,1.384-1.048c0-0.349-0.114-0.608-0.341-0.776c-0.228-0.168-0.575-0.253-1.043-0.253h-1.665V7.066z
		 M125.362,9.769c0.225-0.175,0.337-0.446,0.337-0.814c0-0.374-0.114-0.653-0.341-0.837c-0.228-0.184-0.578-0.276-1.052-0.276
		h-1.814v2.188h1.814C124.785,10.03,125.137,9.943,125.362,9.769z"/>
	<path fill="#FFFFFF" d="M131.684,8.684h-3.227c0.068,0.967,0.548,1.45,1.44,1.45c0.524,0,0.997-0.171,1.421-0.514l0.29,0.664
		c-0.212,0.181-0.474,0.324-0.786,0.43c-0.311,0.106-0.629,0.159-0.954,0.159c-0.729,0-1.304-0.209-1.725-0.626
		c-0.421-0.418-0.631-0.995-0.631-1.73c0-0.468,0.092-0.882,0.276-1.244c0.184-0.361,0.443-0.642,0.776-0.842
		c0.333-0.199,0.712-0.299,1.136-0.299c0.617,0,1.102,0.2,1.454,0.599c0.352,0.399,0.529,0.951,0.529,1.655V8.684z M128.855,7.164
		c-0.215,0.228-0.345,0.553-0.388,0.978h2.404c-0.019-0.424-0.126-0.75-0.323-0.978s-0.472-0.341-0.828-0.341
		C129.358,6.822,129.07,6.936,128.855,7.164z"/>
	<path fill="#FFFFFF" d="M135.258,10.115l-0.047,0.72c-0.156,0.025-0.318,0.037-0.486,0.037c-0.593,0-1.034-0.145-1.324-0.435
		c-0.29-0.29-0.435-0.709-0.435-1.258V6.972h-0.888V6.243h0.888V4.868h0.945v1.375h1.253v0.729h-1.253v2.17
		c0,0.667,0.308,1.001,0.926,1.001C134.98,10.143,135.12,10.133,135.258,10.115z"/>
	<path fill="#FFFFFF" d="M139.247,6.589c0.296,0.306,0.444,0.77,0.444,1.394v2.825h-0.907v-0.758
		c-0.119,0.268-0.295,0.472-0.529,0.613c-0.234,0.14-0.507,0.21-0.818,0.21c-0.299,0-0.574-0.061-0.823-0.182
		c-0.249-0.122-0.444-0.292-0.585-0.51c-0.14-0.218-0.21-0.461-0.21-0.729c0-0.331,0.086-0.591,0.257-0.781
		c0.171-0.19,0.455-0.326,0.851-0.407c0.396-0.081,0.94-0.121,1.632-0.121h0.215V7.87c0-0.349-0.073-0.602-0.22-0.758
		c-0.147-0.156-0.385-0.234-0.716-0.234c-0.517,0-1.035,0.159-1.553,0.477l-0.28-0.664c0.243-0.168,0.538-0.304,0.884-0.407
		c0.346-0.103,0.678-0.154,0.996-0.154C138.496,6.13,138.95,6.283,139.247,6.589z M138.447,9.82
		c0.218-0.234,0.327-0.535,0.327-0.903V8.674h-0.168c-0.487,0-0.861,0.022-1.123,0.065c-0.262,0.044-0.449,0.117-0.561,0.22
		c-0.112,0.103-0.168,0.251-0.168,0.444c0,0.218,0.079,0.401,0.238,0.547c0.159,0.147,0.363,0.22,0.613,0.22
		C137.948,10.171,138.228,10.054,138.447,9.82z"/>
</g>
</svg>
