<?xml version="1.0" encoding="utf-8"?>
<!-- Generator: Adobe Illustrator 17.0.0, SVG Export Plug-In . SVG Version: 6.00 Build 0)  -->
<!DOCTYPE svg PUBLIC "-//W3C//DTD SVG 1.1//EN" "http://www.w3.org/Graphics/SVG/1.1/DTD/svg11.dtd">
<svg version="1.1" id="Layer_1" xmlns="http://www.w3.org/2000/svg" xmlns:xlink="http://www.w3.org/1999/xlink" x="0px" y="0px"
	 width="50px" height="50px" viewBox="15 15 50 50" enable-background="new 15 15 50 50" xml:space="preserve">
<g id="Layer_1_1_">
</g>
<g id="Layer_2">
</g>
<g id="Layer_3">
	<g id="XMLID_4725_">
		<circle id="XMLID_4728_" fill="#0C81C3" cx="23.158" cy="43.102" r="8.059"/>
		<path id="XMLID_4727_" fill="#5FC5BB" d="M62.554,39.758L62.554,39.758c3.129,3.129,3.129,8.231,0,11.403L51.151,62.564
			c-3.129,3.129-8.231,3.129-11.403,0l0,0c-3.129-3.129-3.129-8.231,0-11.403l11.403-11.403
			C54.323,36.629,59.425,36.629,62.554,39.758z"/>
		<path id="XMLID_4726_" fill="#4EC6F2" d="M47.679,17.852l3.344,12.518c0.729,2.786-1.8,5.316-4.544,4.544L33.961,31.57
			c-2.786-0.729-3.687-4.201-1.672-6.216l9.174-9.174C43.478,14.165,46.95,15.066,47.679,17.852z"/>
	</g>
</g>
<g id="Layer_4">
</g>
</svg>
