<?xml version="1.0" encoding="utf-8"?>
<!-- Generator: Adobe Illustrator 17.0.0, SVG Export Plug-In . SVG Version: 6.00 Build 0)  -->
<!DOCTYPE svg PUBLIC "-//W3C//DTD SVG 1.1//EN" "http://www.w3.org/Graphics/SVG/1.1/DTD/svg11.dtd">
<svg version="1.1" id="Layer_1" xmlns="http://www.w3.org/2000/svg" xmlns:xlink="http://www.w3.org/1999/xlink" x="0px" y="0px"
	 width="50px" height="50px" viewBox="15 15 50 50" enable-background="new 15 15 50 50" xml:space="preserve">
<g id="Layer_1_1_">
</g>
<g id="Layer_2">
</g>
<g id="Layer_3">
	<g id="XMLID_4628_">
		<circle id="XMLID_4640_" fill="#4EC6F2" cx="34.291" cy="49.077" r="9.502"/>
		<circle id="XMLID_4639_" fill="#0C81C3" cx="31.599" cy="49.648" r="1.754"/>
		<circle id="XMLID_4638_" fill="#0C81C3" cx="36.941" cy="49.648" r="1.754"/>
		<path id="XMLID_4637_" fill="#0C81C3" d="M34.291,63.106l-2.528,1.346c-0.897,0.449-1.917-0.285-1.754-1.264l0.489-2.814
			l-2.039-1.998c-0.693-0.693-0.326-1.917,0.652-2.039l2.855-0.408l1.264-2.569c0.449-0.897,1.713-0.897,2.161,0l1.264,2.569
			l2.855,0.408c0.979,0.122,1.387,1.346,0.652,2.039l-2.039,1.998l0.489,2.814c0.163,0.979-0.856,1.713-1.754,1.264L34.291,63.106z"
			/>
		<circle id="XMLID_4636_" fill="#5FC5BB" cx="51.011" cy="34.233" r="9.502"/>
		<circle id="XMLID_4635_" fill="#0C81C3" cx="53.335" cy="35.701" r="1.754"/>
		<circle id="XMLID_4634_" fill="#0C81C3" cx="49.543" cy="31.95" r="1.754"/>
		<path id="XMLID_4633_" fill="#0C81C3" d="M60.92,24.324l2.732,0.856c0.938,0.285,1.142,1.55,0.326,2.121l-2.324,1.672l0.041,2.855
			c0,0.979-1.101,1.55-1.917,0.979l-2.284-1.713l-2.732,0.938c-0.938,0.326-1.835-0.571-1.509-1.509l0.938-2.732l-1.713-2.284
			c-0.612-0.775,0-1.917,0.979-1.917l2.855,0.041l1.672-2.324c0.571-0.816,1.835-0.612,2.121,0.326L60.92,24.324z"/>
		<circle id="XMLID_4632_" fill="#4EC6F2" cx="28.989" cy="28.891" r="9.502"/>
		<circle id="XMLID_4631_" fill="#0C81C3" cx="30.457" cy="26.607" r="1.754"/>
		<circle id="XMLID_4630_" fill="#0C81C3" cx="26.665" cy="30.359" r="1.754"/>
		<path id="XMLID_4629_" fill="#0C81C3" d="M19.08,18.981l0.856-2.732c0.285-0.938,1.55-1.142,2.121-0.326l1.672,2.324l2.855-0.041
			c0.979,0,1.55,1.101,0.979,1.917l-1.754,2.324l0.938,2.732c0.326,0.938-0.571,1.835-1.509,1.509l-2.732-0.938l-2.284,1.713
			c-0.775,0.612-1.917,0-1.917-0.979l0.041-2.855l-2.324-1.672c-0.816-0.571-0.612-1.835,0.326-2.121L19.08,18.981z"/>
	</g>
</g>
<g id="Layer_4">
</g>
</svg>
