<?xml version="1.0" encoding="utf-8"?>
<!-- Generator: Adobe Illustrator 17.0.0, SVG Export Plug-In . SVG Version: 6.00 Build 0)  -->
<!DOCTYPE svg PUBLIC "-//W3C//DTD SVG 1.1//EN" "http://www.w3.org/Graphics/SVG/1.1/DTD/svg11.dtd">
<svg version="1.1" id="Layer_1" xmlns="http://www.w3.org/2000/svg" xmlns:xlink="http://www.w3.org/1999/xlink" x="0px" y="0px"
	 width="50px" height="50px" viewBox="15 14.75 50 50" enable-background="new 15 14.75 50 50" xml:space="preserve">
<g id="Layer_1_1_">
</g>
<g id="Layer_2">
</g>
<g id="Layer_3">
	<g id="XMLID_4695_">
		<path id="XMLID_4724_" fill="#4EC6F2" d="M53.44,39.25c-4.2,1.8-7.6,5.16-9.4,9.4c-1.8-4.2-5.16-7.6-9.4-9.4
			c4.2-1.8,7.6-5.16,9.4-9.4C45.84,34.09,49.24,37.49,53.44,39.25z"/>
		<path id="XMLID_4723_" fill="#4EC6F2" d="M60.24,39.65c-1.04,0.44-1.88,1.28-2.36,2.36c-0.44-1.04-1.28-1.92-2.36-2.36
			c1.04-0.44,1.92-1.28,2.36-2.36C58.32,38.37,59.16,39.21,60.24,39.65z"/>
		<path id="XMLID_4722_" fill="#4EC6F2" d="M58.6,30.29c-2.12,0.88-3.8,2.6-4.68,4.68c-0.88-2.12-2.6-3.8-4.68-4.68
			c2.12-0.88,3.8-2.6,4.68-4.68C54.8,27.69,56.52,29.37,58.6,30.29z"/>
		<g id="XMLID_4711_">
			<g id="XMLID_4720_">
				<path id="XMLID_4721_" fill="#0C81C3" d="M38.68,23.77c-0.28,0-0.52-0.08-0.72-0.28c-0.16-0.2-0.28-0.44-0.28-0.72
					c0-0.24,0.12-0.52,0.28-0.68c0.36-0.36,1.04-0.36,1.44,0c0.16,0.2,0.28,0.44,0.28,0.68c0,0.28-0.12,0.52-0.28,0.72
					C39.2,23.65,38.92,23.77,38.68,23.77z"/>
			</g>
			<g id="XMLID_4718_">
				<path id="XMLID_4719_" fill="#0C81C3" d="M40.36,22.77c0-0.56,0.44-1,1-1l0,0c0.56,0,1,0.44,1,1l0,0c0,0.56-0.44,1-1,1l0,0
					C40.8,23.77,40.36,23.29,40.36,22.77z"/>
			</g>
			<g id="XMLID_4716_">
				<path id="XMLID_4717_" fill="#0C81C3" d="M44.04,23.77c-0.24,0-0.52-0.08-0.72-0.28c-0.2-0.2-0.28-0.44-0.28-0.72
					c0-0.24,0.12-0.52,0.28-0.68c0.36-0.36,1.04-0.36,1.4,0c0.16,0.2,0.28,0.44,0.28,0.68c0,0.28-0.12,0.52-0.28,0.72
					C44.56,23.65,44.32,23.77,44.04,23.77z"/>
			</g>
			<g id="XMLID_4714_">
				<path id="XMLID_4715_" fill="#0C81C3" d="M43.04,25.57c0-0.56,0.44-1,1-1l0,0c0.56,0,1,0.44,1,1l0,0c0,0.56-0.44,1-1,1l0,0
					C43.52,26.57,43.04,26.13,43.04,25.57z"/>
			</g>
			<g id="XMLID_4712_">
				<path id="XMLID_4713_" fill="#0C81C3" d="M44.04,29.41c-0.24,0-0.52-0.12-0.72-0.28c-0.16-0.2-0.28-0.44-0.28-0.72
					c0-0.28,0.12-0.52,0.28-0.72c0.36-0.36,1.04-0.36,1.4,0c0.16,0.2,0.28,0.44,0.28,0.72c0,0.28-0.12,0.52-0.28,0.72
					C44.56,29.29,44.32,29.41,44.04,29.41z"/>
			</g>
		</g>
		<g id="XMLID_4700_">
			<g id="XMLID_4709_">
				<path id="XMLID_4710_" fill="#0C81C3" d="M38.68,57.29c-0.28,0-0.52-0.08-0.72-0.28c-0.16-0.2-0.28-0.44-0.28-0.72
					c0-0.24,0.12-0.52,0.28-0.72c0.4-0.36,1.04-0.36,1.44,0c0.16,0.2,0.28,0.44,0.28,0.72s-0.12,0.52-0.28,0.72
					C39.2,57.17,38.92,57.29,38.68,57.29z"/>
			</g>
			<g id="XMLID_4707_">
				<path id="XMLID_4708_" fill="#0C81C3" d="M40.36,56.29c0-0.56,0.44-1,1-1l0,0c0.56,0,1,0.44,1,1l0,0c0,0.56-0.44,1-1,1l0,0
					C40.8,57.29,40.36,56.81,40.36,56.29z"/>
			</g>
			<g id="XMLID_4705_">
				<path id="XMLID_4706_" fill="#0C81C3" d="M44.04,57.29c-0.24,0-0.52-0.08-0.72-0.28c-0.16-0.2-0.28-0.44-0.28-0.72
					c0-0.24,0.12-0.52,0.28-0.72c0.36-0.36,1.04-0.36,1.4,0c0.16,0.2,0.28,0.44,0.28,0.72s-0.12,0.52-0.28,0.72
					C44.56,57.17,44.32,57.29,44.04,57.29z"/>
			</g>
			<g id="XMLID_4703_">
				<path id="XMLID_4704_" fill="#0C81C3" d="M43.04,53.49c0-0.56,0.44-1,1-1l0,0c0.56,0,1,0.44,1,1l0,0c0,0.56-0.44,1-1,1l0,0
					C43.52,54.49,43.04,54.01,43.04,53.49z"/>
			</g>
			<g id="XMLID_4701_">
				<path id="XMLID_4702_" fill="#0C81C3" d="M44.04,51.65c-0.24,0-0.52-0.12-0.72-0.28c-0.16-0.2-0.28-0.44-0.28-0.72
					c0-0.24,0.12-0.52,0.28-0.72c0.36-0.36,1.04-0.36,1.4,0c0.16,0.2,0.28,0.44,0.28,0.72c0,0.28-0.12,0.52-0.28,0.72
					C44.56,51.53,44.32,51.65,44.04,51.65z"/>
			</g>
		</g>
		<g id="XMLID_4698_">
			<path id="XMLID_4699_" fill="#0C81C3" d="M37.2,19.25v8.88c0,2.36-1.92,4.28-4.28,4.28h-8.88c-2.36,0-4.28-1.92-4.28-4.28v-8.88
				c0-2.36,1.92-4.28,4.28-4.28h8.88C35.32,14.97,37.2,16.89,37.2,19.25z"/>
		</g>
		<g id="XMLID_4696_">
			<path id="XMLID_4697_" fill="#5FC5BB" d="M37.2,55.81c0,4.8-3.92,8.72-8.72,8.72s-8.72-3.92-8.72-8.72s3.92-8.72,8.72-8.72
				C33.32,47.09,37.2,51.01,37.2,55.81z"/>
		</g>
	</g>
</g>
<g id="Layer_4">
</g>
</svg>
