<?xml version="1.0" encoding="utf-8"?>
<!-- Generator: Adobe Illustrator 17.0.0, SVG Export Plug-In . SVG Version: 6.00 Build 0)  -->
<!DOCTYPE svg PUBLIC "-//W3C//DTD SVG 1.1//EN" "http://www.w3.org/Graphics/SVG/1.1/DTD/svg11.dtd">
<svg version="1.1" id="Layer_1" xmlns="http://www.w3.org/2000/svg" xmlns:xlink="http://www.w3.org/1999/xlink" x="0px" y="0px"
	 width="490.475px" height="323.984px" viewBox="0 0 490.475 323.984" enable-background="new 0 0 490.475 323.984"
	 xml:space="preserve">
<g id="XMLID_217_">
	<g id="XMLID_1109_">
		<g id="XMLID_1110_">
			<path id="XMLID_1112_" fill="#96D1A9" d="M431.321,157.493c3.816-2.369,4.008-6.039,4.665-10.398
				c0.656-4.359,3.06-5.093,6.174-4.88c2.547,0.174,5.244-1.12,7.607-2.448c4.641-2.61,7.514-1.11,8.292,0.436
				c1.653,3.287-2.807,4.679-3.448,8.095c-0.641,3.416,3.561,3.794,2.515,7.183c-1.046,3.389-4.072,2.978-7.765,6.372
				c-3.693,3.394,1.417,7.544-3.367,12c-4.783,4.456-13.527,2.114-13.527,2.114C422.388,168.422,426.177,160.685,431.321,157.493z"
				/>
			<path id="XMLID_1111_" fill="none" stroke="#485CAA" stroke-width="0.8325" stroke-linecap="round" stroke-miterlimit="10" d="
				M432.466,175.966c4.536-17.543,14.277-29.483,22.184-35.27"/>
		</g>
	</g>
	<path id="XMLID_2_" fill="#E6F6FD" d="M333.702,101.698c22.464,12.969,19.646,35.623-6.292,50.599
		c-25.939,14.976-65.176,16.602-87.64,3.633c-22.464-12.969-19.646-35.623,6.292-50.599S311.238,88.729,333.702,101.698z"/>
	<g id="XMLID_21_">
		<g id="XMLID_87_">
			<path id="XMLID_1119_" fill="#0C81C3" d="M211.457,207.172l7.405-3.984c1.739-1.004,2.982-2.869,2.982-5.164V62.368
				c0-5.326-2.841-10.248-7.454-12.911l-56.293-32.501c-1.988-1.148-4.224-1.004-5.963,0l-7.583,4.122L211.457,207.172z"/>
			<path id="XMLID_1118_" fill="#E9EEF8" d="M163.691,36.912v0.296c0,2.101,1.121,4.043,2.941,5.093l23.093,13.333
				c1.12,0.647,2.521-0.162,2.521-1.455v-1.267c0-1.294,1.4-2.102,2.52-1.455l10.178,5.876c3.459,1.997,5.59,5.688,5.59,9.683
				v134.81c0,1.94-2.1,3.153-3.781,2.183l-55.76-32.193c-3.459-1.997-5.59-5.688-5.59-9.683V27.323c0-1.94,2.1-3.153,3.781-2.183
				l11.567,6.678C162.57,32.869,163.691,34.811,163.691,36.912z"/>
			<path id="XMLID_129_" fill="#4EC6F2" d="M141.622,26.251v135.656c0,5.326,2.841,10.248,7.454,12.911l56.293,32.501
				c3.975,2.295,8.945-0.574,8.945-5.164V66.498c0-5.326-2.841-10.248-7.454-12.911l-56.293-32.501
				C146.591,18.791,141.622,21.66,141.622,26.251z M145.402,27.323c0-1.94,2.1-3.153,3.781-2.183l11.567,6.678
				c1.82,1.051,2.941,2.992,2.941,5.093v0.296c0,2.101,1.121,4.043,2.941,5.093l23.093,13.333c1.12,0.647,2.521-0.162,2.521-1.455
				v-1.267c0-1.294,1.4-2.102,2.52-1.455l10.178,5.876c3.459,1.997,5.59,5.688,5.59,9.683v134.81c0,1.94-2.1,3.153-3.781,2.183
				l-55.76-32.193c-3.459-1.997-5.59-5.688-5.59-9.683V27.323z"/>
			<g id="XMLID_89_">
				<path id="XMLID_128_" fill="#1D1F57" d="M172.316,40.399c0,0.805-0.653,1.081-1.458,0.616s-1.458-1.495-1.458-2.3
					s0.653-1.081,1.458-0.616S172.316,39.594,172.316,40.399z"/>
				<path id="XMLID_91_" fill="#1D1F57" d="M175.445,40.748c-0.805-0.465-1.458-0.189-1.458,0.616c0,0.805,0.653,1.835,1.458,2.3
					l9.632,5.561c0.805,0.465,1.458,0.189,1.458-0.616s-0.653-1.835-1.458-2.3L175.445,40.748z"/>
			</g>
		</g>
		<g id="XMLID_1190_">
			<path id="XMLID_1196_" fill="#FFFEF9" d="M134.34,61.633V42.374c0-0.93,0.754-1.248,1.683-0.711l58.024,33.5
				c0.93,0.537,1.683,1.725,1.683,2.655v19.259c0,0.93-0.753,1.248-1.683,0.711l-58.024-33.5
				C135.094,63.751,134.34,62.563,134.34,61.633z"/>
			<path id="XMLID_1195_" fill="#FFFEF9" d="M192.207,85.413c0,4.665-3.782,6.263-8.447,3.57c-4.665-2.693-8.447-8.658-8.447-13.323
				s3.782-6.263,8.447-3.57C188.425,74.783,192.207,80.748,192.207,85.413z"/>
			<path id="XMLID_1194_" fill="#5FC5BB" d="M153.524,59.874v-1.949c0-0.465,0.377-0.624,0.842-0.356l17.185,9.922
				c0.465,0.268,0.842,0.863,0.842,1.327v1.949c0,0.465-0.377,0.624-0.842,0.356l-17.185-9.922
				C153.901,60.933,153.524,60.338,153.524,59.874z"/>
			<path id="XMLID_1193_" fill="#6A88C5" d="M139.499,55.944v0.173c0,0.155,0.125,0.353,0.28,0.442l32.332,18.667
				c0.155,0.089,0.28,0.036,0.28-0.118v-0.173c0-0.155-0.125-0.353-0.28-0.442l-32.332-18.667
				C139.624,55.736,139.499,55.789,139.499,55.944z"/>
			<path id="XMLID_1192_" fill="#6A88C5" d="M139.499,58.976v0.173c0,0.155,0.125,0.353,0.28,0.442l32.332,18.667
				c0.155,0.089,0.28,0.036,0.28-0.118v-0.173c0-0.155-0.125-0.353-0.28-0.442l-32.332-18.667
				C139.624,58.768,139.499,58.821,139.499,58.976z"/>
			<path id="XMLID_1191_" fill="#6A88C5" d="M139.499,62.008v0.173c0,0.155,0.125,0.353,0.28,0.442l32.332,18.667
				c0.155,0.089,0.28,0.036,0.28-0.118v-0.173c0-0.155-0.125-0.353-0.28-0.442L139.779,61.89
				C139.624,61.8,139.499,61.853,139.499,62.008z"/>
		</g>
		<g id="XMLID_22_">
			<g id="XMLID_1189_">
				<path id="SVGID_10_" fill="#E6F6FD" d="M192.207,85.413c0,4.665-3.782,6.263-8.447,3.57c-4.665-2.693-8.447-8.658-8.447-13.323
					c0-4.665,3.782-6.263,8.447-3.57S192.207,80.748,192.207,85.413z"/>
			</g>
			<g id="XMLID_23_">
				<defs>
					<path id="XMLID_1188_" d="M192.207,85.413c0,4.665-3.782,6.263-8.447,3.57c-4.665-2.693-8.447-8.658-8.447-13.323
						c0-4.665,3.782-6.263,8.447-3.57S192.207,80.748,192.207,85.413z"/>
				</defs>
				<clipPath id="XMLID_179_">
					<use xlink:href="#XMLID_1188_"  overflow="visible"/>
				</clipPath>
				<g id="XMLID_25_" clip-path="url(#XMLID_179_)">
					<g id="XMLID_1113_">
						<g id="XMLID_1184_">
							<g id="XMLID_1185_">
								<path id="XMLID_1187_" fill="#0D1F44" d="M186.578,79.859v8.558l-6.609-3.816v-8.558c0-1.825,1.48-2.45,3.305-1.396l0,0
									C185.099,75.7,186.578,78.034,186.578,79.859z"/>
								<path id="XMLID_1186_" fill="#0D1F44" d="M184.691,87.621V76.969l0.301,0.174c1.429,0.825,2.587,2.652,2.587,4.08v8.066
									L184.691,87.621L184.691,87.621z"/>
							</g>
						</g>
						<g id="XMLID_1180_">
							<path id="XMLID_1183_" fill="#F6998E" d="M186.4,83.24c0,0,0.256,0.44,0.819,0.523c0.587,0.086,0.756-0.688,0.413-1.27
								c-0.342-0.581-0.917-0.639-0.917-0.639L186.4,83.24z"/>
							<path id="XMLID_1182_" fill="#BB5965" d="M187.61,82.944c0.003,0.012-0.008,0.023-0.015,0.003
								c-0.138-0.361-0.439-0.506-0.681-0.54c-0.043-0.006-0.125-0.124-0.082-0.138c0.117-0.038,0.335,0.068,0.484,0.197
								C187.475,82.606,187.57,82.764,187.61,82.944z"/>
							<path id="XMLID_1181_" fill="#BB5965" d="M187.437,83.17c-0.037,0.168-0.262,0.268-0.474,0.105
								c-0.007-0.005-0.001-0.014,0.004-0.013c0.237,0.068,0.365-0.043,0.372-0.287c0.003-0.106-0.017-0.196-0.074-0.319
								c-0.034-0.071-0.1-0.152-0.141-0.193c-0.007-0.022,0.052-0.06,0.08-0.033C187.448,82.672,187.479,82.984,187.437,83.17z"/>
						</g>
						<g id="XMLID_1135_">
							<path id="XMLID_1179_" fill="#F6998E" d="M181.128,80.197c0,0-0.256,0.144-0.819-0.423c-0.587-0.592-0.756-1.561-0.413-1.747
								c0.342-0.186,0.917,0.396,0.917,0.396L181.128,80.197z"/>
							<path id="XMLID_1178_" fill="#BB5965" d="M179.918,78.503c-0.003,0.009,0.008,0.031,0.015,0.02
								c0.138-0.202,0.439,0.002,0.681,0.247c0.043,0.043,0.125,0.02,0.082-0.044c-0.117-0.174-0.335-0.319-0.484-0.361
								C180.053,78.321,179.958,78.369,179.918,78.503z"/>
							<path id="XMLID_1177_" fill="#BB5965" d="M180.091,78.928c0.038,0.211,0.262,0.571,0.474,0.653
								c0.007,0.003,0.001-0.014-0.004-0.018c-0.237-0.206-0.365-0.465-0.372-0.716c-0.003-0.109,0.017-0.177,0.074-0.233
								c0.034-0.033,0.1-0.036,0.141-0.029c0.007-0.015-0.052-0.12-0.08-0.125C180.08,78.418,180.049,78.694,180.091,78.928z"/>
						</g>
						<g id="XMLID_1132_">
							<path id="XMLID_1134_" fill="#F6998E" d="M177.892,85.595c0-1.298,0.206-1.954,0.886-1.783
								c0.31,0.078,2.168,0.571,2.753,0.735c0.585,0.164,0.745-0.093,0.745-0.393c0-0.3,0-1.328,0-1.328l2.968,1.714
								c0,0,0,1.027,0,1.328s0.159,0.741,0.745,1.253c0.585,0.512,2.443,2.164,2.753,2.444c0.681,0.614,0.886,1.508,0.886,2.806
								L177.892,85.595z"/>
							<path id="XMLID_1133_" fill="#BB5965" d="M185.244,84.54l-2.968-1.714c0,0,0,0.167,0,0.385
								c0.002,0.005,0.292,1.023,1.484,1.711c1.192,0.688,1.482,0.006,1.484,0.003C185.244,84.707,185.244,84.54,185.244,84.54z"/>
						</g>
						<path id="XMLID_1131_" fill="#F6998E" d="M180.796,77.886c0,0.002,0,0.003,0,0.005c0,0.323,0.018,0.657,0.056,1l0.053,0.48
							c0.041,0.375,0.108,0.763,0.217,1.162c0.429,1.577,1.615,3.156,2.642,3.749c1.027,0.593,2.212,0.383,2.642-0.698
							c0.109-0.274,0.176-0.584,0.217-0.912l0.053-0.418c0.037-0.296,0.056-0.604,0.056-0.923c0-0.004,0-0.007,0-0.011
							c0.001-1.132-0.577-2.545-1.576-3.694c-0.427-0.492-0.905-0.911-1.392-1.192s-0.964-0.413-1.392-0.415
							C181.376,76.014,180.798,76.757,180.796,77.886z"/>
						<g id="XMLID_1128_">
							<path id="XMLID_1130_" fill="#0D1F44" d="M182.737,79.695c0,0.172-0.139,0.23-0.311,0.131
								c-0.172-0.099-0.311-0.319-0.311-0.49s0.139-0.23,0.311-0.131C182.598,79.304,182.737,79.524,182.737,79.695z"/>
							<path id="XMLID_1129_" fill="#0D1F44" d="M182.15,78.324c-0.497-0.165-0.555,0.284-0.555,0.284l1.443,0.463
								C183.038,79.071,182.755,78.524,182.15,78.324z"/>
						</g>
						<g id="XMLID_1125_">
							<path id="XMLID_1127_" fill="#0D1F44" d="M185.405,81.236c0,0.172-0.139,0.23-0.311,0.131
								c-0.172-0.099-0.311-0.319-0.311-0.49s0.139-0.23,0.311-0.131C185.266,80.844,185.405,81.064,185.405,81.236z"/>
							<path id="XMLID_1126_" fill="#0D1F44" d="M185.37,80.182c0.497,0.409,0.555,0.924,0.555,0.924l-1.443-1.203
								C184.482,79.904,184.766,79.685,185.37,80.182z"/>
						</g>
						<g id="XMLID_1121_">
							<g id="XMLID_1122_">
								<path id="XMLID_1124_" fill="#0D1F44" d="M183.765,76.708v-0.382c0,0-1.159-0.719-2.169-0.48
									c-1.01,0.238-0.803,1.712-0.803,1.712C183.148,78.436,183.765,76.708,183.765,76.708L183.765,76.708z"/>
								<path id="XMLID_1123_" fill="#0D1F44" d="M183.764,76.72v-0.382c0,0,1.159,0.62,2.169,2.024
									c1.01,1.404,0.803,2.639,0.803,2.639C184.381,79.16,183.764,76.72,183.764,76.72L183.764,76.72z"/>
							</g>
						</g>
						<g id="XMLID_1114_">
							<path id="XMLID_1120_" fill="#F9BA51" d="M177.892,85.595l11.737,6.776c0-1.298-0.206-2.192-0.886-2.806
								c-0.31-0.28-2.168-1.932-2.753-2.444c-0.147-0.128-0.267-0.253-0.364-0.371c0.015,0.072,0.022,0.143,0.022,0.21
								c0,0.523-0.843,0.462-1.882-0.139c-1.039-0.6-1.882-1.511-1.882-2.035c0-0.071,0.008-0.134,0.024-0.191
								c-0.099,0.008-0.223-0.006-0.376-0.049c-0.585-0.164-2.443-0.657-2.753-0.735C178.097,83.64,177.892,84.297,177.892,85.595z"
								/>
							<path id="XMLID_1117_" fill="#5FC5BB" d="M188.122,89.01l-0.015-0.009v2.491l1.522,0.879c0-1.298-0.206-2.192-0.886-2.806
								C188.649,89.481,188.417,89.273,188.122,89.01L188.122,89.01z"/>
							<path id="XMLID_1116_" fill="#5FC5BB" d="M179.399,83.974l0.015,0.009v2.491l-1.522-0.879c0-1.298,0.206-1.954,0.886-1.783
								C178.871,83.835,179.104,83.896,179.399,83.974L179.399,83.974z"/>
							<path id="XMLID_1115_" fill="#248D7F" d="M185.853,87.079c0-0.001,0-0.035-0.001-0.085c-0.191-0.185-0.328-0.36-0.422-0.52
								c0.006,0.118,0.01,0.298,0.01,0.367c0,0.351-0.688,0.344-1.676-0.226s-1.676-1.358-1.676-1.709
								c0-0.071,0.005-0.253,0.012-0.367c-0.093,0.056-0.229,0.077-0.423,0.042c-0.001,0.052-0.001,0.086-0.001,0.088
								c0,0.648,0.917,1.684,2.089,2.361C184.936,87.704,185.853,87.727,185.853,87.079z"/>
						</g>
					</g>
					<path id="XMLID_85_" fill="#BB5965" d="M183.456,81.549c0.053,0.129,0.209,0.318,0.305,0.362
						c0.095,0.065,0.252,0.058,0.305-0.011c0.128-0.165-0.183-1.742-0.305-1.823C183.639,80.018,183.328,81.237,183.456,81.549z"/>
					<g id="XMLID_32_">
						<path id="XMLID_45_" fill="none" stroke="#0D1F44" stroke-width="0.3653" stroke-linecap="round" stroke-miterlimit="10" d="
							M186.102,78.24c0.308-0.461,1.439,0.195,1.439,0.195"/>
						<path id="XMLID_43_" fill="none" stroke="#0D1F44" stroke-width="0.3653" stroke-linecap="round" stroke-miterlimit="10" d="
							M186.102,78.345c-0.045-1.358,1.264-1.09,1.264-1.09"/>
					</g>
				</g>
			</g>
		</g>
		<g id="XMLID_93_">
			<path id="XMLID_1331_" fill="#89B7E2" d="M194.608,99.577l-58.024-33.5c-0.93-0.537-1.683-1.725-1.683-2.655V44.163
				c0-0.93,0.753-1.248,1.683-0.711l58.024,33.5c0.93,0.537,1.683,1.725,1.683,2.655v19.259
				C196.291,99.796,195.537,100.114,194.608,99.577z"/>
			<g id="XMLID_1324_">
				<path id="XMLID_1330_" fill="#FFFEF9" d="M193.646,97.607l-58.024-33.5c-0.93-0.537-1.683-1.725-1.683-2.655V42.193
					c0-0.93,0.753-1.248,1.683-0.711l58.024,33.5c0.929,0.537,1.683,1.725,1.683,2.655v19.259
					C195.329,97.825,194.576,98.144,193.646,97.607z"/>
				<path id="XMLID_1329_" fill="#FFFEF9" d="M145.909,50.287c4.665,2.693,8.447,8.658,8.447,13.323s-3.782,6.263-8.447,3.57
					s-8.447-8.658-8.447-13.323S141.244,47.594,145.909,50.287z"/>
				<path id="XMLID_1328_" fill="#5FC5BB" d="M175.304,73.34l-17.185-9.922c-0.465-0.268-0.842-0.863-0.842-1.327v-1.949
					c0-0.465,0.377-0.624,0.842-0.356l17.185,9.922c0.465,0.268,0.842,0.863,0.842,1.327v1.949
					C176.145,73.449,175.768,73.608,175.304,73.34z"/>
				<path id="XMLID_1327_" fill="#6A88C5" d="M189.89,84.807l-32.332-18.667c-0.155-0.089-0.28-0.036-0.28,0.119v0.173
					c0,0.155,0.126,0.353,0.28,0.442l32.332,18.667c0.155,0.089,0.28,0.036,0.28-0.118V85.25
					C190.17,85.095,190.045,84.897,189.89,84.807z"/>
				<path id="XMLID_1326_" fill="#6A88C5" d="M189.89,87.839l-32.332-18.667c-0.155-0.089-0.28-0.036-0.28,0.119v0.173
					c0,0.155,0.126,0.353,0.28,0.442l32.332,18.667c0.155,0.089,0.28,0.036,0.28-0.118v-0.173
					C190.17,88.127,190.045,87.929,189.89,87.839z"/>
				<path id="XMLID_1325_" fill="#6A88C5" d="M189.89,90.872l-32.332-18.667c-0.155-0.089-0.28-0.036-0.28,0.119v0.173
					c0,0.155,0.126,0.353,0.28,0.442l32.332,18.667c0.155,0.089,0.28,0.036,0.28-0.118v-0.173
					C190.17,91.159,190.045,90.961,189.89,90.872z"/>
			</g>
			<g id="XMLID_782_">
				<g id="XMLID_1323_">
					<path id="SVGID_6_" fill="#E6F6FD" d="M145.909,50.287c4.665,2.693,8.447,8.658,8.447,13.323s-3.782,6.263-8.447,3.57
						s-8.447-8.658-8.447-13.323S141.244,47.594,145.909,50.287z"/>
				</g>
				<g id="XMLID_783_">
					<defs>
						<path id="XMLID_1319_" d="M145.909,50.287c4.665,2.693,8.447,8.658,8.447,13.323s-3.782,6.263-8.447,3.57
							s-8.447-8.658-8.447-13.323S141.244,47.594,145.909,50.287z"/>
					</defs>
					<clipPath id="XMLID_181_">
						<use xlink:href="#XMLID_1319_"  overflow="visible"/>
					</clipPath>
					<g id="XMLID_784_" clip-path="url(#XMLID_181_)">
						<g id="XMLID_839_">
							<g id="XMLID_1055_">
								<g id="XMLID_1058_">
									<path id="XMLID_1318_" fill="#0D1F44" d="M146.396,53.405L146.396,53.405c1.825,1.054,3.305,3.387,3.305,5.213v8.558
										l-6.609-3.816v-8.558C143.091,52.977,144.57,52.351,146.396,53.405z"/>
									<path id="XMLID_1059_" fill="#0D1F44" d="M144.979,64.743l-2.888-1.668V55.01c0-1.429,1.158-1.918,2.587-1.093l0.301,0.174
										L144.979,64.743L144.979,64.743z"/>
								</g>
							</g>
							<g id="XMLID_1046_">
								<path id="XMLID_1052_" fill="#F6998E" d="M142.955,56.64c0,0-0.576-0.607-0.917-0.421c-0.342,0.186-0.174,1.155,0.413,1.747
									c0.563,0.567,0.819,0.423,0.819,0.423L142.955,56.64z"/>
								<path id="XMLID_1049_" fill="#BB5965" d="M142.353,56.558c0.148,0.042,0.366,0.187,0.484,0.361
									c0.043,0.064-0.039,0.088-0.082,0.044c-0.242-0.245-0.543-0.449-0.681-0.247c-0.007,0.011-0.017-0.012-0.015-0.02
									C142.099,56.561,142.194,56.513,142.353,56.558z"/>
								<path id="XMLID_1047_" fill="#BB5965" d="M142.467,56.653c0.028,0.005,0.087,0.111,0.08,0.125
									c-0.041-0.007-0.108-0.003-0.141,0.029c-0.058,0.056-0.077,0.124-0.074,0.233c0.006,0.251,0.135,0.51,0.372,0.716
									c0.004,0.004,0.011,0.02,0.004,0.018c-0.212-0.082-0.437-0.441-0.474-0.653C142.19,56.887,142.221,56.611,142.467,56.653z"
									/>
							</g>
							<g id="XMLID_1042_">
								<path id="XMLID_1045_" fill="#F6998E" d="M148.856,60.024c0,0,0.575,0.081,0.917,0.662c0.342,0.581,0.174,1.356-0.413,1.27
									c-0.563-0.083-0.819-0.523-0.819-0.523L148.856,60.024z"/>
								<path id="XMLID_1044_" fill="#BB5965" d="M149.457,60.659c-0.148-0.13-0.366-0.236-0.484-0.197
									c-0.043,0.014,0.039,0.133,0.082,0.138c0.242,0.034,0.543,0.178,0.681,0.54c0.007,0.019,0.017,0.008,0.015-0.003
									C149.711,60.956,149.616,60.798,149.457,60.659z"/>
								<path id="XMLID_1043_" fill="#BB5965" d="M149.344,60.623c-0.028-0.028-0.087,0.011-0.08,0.033
									c0.041,0.04,0.108,0.121,0.141,0.193c0.058,0.123,0.077,0.213,0.074,0.319c-0.006,0.244-0.135,0.354-0.372,0.287
									c-0.004-0.001-0.011,0.008-0.004,0.013c0.212,0.163,0.437,0.063,0.474-0.105C149.62,61.177,149.589,60.865,149.344,60.623z"
									/>
							</g>
							<g id="XMLID_1036_">
								<path id="XMLID_1041_" fill="#F6998E" d="M140.041,63.792c0-1.298,0.206-1.954,0.886-1.783
									c0.31,0.078,2.168,0.571,2.753,0.735c0.585,0.164,0.745-0.092,0.745-0.393s0-1.328,0-1.328l2.968,1.714c0,0,0,1.027,0,1.328
									s0.159,0.741,0.745,1.253c0.586,0.512,2.443,2.164,2.753,2.444c0.681,0.614,0.886,1.509,0.886,2.806L140.041,63.792z"/>
								<path id="XMLID_1039_" fill="#BB5965" d="M144.425,61.409c0.002,0.005,0.292,1.023,1.484,1.711
									c1.192,0.688,1.483,0.006,1.484,0.003c0-0.219,0-0.385,0-0.385l-2.968-1.714C144.425,61.023,144.425,61.19,144.425,61.409z"
									/>
							</g>
							<path id="XMLID_1033_" fill="#F6998E" d="M147.296,55.818c-0.427-0.491-0.905-0.911-1.392-1.192
								c-0.486-0.281-0.964-0.413-1.392-0.415c-0.999-0.005-1.577,0.741-1.576,1.874c0,0.003,0,0.007,0,0.011
								c0,0.319,0.019,0.649,0.056,0.988l0.053,0.479c0.041,0.375,0.108,0.763,0.217,1.162c0.429,1.577,1.614,3.156,2.642,3.749
								c1.027,0.593,2.213,0.383,2.642-0.698c0.109-0.274,0.176-0.584,0.217-0.912l0.053-0.419c0.038-0.299,0.056-0.612,0.056-0.935
								c0-0.002,0-0.003,0-0.005C148.871,58.374,148.293,56.964,147.296,55.818z"/>
							<g id="XMLID_1029_">
								<path id="XMLID_1031_" fill="#0D1F44" d="M147.243,58.943c0.172,0.099,0.311,0.319,0.311,0.49
									c0,0.172-0.139,0.23-0.311,0.131c-0.172-0.099-0.311-0.319-0.311-0.49S147.071,58.843,147.243,58.943z"/>
								<path id="XMLID_1030_" fill="#0D1F44" d="M146.631,58.101l1.443,1.203c0,0-0.058-0.516-0.555-0.924
									C146.915,57.883,146.631,58.101,146.631,58.101z"/>
							</g>
							<g id="XMLID_1026_">
								<path id="XMLID_1028_" fill="#0D1F44" d="M144.575,57.402c0.172,0.099,0.311,0.319,0.311,0.49s-0.139,0.23-0.311,0.131
									c-0.172-0.099-0.311-0.319-0.311-0.49S144.404,57.303,144.575,57.402z"/>
								<path id="XMLID_1027_" fill="#0D1F44" d="M145.187,57.268l-1.443-0.463c0,0,0.058-0.449,0.555-0.284
									C144.904,56.722,145.187,57.268,145.187,57.268z"/>
							</g>
							<g id="XMLID_1019_">
								<g id="XMLID_1023_">
									<path id="XMLID_1025_" fill="#0D1F44" d="M145.905,54.9c0,0,0.617,2.44,2.972,4.281c0,0,0.207-1.234-0.803-2.639
										c-1.01-1.404-2.169-2.024-2.169-2.024V54.9L145.905,54.9z"/>
									<path id="XMLID_1024_" fill="#0D1F44" d="M145.905,54.913c0,0-0.617,1.727-2.972,0.849c0,0-0.207-1.473,0.803-1.712
										s2.169,0.48,2.169,0.48L145.905,54.913L145.905,54.913z"/>
								</g>
							</g>
							<g id="XMLID_845_">
								<path id="XMLID_899_" fill="#F9BA51" d="M150.891,67.762c-0.31-0.28-2.168-1.932-2.753-2.444
									c-0.153-0.134-0.276-0.262-0.376-0.385c0.016,0.075,0.024,0.149,0.024,0.22c0,0.524-0.843,0.462-1.882-0.139
									c-1.039-0.6-1.882-1.511-1.882-2.035c0-0.068,0.008-0.13,0.022-0.185c-0.098,0.006-0.218-0.009-0.364-0.05
									c-0.586-0.164-2.443-0.657-2.753-0.735c-0.681-0.172-0.886,0.485-0.886,1.783l11.737,6.776
									C151.778,69.271,151.572,68.376,150.891,67.762z"/>
								<path id="XMLID_885_" fill="#5FC5BB" d="M141.548,62.171c-0.295-0.078-0.528-0.139-0.621-0.162
									c-0.681-0.172-0.886,0.485-0.886,1.783l1.522,0.879V62.18L141.548,62.171L141.548,62.171z"/>
								<path id="XMLID_882_" fill="#5FC5BB" d="M150.27,67.207c0.295,0.263,0.528,0.471,0.621,0.555
									c0.681,0.614,0.886,1.509,0.886,2.806l-1.522-0.879v-2.491L150.27,67.207L150.27,67.207z"/>
								<path id="XMLID_881_" fill="#248D7F" d="M145.905,65.22c1.171,0.676,2.089,0.699,2.089,0.051c0-0.001,0-0.037-0.001-0.089
									c-0.194-0.189-0.33-0.367-0.423-0.53c0.007,0.122,0.012,0.31,0.012,0.381c0,0.351-0.688,0.344-1.676-0.226
									c-0.988-0.57-1.676-1.359-1.676-1.709c0-0.069,0.004-0.244,0.01-0.356c-0.094,0.052-0.23,0.069-0.422,0.034
									c-0.001,0.049-0.001,0.083-0.001,0.084C143.816,63.507,144.734,64.544,145.905,65.22z"/>
							</g>
						</g>
						<path id="XMLID_837_" fill="#BB5965" d="M145.909,58.275c-0.121-0.06-0.432,1.159-0.305,1.471
							c0.053,0.129,0.209,0.318,0.305,0.362c0.096,0.066,0.252,0.058,0.305-0.011C146.341,59.933,146.031,58.356,145.909,58.275z"/>
						<g id="XMLID_785_">
							
								<path id="XMLID_787_" fill="none" stroke="#0D1F44" stroke-width="0.3653" stroke-linecap="round" stroke-miterlimit="10" d="
								M142.129,52.266c0,0,1.131,0.65,1.439,1.467"/>
							
								<path id="XMLID_786_" fill="none" stroke="#0D1F44" stroke-width="0.3653" stroke-linecap="round" stroke-miterlimit="10" d="
								M142.303,51.288c0,0,1.309,1.244,1.264,2.55"/>
						</g>
					</g>
				</g>
			</g>
		</g>
		<g id="XMLID_1074_">
			<g id="XMLID_1075_">
				<path id="XMLID_1080_" fill="#F9BA51" d="M155.111,86.218l0.445,2.859c0.04,0.259-0.116,0.277-0.332,0.039l-2.329-2.571
					l-1.936-0.099c-0.238-0.012-0.671-0.719-0.616-1.006l0.341-1.779l-1.613-2.505c-0.261-0.406-0.305-0.807-0.077-0.709
					l2.536,1.097l1.124-1.633c0.103-0.149,0.463,0.224,0.626,0.648l0.987,2.569l1.982,1.429c0.323,0.233,0.632,0.953,0.441,1.029
					L155.111,86.218z"/>
				<path id="XMLID_1079_" fill="#F9BA51" d="M164.757,91.599l0.445,2.859c0.04,0.259-0.116,0.277-0.332,0.039l-2.329-2.571
					l-1.936-0.099c-0.238-0.012-0.671-0.719-0.616-1.006l0.341-1.779l-1.613-2.505c-0.261-0.406-0.305-0.807-0.077-0.709
					l2.536,1.097l1.124-1.633c0.103-0.149,0.463,0.224,0.626,0.648l0.987,2.569l1.982,1.429c0.323,0.233,0.632,0.953,0.441,1.029
					L164.757,91.599z"/>
				<path id="XMLID_1078_" fill="#F9BA51" d="M174.403,96.98l0.445,2.859c0.04,0.259-0.116,0.277-0.332,0.039l-2.329-2.571
					l-1.936-0.099c-0.238-0.012-0.671-0.719-0.616-1.006l0.341-1.779l-1.613-2.505c-0.261-0.406-0.305-0.807-0.077-0.709
					l2.536,1.097l1.124-1.633c0.103-0.149,0.463,0.224,0.626,0.648l0.987,2.569l1.982,1.429c0.323,0.233,0.632,0.953,0.441,1.029
					L174.403,96.98z"/>
				<path id="XMLID_1077_" fill="#F9BA51" d="M184.048,102.361l0.445,2.859c0.04,0.259-0.116,0.277-0.332,0.039l-2.329-2.571
					l-1.936-0.099c-0.238-0.012-0.671-0.719-0.616-1.006l0.341-1.779l-1.613-2.505c-0.261-0.406-0.305-0.807-0.077-0.709
					l2.536,1.097l1.124-1.633c0.103-0.149,0.463,0.224,0.626,0.648l0.987,2.569l1.982,1.429c0.323,0.233,0.632,0.953,0.441,1.029
					L184.048,102.361z"/>
				<g id="XMLID_1076_">
					<path fill="#F9BA51" d="M193.694,107.742l0.445,2.859c0.04,0.259-0.116,0.277-0.332,0.039l-2.329-2.571l-1.936-0.099
						c-0.238-0.012-0.671-0.719-0.616-1.006l0.341-1.779l-1.613-2.505c-0.261-0.406-0.305-0.807-0.077-0.709l2.536,1.097
						l1.124-1.633c0.103-0.149,0.463,0.224,0.626,0.648l0.987,2.569l1.982,1.429c0.323,0.233,0.632,0.953,0.441,1.029
						L193.694,107.742z"/>
				</g>
			</g>
		</g>
	</g>
	<g id="XMLID_27_">
		<path id="XMLID_37_" fill="none" stroke="#0C81C3" stroke-width="4" stroke-linecap="round" stroke-miterlimit="10" d="
			M287.081,136.919c-5.586-3.767-7.66-8.915-4.602-13.241c4.215-5.961,16.582-8.104,27.622-4.785
			c11.041,3.319,16.575,10.842,12.36,16.804c-0.025,0.035-0.049,0.069-0.075,0.104c-3.825,5.252-2.472,12.611,3.154,15.86
			l26.116,15.079"/>
		<path id="XMLID_38_" fill="none" stroke="#0C81C3" stroke-width="4" stroke-linecap="round" stroke-miterlimit="10" d="
			M229.499,96.213l17.339,10.01c5.627,3.249,6.989,10.615,3.154,15.861c-0.028,0.039-0.057,0.078-0.084,0.117
			c-4.215,5.961,1.319,13.485,12.36,16.804c11.041,3.319,23.408,1.177,27.622-4.785c3.058-4.326,0.984-9.473-4.602-13.241"/>
		<path id="XMLID_33_" fill="none" stroke="#0C81C3" stroke-width="4" stroke-linecap="round" stroke-miterlimit="10" d="
			M342.885,96.212l-15.426,8.906c-10.487,6.055-23,7.295-34.577,3.743c-0.064-0.02-0.128-0.039-0.193-0.059
			c-11.041-3.319-23.408-1.177-27.622,4.785s1.319,13.485,12.36,16.804c8.089,2.432,16.889,1.932,22.674-0.853"/>
		<path id="XMLID_36_" fill="none" stroke="#0C81C3" stroke-width="4" stroke-linecap="round" stroke-miterlimit="10" d="
			M219.539,167.426l25.371-14.648c10.488-6.055,23.007-7.314,34.578-3.741c0.084,0.026,0.168,0.051,0.252,0.077
			c11.041,3.319,23.408,1.177,27.622-4.785c4.215-5.961-1.319-13.485-12.36-16.804c-8.088-2.431-16.887-1.932-22.672,0.852"/>
	</g>
	
		<ellipse id="XMLID_24_" transform="matrix(0.766 0.6428 -0.6428 0.766 250.6242 -224.5606)" fill="#E6F6FD" cx="433.8" cy="232.012" rx="51.768" ry="29.391"/>
	<g id="XMLID_9_">
		<path id="XMLID_34_" fill="#0C81C3" d="M361.479,207.172l-7.405-3.984c-1.739-1.004-2.982-2.869-2.982-5.164V62.368
			c0-5.326,2.841-10.248,7.454-12.911l56.293-32.501c1.988-1.148,4.224-1.004,5.963,0l7.583,4.122L361.479,207.172z"/>
		<path id="XMLID_65_" fill="#E9EEF8" d="M409.246,36.912v0.296c0,2.101-1.121,4.043-2.941,5.093l-23.093,13.333
			c-1.12,0.647-2.521-0.162-2.521-1.455v-1.267c0-1.294-1.4-2.102-2.521-1.455l-10.178,5.876c-3.459,1.997-5.59,5.688-5.59,9.683
			v134.81c0,1.94,2.1,3.153,3.781,2.183l55.76-32.193c3.459-1.997,5.59-5.688,5.59-9.683V27.323c0-1.94-2.1-3.153-3.781-2.183
			l-11.567,6.678C410.367,32.869,409.246,34.811,409.246,36.912z"/>
		<g id="XMLID_1307_">
			<g id="XMLID_1309_">
				<path id="XMLID_1311_" fill="#50BFA4" d="M359.867,195.422c0,0,8.585-16.093,11.587-28.226
					c3.002-12.133,3.86-27.208,2.895-26.973s-8.684,13.483-11.863,25.397C359.73,175.946,359.867,195.422,359.867,195.422z"/>
				<path id="XMLID_1310_" fill="none" stroke="#485CAA" stroke-width="0.6825" stroke-linecap="round" stroke-miterlimit="10" d="
					M372.418,145.089c0,0-11.208,28.69-11.736,46.562"/>
			</g>
			<path id="XMLID_1308_" fill="#23A483" d="M359.867,199.159c0,0-0.467-11.507,9.913-16.658c9.171-4.551,8.447,6.058,8.447,6.058
				s4.377-5.724,9.488-6.193c6.765-0.622,4.86,7.608,4.86,7.608l-28.929,16.702c-1.679,0.969-3.778-0.242-3.778-2.181V199.159z"/>
		</g>
		<path id="XMLID_1322_" fill="#4EC6F2" d="M422.37,21.086l-56.293,32.501c-4.612,2.663-7.454,7.584-7.454,12.911v135.656
			c0,4.59,4.969,7.459,8.945,5.164l56.293-32.501c4.612-2.663,7.454-7.584,7.454-12.911V26.251
			C431.315,21.66,426.345,18.791,422.37,21.086z M427.534,162.134c0,3.995-2.131,7.686-5.59,9.683l-55.76,32.193
			c-1.68,0.97-3.781-0.243-3.781-2.183V67.016c0-3.995,2.131-7.686,5.59-9.683l10.178-5.876c1.12-0.647,2.52,0.162,2.52,1.455v1.267
			c0,1.294,1.4,2.102,2.521,1.455l23.093-13.333c1.82-1.051,2.941-2.992,2.941-5.093v-0.296c0-2.101,1.121-4.043,2.941-5.093
			l11.567-6.678c1.68-0.97,3.781,0.243,3.781,2.183V162.134z"/>
		<g id="XMLID_4_">
			<path id="XMLID_5_" fill="#1D1F57" d="M400.62,40.399c0,0.805,0.653,1.081,1.458,0.616c0.805-0.465,1.458-1.495,1.458-2.3
				s-0.653-1.081-1.458-0.616C401.273,38.564,400.62,39.594,400.62,40.399z"/>
			<path id="XMLID_6_" fill="#1D1F57" d="M397.491,40.748c0.805-0.465,1.458-0.189,1.458,0.616c0,0.805-0.653,1.835-1.458,2.3
				l-9.632,5.561c-0.805,0.465-1.458,0.189-1.458-0.616s0.653-1.835,1.458-2.3L397.491,40.748z"/>
		</g>
	</g>
	<g id="XMLID_17_">
		<path id="XMLID_1242_" fill="#89B7E2" d="M437.634,106.798l-58.024,33.5c-0.93,0.537-1.683,0.218-1.683-0.711v-19.26
			c0-0.93,0.753-2.118,1.683-2.655l58.024-33.5c0.93-0.537,1.683-0.218,1.683,0.711v19.26
			C439.317,105.073,438.564,106.261,437.634,106.798z"/>
		<path id="XMLID_1241_" fill="#89B7E2" d="M437.634,65.148l-58.024,33.5c-0.93,0.537-1.683,0.218-1.683-0.711V78.678
			c0-0.93,0.753-2.118,1.683-2.655l58.024-33.5c0.93-0.537,1.683-0.218,1.683,0.711v19.259
			C439.317,63.423,438.564,64.611,437.634,65.148z"/>
		<path id="XMLID_1240_" fill="#89B7E2" d="M437.634,137.018l-58.024,33.5c-0.93,0.537-1.683,0.218-1.683-0.711v-19.259
			c0-0.93,0.753-2.118,1.683-2.655l58.024-33.5c0.93-0.537,1.683-0.218,1.683,0.711v19.259
			C439.317,135.293,438.564,136.482,437.634,137.018z"/>
		<g id="XMLID_1233_">
			<path id="XMLID_1239_" fill="#FFFEF9" d="M436.673,64.288l-58.024,33.5c-0.93,0.537-1.683,0.218-1.683-0.711V77.818
				c0-0.93,0.753-2.118,1.683-2.655l58.024-33.5c0.929-0.537,1.683-0.218,1.683,0.711v19.259
				C438.356,62.563,437.602,63.751,436.673,64.288z"/>
			<path id="XMLID_1238_" fill="#FFFEF9" d="M388.936,72.09c4.665-2.693,8.447-1.095,8.447,3.57s-3.782,10.63-8.447,13.323
				c-4.665,2.693-8.447,1.095-8.447-3.57S384.271,74.783,388.936,72.09z"/>
			<path id="XMLID_1237_" fill="#5FC5BB" d="M418.33,61.201l-17.185,9.922c-0.465,0.268-0.841,0.109-0.841-0.356v-1.949
				c0-0.465,0.377-1.059,0.841-1.327l17.185-9.922c0.465-0.268,0.841-0.109,0.841,0.356v1.949
				C419.172,60.338,418.795,60.933,418.33,61.201z"/>
			<path id="XMLID_1236_" fill="#6A88C5" d="M432.917,55.826l-32.332,18.667c-0.155,0.089-0.28,0.287-0.28,0.442v0.173
				c0,0.155,0.126,0.208,0.28,0.118l32.332-18.667c0.155-0.089,0.28-0.287,0.28-0.442v-0.173
				C433.197,55.789,433.071,55.736,432.917,55.826z"/>
			<path id="XMLID_1235_" fill="#6A88C5" d="M432.917,58.857l-32.332,18.667c-0.155,0.089-0.28,0.287-0.28,0.442v0.173
				c0,0.155,0.126,0.208,0.28,0.118l32.332-18.667c0.155-0.089,0.28-0.287,0.28-0.442v-0.173
				C433.197,58.821,433.071,58.768,432.917,58.857z"/>
			<path id="XMLID_1234_" fill="#6A88C5" d="M432.917,61.89l-32.332,18.667c-0.155,0.089-0.28,0.287-0.28,0.442v0.173
				c0,0.155,0.126,0.208,0.28,0.118l32.332-18.667c0.155-0.089,0.28-0.287,0.28-0.442v-0.173
				C433.197,61.853,433.071,61.8,432.917,61.89z"/>
		</g>
		<g id="XMLID_1226_">
			<path id="XMLID_1232_" fill="#FFFEF9" d="M436.673,105.938l-58.024,33.5c-0.93,0.537-1.683,0.218-1.683-0.711v-19.259
				c0-0.93,0.753-2.118,1.683-2.655l58.024-33.5c0.929-0.537,1.683-0.218,1.683,0.711v19.259
				C438.356,104.213,437.602,105.401,436.673,105.938z"/>
			<path id="XMLID_1231_" fill="#FFFEF9" d="M388.936,113.74c4.665-2.693,8.447-1.095,8.447,3.57s-3.782,10.63-8.447,13.323
				c-4.665,2.693-8.447,1.095-8.447-3.57C380.489,122.398,384.271,116.433,388.936,113.74z"/>
			<path id="XMLID_1230_" fill="#5FC5BB" d="M418.33,102.851l-17.185,9.922c-0.465,0.268-0.841,0.109-0.841-0.356v-1.949
				c0-0.465,0.377-1.059,0.841-1.327l17.185-9.922c0.465-0.268,0.841-0.109,0.841,0.356v1.949
				C419.172,101.988,418.795,102.582,418.33,102.851z"/>
			<path id="XMLID_1229_" fill="#6A88C5" d="M432.917,97.475l-32.332,18.667c-0.155,0.089-0.28,0.287-0.28,0.442v0.173
				c0,0.155,0.126,0.208,0.28,0.119l32.332-18.667c0.155-0.089,0.28-0.287,0.28-0.442v-0.173
				C433.197,97.439,433.071,97.386,432.917,97.475z"/>
			<path id="XMLID_1228_" fill="#6A88C5" d="M432.917,100.507l-32.332,18.667c-0.155,0.089-0.28,0.287-0.28,0.442v0.173
				c0,0.155,0.126,0.208,0.28,0.119l32.332-18.667c0.155-0.089,0.28-0.287,0.28-0.442v-0.173
				C433.197,100.471,433.071,100.418,432.917,100.507z"/>
			<path id="XMLID_1227_" fill="#6A88C5" d="M432.917,103.539l-32.332,18.667c-0.155,0.089-0.28,0.287-0.28,0.442v0.173
				c0,0.155,0.126,0.208,0.28,0.119l32.332-18.667c0.155-0.089,0.28-0.287,0.28-0.442v-0.173
				C433.197,103.503,433.071,103.45,432.917,103.539z"/>
		</g>
		<g id="XMLID_1219_">
			<path id="XMLID_1225_" fill="#FFFEF9" d="M436.673,136.158l-58.024,33.5c-0.93,0.537-1.683,0.218-1.683-0.711v-19.259
				c0-0.93,0.753-2.118,1.683-2.655l58.024-33.5c0.929-0.537,1.683-0.218,1.683,0.711v19.259
				C438.356,134.433,437.602,135.622,436.673,136.158z"/>
			<path id="XMLID_1224_" fill="#FFFEF9" d="M388.936,143.96c4.665-2.693,8.447-1.095,8.447,3.57s-3.782,10.63-8.447,13.323
				c-4.665,2.693-8.447,1.095-8.447-3.57C380.489,152.618,384.271,146.653,388.936,143.96z"/>
			<path id="XMLID_1223_" fill="#5FC5BB" d="M418.33,133.071l-17.185,9.922c-0.465,0.268-0.841,0.109-0.841-0.356v-1.949
				c0-0.465,0.377-1.059,0.841-1.327l17.185-9.922c0.465-0.268,0.841-0.109,0.841,0.356v1.949
				C419.172,132.208,418.795,132.803,418.33,133.071z"/>
			<path id="XMLID_1222_" fill="#6A88C5" d="M432.917,127.696l-32.332,18.667c-0.155,0.089-0.28,0.287-0.28,0.442v0.173
				c0,0.155,0.126,0.208,0.28,0.118l32.332-18.667c0.155-0.089,0.28-0.287,0.28-0.442v-0.172
				C433.197,127.66,433.071,127.606,432.917,127.696z"/>
			<path id="XMLID_1221_" fill="#6A88C5" d="M432.917,130.728l-32.332,18.667c-0.155,0.089-0.28,0.287-0.28,0.442v0.172
				c0,0.155,0.126,0.208,0.28,0.119l32.332-18.667c0.155-0.089,0.28-0.287,0.28-0.442v-0.173
				C433.197,130.692,433.071,130.638,432.917,130.728z"/>
			<path id="XMLID_1220_" fill="#6A88C5" d="M432.917,133.76l-32.332,18.667c-0.155,0.089-0.28,0.287-0.28,0.442v0.173
				c0,0.155,0.126,0.208,0.28,0.119l32.332-18.667c0.155-0.089,0.28-0.287,0.28-0.442v-0.173
				C433.197,133.724,433.071,133.67,432.917,133.76z"/>
		</g>
		<g id="XMLID_58_">
			<g id="XMLID_308_">
				<path id="SVGID_8_" fill="#E6F6FD" d="M388.936,72.09c4.665-2.693,8.447-1.095,8.447,3.57c0,4.665-3.782,10.63-8.447,13.323
					c-4.665,2.693-8.447,1.095-8.447-3.57C380.489,80.748,384.271,74.783,388.936,72.09z"/>
			</g>
			<g id="XMLID_59_">
				<defs>
					<path id="XMLID_307_" d="M388.936,72.09c4.665-2.693,8.447-1.095,8.447,3.57c0,4.665-3.782,10.63-8.447,13.323
						c-4.665,2.693-8.447,1.095-8.447-3.57C380.489,80.748,384.271,74.783,388.936,72.09z"/>
				</defs>
				<clipPath id="XMLID_182_">
					<use xlink:href="#XMLID_307_"  overflow="visible"/>
				</clipPath>
				<g id="XMLID_60_" clip-path="url(#XMLID_182_)">
					<g id="XMLID_90_">
						<g id="XMLID_302_">
							<g id="XMLID_304_">
								<path id="XMLID_306_" fill="#0D1F44" d="M389.422,74.646L389.422,74.646c1.825-1.054,3.305-0.429,3.305,1.396V84.6
									l-6.609,3.816v-8.558C386.117,78.034,387.597,75.7,389.422,74.646z"/>
								<path id="XMLID_305_" fill="#0D1F44" d="M388.005,87.621l-2.888,1.668v-8.066c0-1.429,1.158-3.256,2.587-4.08l0.301-0.174
									L388.005,87.621L388.005,87.621z"/>
							</g>
						</g>
						<g id="XMLID_298_">
							<path id="XMLID_301_" fill="#F6998E" d="M385.981,81.855c0,0-0.576,0.058-0.917,0.639c-0.342,0.581-0.174,1.356,0.413,1.27
								c0.563-0.083,0.819-0.523,0.819-0.523L385.981,81.855z"/>
							<path id="XMLID_300_" fill="#BB5965" d="M385.379,82.467c0.148-0.13,0.366-0.236,0.484-0.197
								c0.043,0.014-0.039,0.133-0.082,0.138c-0.242,0.034-0.543,0.178-0.681,0.54c-0.007,0.019-0.017,0.008-0.015-0.003
								C385.126,82.764,385.221,82.606,385.379,82.467z"/>
							<path id="XMLID_299_" fill="#BB5965" d="M385.493,82.43c0.028-0.028,0.087,0.011,0.08,0.033
								c-0.041,0.04-0.108,0.121-0.141,0.193c-0.058,0.123-0.077,0.213-0.074,0.319c0.006,0.244,0.135,0.354,0.372,0.287
								c0.004-0.001,0.011,0.008,0.004,0.013c-0.212,0.163-0.437,0.063-0.474-0.105C385.217,82.984,385.247,82.672,385.493,82.43z"
								/>
						</g>
						<g id="XMLID_292_">
							<path id="XMLID_296_" fill="#F6998E" d="M391.883,78.424c0,0,0.575-0.583,0.917-0.396c0.342,0.186,0.174,1.155-0.413,1.747
								c-0.563,0.567-0.819,0.423-0.819,0.423L391.883,78.424z"/>
							<path id="XMLID_295_" fill="#BB5965" d="M392.484,78.365c-0.148,0.042-0.366,0.187-0.484,0.361
								c-0.043,0.064,0.039,0.088,0.082,0.044c0.242-0.245,0.543-0.449,0.681-0.247c0.007,0.011,0.017-0.012,0.015-0.02
								C392.737,78.369,392.643,78.321,392.484,78.365z"/>
							<path id="XMLID_293_" fill="#BB5965" d="M392.37,78.46c-0.028,0.005-0.087,0.111-0.08,0.125
								c0.041-0.007,0.108-0.003,0.141,0.029c0.058,0.056,0.077,0.124,0.074,0.233c-0.006,0.251-0.135,0.51-0.372,0.716
								c-0.004,0.004-0.011,0.02-0.004,0.018c0.212-0.082,0.437-0.441,0.474-0.653C392.647,78.694,392.616,78.418,392.37,78.46z"/>
						</g>
						<g id="XMLID_283_">
							<path id="XMLID_291_" fill="#F6998E" d="M383.067,92.371c0-1.298,0.206-2.192,0.886-2.806c0.31-0.28,2.168-1.932,2.753-2.444
								c0.585-0.512,0.745-0.952,0.745-1.253s0-1.328,0-1.328l2.968-1.714c0,0,0,1.027,0,1.328c0,0.3,0.159,0.557,0.745,0.393
								c0.586-0.164,2.443-0.657,2.753-0.735c0.681-0.172,0.886,0.485,0.886,1.783L383.067,92.371z"/>
							<path id="XMLID_286_" fill="#BB5965" d="M387.452,84.925c0.002,0.003,0.292,0.685,1.484-0.003
								c1.192-0.688,1.483-1.706,1.484-1.711c0-0.219,0-0.385,0-0.385l-2.968,1.714C387.452,84.54,387.452,84.707,387.452,84.925z"
								/>
						</g>
						<path id="XMLID_280_" fill="#F6998E" d="M390.323,76.018c-0.427,0.002-0.905,0.134-1.392,0.415
							c-0.486,0.281-0.964,0.7-1.392,1.192c-0.999,1.149-1.577,2.562-1.576,3.694c0,0.003,0,0.007,0,0.011
							c0,0.319,0.019,0.628,0.056,0.923l0.053,0.418c0.041,0.328,0.108,0.638,0.217,0.912c0.429,1.081,1.614,1.292,2.642,0.698
							c1.027-0.593,2.213-2.172,2.642-3.749c0.109-0.399,0.176-0.787,0.217-1.162l0.053-0.48c0.038-0.343,0.056-0.677,0.056-1
							c0-0.002,0-0.003,0-0.005C391.898,76.757,391.32,76.014,390.323,76.018z"/>
						<g id="XMLID_166_">
							<path id="XMLID_276_" fill="#0D1F44" d="M390.27,79.205c0.172-0.099,0.311-0.04,0.311,0.131s-0.139,0.391-0.311,0.49
								c-0.172,0.099-0.311,0.04-0.311-0.131C389.959,79.524,390.098,79.304,390.27,79.205z"/>
							<path id="XMLID_272_" fill="#0D1F44" d="M389.657,79.071l1.443-0.463c0,0-0.058-0.449-0.555-0.284
								C389.941,78.524,389.657,79.071,389.657,79.071z"/>
						</g>
						<g id="XMLID_162_">
							<path id="XMLID_165_" fill="#0D1F44" d="M387.602,80.745c0.172-0.099,0.311-0.04,0.311,0.131s-0.139,0.391-0.311,0.49
								s-0.311,0.04-0.311-0.131C387.291,81.064,387.43,80.844,387.602,80.745z"/>
							<path id="XMLID_163_" fill="#0D1F44" d="M388.214,79.904l-1.443,1.203c0,0,0.058-0.516,0.555-0.924
								C387.93,79.685,388.214,79.904,388.214,79.904z"/>
						</g>
						<g id="XMLID_148_">
							<g id="XMLID_155_">
								<path id="XMLID_158_" fill="#0D1F44" d="M388.931,76.708c0,0,0.617,1.727,2.972,0.849c0,0,0.207-1.473-0.803-1.712
									c-1.01-0.238-2.169,0.48-2.169,0.48V76.708L388.931,76.708z"/>
								<path id="XMLID_157_" fill="#0D1F44" d="M388.932,76.72c0,0-0.617,2.44-2.972,4.281c0,0-0.207-1.234,0.803-2.639
									c1.01-1.404,2.169-2.024,2.169-2.024V76.72L388.932,76.72z"/>
							</g>
						</g>
						<g id="XMLID_92_">
							<path id="XMLID_147_" fill="#F9BA51" d="M393.918,83.812c-0.31,0.078-2.168,0.571-2.753,0.735
								c-0.153,0.043-0.276,0.057-0.376,0.049c0.016,0.057,0.024,0.121,0.024,0.191c0,0.524-0.843,1.435-1.882,2.035
								s-1.882,0.662-1.882,0.139c0-0.068,0.008-0.138,0.022-0.21c-0.098,0.118-0.218,0.243-0.364,0.371
								c-0.586,0.512-2.443,2.164-2.753,2.444c-0.681,0.614-0.886,1.509-0.886,2.806l11.737-6.776
								C394.804,84.297,394.598,83.64,393.918,83.812z"/>
							<path id="XMLID_146_" fill="#5FC5BB" d="M384.574,89.01c-0.295,0.263-0.528,0.471-0.621,0.555
								c-0.681,0.614-0.886,1.509-0.886,2.806l1.522-0.879v-2.491L384.574,89.01L384.574,89.01z"/>
							<path id="XMLID_139_" fill="#5FC5BB" d="M393.297,83.974c0.295-0.078,0.528-0.139,0.621-0.162
								c0.681-0.172,0.886,0.485,0.886,1.783l-1.522,0.879v-2.491L393.297,83.974L393.297,83.974z"/>
							<path id="XMLID_94_" fill="#248D7F" d="M388.931,87.028c1.171-0.676,2.089-1.713,2.089-2.361c0-0.001,0-0.036-0.001-0.088
								c-0.194,0.035-0.33,0.014-0.423-0.042c0.007,0.115,0.012,0.297,0.012,0.367c0,0.351-0.688,1.139-1.676,1.709
								s-1.676,0.576-1.676,0.226c0-0.069,0.004-0.249,0.01-0.367c-0.094,0.16-0.23,0.335-0.422,0.52
								c-0.001,0.05-0.001,0.084-0.001,0.085C386.843,87.727,387.76,87.704,388.931,87.028z"/>
						</g>
					</g>
					<path id="XMLID_84_" fill="#BB5965" d="M388.935,80.078c-0.121,0.08-0.432,1.658-0.305,1.823
						c0.053,0.068,0.209,0.076,0.305,0.011c0.096-0.045,0.252-0.233,0.305-0.362C389.368,81.237,389.057,80.018,388.935,80.078z"/>
					<g id="XMLID_61_">
						<path id="XMLID_78_" fill="none" stroke="#0D1F44" stroke-width="0.3653" stroke-linecap="round" stroke-miterlimit="10" d="
							M385.155,78.434c0,0,1.131-0.656,1.439-0.195"/>
						<path id="XMLID_62_" fill="none" stroke="#0D1F44" stroke-width="0.3653" stroke-linecap="round" stroke-miterlimit="10" d="
							M385.329,77.255c0,0,1.309-0.268,1.264,1.09"/>
					</g>
				</g>
			</g>
		</g>
		<g id="XMLID_1136_">
			<g id="XMLID_1176_">
				<path id="SVGID_4_" fill="#E6F6FD" d="M388.936,143.96c4.665-2.693,8.447-1.095,8.447,3.57s-3.782,10.63-8.447,13.323
					c-4.665,2.693-8.447,1.095-8.447-3.57S384.271,146.653,388.936,143.96z"/>
			</g>
			<g id="XMLID_1137_">
				<defs>
					<path id="XMLID_1175_" d="M388.936,143.96c4.665-2.693,8.447-1.095,8.447,3.57s-3.782,10.63-8.447,13.323
						c-4.665,2.693-8.447,1.095-8.447-3.57S384.271,146.653,388.936,143.96z"/>
				</defs>
				<clipPath id="XMLID_183_">
					<use xlink:href="#XMLID_1175_"  overflow="visible"/>
				</clipPath>
				<g id="XMLID_1138_" clip-path="url(#XMLID_183_)">
					<g id="XMLID_1144_">
						<g id="XMLID_1171_">
							<path id="XMLID_1174_" fill="#F6998E" d="M385.986,153.653c0,0-0.571,0.124-0.913,0.705c-0.342,0.581-0.174,1.356,0.413,1.27
								c0.563-0.083,0.819-0.523,0.819-0.523L385.986,153.653z"/>
							<path id="XMLID_1173_" fill="#BB5965" d="M385.388,154.332c0.148-0.13,0.366-0.236,0.484-0.197
								c0.043,0.014-0.039,0.133-0.082,0.138c-0.242,0.034-0.543,0.178-0.681,0.54c-0.007,0.019-0.017,0.008-0.015-0.003
								C385.134,154.629,385.229,154.471,385.388,154.332z"/>
							<path id="XMLID_1172_" fill="#BB5965" d="M385.502,154.296c0.028-0.028,0.087,0.011,0.08,0.033
								c-0.041,0.04-0.108,0.121-0.141,0.193c-0.058,0.123-0.077,0.213-0.074,0.319c0.006,0.244,0.135,0.354,0.372,0.287
								c0.004-0.001,0.011,0.008,0.004,0.013c-0.212,0.163-0.437,0.063-0.474-0.105
								C385.225,154.849,385.256,154.538,385.502,154.296z"/>
						</g>
						<g id="XMLID_1167_">
							<path id="XMLID_1170_" fill="#F6998E" d="M391.894,150.242c0,0,0.572-0.536,0.914-0.35s0.174,1.155-0.413,1.747
								c-0.563,0.567-0.819,0.423-0.819,0.423L391.894,150.242z"/>
							<path id="XMLID_1169_" fill="#BB5965" d="M392.492,150.23c-0.148,0.041-0.366,0.187-0.484,0.361
								c-0.043,0.064,0.039,0.088,0.082,0.044c0.242-0.245,0.543-0.449,0.681-0.247c0.008,0.011,0.017-0.012,0.015-0.02
								C392.746,150.234,392.651,150.186,392.492,150.23z"/>
							<path id="XMLID_1168_" fill="#BB5965" d="M392.378,150.325c-0.028,0.005-0.087,0.111-0.08,0.125
								c0.041-0.007,0.108-0.003,0.141,0.029c0.058,0.056,0.077,0.124,0.074,0.233c-0.006,0.251-0.134,0.509-0.371,0.716
								c-0.004,0.004-0.011,0.02-0.004,0.018c0.212-0.082,0.437-0.441,0.474-0.653C392.655,150.559,392.624,150.283,392.378,150.325
								z"/>
						</g>
						<g id="XMLID_1164_">
							<path id="XMLID_1166_" fill="#F6998E" d="M381.976,164.871c0-1.298,0.615-2.428,1.295-3.042
								c0.31-0.28,2.577-2.169,3.163-2.681c0.585-0.512,0.745-0.952,0.745-1.253s0-1.6,0-1.6l3.513-2.028c0,0,0,1.3,0,1.6
								s0.159,0.557,0.745,0.393c0.585-0.164,2.853-0.893,3.163-0.971c0.681-0.172,1.295,0.249,1.295,1.547L381.976,164.871z"/>
							<path id="XMLID_1165_" fill="#BB5965" d="M387.179,156.295c0,0,0,0.143,0,0.559c0,0,0.638,0.629,1.761-0.019
								c1.123-0.648,1.753-2.002,1.753-2.002c0-0.418,0-0.566,0-0.566L387.179,156.295z"/>
						</g>
						<g id="XMLID_1161_">
							<g id="XMLID_1162_">
								<path id="XMLID_1163_" fill="#5FC5BB" d="M394.6,155.288c-0.31,0.078-2.577,0.807-3.163,0.971
									c-0.071,0.02-0.135,0.033-0.194,0.041c0.056,0.105,0.087,0.232,0.087,0.383c0,0.845-1.072,2.149-2.395,2.913
									c-1.323,0.764-2.395,0.698-2.395-0.147c0-0.151,0.031-0.314,0.088-0.484c-0.059,0.06-0.123,0.121-0.194,0.182
									c-0.585,0.512-2.853,2.401-3.163,2.681c-0.681,0.614-1.295,1.745-1.295,3.042l13.919-8.036
									C395.895,155.537,395.28,155.117,394.6,155.288z"/>
							</g>
						</g>
						<path id="XMLID_1160_" fill="#F6998E" d="M390.331,147.884c-0.427,0.002-0.905,0.134-1.392,0.415
							c-0.487,0.281-0.989,0.691-1.416,1.182c-0.997,1.147-1.551,2.566-1.552,3.697c0,0.002,0,0.003,0,0.005
							c0,0.324,0.019,0.636,0.056,0.935l0.053,0.418c0.041,0.328,0.156,0.94,0.422,1.438c0.529,0.987,1.71,0.728,2.436,0.309
							c0.726-0.419,1.907-1.524,2.436-3.122c0.267-0.806,0.381-1.551,0.422-1.926l0.053-0.479c0.038-0.343,0.056-0.677,0.056-1
							c0-0.002,0-0.003,0-0.005C391.906,148.622,391.328,147.879,390.331,147.884z"/>
						<g id="XMLID_1153_">
							<path id="XMLID_1159_" fill="#0D1F44" d="M390.278,151.074c0.172-0.099,0.311-0.04,0.311,0.131
								c0,0.172-0.139,0.391-0.311,0.49s-0.311,0.04-0.311-0.131S390.106,151.173,390.278,151.074z"/>
							<path id="XMLID_1158_" fill="#0D1F44" d="M389.802,150.724l1.443-0.463c0,0-0.078-0.363-0.584-0.313
								c-0.221,0.021-0.476,0.161-0.637,0.33C389.791,150.522,389.802,150.724,389.802,150.724z"/>
							<path id="XMLID_1157_" fill="#0D1F44" d="M388.077,151.721l-1.443,1.203c0,0,0.078-0.453,0.584-0.988
								c0.221-0.233,0.476-0.389,0.637-0.406C388.089,151.505,388.077,151.721,388.077,151.721z"/>
							<g id="XMLID_1154_">
								<g id="XMLID_1155_">
									<path id="XMLID_1156_" fill="#0D1F44" d="M387.61,152.614c0.172-0.099,0.311-0.04,0.311,0.131s-0.139,0.391-0.311,0.49
										c-0.172,0.099-0.311,0.04-0.311-0.131C387.299,152.933,387.439,152.714,387.61,152.614z"/>
								</g>
							</g>
						</g>
						<g id="XMLID_1145_">
							<g id="XMLID_1146_">
								<g id="XMLID_1151_">
									<path id="XMLID_1152_" fill="#0D1F44" d="M385.972,153.73c0,0,0.083-0.073,0.168-0.2c0.072-0.108,0.229-0.36,0.229-0.964
										c0-0.603,0.161-1.793,0.73-2.501c0,0,0.028-0.307-0.12-0.282c-0.199,0.033-0.701,0.433-1.048,0.962
										c-0.75,1.142-0.443,3.152-0.443,3.152C385.614,153.813,385.843,153.713,385.972,153.73z"/>
								</g>
								<g id="XMLID_1149_">
									<path id="XMLID_1150_" fill="#0D1F44" d="M392.005,150.215c0,0-0.146,0.071-0.225,0.055
										c-0.08-0.016-0.269-0.068-0.269-0.672c0-0.603-0.161-1.607-0.73-1.658c0,0,0.465-0.734,1.127-0.651
										c0.669,0.084,0.485,2.622,0.485,2.622C392.251,149.985,392.123,150.09,392.005,150.215z"/>
								</g>
								<g id="XMLID_1147_">
									<path id="XMLID_1148_" fill="#0D1F44" d="M392.006,148.485v1.73c0.116-0.125,0.246-0.227,0.387-0.304
										c0.395-4.491-1.612-4.24-3.753-2.622c-1.578,1.192-1.774,2.766-1.774,2.766l0.234,0.011
										c0.278-0.16,0.418-0.059,0.631-0.017c0.22,0.043,0.446,0.073,0.688,0.069c0.404-0.007,0.858-0.112,1.322-0.386
										c0.116-0.069,0.244-0.16,0.321-0.292c0.095-0.165,0.068-0.317,0.019-0.426c-0.062-0.139-0.15-0.253-0.26-0.339
										c0.293,0.073,0.584,0.144,1.15-0.124c0.278-0.131,0.454-0.404,0.35-0.634C391.315,147.902,392.006,148.126,392.006,148.485
										z"/>
								</g>
							</g>
						</g>
					</g>
					<path id="XMLID_1143_" fill="#BB5965" d="M388.935,151.97c-0.146,0.094-0.519,1.708-0.365,1.858
						c0.063,0.062,0.251,0.052,0.365-0.024c0.115-0.056,0.302-0.262,0.366-0.398C389.454,153.079,389.081,151.896,388.935,151.97z"
						/>
					<path id="XMLID_1142_" fill="#0D1F44" d="M386.716,150.124c0,0,0.069-1.44,1.905-3.055c1.569-1.38,3.224-1.695,3.708-1.496
						c0.655,0.271,0.125,1.193-0.559,1.459C391.439,147.162,386.716,150.124,386.716,150.124z"/>
					<g id="XMLID_1139_">
						
							<path id="XMLID_1141_" fill="none" stroke="#0D1F44" stroke-width="0.3653" stroke-linecap="round" stroke-miterlimit="10" d="
							M385.426,150.144c0,0,1.131-0.656,1.439-0.195"/>
						
							<path id="XMLID_1140_" fill="none" stroke="#0D1F44" stroke-width="0.3653" stroke-linecap="round" stroke-miterlimit="10" d="
							M385.601,148.964c0,0,1.309-0.268,1.264,1.09"/>
					</g>
				</g>
			</g>
		</g>
		<g id="XMLID_900_">
			<g id="XMLID_1018_">
				<path id="SVGID_2_" fill="#E6F6FD" d="M388.936,113.74c4.665-2.693,8.447-1.095,8.447,3.57s-3.782,10.63-8.447,13.323
					c-4.665,2.693-8.447,1.095-8.447-3.57C380.489,122.398,384.271,116.433,388.936,113.74z"/>
			</g>
			<g id="XMLID_901_">
				<defs>
					<path id="XMLID_1017_" d="M388.936,113.74c4.665-2.693,8.447-1.095,8.447,3.57s-3.782,10.63-8.447,13.323
						c-4.665,2.693-8.447,1.095-8.447-3.57C380.489,122.398,384.271,116.433,388.936,113.74z"/>
				</defs>
				<clipPath id="XMLID_184_">
					<use xlink:href="#XMLID_1017_"  overflow="visible"/>
				</clipPath>
				<g id="XMLID_902_" clip-path="url(#XMLID_184_)">
					<g id="XMLID_907_">
						<g id="XMLID_1014_">
							<path id="XMLID_1016_" fill="#0D1F44" d="M392.271,119.766c0,0,0.972-5.174-3.336-2.687
								c-4.308,2.487-3.446,6.603-3.446,6.603L392.271,119.766z"/>
							<path id="XMLID_1015_" fill="#0D1F44" d="M388.631,118.675c-0.989,0.68-1.865,0.609-1.955-0.159
								c-0.09-0.768,0.638-1.942,1.628-2.622c0.989-0.68,1.865-0.609,1.955,0.159C390.349,116.821,389.62,117.995,388.631,118.675z"
								/>
						</g>
						<g id="XMLID_1010_">
							<path id="XMLID_1013_" fill="#BB5965" d="M385.972,123.341c0,0-0.566,0.085-0.908,0.666c-0.342,0.581-0.174,1.356,0.413,1.27
								c0.563-0.083,0.819-0.523,0.819-0.523L385.972,123.341z"/>
							<path id="XMLID_1012_" fill="#8A3B48" d="M385.379,123.98c0.148-0.13,0.366-0.236,0.484-0.197
								c0.043,0.014-0.039,0.133-0.082,0.138c-0.242,0.034-0.543,0.178-0.681,0.54c-0.008,0.019-0.017,0.008-0.015-0.003
								C385.126,124.277,385.221,124.119,385.379,123.98z"/>
							<path id="XMLID_1011_" fill="#8A3B48" d="M385.493,123.944c0.028-0.028,0.087,0.011,0.08,0.033
								c-0.041,0.04-0.108,0.121-0.141,0.193c-0.058,0.123-0.077,0.213-0.074,0.319c0.006,0.244,0.135,0.354,0.372,0.287
								c0.004-0.001,0.011,0.008,0.004,0.013c-0.212,0.163-0.437,0.063-0.474-0.105
								C385.217,124.498,385.247,124.186,385.493,123.944z"/>
						</g>
						<g id="XMLID_1005_">
							<path id="XMLID_1009_" fill="#BB5965" d="M391.89,119.925c0,0,0.568-0.571,0.91-0.385c0.342,0.186,0.174,1.155-0.413,1.747
								c-0.563,0.567-0.819,0.423-0.819,0.423L391.89,119.925z"/>
							<path id="XMLID_1007_" fill="#8A3B48" d="M392.484,119.879c-0.148,0.041-0.366,0.187-0.484,0.361
								c-0.043,0.064,0.039,0.088,0.082,0.044c0.242-0.245,0.543-0.449,0.681-0.247c0.007,0.011,0.017-0.012,0.015-0.02
								C392.737,119.883,392.643,119.834,392.484,119.879z"/>
							<path id="XMLID_1006_" fill="#8A3B48" d="M392.37,119.974c-0.028,0.005-0.087,0.111-0.08,0.125
								c0.041-0.007,0.108-0.003,0.141,0.029c0.058,0.056,0.077,0.124,0.074,0.233c-0.006,0.251-0.135,0.51-0.372,0.716
								c-0.004,0.004-0.011,0.02-0.004,0.018c0.212-0.082,0.437-0.441,0.474-0.653C392.647,120.208,392.616,119.932,392.37,119.974z
								"/>
						</g>
						<g id="XMLID_1001_">
							<polygon id="XMLID_1003_" fill="#5FC5BB" points="392.135,125.933 390.658,125.578 387.175,127.589 385.727,129.633 							
								"/>
							<polygon id="XMLID_1002_" fill="#248D7F" points="387.175,127.589 387.074,128.391 390.789,126.246 390.658,125.578 							
								"/>
						</g>
						<g id="XMLID_998_">
							<path id="XMLID_1000_" fill="#BB5965" d="M383.067,134.021c0-1.298,0.206-2.192,0.886-2.806
								c0.31-0.28,2.168-1.932,2.753-2.444c0.586-0.512,0.745-0.952,0.745-1.253s0-1.328,0-1.328l2.968-1.714c0,0,0,1.027,0,1.328
								c0,0.301,0.159,0.557,0.745,0.393c0.586-0.164,2.443-0.657,2.753-0.735c0.681-0.172,0.886,0.485,0.886,1.783L383.067,134.021
								z"/>
							<path id="XMLID_999_" fill="#8A3B48" d="M387.452,126.575c0.002,0.003,0.292,0.685,1.484-0.003
								c1.192-0.688,1.483-1.706,1.484-1.711c0-0.219,0-0.385,0-0.385l-2.968,1.714C387.452,126.19,387.452,126.357,387.452,126.575
								z"/>
						</g>
						<g id="XMLID_988_">
							<path id="XMLID_997_" fill="#F9BA51" d="M387.514,129.938c0,0,0.547,0.021,1.422-0.484c0.874-0.505,1.417-1.154,1.417-1.154
								l-0.403,1.748l-2.037,1.176L387.514,129.938z"/>
							<g id="XMLID_992_">
								<path id="XMLID_996_" fill="#248D7F" d="M387.049,128.61c0-0.068,0.008-0.138,0.022-0.21
									c-0.098,0.118-0.218,0.243-0.364,0.371c-0.586,0.512-2.443,2.164-2.753,2.444c-0.681,0.614-0.886,1.509-0.886,2.806
									l4.845-2.797l-0.622-2.047C386.906,129.225,387.049,128.891,387.049,128.61z"/>
								<path id="XMLID_995_" fill="#248D7F" d="M393.918,125.462c-0.31,0.078-2.168,0.571-2.753,0.735
									c-0.153,0.043-0.276,0.056-0.376,0.049c0.016,0.057,0.024,0.121,0.024,0.191c0,0.281,0.137,0.453-0.248,0.85l-0.615,2.761
									l4.854-2.803C394.804,125.947,394.598,125.29,393.918,125.462z"/>
								<polygon id="XMLID_994_" fill="#5FC5BB" points="390.789,126.246 392.135,125.933 391.637,126.869 390.762,127.615 
									391.452,127.744 389.95,130.047 								"/>
								<polygon id="XMLID_993_" fill="#5FC5BB" points="387.074,128.391 385.727,129.633 386.225,129.994 387.1,129.729 
									386.411,130.544 387.912,131.224 								"/>
							</g>
						</g>
						<path id="XMLID_987_" fill="#BB5965" d="M390.323,117.668c-0.427,0.002-0.905,0.135-1.392,0.415
							c-0.486,0.281-0.964,0.7-1.392,1.191c-0.999,1.149-1.577,2.562-1.576,3.694c0,0.003,0,0.007,0,0.011
							c0,0.319,0.019,0.628,0.056,0.923l0.052,0.419c0.041,0.328,0.108,0.638,0.217,0.912c0.429,1.081,1.614,1.395,2.642,0.801
							c1.027-0.593,2.213-2.275,2.642-3.852c0.109-0.4,0.176-0.787,0.217-1.162l0.053-0.479c0.038-0.343,0.056-0.677,0.056-1
							c0-0.002,0-0.003,0-0.005C391.898,118.407,391.32,117.664,390.323,117.668z"/>
						<g id="XMLID_910_">
							<path id="XMLID_986_" fill="#0D1F44" d="M390.27,120.932c0.172-0.099,0.311-0.04,0.311,0.131c0,0.172-0.139,0.391-0.311,0.49
								c-0.172,0.099-0.311,0.04-0.311-0.131S390.098,121.032,390.27,120.932z"/>
							<path id="XMLID_985_" fill="#0D1F44" d="M389.657,120.798l1.443-0.463c0,0-0.058-0.449-0.555-0.284
								C389.941,120.252,389.657,120.798,389.657,120.798z"/>
							<path id="XMLID_984_" fill="#0D1F44" d="M387.602,122.473c0.172-0.099,0.311-0.04,0.311,0.131
								c0,0.172-0.139,0.391-0.311,0.49s-0.311,0.04-0.311-0.131S387.43,122.572,387.602,122.473z"/>
							<path id="XMLID_983_" fill="#0D1F44" d="M388.214,121.631l-1.443,1.203c0,0,0.058-0.516,0.555-0.924
								C387.93,121.413,388.214,121.631,388.214,121.631z"/>
						</g>
						<g id="XMLID_908_">
							<path id="XMLID_909_" fill="#0D1F44" d="M385.933,122.227l1.98-1.143c0,0,0.066-0.923,0.479-1.923v1.646l1.475-0.852v-1.646
								c0,0,0.403,0.732,0.403,1.413l1.661-0.959c0,0-0.158-2.62-2.999-0.98C386.09,119.424,385.933,122.227,385.933,122.227z"/>
						</g>
					</g>
					<path id="XMLID_906_" fill="#8A3B48" d="M388.936,121.703c-0.121,0.08-0.432,1.658-0.305,1.823
						c0.053,0.068,0.209,0.076,0.305,0.011c0.095-0.045,0.252-0.233,0.305-0.362C389.368,122.862,389.057,121.643,388.936,121.703z"
						/>
					<g id="XMLID_903_">
						<path id="XMLID_905_" fill="none" stroke="#0D1F44" stroke-width="0.3653" stroke-linecap="round" stroke-miterlimit="10" d="
							M390.344,114.918c0,0,0.405,0.822-0.083,1.619"/>
						<path id="XMLID_904_" fill="none" stroke="#0D1F44" stroke-width="0.3653" stroke-linecap="round" stroke-miterlimit="10" d="
							M391.414,114.3c0,0,0.01,1.391-1.251,2.552"/>
					</g>
				</g>
			</g>
		</g>
		<g id="XMLID_10_">
			<g id="XMLID_75_">
				<path id="XMLID_76_" fill="#F9BA51" d="M381.109,108.027l0.445,2.346c0.04,0.212-0.116,0.411-0.332,0.422l-2.329,0.118
					l-1.936,2.137c-0.238,0.262-0.671,0.055-0.616-0.294l0.341-2.172l-1.613-0.642c-0.261-0.104-0.305-0.455-0.077-0.62l2.536-1.831
					l1.124-2.931c0.103-0.267,0.463-0.311,0.626-0.075l0.987,1.429l1.982-0.859c0.323-0.14,0.632,0.224,0.441,0.52L381.109,108.027z
					"/>
				<path id="XMLID_35_" fill="#F9BA51" d="M390.755,102.271l0.445,2.346c0.04,0.212-0.116,0.411-0.332,0.422l-2.329,0.118
					l-1.936,2.137c-0.238,0.262-0.671,0.055-0.616-0.294l0.341-2.172l-1.613-0.642c-0.261-0.104-0.305-0.455-0.077-0.62l2.536-1.831
					l1.124-2.931c0.103-0.267,0.463-0.311,0.626-0.075l0.987,1.429l1.982-0.859c0.323-0.14,0.632,0.224,0.441,0.52L390.755,102.271z
					"/>
				<path id="XMLID_154_" fill="#F9BA51" d="M400.401,96.514l0.445,2.346c0.04,0.212-0.116,0.411-0.332,0.422l-2.329,0.118
					l-1.936,2.137c-0.238,0.262-0.671,0.055-0.616-0.294l0.341-2.172l-1.613-0.642c-0.261-0.104-0.305-0.455-0.077-0.62l2.536-1.831
					l1.124-2.931c0.103-0.268,0.463-0.311,0.626-0.075l0.987,1.429l1.982-0.859c0.323-0.14,0.632,0.223,0.441,0.52L400.401,96.514z"
					/>
				<path id="XMLID_167_" fill="#F9BA51" d="M410.046,90.757l0.445,2.346c0.04,0.212-0.116,0.411-0.332,0.422l-2.329,0.118
					l-1.936,2.137c-0.238,0.262-0.671,0.055-0.616-0.294l0.341-2.172l-1.613-0.642c-0.261-0.104-0.305-0.455-0.077-0.62l2.536-1.831
					l1.124-2.931c0.103-0.267,0.463-0.311,0.626-0.075l0.987,1.429l1.982-0.859c0.323-0.14,0.632,0.224,0.441,0.52L410.046,90.757z"
					/>
				<g id="XMLID_180_">
					<path fill="#F9BA51" d="M417.73,83.031l0.294,0.425l0.467,0.676l0.754-0.327l0.039-0.017l-0.432,0.672l-0.216,0.335
						l0.074,0.392l0.307,1.621l-1.592,0.081l-0.413,0.021l-0.278,0.306l-0.489,0.54l0.007-0.043l0.124-0.789l-0.742-0.295
						l-0.524-0.208l1.585-1.145l0.242-0.174l0.107-0.278L417.73,83.031 M417.567,81.305c-0.139,0-0.276,0.079-0.334,0.229
						l-1.124,2.931l-2.536,1.831c-0.228,0.165-0.184,0.516,0.077,0.62l1.613,0.642l-0.341,2.172
						c-0.038,0.24,0.155,0.413,0.356,0.413c0.092,0,0.186-0.036,0.26-0.118l1.936-2.137l2.329-0.118
						c0.216-0.011,0.372-0.21,0.332-0.422l-0.445-2.346l1.578-2.453c0.161-0.251-0.036-0.551-0.297-0.551
						c-0.047,0-0.096,0.01-0.145,0.031l-1.982,0.859l-0.987-1.429C417.787,81.354,417.677,81.305,417.567,81.305L417.567,81.305z"/>
				</g>
			</g>
		</g>
	</g>
	<g id="XMLID_3_">
		<g id="XMLID_72_">
			<g id="XMLID_88_">
				<path fill="#F6998E" d="M419.694,97.77c-0.56-1.307-1.4-1.864-2.03-2.345c-1.32-1.008-2.315-3.456-1.738-3.735
					c0.789-0.381,1.168,1.309,1.822,0.974c0.622-0.318-2.197-3.872-1.618-4.291c1.182-0.854,2.979,2.327,3.421,2.651
					c0.972-0.275,2.798-0.73,3.606,0.047c0.542,0.521,1.691,3.378,0.589,4.574l5.905,11.727l-5.144,2.818L419.694,97.77z"/>
			</g>
			<path id="XMLID_42_" fill="#5EC4BB" d="M434.54,116.516l-5.923-11.596l-4.947,2.599c-0.262-0.71,2.324,5.498,1.79,12.156
				c-0.827,10.328,3.9,22.285,7.883,25.344c2.009-3.486,3.731-5.968,3.305-9.402C436.561,134.9,434.54,116.516,434.54,116.516z"/>
			<path id="XMLID_178_" fill="#5EC4BB" d="M423.663,107.482c0,0.007,0.007,0.022,0.015,0.037h-0.007
				C423.663,107.505,423.655,107.49,423.663,107.482z"/>
			<path id="XMLID_164_" fill="#06A297" d="M433.345,145.02c-2.795-2.139-5.59-8.661-6.716-15.922
				c1.603-0.35,9.59,0.746,9.635,1.382c0.194,2.76,0.353,4.896,0.383,5.133C437.072,139.05,435.35,141.532,433.345,145.02z"/>
			<g id="XMLID_399_">
				<g>
					<path id="XMLID_187_" fill="#96D5D2" d="M423.671,108.017c-0.179,0-0.352-0.097-0.44-0.266
						c-0.128-0.243-0.034-0.544,0.209-0.671l4.947-2.599c0.243-0.128,0.544-0.034,0.671,0.209c0.128,0.243,0.034,0.544-0.209,0.671
						l-4.947,2.599C423.828,107.999,423.749,108.017,423.671,108.017z"/>
				</g>
			</g>
		</g>
		<g id="XMLID_16_">
			<path fill="#F6998E" d="M423.835,226.436c0.238-2.412,0.371-7.159,0.435-10.019l-7.281-0.647
				c0.225,2.536,0.185,5.886-0.081,8.009c-0.212,2.24,0.413,3.295,1.449,4.238L423.835,226.436z"/>
		</g>
		<g id="XMLID_209_">
			<path fill="#F6998E" d="M399.992,134.009l-5.635,2.706l-1.811-8.44c-1.528-0.268-2.832-2.991-2.817-3.714
				c0.022-1.118,1.391-1.842,2.278-2.334c0.082-0.544-0.894-4.062,0.544-4.293c0.701-0.119,1.222,4.39,1.886,4.174
				c0.701-0.224-0.224-1.685,0.604-1.975c0.604-0.209,1.632,2.221,1.409,3.869c-0.067,0.499-0.251,1.501-0.191,2.186
				L399.992,134.009z"/>
		</g>
		<g id="XMLID_15_">
			<path fill="#F6998E" d="M442.696,213.679c0.82,6.114,0.846,5.349,0.846,5.349c-2.505,2.177-3.923,2.131-6.429,1.133l-1.031-6.483
				l1.866-3.187L442.696,213.679z"/>
		</g>
		<path id="XMLID_11_" fill="#1D4174" d="M433.305,167.332c2.078,4.114,7.119,29.409,9.392,46.348c-2.107,0.572-4.817,0.607-6.614,0
			l-17.725-45.244L433.305,167.332"/>
		<path id="XMLID_14_" fill="#89B7E2" d="M429.004,167.84c0.056,9.004-5.558,21.207-5.144,29.316
			c0.086,1.68,0.618,11.918,0.409,21.235l-0.014,0c-2.664,0.45-4.952-0.187-7.202-1.625c-0.381-6.721-1.942-14.003-3.004-17.717
			c-1.319-4.614-0.528-23.326-0.528-30.613L429.004,167.84z"/>
		<path id="XMLID_18_" fill="#4E7EAC" d="M429.002,167.836l-15.479,0.601c8.676,2.013,9.338,2.013,9.338,2.013
			s-3.054,23.14-2.453,27.174c0.25,1.724,1.276,5.797,1.518,9.885c0.32,5.368,0.562,10.774,0.57,11.016c0,0.008,0,0.008,0,0.008
			h0.039c0.581,0.002,1.154-0.044,1.716-0.14h0.016c0.211-9.315-0.32-19.559-0.406-21.236
			C423.447,189.049,429.056,176.84,429.002,167.836z"/>
		<path id="XMLID_64_" fill="#1D4174" d="M424.297,215.646c0.008,0.14,0.008,0.273,0,0.406c-0.351,0.101-0.897,0.156-1.545,0.156
			c-0.702,0-1.521-0.062-2.356-0.195l0.218,2.294c-0.062-0.016-0.133-0.031-0.203-0.047c-0.07-0.016-0.14-0.031-0.203-0.055
			l-0.218-2.262c-1.123-0.203-2.231-0.531-3.066-0.991c-0.008-0.156-0.023-0.32-0.039-0.476c0.804,0.515,1.927,0.858,3.066,1.069
			l-1.724-17.913c-0.039-0.437-0.031-0.882,0.031-1.326l3.339-23.288c-3.48-0.374-5.305-3.09-5.82-4.665l0.421-0.016
			c0.499,1.482,2.177,3.948,5.453,4.299l0.648-4.533l0.39,0.055l-4.041,28.164c-0.062,0.437-0.078,0.882-0.031,1.326l1.74,17.967
			C422.066,215.888,423.728,215.864,424.297,215.646z"/>
		<path id="XMLID_68_" fill="#F6998E" d="M426.76,112.348c-0.866-4.739-6.145-10.364-12.113-8.244
			c-3.35,1.19-0.899,4.054,1.138,5.258c0,0-2.932-0.174-2.229,1.628c0.217,0.556,1.115,0.841,1.993,0.99
			c-0.986,1.673-1.684,3.397-2.095,5.039l-1.574,1.644c-0.294,0.307-0.107,0.818,0.316,0.862l0.837,0.087
			c-0.278,4.155,1.589,7.093,5.513,5.92v4.148l7.346-0.419v-4.169c0.28-0.13,0.546-0.309,0.78-0.557
			C428.615,122.478,433.023,112.813,426.76,112.348z"/>
		<g id="XMLID_26_">
			<path id="XMLID_19_" fill="#BB5965" d="M418.549,125.531c1.327-0.396,2.442-1.02,2.442-1.02c-0.451,0.958-1.35,1.858-2.442,2.734
				L418.549,125.531z"/>
			<path id="XMLID_20_" fill="#BB5965" d="M413.456,117.018l-1.574,1.644c-0.294,0.307-0.107,0.818,0.316,0.862l0.837,0.087
				C413.091,118.786,413.231,117.915,413.456,117.018z"/>
			<path id="XMLID_1574_" fill="#0D2033" d="M426.76,112.348c-0.866-4.739-6.145-10.364-12.113-8.244
				c-3.35,1.19-0.899,4.054,1.138,5.258c0,0-2.932-0.174-2.229,1.628c0.454,1.161,3.882,1.15,3.882,1.15s-1.967,1.247-0.632,1.972
				c0.763,0.415,2.346,0.748,3.313,1.216c0.353,0.171,0.563,0.641,0.689,1.228c1.695-0.302,3.221,2.633,0.179,4.331
				c0.038,1.293,0.239,2.813,1.081,3.605c0.718,0.675,3.19,1.54,4.605,0.041C428.615,122.478,433.023,112.813,426.76,112.348z"/>
			<path id="XMLID_1573_" fill="#0D2033" d="M420.885,121.32c-0.133,0-0.263-0.072-0.329-0.198
				c-0.096-0.182-0.027-0.407,0.155-0.504c1.054-0.559,1.64-1.322,1.649-2.15c0.007-0.593-0.295-1.149-0.77-1.416
				c-0.365-0.205-0.767-0.193-1.13,0.035c-0.175,0.109-0.404,0.057-0.514-0.118c-0.109-0.174-0.057-0.404,0.118-0.514
				c0.597-0.374,1.286-0.394,1.891-0.053c0.709,0.398,1.161,1.212,1.15,2.075c-0.008,0.644-0.284,1.865-2.046,2.799
				C421.003,121.306,420.944,121.32,420.885,121.32z"/>
			<path id="XMLID_401_" fill="#BB5965" d="M421.342,117.55c-0.34-0.122-0.85-0.104-1.137,0.127
				c-0.106,0.085,0.077,0.261,0.178,0.224c0.577-0.214,1.283-0.244,1.568,0.431c0.015,0.036,0.041-0.001,0.036-0.026
				C421.913,117.934,421.706,117.681,421.342,117.55z"/>
			<path id="XMLID_383_" fill="#BB5965" d="M421.074,117.604c-0.064-0.03-0.21,0.129-0.196,0.174
				c0.094,0.044,0.243,0.151,0.315,0.277c0.122,0.216,0.157,0.403,0.137,0.653c-0.047,0.575-0.37,0.988-0.931,1.119
				c-0.01,0.002-0.027,0.031-0.01,0.036c0.489,0.122,1.042-0.383,1.154-0.82C421.666,118.557,421.633,117.869,421.074,117.604z"/>
		</g>
		<path id="XMLID_13_" fill="#5EC4BB" d="M394.005,135.413"/>
		<g id="XMLID_67_">
			<path id="XMLID_8_" fill="#228D7E" d="M424.564,228.737c0,0,0.564-4.42-0.743-4.42c-2.18,0-1.662,2.161-4.023,2.285
				c-2.361,0.124-2.802-3.656-2.802-3.656c-3.659,2.274-10.766-3.764-10.766,1.722c0.258,1.968,4.994,4.02,9.4,5.966
				c1.605,0.709,4.805,3.215,6.148,3.485c1.032,0.208,2.691-0.753,2.579-2.216L424.564,228.737z"/>
			<path id="XMLID_106_" fill="#007E72" d="M424.567,228.738l-0.209,3.168c0.112,1.461-1.55,2.423-2.579,2.214
				c-0.589-0.119-1.543-0.671-2.557-1.312c2.236-0.827,1.744-4.83,2.065-6.753c0.805-0.678,1.006-1.737,2.534-1.737
				C425.126,224.318,424.567,228.738,424.567,228.738z"/>
			<path id="XMLID_83_" fill="#4DA693" d="M412.03,225.039c-2.256-0.316-4.676-0.373-5.01,0.956c-0.447-0.447-0.73-0.887-0.79-1.327
				c0-5.486,7.104,0.552,10.763-1.722c0,0,0.021,0.179,0.077,0.457C416.51,224.313,414.136,225.335,412.03,225.039z"/>
			<path id="XMLID_77_" fill="#8FC9C6" d="M424.366,231.735l0.036,0.168c0.112,1.461-1.594,2.426-2.623,2.217
				c-1.342-0.268-4.547-2.773-6.149-3.488c-4.405-1.946-9.138-3.995-9.399-5.963c0-0.321,0.022-0.604,0.075-0.85
				c-0.5,2.754,9.489,5.814,10.562,6.537C418.432,231.392,422.785,234.828,424.366,231.735z"/>
			<path id="XMLID_108_" fill="#81BCB6" d="M424.403,231.906c0.075,0.976-0.663,1.729-1.468,2.057
				c-0.402,0.164-0.812,0.224-1.155,0.157c-0.075-0.015-0.157-0.037-0.239-0.067c-0.045-0.015-0.097-0.03-0.149-0.052
				c-0.06-0.022-0.127-0.052-0.194-0.082c-0.559-0.239-1.252-0.648-1.975-1.111c0.306-0.112,0.559-0.283,0.768-0.499
				c1.67,0.827,3.473,1.193,4.375-0.574v0.015L424.403,231.906z"/>
			<path id="XMLID_39_" fill="#A4DAD2" d="M406.408,225.185c0.029,0.058,0.056,0.116,0.093,0.174
				c0.042,0.067,0.093,0.134,0.143,0.201c0.037,0.049,0.073,0.098,0.114,0.147c0.054,0.064,0.114,0.128,0.175,0.193
				c0.028,0.03,0.059,0.059,0.089,0.089c0.041-0.159,0.107-0.293,0.196-0.404c-0.651-0.586-1.019-1.183-0.913-1.766
				c-0.025,0.118-0.042,0.246-0.055,0.381c-0.013,0.146-0.02,0.301-0.02,0.468c0.015,0.115,0.049,0.23,0.094,0.346
				C406.346,225.071,406.379,225.128,406.408,225.185z"/>
			<path id="XMLID_116_" fill="#8FC9C6" d="M415.868,223.386c-0.678,0.328-1.148,1.006-1.2,1.245
				c-0.015,0.089-0.097,0.149-0.179,0.149c-0.015,0-0.03,0-0.045-0.007c-0.097-0.015-0.164-0.119-0.142-0.216
				c0.052-0.246,0.335-0.701,0.768-1.081C415.339,223.468,415.607,223.439,415.868,223.386z"/>
			<path id="XMLID_104_" fill="#8FC9C6" d="M414.094,223.439c-0.619,0.328-1.029,0.902-1.081,1.118
				c-0.022,0.089-0.097,0.149-0.179,0.149c-0.015,0-0.03,0-0.045-0.007c-0.097-0.022-0.164-0.119-0.142-0.216
				c0.052-0.253,0.38-0.738,0.88-1.118C413.721,223.401,413.908,223.424,414.094,223.439z"/>
			<path id="XMLID_115_" fill="#8FC9C6" d="M412.678,223.207c-0.76,0.298-1.23,0.976-1.275,1.163
				c-0.022,0.082-0.097,0.142-0.179,0.142c-0.015,0-0.03,0-0.045-0.007c-0.097-0.022-0.164-0.119-0.142-0.224
				c0.06-0.268,0.47-0.835,1.081-1.2C412.305,223.125,412.491,223.17,412.678,223.207z"/>
		</g>
		<g id="XMLID_31_">
			<path id="XMLID_142_" fill="#228D7E" d="M444.066,219.25c0,0-0.195-4.091-1.378-3.883c-1.974,0.348-1.16,2.221-3.278,2.711
				c-2.118,0.489-3.12-2.862-3.12-2.862c-2.95,2.643-10.347-1.689-9.472,3.277c0.547,1.74,5.163,2.842,9.462,3.901
				c1.566,0.386,4.863,2.144,6.122,2.174c0.968,0.023,2.316-1.111,1.981-2.418L444.066,219.25z"/>
			<path id="XMLID_141_" fill="#007E72" d="M444.069,219.25l0.317,2.901c0.334,1.305-1.017,2.441-1.981,2.416
				c-0.552-0.014-1.504-0.361-2.524-0.78c1.892-1.106,0.808-4.651,0.791-6.443c0.62-0.743,0.634-1.733,2.017-1.977
				C443.869,215.159,444.069,219.25,444.069,219.25z"/>
			<path id="XMLID_138_" fill="#4DA693" d="M432.128,217.903c-2.093,0.074-4.293,0.409-4.383,1.665
				c-0.476-0.333-0.803-0.686-0.927-1.075c-0.876-4.967,6.519-0.635,9.47-3.277c0,0,0.048,0.159,0.143,0.402
				C436.069,216.53,434.082,217.834,432.128,217.903z"/>
			<path id="XMLID_134_" fill="#8FC9C6" d="M444.365,221.995l0.06,0.147c0.334,1.305-1.056,2.45-2.021,2.426
				c-1.258-0.029-4.559-1.785-6.124-2.177c-4.299-1.058-8.911-2.158-9.461-3.898c-0.051-0.29-0.076-0.55-0.068-0.781
				c-0.013,2.573,9.519,3.749,10.606,4.232C438.939,222.632,443.428,225.048,444.365,221.995z"/>
			<path id="XMLID_131_" fill="#81BCB6" d="M444.426,222.145c0.223,0.872-0.325,1.671-1.001,2.097
				c-0.338,0.213-0.7,0.332-1.021,0.326c-0.07-0.002-0.148-0.009-0.227-0.023c-0.043-0.006-0.092-0.012-0.143-0.023
				c-0.058-0.011-0.123-0.027-0.189-0.043c-0.544-0.127-1.237-0.387-1.966-0.69c0.259-0.15,0.461-0.346,0.615-0.575
				c1.644,0.483,3.335,0.525,3.87-1.218l0.002,0.014L444.426,222.145z"/>
			<path id="XMLID_124_" fill="#A4DAD2" d="M427.062,218.932c0.036,0.048,0.07,0.096,0.112,0.143
				c0.049,0.054,0.106,0.107,0.162,0.159c0.041,0.039,0.081,0.077,0.127,0.115c0.059,0.049,0.124,0.098,0.19,0.147
				c0.03,0.022,0.063,0.044,0.094,0.066c0.012-0.151,0.05-0.282,0.113-0.397c-0.683-0.426-1.112-0.908-1.109-1.453
				c-0.004,0.111,0.001,0.229,0.011,0.354c0.012,0.134,0.03,0.276,0.057,0.427c0.032,0.102,0.081,0.201,0.14,0.298
				C426.988,218.839,427.027,218.885,427.062,218.932z"/>
			<path id="XMLID_113_" fill="#8FC9C6" d="M435.339,215.794c-0.562,0.405-0.879,1.094-0.888,1.319
				c0.001,0.083-0.064,0.15-0.138,0.164c-0.013,0.002-0.027,0.005-0.042,0c-0.09,0.002-0.168-0.082-0.163-0.173
				c0.008-0.231,0.192-0.688,0.522-1.101C434.873,215.952,435.111,215.883,435.339,215.794z"/>
			<path id="XMLID_71_" fill="#8FC9C6" d="M433.742,216.124c-0.508,0.396-0.787,0.981-0.8,1.185
				c-0.006,0.085-0.064,0.15-0.138,0.164c-0.014,0.002-0.027,0.005-0.042,0c-0.091-0.005-0.167-0.082-0.163-0.173
				c0.007-0.238,0.226-0.729,0.618-1.153C433.398,216.15,433.57,216.14,433.742,216.124z"/>
			<path id="XMLID_40_" fill="#8FC9C6" d="M432.422,216.141c-0.641,0.391-0.958,1.08-0.968,1.256
				c-0.007,0.078-0.065,0.144-0.139,0.157c-0.013,0.002-0.027,0.005-0.042,0c-0.091-0.005-0.168-0.082-0.164-0.18
				c0.011-0.252,0.292-0.831,0.787-1.259C432.072,216.126,432.248,216.137,432.422,216.141z"/>
		</g>
		<path id="XMLID_7_" fill="#5EC4BB" d="M434.274,131.024c6.306,5.883-0.867,11.987-1,22.652
			c-0.056,4.463,1.231,12.588,0.031,13.655c-1.229,1.093-14.317,1.641-19.119,1.479c-0.98-0.033-1.751-0.831-1.748-1.812
			c0.009-2.639,0.025-7.861,0.025-10.147c0-3.125-2.043-16.362-2.962-17.282c-0.919-0.919,2.724-8.945,5.234-9.512
			C417.308,129.477,431.284,128.236,434.274,131.024z"/>
		<path id="XMLID_112_" fill="#96D5D2" d="M415.995,168.839c-0.686,0-1.297-0.007-1.811-0.03c-0.976-0.03-1.752-0.827-1.744-1.811
			c0.007-2.639,0.022-7.856,0.022-10.145c0-3.123-2.042-16.361-2.959-17.286c-0.857-0.857,2.251-7.894,4.711-9.295
			c0.194,0.335,0.954,22.056,1.126,26.238C415.503,160.729,414.81,166.953,415.995,168.839z"/>
		<path id="XMLID_63_" fill="#06A297" d="M415.335,129.944c0.79-0.249,8.054-0.292,12.935-0.553c0,0,1.149,2.007-1.471,2.487
			C421.642,132.823,417.939,130.101,415.335,129.944z"/>
		<path id="XMLID_41_" fill="#5EC4BB" d="M426.283,127.596l1.072-0.162c0.653,0.394,0.953,0.89,0.953,1.735
			c0,0.852-1.552,1.574-2.976,1.772c-3.465,0.482-8.059-1.284-9.333-1.097l2.551-1.156c0,0,3.806,0.444,6.161,0.444
			C426.28,129.132,426.283,127.596,426.283,127.596z"/>
		<path id="XMLID_210_" fill="#96D5D2" d="M410.711,143.923c-0.052-0.253-0.097-0.499-0.149-0.738
			c-0.395-1.923-0.775-3.332-1.058-3.615c-0.857-0.857,2.251-7.894,4.711-9.295c0.104,0.179,0.365,6.463,0.626,12.91
			c0.022,0.641,0.045,1.29,0.067,1.931C414.55,143.781,412.873,143.64,410.711,143.923z"/>
		<path id="XMLID_208_" fill="#06A297" d="M411.24,146.875c-0.171-1.036-0.35-2.035-0.529-2.952
			c2.162-0.283,3.839-0.142,4.197,1.193C414.908,145.116,412.253,145.359,411.24,146.875z"/>
		<path id="XMLID_70_" fill="#5EC4BB" d="M414.735,130.058c-4.683,0.658-9.135,6.039-12.857,7.73l-2.588-5.248l-5.286,2.873
			c0,0,2.297,9.756,5.065,11.737c3.316,2.373,15.918-6.394,15.918-1.436C416.697,141.161,416.101,136.249,414.735,130.058z"/>
		<path id="XMLID_402_" fill="#96D5D2" d="M399.946,132.184c-0.197-0.362-0.649-0.495-1.011-0.299l-5.286,2.873
			c-0.362,0.197-0.495,0.649-0.299,1.011c0.135,0.249,0.391,0.39,0.656,0.39c0.12,0,0.242-0.029,0.355-0.091l5.286-2.873
			C400.009,132.998,400.143,132.546,399.946,132.184z"/>
		<g id="XMLID_894_">
			<circle id="XMLID_896_" fill="#0D1F44" cx="415.741" cy="117.676" r="0.549"/>
			<path id="XMLID_895_" fill="#0D1F44" d="M416.33,115.882c0.864,0.264,0.918,1.121,0.918,1.121l-2.507-0.796
				C414.741,116.207,415.279,115.562,416.33,115.882z"/>
		</g>
	</g>
	<g id="XMLID_297_">
		
			<ellipse id="XMLID_100_" transform="matrix(-0.9032 -0.4292 0.4292 -0.9032 114.4999 513.9301)" fill="#E6F6FD" cx="115.202" cy="244.054" rx="107.811" ry="62.924"/>
		<g id="XMLID_267_">
			<g id="XMLID_86_">
				<path fill="#F6998E" d="M138.171,113.56l5.029-1.495l1.344-6.925c0.146-0.753,0.954-1.748,1.302-2.431
					c0.598-1.174,2.501-2.911,2.176-3.244c-0.688-0.706-1.732,1.021-1.891,0.307c-0.285-1.282,1.669-4.858,0.93-4.996
					c-0.845-0.157-2.197,3.987-2.382,3.547c-0.489-1.162,0.109-4.549-0.615-4.466c-0.514,0.059-0.979,5.235-1.216,4.896
					c-0.786-1.123-0.354-4.456-1.026-4.266c-0.858,0.243-0.562,4.751-0.869,4.329c-0.478-0.655-1.15-2.335-1.491-2.208
					c-0.478,0.178,0.516,4.423,0.826,5.742c0.404,1.722,0.073,2.552-0.428,4.378C139.322,108.686,138.698,111.023,138.171,113.56z"
					/>
			</g>
			<g id="XMLID_57_">
				<path fill="#F6998E" d="M170.762,119.127l4.693-2.345l0.121-5.562c0.013-0.767,0.117-1.548,0.465-2.231
					c0.598-1.174,2.718-2.92,2.393-3.253c-0.688-0.706-1.732,1.021-1.891,0.307c-0.285-1.282,1.669-4.858,0.93-4.996
					c-0.845-0.157-2.197,3.987-2.382,3.547c-0.489-1.162,0.109-4.549-0.615-4.466c-0.514,0.059-0.979,5.235-1.216,4.896
					c-0.786-1.123-0.354-4.456-1.026-4.266c-0.858,0.243-0.562,4.751-0.869,4.329c-0.478-0.655-1.15-2.335-1.491-2.208
					c-0.478,0.178,0.516,4.423,0.826,5.742c0.404,1.722,0.716,1.6,0.539,3.485C171.049,114.128,170.84,116.537,170.762,119.127z"/>
			</g>
			<path id="XMLID_82_" fill="#5EC4BB" d="M139.065,109.569c0,0-2.196,8.3-2.146,9.05c0.212,3.206,8.902,18.466,9.131,18.696
				l3.606-8.399c0,0-6.922-9.294-6.805-11.225l0.941-7.493L139.065,109.569z"/>
			<path id="XMLID_363_" fill="#F6998E" d="M158.876,123.215c0,0-0.427,3.056-0.427,5.086c3.939,3.526,1.868,6.876-4.634,9.633
				c-2.34-0.359-4.085-8.118-3.458-8.432c0,0,0.18-1.232,0.003-1.717c-0.547,0.048-1.478,0.425-2.006-0.439
				c-1.04-1.7-1.74-9.356,0.41-12.212c-1.456-0.38-1.897-0.772-3.055-1.392c3.533-0.503,9.766-7.969,13.501-1.302
				c0,0,2.952,0.477,2.916,3.205C162.125,115.644,159.665,123.227,158.876,123.215z"/>
			<path id="XMLID_865_" fill="#BB5965" d="M149.83,120.724c-0.146-0.051-0.786,1.512-0.681,1.873
				c0.043,0.15,0.209,0.353,0.324,0.391c0.111,0.063,0.315,0.024,0.396-0.07C150.067,122.69,149.972,120.801,149.83,120.724z"/>
			<path id="XMLID_214_" fill="#0D2033" d="M158.876,123.215c0.017-0.057-0.222,1.867-0.222,1.867s-0.413-0.237-0.615-0.426
				c-0.239-0.224-1.044-1.938-1.015-2.076c0,0,0.838,0.111,1.328-0.795c1.454-2.685-1.081-4.23-2.385-1.51
				c-0.223,0.464-0.883-4.894-2.049-4.612c-3.008,0.727-6.203-0.44-8.738-1.794c3.532-0.502,10.153-9.016,13.887-2.345
				c0,0,3.787,0.91,3.748,3.638c0,0,3.125-0.42,5.207,1.928c2.772,3.126-2.236,12.614,1.191,14.402
				c-2.866,3.254-9.143-0.899-7.56-9.874C161.104,122.675,160.158,123.259,158.876,123.215z"/>
			<path id="XMLID_404_" fill="#283C4D" d="M169.217,131.487c-0.568,0.647-1.273,0.996-2.026,1.081
				c-0.029,0.004-0.058,0.009-0.087,0.013c-0.918-1.07-1.12-2.714-1.039-4.516c0.105-2.848,0.903-6.085,0.596-8.05
				c-0.334-2.131-1.911-2.951-3.073-2.91c-0.561,0.015-0.962-0.878-0.774-1.941c0,0,3.13-0.422,5.206,1.921
				C170.798,120.214,165.786,129.699,169.217,131.487z"/>
			<g id="XMLID_856_">
				<path id="XMLID_898_" fill="#0D1F44" d="M151.911,119.991c0.261,0.095,0.454,0.389,0.43,0.656s-0.968-0.077-0.945-0.344
					S151.65,119.896,151.911,119.991z"/>
				<path id="XMLID_897_" fill="#0D1F44" d="M151.207,119.42l1.813,0.639c0,0-0.171-0.642-0.794-0.854
					C151.468,118.946,151.207,119.42,151.207,119.42z"/>
				<path id="XMLID_864_" fill="#0D1F44" d="M149.118,118.77c0.261,0.095,0.454,0.389,0.43,0.656s-0.968-0.077-0.945-0.344
					S148.857,118.675,149.118,118.77z"/>
				<path id="XMLID_863_" fill="#0D1F44" d="M149.875,118.731l-1.809-0.679c0,0,0.269-0.481,0.89-0.241
					C149.71,118.103,149.875,118.731,149.875,118.731z"/>
			</g>
			<path id="XMLID_288_" fill="#89B7E2" d="M167.759,161.963c0,0-7.982,6.039-18.576,1.724c-4.744-1.932-5.52-3.604-5.054-5.443
				c-1.372,2.707-10.282,7.502-10.282,7.502l16.86,15.814c0,0,13.475-1.563,16.96-9.422
				C170.441,165.882,167.759,161.963,167.759,161.963z"/>
			<path id="XMLID_362_" fill="#4E7EAC" d="M167.664,172.141c-3.482,7.852-16.961,9.417-16.961,9.417l-0.577-0.53
				c16.145-4.421,16.986-13.556,16.546-15.834c0,0-1.072,1.379-9.416,1.121c-10.78-0.329-12.682-4.104-13.115-6.372
				c0.407,1.222,1.783,2.42,5.043,3.741c10.59,4.319,18.57-1.72,18.57-1.72S170.442,165.885,167.664,172.141z"/>
			<path id="XMLID_348_" fill="#274E7A" d="M164.284,169.118c-0.909,3.658-4.16,6.656-8.699,8.027l-0.199,0.058l-0.124-0.406
				l0.199-0.058c4.219-1.272,7.284-3.976,8.29-7.297c-0.161,0.011-0.329,0.013-0.497-0.001c-2.673-0.234-4.55-3.125-5.02-4.202
				l-0.084-0.193l0.385-0.168l0.084,0.193c0.442,1.015,2.19,3.735,4.663,3.952c0.192,0.017,0.394,0.018,0.598,0.002
				c0.47-1.912,0.128-3.676-0.919-4.702l-0.155-0.148l0.296-0.302l0.155,0.148C164.412,165.156,164.792,167.066,164.284,169.118z"/>
			<polygon id="XMLID_278_" fill="#4E7EAC" points="143.814,170.225 150.149,165.655 146.995,171.628 			"/>
			<path id="XMLID_364_" fill="#FCB753" d="M167.759,161.965c0,0-7.98,6.038-18.579,1.719c-6.096-2.478-5.648-4.526-4.416-7.062
				c0.904-1.865,2.234-3.988,1.676-6.747c-0.67-3.308-3.913-4.986-3.194-10.133c0.382-2.744,3.835-10.141,6.264-11.564
				c0.28-0.164,0.981,0.032,0.987,0.161c0.163,3.445,0.035,5.8,2.479,6.896c4.76-0.833,8.888-2.113,5.472-6.934
				c3.944,2.929,7.575,4.783,8.08,9.12C167.517,145.95,165.545,157.739,167.759,161.965z"/>
			<path id="XMLID_367_" fill="#ED9E3C" d="M167.408,161.096c-4.786,1.915-11.111,2.995-11.952,1.594
				c5.625-8.163,1-15.384,0.556-21.427c-0.238-3.163,2.641-5.39,3.242-8.508c0.733-1.002,0.641-2.404-0.79-4.437
				c0.238,0.17,0.484,0.351,0.731,0.513l0.008,0.01C158.091,128.06,166.38,157.775,167.408,161.096z"/>
			<path id="XMLID_366_" fill="#ED9E3C" d="M146.792,157.848l-2.361-0.485c0.095-0.235,0.211-0.487,0.336-0.738
				c0.902-1.867,2.229-3.995,1.675-6.747c-0.576-2.819-3.51-9.572-3.438-10.183c0.392-2.811,4.194-10.431,6.663-11.606
				c0.226-0.107,0.829,0.119,0.835,0.248c0.019,0.408,0.036,0.796,0.06,1.174c-2.15,2.449-2.852,7.165-3.137,9.46
				c-0.263,2.156,1.648,7.1,1.528,8.932C148.584,153.536,147.739,154.583,146.792,157.848z"/>
			<path id="XMLID_1678_" fill="#BB5965" d="M150.569,129.294c0.041-0.383-0.209-1.509-0.209-1.509
				c1.375-0.12,4.41-0.872,5.691-2.273C155.878,126.14,153.096,130.055,150.569,129.294z"/>
			<path id="XMLID_152_" fill="#06A297" d="M148.013,128.866c-1.422,1.255-2.813,2.936-3.919,5.054
				c-0.217-0.603-0.95-1.725-0.95-1.725L148.013,128.866z"/>
			<g id="XMLID_50_">
				<g>
					<path id="XMLID_188_" fill="#96D5D2" d="M138.957,110.18c-0.326-0.058-0.552-0.362-0.507-0.694
						c0.045-0.34,0.358-0.579,0.698-0.534l4.727,0.629c0.335,0.055,0.579,0.358,0.534,0.698c-0.045,0.34-0.358,0.579-0.698,0.534
						l-4.727-0.629C138.974,110.183,138.965,110.182,138.957,110.18z"/>
				</g>
			</g>
			<path id="XMLID_289_" fill="#5EC4BB" d="M175.79,115.886c0,0,0.72,8.551,0.54,9.284c-0.509,2.075-5.465,8.75-8.722,13.318
				c-1.162,1.59-1.223,17.256,1.914,19.896c-4.143,1.491-12.97,3.665-13.895,2.118c4.448-6.535,0.832-13.2,0.385-19.237
				c-0.329-4.472,5.528-7.056,2.441-12.957c0.82,0.609,1.677,1.18,2.528,1.721c3.162,2,9.547-5.764,9.665-6.802l0.245-5.719
				l0.003-0.057l0.131-1.764l4.518,0.187L175.79,115.886z"/>
			<path id="XMLID_303_" fill="#96D5D2" d="M169.522,158.383c-0.484,0.23-1.081,0.478-1.764,0.721
				c-3.137-2.64-1.764-18.007-1.764-18.007s0.452-1.019,1.614-2.609C167.608,145.749,166.733,154.569,169.522,158.383z"/>
			<g id="XMLID_52_">
				<path id="XMLID_55_" fill="#96D5D2" d="M175.897,116.496c-0.044,0.008-0.089,0.011-0.135,0.009l-4.765-0.201
					c-0.343-0.014-0.609-0.304-0.594-0.647c0.014-0.343,0.305-0.61,0.647-0.594l4.765,0.201c0.343,0.014,0.609,0.304,0.594,0.647
					C176.396,116.207,176.177,116.446,175.897,116.496z"/>
			</g>
			<path id="XMLID_1677_" fill="#5EC4BB" d="M150.565,129.511c-2.153,2.449-4.283,6.908-4.566,9.209
				c-0.264,2.159,1.443,5.738,1.283,7.57c-0.457,5.229-0.421,9.16-1.868,10.736l-3.116-0.516c0.899-1.867,2.759-5.663,2.202-8.425
				c-0.515-2.527-2.87-4.593-2.365-9.007c0.468-4.143,4.216-9.613,7.15-11.051c0.404,0.038,0.842,0.046,1.308,0.032L150.565,129.511
				z"/>
			<path id="XMLID_387_" fill="#BB5965" d="M158.471,120.025c0.005,0.023-0.02,0.066-0.035,0.035
				c-0.28-0.588-0.974-0.373-1.541-0.011c-0.101,0.064-0.28-0.06-0.175-0.173c0.282-0.303,0.784-0.455,1.118-0.425
				C158.194,119.485,158.398,119.679,158.471,120.025z"/>
			<path id="XMLID_382_" fill="#BB5965" d="M158.033,120.866c-0.11,0.46-0.654,1.102-1.135,1.111c-0.016,0,0-0.033,0.01-0.038
				c0.552-0.276,0.87-0.767,0.916-1.345c0.02-0.252-0.014-0.426-0.134-0.606c-0.07-0.105-0.217-0.171-0.31-0.19
				c-0.013-0.04,0.13-0.236,0.193-0.223C158.122,119.689,158.155,120.356,158.033,120.866z"/>
		</g>
		<g id="XMLID_1254_">
			<g id="XMLID_1251_">
				<path id="XMLID_1253_" fill="#47BD99" d="M223.372,238.916c4.595-3.829,8.91-2.44,13.308-4.213
					c4.398-1.774,2.524-6.162-0.633-8.168c-3.157-2.007,0.715-3.951,3.884-5.803c3.169-1.851,5.646-6.482-4.431-7.485
					c-10.077-1.003-21.994,3.882-27.756,12.208c-5.763,8.325-4.432,18.333-4.432,18.333
					C210.524,244.632,218.778,242.746,223.372,238.916z"/>
				<path id="XMLID_1252_" fill="none" stroke="#485CAA" stroke-width="1.2409" stroke-linecap="round" stroke-miterlimit="10" d="
					M206.111,243.501c4.136-16.604,17.424-25.391,30.548-27.481"/>
			</g>
			<g id="XMLID_1248_">
				<path id="XMLID_1250_" fill="#96D1A9" d="M190.17,217.637c5.006-4.445,4.361-9.885,4.222-16.453
					c-0.139-6.568,3.207-8.256,7.835-8.73c3.785-0.388,7.42-2.971,10.554-5.52c6.157-5.008,10.757-3.532,12.29-1.457
					c3.26,4.411-2.939,7.583-3.017,12.764c-0.078,5.181,6.191,4.672,5.511,9.915c-0.68,5.242-5.228,5.404-9.794,11.324
					c-4.566,5.919,3.989,10.723-1.91,18.478c-5.9,7.755-19.336,6.527-19.336,6.527C179.813,235.95,183.422,223.627,190.17,217.637z"
					/>
				<path id="XMLID_1249_" fill="none" stroke="#485CAA" stroke-width="1.2409" stroke-linecap="round" stroke-miterlimit="10" d="
					M196.525,244.483c2.226-26.917,13.514-46.92,23.665-57.421"/>
			</g>
		</g>
		<g id="XMLID_893_">
			<g id="XMLID_1315_">
				<path id="XMLID_1317_" fill="#50BFA4" d="M81.597,214.017c0,0-2.384-12.417-9.175-19.332
					c-6.791-6.915-27.461-16.969-32.605-14.067c-4.059,2.29,1.67,33.849,21.975,45.223L81.597,214.017L81.597,214.017z"/>
				<path id="XMLID_1316_" fill="none" stroke="#485CAA" stroke-width="1.05" stroke-linecap="round" stroke-miterlimit="10" d="
					M42.472,183.649c0,0,17.353,12.108,27.292,32.914"/>
			</g>
			<g id="XMLID_1312_">
				<path id="XMLID_1314_" fill="#23A483" d="M79.001,214.828c0,0-8.828-31.889-16.154-44.727
					c-5.553-9.73-13.242-17.413-25.859-21.254c-8.318-2.532-15.578-0.472-12.704,2.733c2.875,3.205,10.615,7.022,22.095,18.917
					c10.372,10.746,22.595,33.381,25.407,45.883L79.001,214.828z"/>
				<path id="XMLID_1313_" fill="none" stroke="#485CAA" stroke-width="1.05" stroke-linecap="round" stroke-miterlimit="10" d="
					M28.075,150.583c9.862,3.523,22.469,11.62,29.908,23.915c7.438,12.296,14.127,34.35,15.487,41.52"/>
			</g>
		</g>
		<g id="XMLID_222_">
			<path id="XMLID_80_" fill="#FFFFFF" stroke="#0D2033" stroke-width="3" stroke-miterlimit="10" d="M195.505,181.021v0.157
				c-0.031,0.659-0.377,1.298-1.036,1.675l-5.422,3.13l-38.634,22.305c-3.245,1.874-7.233,1.874-10.467,0l-72.567-41.889
				l-5.422-3.13c-0.701-0.398-1.047-1.109-1.047-1.821c0-0.701,0.345-1.403,1.047-1.811l44.066-25.435
				c3.234-1.874,7.222-1.874,10.467,0l77.979,45.029C195.15,179.629,195.505,180.32,195.505,181.021z"/>
			<path id="XMLID_79_" fill="#4EC6F2" d="M195.505,181.178v62.896c-0.01,0.68-0.356,1.371-1.036,1.758l-45.102,26.042
				c-2.596,1.497-5.788,1.497-8.374,0l-79.036-45.626c-0.701-0.398-1.047-1.109-1.047-1.811v-62.99c0,0.712,0.345,1.423,1.047,1.821
				l5.422,3.13l72.567,41.889c3.234,1.874,7.222,1.874,10.467,0l38.634-22.305l5.422-3.13
				C195.129,182.476,195.474,181.838,195.505,181.178z"/>
			<path id="XMLID_287_" fill="#4EC6F2" d="M195.503,181.178v4.48l-3.138,1.811l-43.166,24.918c-3.623,2.095-8.08,2.095-11.695,0
				l-76.596-44.217v-6.723c0,0.716,0.35,1.424,1.051,1.819l5.419,3.131l72.571,41.891c3.235,1.871,7.223,1.871,10.465,0
				l38.634-22.302l5.419-3.131C195.13,182.475,195.473,181.841,195.503,181.178z"/>
			<path id="XMLID_284_" fill="#0C81C3" d="M195.503,185.657v7.312l-47.474,27.408c-2.9,1.67-6.47,1.67-9.355,0l-77.767-44.895
				v-7.312l76.596,44.217c3.615,2.095,8.073,2.095,11.695,0l43.166-24.918L195.503,185.657z"/>
			<path id="XMLID_211_" fill="#4EC6F2" d="M201.815,177.848v0.175c-0.035,0.737-0.421,1.45-1.158,1.871l-6.058,3.497
				l-43.165,24.921c-3.625,2.093-8.081,2.093-11.695,0l-81.079-46.802l-6.058-3.497c-0.784-0.444-1.169-1.24-1.169-2.035
				c0-0.784,0.386-1.567,1.169-2.023l49.234-28.418c3.614-2.093,8.069-2.093,11.695,0l87.125,50.31
				C201.417,176.293,201.815,177.065,201.815,177.848z"/>
			<path id="XMLID_216_" fill="#E9EEF8" d="M201.815,178.024v7.219c-0.012,0.76-0.398,1.532-1.158,1.965l-50.392,29.096
				c-2.9,1.672-6.467,1.672-9.356,0l-88.306-50.977c-0.784-0.444-1.169-1.24-1.169-2.023v-7.324c0,0.795,0.386,1.59,1.169,2.035
				l6.058,3.497l81.079,46.802c3.614,2.093,8.069,2.093,11.695,0l43.165-24.921l6.058-3.497
				C201.394,179.474,201.78,178.76,201.815,178.024z"/>
		</g>
		<g id="XMLID_223_">
			<g id="XMLID_161_">
				<path id="XMLID_220_" fill="#5397D1" d="M152.396,161.546v0.055c-0.011,0.199-0.098,0.4-0.273,0.551
					c-0.011,0.024-0.033,0.039-0.055,0.053l-1.761,1.327l-1.4,1.056l-22.594,15.369c-1.05,0.787-2.351,1.016-3.401,0.6
					l-27.281-12.642l-0.94-0.37l-0.82-0.326c-0.022-0.007-0.044-0.014-0.055-0.034c-0.197-0.096-0.284-0.289-0.284-0.497
					c0-0.23,0.109-0.479,0.339-0.65l14.303-10.778c1.05-0.797,2.34-1.025,6.313-2.447l24.328,11.167l13.252-2.957
					C152.286,161.117,152.396,161.328,152.396,161.546z"/>
				<path id="XMLID_420_" fill="#E2EBF0" d="M152.392,159.96v0.06c-0.007,0.194-0.097,0.38-0.268,0.499
					c-0.015,0.022-0.037,0.037-0.06,0.045l-1.759,1.014l-1.401,0.812l-14.066,8.281c-1.044,0.596-2.348,0.596-3.399,0L107.9,157.068
					l-0.947-0.537l-0.82-0.47c-0.022-0.015-0.037-0.022-0.052-0.045c-0.194-0.134-0.283-0.343-0.283-0.544
					c0-0.231,0.112-0.462,0.335-0.596l17.226-10.1c1.051-0.619,2.34-0.619,3.392,0l25.313,14.61
					C152.288,159.513,152.392,159.744,152.392,159.96z"/>
				<path id="XMLID_56_" fill="#B8C2C7" d="M152.396,160.017v1.094c-0.011,0.219-0.12,0.426-0.328,0.547l-1.761,1.017l-15.466,9.088
					c-1.05,0.601-2.351,0.601-3.401,0l-23.544-13.603l-1.761-1.006c-0.23-0.131-0.339-0.361-0.339-0.591v-1.094
					c0,0.208,0.087,0.416,0.284,0.547c0.011,0.022,0.033,0.033,0.055,0.044l0.82,0.47l0.94,0.536l23.544,13.603
					c1.05,0.601,2.351,0.601,3.401,0l14.066-8.279l1.4-0.809l1.761-1.017c0.022-0.011,0.044-0.022,0.055-0.044
					C152.297,160.4,152.385,160.214,152.396,160.017z"/>
				<path id="XMLID_81_" fill="#FFFFFF" d="M141.621,154.764v0.009c-0.002,0.039-0.022,0.077-0.061,0.099l-0.322,0.186l-2.291,1.323
					c-0.192,0.111-0.429,0.111-0.621,0l-4.303-2.484l-0.322-0.186c-0.042-0.024-0.062-0.066-0.062-0.108
					c0-0.042,0.02-0.083,0.062-0.107l2.613-1.508c0.192-0.111,0.428-0.111,0.621,0l4.624,2.67
					C141.599,154.682,141.621,154.723,141.621,154.764z"/>
				<path id="XMLID_215_" fill="#FFFFFF" d="M145.443,161.605v0.009c-0.002,0.039-0.022,0.077-0.061,0.099l-0.322,0.186
					l-10.301,6.017c-0.192,0.111-0.429,0.111-0.621,0l-15.018-8.626l-0.322-0.186c-0.042-0.024-0.062-0.066-0.062-0.108
					c0-0.042,0.02-0.083,0.062-0.107l10.624-6.203c0.192-0.111,0.428-0.111,0.621,0l15.339,8.812
					C145.422,161.522,145.443,161.563,145.443,161.605z"/>
			</g>
		</g>
		<g id="XMLID_228_">
			<path id="XMLID_153_" fill="#FFFFFF" d="M176.394,175.726l-15.502-8.95c-0.721-0.416-1.981-0.364-2.813,0.117l-24.648,14.23
				c-0.833,0.481-0.923,1.208-0.202,1.624l15.502,8.95c0.721,0.416,1.981,0.364,2.813-0.117l24.648-14.23
				C177.024,176.869,177.115,176.142,176.394,175.726z"/>
			<g id="XMLID_225_">
				<path id="XMLID_285_" fill="#5397D1" d="M147.496,181.915c0.926-0.535,1.44-1.204,1.515-1.859
					c0.082-0.658-0.269-1.292-1.072-1.755c-1.599-0.923-4.402-0.811-6.255,0.259c-0.926,0.535-1.434,1.208-1.515,1.859
					c-0.087,0.655,0.264,1.289,1.066,1.752l3.352-1.935l-0.312,2.554C145.41,182.747,146.569,182.45,147.496,181.915z"/>
				<path id="XMLID_224_" fill="#5397D1" d="M151.589,185.562l-3.869-2.234c-0.347-0.2-0.952-0.175-1.352,0.056l0,0
					c-0.4,0.231-0.444,0.581-0.097,0.781l3.869,2.234c0.347,0.2,0.952,0.175,1.352-0.056l0,0
					C151.892,186.112,151.936,185.762,151.589,185.562z"/>
				<g id="XMLID_226_">
					<path fill="#5397D1" d="M149.364,181.905c-0.266,0-0.546,0.065-0.765,0.191c-0.4,0.231-0.444,0.581-0.097,0.781l6.523,3.766
						c0.157,0.091,0.367,0.135,0.587,0.135c0.266,0,0.546-0.065,0.765-0.191h0c0.4-0.231,0.444-0.581,0.097-0.781l-6.523-3.766
						C149.794,181.949,149.584,181.905,149.364,181.905L149.364,181.905z"/>
				</g>
				<g id="XMLID_227_">
					<path fill="#5397D1" d="M151.596,180.616c-0.266,0-0.546,0.065-0.765,0.191c-0.4,0.231-0.444,0.581-0.097,0.781l6.523,3.766
						c0.157,0.091,0.367,0.135,0.587,0.135c0.266,0,0.546-0.065,0.765-0.191c0.4-0.231,0.444-0.581,0.097-0.781l-6.523-3.766
						C152.026,180.66,151.816,180.616,151.596,180.616L151.596,180.616z"/>
				</g>
			</g>
			<g id="XMLID_265_">
				<path id="XMLID_311_" fill="#5EC4BB" d="M166.488,179.764c0.082-0.658-0.269-1.292-1.072-1.755
					c-1.599-0.923-4.402-0.811-6.255,0.259c-0.926,0.535-1.434,1.208-1.515,1.859c-0.087,0.655,0.264,1.289,1.066,1.752l3.352-1.935
					L166.488,179.764z"/>
				<path id="XMLID_310_" fill="#5EC4BB" d="M152.846,175.905l3.869,2.234c0.347,0.2,0.303,0.55-0.097,0.781l0,0
					c-0.4,0.231-1.006,0.256-1.352,0.056l-3.869-2.234c-0.347-0.2-0.303-0.55,0.097-0.781l0,0
					C151.894,175.73,152.499,175.705,152.846,175.905z"/>
				<g id="XMLID_294_">
					<path fill="#5EC4BB" d="M151.837,172.949c-0.266,0-0.546,0.065-0.765,0.191c-0.4,0.231-0.444,0.581-0.097,0.781l6.523,3.766
						c0.157,0.091,0.367,0.135,0.587,0.135c0.266,0,0.546-0.065,0.765-0.191c0.4-0.231,0.444-0.581,0.097-0.781l-6.523-3.766
						C152.267,172.994,152.057,172.949,151.837,172.949L151.837,172.949z"/>
				</g>
				<g id="XMLID_266_">
					<path fill="#5EC4BB" d="M154.069,171.661c-0.266,0-0.546,0.065-0.765,0.191c-0.4,0.231-0.444,0.581-0.097,0.781l6.523,3.766
						c0.157,0.091,0.367,0.135,0.587,0.135c0.266,0,0.546-0.065,0.765-0.191c0.4-0.231,0.444-0.581,0.097-0.781l-6.523-3.766
						C154.499,171.705,154.289,171.661,154.069,171.661L154.069,171.661z"/>
				</g>
			</g>
		</g>
		<g id="XMLID_190_">
			<path id="XMLID_277_" fill="#B8C2C7" d="M133.879,153.747v17.655c0,0.262-0.142,0.47-0.339,0.59
				c-0.197,0.109-0.448,0.131-0.678,0l-1.761-1.017l-23.544-13.593c-0.612-0.361-1.698-0.595-1.698-2.715
				c0,0.917,0.614,1.671,1.261,2.004l23.544,13.603l1.761,1.017c0.219,0.131,0.481,0.109,0.678-0.011
				c0.197-0.109,0.339-0.317,0.339-0.58v-17.655c0-0.858-0.859-1.928-1.258-2.242C132.994,151.462,133.879,151.707,133.879,153.747z
				"/>
			<path id="XMLID_97_" fill="#E2EBF0" d="M133.442,153.047v17.655c0,0.263-0.142,0.47-0.339,0.58
				c-0.197,0.12-0.459,0.142-0.678,0.011l-1.761-1.017l-23.544-13.603c-0.372-0.208-0.689-0.481-0.94-0.809
				c-0.219-0.437-0.328-0.919-0.328-1.422v-17.655c0-0.251,0.131-0.448,0.306-0.569l0.044-0.022c0.197-0.109,0.448-0.12,0.667,0
				l25.315,14.609c0.361,0.208,0.678,0.481,0.929,0.798C133.332,152.041,133.442,152.544,133.442,153.047z"/>
			<path id="XMLID_282_" fill="#FFFFFF" d="M133.442,153.047v0.47c0-0.503-0.109-1.006-0.328-1.443
				c-0.251-0.317-0.569-0.59-0.929-0.798l-25.315-14.609c-0.219-0.12-0.47-0.109-0.667,0l-0.044,0.022
				c-0.175,0.12-0.306,0.317-0.306,0.569v-0.47c0-0.251,0.131-0.448,0.306-0.569l0.044-0.022c0.197-0.109,0.448-0.12,0.667,0
				l25.315,14.609c0.361,0.208,0.678,0.481,0.929,0.798C133.332,152.041,133.442,152.544,133.442,153.047z"/>
		</g>
	</g>
</g>
</svg>
