<?xml version="1.0" encoding="utf-8"?>
<!-- Generator: Adobe Illustrator 17.0.0, SVG Export Plug-In . SVG Version: 6.00 Build 0)  -->
<!DOCTYPE svg PUBLIC "-//W3C//DTD SVG 1.1//EN" "http://www.w3.org/Graphics/SVG/1.1/DTD/svg11.dtd">
<svg version="1.1" id="Layer_1" xmlns="http://www.w3.org/2000/svg" xmlns:xlink="http://www.w3.org/1999/xlink" x="0px" y="0px"
	 width="230px" height="60.75px" viewBox="0 0 230 60.75" enable-background="new 0 0 230 60.75" xml:space="preserve">
<g id="XMLID_1_">
	<g id="XMLID_281_">
		<linearGradient id="XMLID_15_" gradientUnits="userSpaceOnUse" x1="-4.0232" y1="16.5295" x2="195.4585" y2="57.5106">
			<stop  offset="0" style="stop-color:#0580C3"/>
			<stop  offset="1" style="stop-color:#49C6F3"/>
		</linearGradient>
		<path id="XMLID_282_" fill="url(#XMLID_15_)" d="M47.476,6.506c-0.384,0-0.682,0.115-0.893,0.346
			c-0.211,0.231-0.317,0.557-0.317,0.98v38.55c0,0.423,0.105,0.749,0.317,0.979c0.211,0.231,0.509,0.346,0.893,0.346
			c0.346,0,0.634-0.125,0.864-0.375c0.23-0.249,0.346-0.566,0.346-0.951V7.831c0-0.383-0.115-0.7-0.346-0.951
			C48.11,6.631,47.822,6.506,47.476,6.506z"/>
		<linearGradient id="XMLID_16_" gradientUnits="userSpaceOnUse" x1="-4.5165" y1="18.9308" x2="194.9651" y2="59.9119">
			<stop  offset="0" style="stop-color:#0580C3"/>
			<stop  offset="1" style="stop-color:#49C6F3"/>
		</linearGradient>
		<path id="XMLID_322_" fill="url(#XMLID_16_)" d="M72.08,20.623c-1.882-1.19-4.053-1.786-6.511-1.786
			c-2.459,0-4.629,0.596-6.511,1.786c-1.883,1.191-3.342,2.881-4.379,5.071c-1.037,2.19-1.556,4.725-1.556,7.606
			c0,2.92,0.519,5.474,1.556,7.664c1.037,2.19,2.496,3.881,4.379,5.071c1.882,1.191,4.053,1.786,6.511,1.786
			c2.458,0,4.629-0.595,6.511-1.786c1.882-1.19,3.342-2.881,4.379-5.071c1.037-2.189,1.556-4.744,1.556-7.664
			c0-2.881-0.519-5.416-1.556-7.606C75.423,23.504,73.962,21.814,72.08,20.623z M72.858,42.318c-1.71,2.094-4.158,3.14-7.347,3.14
			c-3.112,0-5.523-1.046-7.232-3.14c-1.71-2.093-2.564-5.1-2.564-9.018c0-3.803,0.873-6.771,2.622-8.903
			c1.747-2.132,4.158-3.198,7.232-3.198c3.073,0,5.483,1.066,7.232,3.198c1.747,2.132,2.622,5.1,2.622,8.903
			C75.423,37.218,74.567,40.225,72.858,42.318z"/>
		<linearGradient id="XMLID_17_" gradientUnits="userSpaceOnUse" x1="-3.4696" y1="13.8345" x2="196.0121" y2="54.8157">
			<stop  offset="0" style="stop-color:#0580C3"/>
			<stop  offset="1" style="stop-color:#49C6F3"/>
		</linearGradient>
		<path id="XMLID_323_" fill="url(#XMLID_17_)" d="M97.665,34.136c-1.422-0.671-3.458-1.334-6.108-1.988
			c-1.883-0.422-3.333-0.864-4.351-1.325c-1.018-0.461-1.738-1.008-2.161-1.642c-0.423-0.634-0.634-1.45-0.634-2.449
			c0-1.651,0.662-2.987,1.988-4.005c1.326-1.017,3.063-1.527,5.215-1.527c1.651,0,3.025,0.25,4.12,0.749
			c1.095,0.5,2.141,1.134,3.14,1.902c0.692,0.576,1.19,0.864,1.498,0.864c0.269,0,0.499-0.105,0.692-0.317
			c0.192-0.211,0.288-0.451,0.288-0.72c0-0.422-0.164-0.836-0.49-1.239c-0.327-0.403-0.855-0.873-1.585-1.412
			c-0.999-0.692-2.152-1.229-3.457-1.613c-1.307-0.384-2.67-0.576-4.091-0.576c-2.959,0-5.369,0.749-7.232,2.247
			c-1.863,1.498-2.795,3.438-2.795,5.82c0,1.959,0.73,3.535,2.19,4.725c1.46,1.191,3.88,2.171,7.261,2.939
			c2.036,0.461,3.601,0.932,4.696,1.412c1.095,0.481,1.882,1.047,2.362,1.7c0.48,0.653,0.721,1.479,0.721,2.477
			c0,1.691-0.673,2.996-2.017,3.919c-1.345,0.922-3.266,1.383-5.762,1.383c-1.844,0-3.371-0.259-4.581-0.778
			c-1.21-0.519-2.372-1.181-3.486-1.988c-0.115-0.077-0.337-0.221-0.662-0.432c-0.327-0.21-0.586-0.317-0.778-0.317
			c-0.269,0-0.5,0.107-0.692,0.317c-0.193,0.212-0.288,0.452-0.288,0.721c0,0.423,0.134,0.798,0.403,1.124
			c0.269,0.327,0.787,0.74,1.556,1.239c1.19,0.769,2.535,1.374,4.033,1.815c1.498,0.441,2.996,0.663,4.495,0.663
			c3.149,0,5.676-0.701,7.577-2.103c1.902-1.402,2.852-3.256,2.852-5.561c0-1.459-0.298-2.66-0.893-3.601
			C100.094,35.615,99.086,34.808,97.665,34.136z"/>
		<linearGradient id="XMLID_18_" gradientUnits="userSpaceOnUse" x1="-2.4989" y1="9.1095" x2="196.9828" y2="50.0906">
			<stop  offset="0" style="stop-color:#0580C3"/>
			<stop  offset="1" style="stop-color:#49C6F3"/>
		</linearGradient>
		<path id="XMLID_324_" fill="url(#XMLID_18_)" d="M121.636,34.136c-1.422-0.671-3.458-1.334-6.108-1.988
			c-1.883-0.422-3.333-0.864-4.351-1.325c-1.018-0.461-1.738-1.008-2.161-1.642c-0.423-0.634-0.634-1.45-0.634-2.449
			c0-1.651,0.662-2.987,1.988-4.005c1.326-1.017,3.063-1.527,5.215-1.527c1.651,0,3.025,0.25,4.12,0.749
			c1.095,0.5,2.141,1.134,3.14,1.902c0.692,0.576,1.19,0.864,1.498,0.864c0.269,0,0.499-0.105,0.692-0.317
			c0.192-0.211,0.288-0.451,0.288-0.72c0-0.422-0.164-0.836-0.49-1.239c-0.327-0.403-0.855-0.873-1.585-1.412
			c-0.999-0.692-2.152-1.229-3.457-1.613c-1.307-0.384-2.67-0.576-4.091-0.576c-2.959,0-5.369,0.749-7.232,2.247
			c-1.863,1.498-2.795,3.438-2.795,5.82c0,1.959,0.73,3.535,2.19,4.725c1.46,1.191,3.88,2.171,7.261,2.939
			c2.036,0.461,3.601,0.932,4.696,1.412c1.095,0.481,1.882,1.047,2.362,1.7c0.48,0.653,0.721,1.479,0.721,2.477
			c0,1.691-0.673,2.996-2.017,3.919c-1.345,0.922-3.266,1.383-5.762,1.383c-1.844,0-3.371-0.259-4.581-0.778
			c-1.21-0.519-2.372-1.181-3.486-1.988c-0.115-0.077-0.337-0.221-0.662-0.432c-0.327-0.21-0.586-0.317-0.778-0.317
			c-0.269,0-0.5,0.107-0.692,0.317c-0.193,0.212-0.288,0.452-0.288,0.721c0,0.423,0.134,0.798,0.403,1.124
			c0.269,0.327,0.787,0.74,1.556,1.239c1.19,0.769,2.535,1.374,4.033,1.815c1.498,0.441,2.996,0.663,4.495,0.663
			c3.149,0,5.676-0.701,7.577-2.103c1.902-1.402,2.852-3.256,2.852-5.561c0-1.459-0.298-2.66-0.893-3.601
			C124.065,35.615,123.056,34.808,121.636,34.136z"/>
		<linearGradient id="XMLID_19_" gradientUnits="userSpaceOnUse" x1="-1.4644" y1="4.074" x2="198.0173" y2="45.0551">
			<stop  offset="0" style="stop-color:#0580C3"/>
			<stop  offset="1" style="stop-color:#49C6F3"/>
		</linearGradient>
		<path id="XMLID_327_" fill="url(#XMLID_19_)" d="M147.45,20.623c-1.882-1.19-4.053-1.786-6.511-1.786
			c-2.459,0-4.629,0.596-6.511,1.786c-1.883,1.191-3.342,2.881-4.379,5.071c-1.037,2.19-1.556,4.725-1.556,7.606
			c0,2.92,0.519,5.474,1.556,7.664c1.037,2.19,2.496,3.881,4.379,5.071c1.882,1.191,4.053,1.786,6.511,1.786
			c2.458,0,4.629-0.595,6.511-1.786c1.882-1.19,3.342-2.881,4.379-5.071c1.037-2.189,1.556-4.744,1.556-7.664
			c0-2.881-0.519-5.416-1.556-7.606C150.793,23.504,149.332,21.814,147.45,20.623z M148.228,42.318
			c-1.71,2.094-4.158,3.14-7.347,3.14c-3.112,0-5.523-1.046-7.232-3.14c-1.71-2.093-2.564-5.1-2.564-9.018
			c0-3.803,0.873-6.771,2.622-8.903c1.747-2.132,4.158-3.198,7.232-3.198c3.073,0,5.483,1.066,7.232,3.198
			c1.747,2.132,2.622,5.1,2.622,8.903C150.793,37.218,149.937,40.225,148.228,42.318z"/>
		<linearGradient id="XMLID_20_" gradientUnits="userSpaceOnUse" x1="-0.1294" y1="-2.4244" x2="199.3523" y2="38.5567">
			<stop  offset="0" style="stop-color:#0580C3"/>
			<stop  offset="1" style="stop-color:#49C6F3"/>
		</linearGradient>
		<path id="XMLID_328_" fill="url(#XMLID_20_)" d="M186.979,18.837c-2.152,0-4.053,0.5-5.705,1.498c-1.652,1-2.862,2.363-3.63,4.091
			c-1.268-3.726-4.149-5.589-8.643-5.589c-2.075,0-3.871,0.481-5.388,1.441c-1.518,0.96-2.661,2.343-3.428,4.149v-4.149
			c0-0.422-0.097-0.749-0.288-0.98c-0.193-0.23-0.481-0.346-0.864-0.346c-0.807,0-1.21,0.442-1.21,1.326v26.103
			c0,0.384,0.105,0.701,0.317,0.951c0.211,0.25,0.509,0.375,0.893,0.375c0.384,0,0.682-0.125,0.893-0.375
			c0.211-0.249,0.317-0.566,0.317-0.951V31.168c0-3.073,0.787-5.512,2.363-7.318c1.574-1.805,3.726-2.708,6.454-2.708
			c2.343,0,4.053,0.682,5.129,2.046c1.075,1.364,1.613,3.544,1.613,6.54v16.653c0,0.384,0.105,0.701,0.317,0.951
			c0.211,0.25,0.509,0.375,0.893,0.375c0.383,0,0.681-0.125,0.893-0.375c0.211-0.249,0.317-0.566,0.317-0.951V31.168
			c0-3.073,0.797-5.512,2.391-7.318c1.593-1.805,3.735-2.708,6.425-2.708c2.343,0,4.052,0.682,5.128,2.046
			c1.075,1.364,1.613,3.544,1.613,6.54v16.653c0,0.384,0.105,0.701,0.317,0.951c0.21,0.25,0.509,0.375,0.893,0.375
			c0.384,0,0.682-0.125,0.893-0.375c0.211-0.249,0.317-0.566,0.317-0.951V29.439C196.199,22.372,193.125,18.837,186.979,18.837z"/>
		<linearGradient id="XMLID_21_" gradientUnits="userSpaceOnUse" x1="-5.2775" y1="22.6347" x2="194.2042" y2="63.6158">
			<stop  offset="0" style="stop-color:#0580C3"/>
			<stop  offset="1" style="stop-color:#49C6F3"/>
		</linearGradient>
		<path id="XMLID_331_" fill="url(#XMLID_21_)" d="M40.562,15.445c-1.971-5.414-7.162-9.05-12.921-9.05h-0.005
			c-0.009,0-0.017,0.001-0.026,0.001H2.496c-1.172,0-2.121,0.95-2.121,2.121v36.837c0,1.172,0.95,2.121,2.121,2.121h25.141h0.002
			c1.593-0.003,3.166-0.283,4.675-0.833c3.451-1.256,6.206-3.781,7.758-7.109c1.552-3.329,1.715-7.062,0.459-10.513
			c-0.262-0.719-0.582-1.406-0.949-2.06C41.596,23.439,41.959,19.284,40.562,15.445z M2.695,8.716h17.301
			c-2.073,1.381-3.736,3.306-4.815,5.621c-1.552,3.329-1.715,7.062-0.459,10.513c0.263,0.721,0.584,1.41,0.955,2.065
			c-0.801,1.399-1.362,2.944-1.632,4.57c-1.621-0.011-3.235-0.368-4.748-1.074c-2.767-1.29-4.865-3.581-5.909-6.449
			c-0.46-1.263-0.693-2.578-0.693-3.908V8.716z M23.063,23.241c0.21-0.091,0.423-0.178,0.641-0.257
			c0.519-0.189,1.047-0.338,1.578-0.45c-0.17,0.759-0.416,1.492-0.732,2.191C24.093,24.192,23.594,23.697,23.063,23.241z
			 M23.292,26.864c-0.693,0.931-1.525,1.758-2.471,2.445c-0.903-0.672-1.707-1.476-2.381-2.389c0.689-0.929,1.517-1.754,2.459-2.441
			C21.806,25.15,22.614,25.952,23.292,26.864z M24.85,29.758c0.189,0.518,0.337,1.044,0.449,1.575
			c-0.809-0.17-1.589-0.427-2.331-0.761c0.568-0.479,1.095-1.003,1.577-1.565C24.655,29.252,24.757,29.502,24.85,29.758z
			 M18.656,30.543c-0.204,0.088-0.41,0.172-0.62,0.249c-0.52,0.189-1.047,0.338-1.579,0.45c0.169-0.754,0.413-1.483,0.726-2.178
			C17.636,29.595,18.129,30.089,18.656,30.543z M17.192,24.771c-0.104-0.234-0.201-0.473-0.289-0.716
			c-0.189-0.518-0.338-1.045-0.449-1.575c0.795,0.167,1.563,0.418,2.293,0.744C18.187,23.698,17.668,24.216,17.192,24.771z
			 M2.695,27.693c2.56,3.831,6.894,6.11,11.446,6.11c1.558,0,3.142-0.267,4.688-0.83c0.688-0.25,1.346-0.555,1.975-0.905
			c1.446,0.832,3.048,1.406,4.739,1.669c-0.009,1.625-0.367,3.243-1.074,4.76c-1.29,2.766-3.581,4.865-6.449,5.909
			c-1.263,0.459-2.579,0.749-3.909,0.749H2.695V27.693z M37.97,38.552c-1.29,2.767-3.58,4.865-6.448,5.909
			c-1.256,0.457-2.563,0.69-3.886,0.693h-5.968c2.114-1.385,3.81-3.33,4.905-5.678c1.552-3.329,1.715-7.062,0.459-10.513
			c-0.267-0.733-0.594-1.432-0.973-2.096c0.803-1.401,1.365-2.947,1.636-4.577c1.621,0.011,3.235,0.368,4.749,1.074
			c2.766,1.29,4.865,3.58,5.909,6.449C39.395,32.682,39.26,35.786,37.97,38.552z M33.423,21.262
			c-3.328-1.551-7.062-1.714-10.513-0.459c-0.697,0.254-1.365,0.563-2,0.92c-1.436-0.82-3.025-1.386-4.7-1.646
			c0.009-1.625,0.367-3.243,1.075-4.759c1.29-2.767,3.58-4.865,6.448-5.909c1.254-0.457,2.559-0.689,3.879-0.692h0.025V8.715
			c0,0,0,0,0,0h0.004c4.786,0,9.102,3.023,10.74,7.524c1.03,2.831,0.906,5.868-0.303,8.562
			C36.816,23.318,35.24,22.109,33.423,21.262z"/>
	</g>
	<g id="XMLID_411_">
		<path id="XMLID_3_" fill="#0A1F33" d="M161.335,59.419c-0.114-0.113-0.17-0.263-0.17-0.448c0-0.186,0.057-0.335,0.17-0.449
			c0.114-0.113,0.258-0.17,0.433-0.17c0.165,0,0.304,0.057,0.418,0.17c0.113,0.114,0.17,0.263,0.17,0.449
			c0,0.186-0.057,0.335-0.17,0.448c-0.114,0.114-0.253,0.17-0.418,0.17C161.593,59.589,161.449,59.532,161.335,59.419z"/>
		<path id="XMLID_5_" fill="#0A1F33" d="M167.662,59.295c0,0.227-0.15,0.325-0.449,0.294l-0.402-0.031
			c-0.773-0.051-1.341-0.286-1.702-0.704c-0.361-0.418-0.542-1.065-0.542-1.941v-4.331h-1.284c-0.072,0-0.134-0.026-0.186-0.077
			c-0.052-0.052-0.077-0.114-0.077-0.186c0-0.082,0.026-0.152,0.077-0.209c0.052-0.057,0.114-0.085,0.186-0.085h1.284v-2.057
			c0-0.114,0.031-0.201,0.093-0.263c0.062-0.062,0.139-0.093,0.232-0.093c0.093,0,0.17,0.031,0.232,0.093
			c0.062,0.062,0.093,0.15,0.093,0.263v2.057h2.057c0.072,0,0.134,0.028,0.186,0.085c0.052,0.057,0.078,0.126,0.078,0.209
			c0,0.072-0.023,0.134-0.07,0.186c-0.046,0.052-0.111,0.077-0.193,0.077h-2.057v4.347c0,0.701,0.136,1.201,0.41,1.5
			c0.273,0.299,0.698,0.475,1.276,0.526l0.418,0.031C167.548,59.006,167.662,59.109,167.662,59.295z"/>
		<path id="XMLID_7_" fill="#0A1F33" d="M174.979,58.127c0.052,0.057,0.077,0.121,0.077,0.193c0,0.103-0.039,0.204-0.116,0.302
			c-0.078,0.098-0.214,0.209-0.41,0.333c-0.742,0.444-1.511,0.665-2.305,0.665c-1.124,0-2.009-0.345-2.653-1.036
			c-0.645-0.691-0.967-1.64-0.967-2.846c0-0.773,0.144-1.454,0.433-2.042c0.289-0.588,0.696-1.044,1.222-1.369
			c0.526-0.325,1.129-0.487,1.81-0.487c0.949,0,1.696,0.309,2.243,0.928c0.547,0.619,0.82,1.465,0.82,2.537
			c0,0.186-0.036,0.32-0.109,0.402c-0.072,0.083-0.201,0.124-0.387,0.124h-5.321c0.01,1.011,0.265,1.789,0.766,2.336
			c0.5,0.547,1.204,0.82,2.112,0.82c0.495,0,0.905-0.067,1.23-0.201c0.325-0.134,0.642-0.309,0.951-0.526
			c0.217-0.144,0.356-0.217,0.418-0.217C174.865,58.042,174.927,58.07,174.979,58.127z M170.175,53.177
			c-0.48,0.49-0.761,1.173-0.843,2.05h5.182c-0.021-0.897-0.242-1.585-0.665-2.065c-0.423-0.48-1.016-0.719-1.779-0.719
			C171.287,52.442,170.655,52.687,170.175,53.177z"/>
		<path id="XMLID_10_" fill="#0A1F33" d="M182.682,54.608v4.61c0,0.114-0.029,0.201-0.085,0.263
			c-0.057,0.062-0.137,0.093-0.24,0.093c-0.103,0-0.186-0.034-0.247-0.101c-0.062-0.067-0.093-0.152-0.093-0.255v-1.083
			c-0.227,0.474-0.554,0.841-0.982,1.098c-0.428,0.258-0.915,0.387-1.462,0.387c-0.474,0-0.908-0.098-1.299-0.294
			c-0.392-0.196-0.704-0.462-0.936-0.797c-0.232-0.335-0.353-0.709-0.364-1.122c-0.01-0.567,0.129-1.005,0.418-1.315
			c0.289-0.309,0.773-0.531,1.454-0.665c0.681-0.134,1.634-0.201,2.862-0.201h0.309v-0.65c0-0.732-0.147-1.266-0.441-1.601
			c-0.294-0.335-0.756-0.503-1.385-0.503c-0.495,0-0.936,0.064-1.323,0.193s-0.694,0.276-0.921,0.441
			c-0.041,0.031-0.126,0.09-0.255,0.178c-0.129,0.088-0.235,0.132-0.317,0.132c-0.072,0-0.137-0.028-0.193-0.085
			c-0.057-0.057-0.085-0.126-0.085-0.209c0-0.196,0.18-0.402,0.541-0.619c0.361-0.217,0.755-0.381,1.183-0.495
			c0.428-0.114,0.853-0.17,1.276-0.17C181.821,51.839,182.682,52.762,182.682,54.608z M180.826,58.638
			c0.371-0.222,0.662-0.528,0.874-0.92c0.211-0.392,0.317-0.835,0.317-1.33V55.83h-0.294c-1.083,0-1.908,0.044-2.475,0.132
			c-0.567,0.088-0.964,0.237-1.191,0.448c-0.227,0.211-0.34,0.524-0.34,0.936c0,0.475,0.175,0.864,0.526,1.168
			c0.35,0.304,0.794,0.456,1.33,0.456C180.037,58.97,180.454,58.859,180.826,58.638z"/>
		<path id="XMLID_13_" fill="#0A1F33" d="M195.583,54.685v4.548c0,0.103-0.028,0.188-0.085,0.255c-0.057,0.067-0.137,0.1-0.24,0.1
			c-0.103,0-0.183-0.033-0.24-0.1c-0.057-0.067-0.085-0.152-0.085-0.255v-4.471c0-0.804-0.145-1.39-0.433-1.756
			c-0.289-0.366-0.748-0.549-1.377-0.549c-0.722,0-1.297,0.242-1.725,0.727c-0.428,0.485-0.642,1.14-0.642,1.965v4.084
			c0,0.103-0.028,0.188-0.085,0.255c-0.057,0.067-0.137,0.1-0.24,0.1c-0.103,0-0.183-0.033-0.24-0.1
			c-0.057-0.067-0.085-0.152-0.085-0.255v-4.471c0-0.804-0.145-1.39-0.433-1.756c-0.289-0.366-0.748-0.549-1.377-0.549
			c-0.732,0-1.31,0.242-1.732,0.727c-0.423,0.485-0.634,1.14-0.634,1.965v4.084c0,0.103-0.028,0.188-0.085,0.255
			c-0.057,0.067-0.137,0.1-0.24,0.1c-0.103,0-0.183-0.033-0.24-0.1c-0.057-0.067-0.085-0.152-0.085-0.255v-7.007
			c0-0.237,0.108-0.356,0.325-0.356c0.103,0,0.18,0.031,0.232,0.093c0.052,0.062,0.077,0.15,0.077,0.263v1.114
			c0.206-0.484,0.513-0.856,0.921-1.114c0.407-0.258,0.89-0.387,1.446-0.387c1.207,0,1.98,0.5,2.32,1.5
			c0.206-0.464,0.531-0.83,0.974-1.098c0.443-0.268,0.954-0.402,1.532-0.402C194.758,51.839,195.583,52.788,195.583,54.685z"/>
	</g>
</g>
<g>
	<path fill="#ED1C24" d="M228.949,14.923c0,1.1-0.9,2-2,2h-30.914c-1.1,0-2-0.9-2-2V3.155c0-1.1,0.9-2,2-2h30.914c1.1,0,2,0.9,2,2
		V14.923z"/>
</g>
<g>
	<path fill="#FFFFFF" d="M205.505,9.644c0.29,0.39,0.436,0.867,0.436,1.43c0,0.78-0.279,1.391-0.839,1.833
		c-0.559,0.442-1.328,0.663-2.307,0.663h-4.16V4.405h4.029c0.954,0,1.701,0.21,2.243,0.63c0.541,0.42,0.813,1.008,0.813,1.762
		c0,0.485-0.128,0.906-0.384,1.261c-0.256,0.355-0.609,0.616-1.06,0.78C204.805,8.985,205.215,9.254,205.505,9.644z M200.272,8.266
		h2.119c1.152,0,1.729-0.429,1.729-1.287c0-0.434-0.143-0.754-0.429-0.962s-0.72-0.312-1.3-0.312h-2.119V8.266z M203.938,11.945
		c0.277-0.216,0.416-0.555,0.416-1.014c0-0.459-0.141-0.801-0.423-1.027c-0.281-0.225-0.721-0.338-1.319-0.338h-2.34v2.704h2.34
		C203.219,12.27,203.661,12.162,203.938,11.945z"/>
	<path fill="#FFFFFF" d="M212.947,10.684h-4.329c0.052,0.59,0.229,1.027,0.533,1.313c0.304,0.286,0.736,0.429,1.3,0.429
		c0.702,0,1.344-0.225,1.924-0.676l0.469,1.118c-0.295,0.243-0.666,0.438-1.112,0.585c-0.446,0.147-0.895,0.221-1.345,0.221
		c-1.04,0-1.861-0.294-2.464-0.884s-0.903-1.396-0.903-2.418c0-0.65,0.13-1.226,0.39-1.729c0.26-0.503,0.626-0.893,1.099-1.17
		c0.473-0.277,1.008-0.416,1.605-0.416c0.875,0,1.566,0.282,2.073,0.845c0.508,0.563,0.761,1.339,0.761,2.327V10.684z
		 M209.105,8.617c-0.264,0.278-0.427,0.676-0.487,1.196h2.938c-0.018-0.529-0.147-0.93-0.391-1.203
		c-0.242-0.273-0.58-0.41-1.014-0.41S209.37,8.339,209.105,8.617z"/>
	<path fill="#FFFFFF" d="M218.031,12.413l-0.078,1.209c-0.26,0.026-0.499,0.039-0.715,0.039c-0.894,0-1.552-0.206-1.977-0.617
		s-0.637-1.025-0.637-1.84V8.435h-1.222V7.213h1.222V5.315h1.625v1.898h1.677v1.222h-1.677v2.743c0,0.85,0.395,1.274,1.183,1.274
		C217.623,12.452,217.823,12.439,218.031,12.413z"/>
	<path fill="#FFFFFF" d="M223.699,7.707c0.433,0.433,0.649,1.101,0.649,2.002v3.861h-1.547v-0.975
		c-0.147,0.338-0.379,0.603-0.695,0.793s-0.683,0.286-1.099,0.286c-0.425,0-0.811-0.087-1.157-0.26
		c-0.347-0.173-0.619-0.412-0.818-0.715c-0.2-0.303-0.3-0.641-0.3-1.014c0-0.468,0.119-0.836,0.357-1.105
		c0.238-0.268,0.626-0.463,1.164-0.585c0.537-0.121,1.278-0.182,2.223-0.182h0.325V9.514c0-0.433-0.093-0.745-0.279-0.936
		c-0.187-0.19-0.496-0.286-0.93-0.286c-0.338,0-0.691,0.058-1.06,0.175s-0.73,0.279-1.085,0.487l-0.455-1.118
		c0.354-0.226,0.784-0.412,1.286-0.559c0.503-0.147,0.979-0.221,1.431-0.221C222.603,7.057,223.266,7.273,223.699,7.707z
		 M222.393,12.068c0.272-0.291,0.409-0.665,0.409-1.125v-0.273h-0.234c-0.58,0-1.031,0.026-1.352,0.078
		c-0.32,0.052-0.551,0.143-0.689,0.273c-0.139,0.13-0.208,0.308-0.208,0.533c0,0.278,0.096,0.505,0.286,0.683
		s0.434,0.267,0.729,0.267C221.766,12.504,222.119,12.359,222.393,12.068z"/>
</g>
</svg>
