<?xml version="1.0" encoding="utf-8"?>
<!-- Generator: Adobe Illustrator 17.0.0, SVG Export Plug-In . SVG Version: 6.00 Build 0)  -->
<!DOCTYPE svg PUBLIC "-//W3C//DTD SVG 1.1//EN" "http://www.w3.org/Graphics/SVG/1.1/DTD/svg11.dtd">
<svg version="1.1" id="Layer_1" xmlns="http://www.w3.org/2000/svg" xmlns:xlink="http://www.w3.org/1999/xlink" x="0px" y="0px"
	 width="1600px" height="500px" viewBox="0 0 1600 500" enable-background="new 0 0 1600 500" xml:space="preserve">
<path id="XMLID_78_" fill="#2164AD" d="M1448.48,499.991c-0.322-2.987-0.671-5.973-1.063-8.959
	c-4.247-32.304-12.524-64.507-24.871-96.199c-47.403-121.669-149.281-221.598-287.478-282.279c-3.112-1.368-6.241-2.709-9.386-4.036
	c-84.965-35.796-176.364-54.372-271.64-55.222c-60.204-0.531-120.786,6.418-178.786,20.332
	c-11.447-5.622-23.121-10.945-34.997-15.948C497.303-2.547,333.908-14.118,180.194,25.102
	C114.386,41.892,53.733,67.141,0.034,99.598v400.393H1448.48z"/>
</svg>
