<?xml version="1.0" encoding="utf-8"?>
<!-- Generator: Adobe Illustrator 17.0.0, SVG Export Plug-In . SVG Version: 6.00 Build 0)  -->
<!DOCTYPE svg PUBLIC "-//W3C//DTD SVG 1.1//EN" "http://www.w3.org/Graphics/SVG/1.1/DTD/svg11.dtd">
<svg version="1.1" id="Layer_1" xmlns="http://www.w3.org/2000/svg" xmlns:xlink="http://www.w3.org/1999/xlink" x="0px" y="0px"
	 width="405.667px" height="800px" viewBox="0 0 405.667 800" enable-background="new 0 0 405.667 800" xml:space="preserve">
<path fill="#280700" d="M259.578,268.222c-5.124-1.141-10.248-2.282-15.373-3.423c2.743-6.286,5.939-12.313,10.154-17.759
	C256.099,254.1,257.838,261.161,259.578,268.222z"/>
<path fill="#001C3E" d="M166.61,750.245c-4.651-25.116-9.635-50.176-13.888-75.359c-11.337-67.128-25.094-133.786-38.419-200.529
	c-0.376-1.886-0.697-3.952-2.474-5.155c-5.218,40.494-10.575,80.954-15.583,121.456c-2.047,16.554,0.428,33.289-1.981,49.942
	c-5.224,36.117-9.707,72.342-14.558,108.514c-0.366,2.731-0.295,6.027-4.28,6.5c-8.759,0.809-17.596,2.631-25.933-2.006
	c1.055-74.508,1.961-149.018,3.234-223.522c0.545-31.921,1.446-63.848,4.314-95.675c1.49-2.415,4.012-3.379,6.498-3.647
	c8.819-0.95,10.008-6.484,10.97-14.219c1.565-12.585-0.962-25.767,4.925-37.776c4.812-3.329,9.429-1.049,14.072,0.475
	c3.143,1.928,6.206,3.839,10.135,4.136c10.059,0.76,12.526-1.052,14.005-11.001c0.334-2.248,0.39-4.593,2.562-6.072
	c1.071-0.076,1.87,0.343,2.425,1.256c4.455,15.181,2.996,30.772,3.26,46.243c0.342,19.977-3.482,23.325,20.504,19.765
	c6.772-1.005,13.746-0.779,20.527-2.255c2.798-0.609,5.715-1.08,8.209,1.089c2.874,50.54,5.88,101.074,8.52,151.627
	c0.575,11.01,4.575,21.333,5.264,32.243c2.684,42.504,2.48,85.097,4.044,127.635c0.122,3.316-2.137,5.082-2.845,7.725
	c-4.97,0.009-9.927-0.439-14.897,0.586C172.218,752.837,169.069,752.676,166.61,750.245z"/>
<path fill="#0D141C" d="M335.517,311.693c4.474,22.562,14.205,43.567,19.571,65.852c11.157,46.342,14.866,93.629,17.749,141.031
	c0.318,5.222-2.751,6.263-6.145,7.776c-2.012,3.135-5.185,4.348-8.573,5.287c-13.776,3.819-27.503,7.946-42.098,5.748
	c-10.087,0.227-20.174,0.455-30.261,0.682c-0.944,0.632-1.916,1.524-2.991,1.549c-13.835,0.326-27.682,0.627-40.733-5.212
	c-0.248-0.146-0.478-0.352-0.745-0.431c-14.193-4.215-14.016-4.206-13.271-19.417c1.534-31.299,2.859-62.609,4.27-93.915
	c4.557-5.461,6.817-11.286,3.743-18.413c-0.893-2.072-0.727-5.542,1.483-6.187c7.715-2.254,3.223-5.572,1.176-8.761
	c-2.931-4.568-6.482-8.833-6.945-14.589c1.182-28.732,10.193-54.868,26.186-78.648c1.888-2.807,3.934-5.709,7.676-6.458
	c15.678,3.241,31.32,6.721,47.489,6.353c1.406-0.032,2.74,0.764,3.828,1.75c3.015,5.04-0.831,8.774-2.436,12.901
	c0.53,3.68,2.828,0.725,4.229,1.083C324.314,310.461,330.708,304.567,335.517,311.693z"/>
<path fill="#001431" d="M175.132,432.403c-13.865,3.495-28.176,3.359-42.248,5.17c-6.784,0.873-9.828-1.569-9.722-9.013
	c0.294-20.544,0.762-41.123-1.667-61.605c-2.782-3.367-2.646-7.433-2.645-11.426c0.007-17.993-0.174-35.987,0.067-53.968
	c1.541-10.546,1.982-10.818,11.797-7.676c12.338,3.949,24.416,8.636,36.567,13.101c3.146,1.156,7.671,1.381,7.949,6.415
	c5.689,34.521,11.308,69.053,17.148,103.548c0.816,4.818-0.873,7.675-4.913,9.631C183.374,428.562,179.245,430.466,175.132,432.403z
	"/>
<path fill="#001431" d="M148.62,151.041c16,9.453,31.96,18.974,48.017,28.328c7.208,4.199,11.922,10.282,12.114,18.51
	c0.5,21.464,0.35,42.944,0.46,64.417c0.926,8.814,2.928,17.551,1.928,26.504c-0.226,2.028-0.501,4.257-2.48,5.199
	c-1.354,0.645-2.923-0.47-3.686-1.649c-6.05-9.357-15.955-12.73-25.526-16.638c-1.732-1.48-3.058-3.251-3.77-5.432
	c-0.186-1.841,1.118-2.754,2.295-3.712c-0.186-3.713-3.713-2.657-5.598-3.868c-2.094-1.346-5.465-1.568-5.338-4.833
	c0.136-3.472,3.453-3.238,5.867-3.845c1.257-0.316,2.581-0.277,3.924-0.647c-25.497,0.117-28.473,5.097-29.673,14.591
	c-1.837,1.917-4.155,1.622-6.379,1.254c-10.064-1.666-20.014-3.926-30.027-5.857c-1.695-0.327-3.238-1.045-4.011-2.781
	c0.129-0.991,0.63-1.739,1.488-2.248c5.889-1.548,8.53-5.45,10.141-11.355c7.7-28.23,15.599-56.409,23.722-84.521
	C143.301,158.259,143.489,153.141,148.62,151.041z"/>
<path fill="#DE7E61" d="M316.021,537.387c17.233-2.119,34.34-4.815,50.675-11.039c0.922,41.475-5.749,82.362-9.596,123.462
	c-2.299,24.562-4.26,49.194-7.784,73.59c-2.696,18.667,7.651,30.919,17.735,43.811c-4.362,5.962-10.009,4.148-14.294,0.981
	c-9.732-7.191-17.161-16.409-20.059-28.593c2.619-8.643,0.032-17.081-1.417-25.438c-3.861-22.28-8.215-44.475-12.374-66.704
	c-5.306-28.358,0.801-55.208,10.69-81.586C333.279,556.053,326.112,541.221,316.021,537.387z"/>
<path fill="#F4906E" d="M242.036,534.408c14.575,1.221,29.15,2.441,43.724,3.662c-11.457,29.111-10.466,60.133-13.672,90.479
	c-3.22,30.475-4.949,61.118-8.658,91.526c-2.401,19.679,2.8,36.105,15.308,50.811c-5.09,3.924-10.891,3.198-14.943-0.392
	c-8.764-7.765-15.992-16.916-17.524-29.233c3.43-12.771-0.994-25.008-2.959-37.301c-4.971-31.1-11.475-61.956-13.273-93.522
	c-1.004-17.631,1.939-34.267,10.448-49.815C245.142,552.12,241.514,543.146,242.036,534.408z"/>
<path fill="#001431" d="M19.923,282.077c4.037-31.574,7.875-63.176,12.241-94.704c1.172-8.462,7-14.395,14.549-18.093
	c10.803-5.293,21.885-10.018,32.702-15.285c4.009-1.952,5.453-1.631,5.621,3.183c1.151,32.999,2.484,65.993,3.759,98.988
	c-1.252,1.487-2.936,1.735-4.73,1.669c-3.243-0.353-5.846-2.252-8.655-3.658c-2.855-1.429-5.833-2.42-9.047-2.556
	c-4.586-0.195-8.237,1.353-11.279,5.024c-4.078,4.922,3.389,6.476,2.623,10.301c-12.095,3.01-24.047,6.3-33.72,14.854
	C22.961,282.707,21.329,282.667,19.923,282.077z"/>
<path fill="#001431" d="M80.128,378.81c-1.161,15.018-2.541,30.025-3.363,45.062c-0.279,5.101-3.022,7.186-7.137,8.219
	c-4.129,1.036-8.386,1.567-12.586,2.319c-7.063-2.031-14.534-2.61-21.027-6.661c-4.589-2.863-6.605-5.979-5.682-11.856
	c5.147-32.778,9.848-65.625,14.671-98.454c0.229-1.559,1.149-3.422-1.158-4.359c5.272-5.82,36.058-14.096,42.468-11.412
	c3.375,8.171,0.03,16.359-0.45,24.421c-0.774,13.004-0.668,26.14-3.178,39.023C82.541,369.811,83.499,374.717,80.128,378.81z"/>
<path fill="#C6E1EE" d="M335.517,311.693c-6.233-3.041-12.432,0.554-18.652,0.096c-2.097,0.107-4.942,2.147-5.361-2.077
	c2.014-4.416,4.027-8.831,6.041-13.247c-0.558-2.656,0.128-5.116,1.223-7.495c6.465-14.041,12.534-28.263,19.291-42.171
	c2.233-4.595,4.911-8.489,10.755-8.435c6.522,0.567,13.123-1.926,19.59,0.514c10.299,0.935,20.436-1.072,30.648-1.715
	c4.855-0.306,6.194,1.154,3.957,5.859c-2.559,5.381-4.549,11.032-6.786,16.565c-0.869,2.85-2.589,5.206-5.251,6.357
	c-6.081,2.629-7.287,6.499-3.832,12.064c0.736,1.185,1.183,2.577,0.384,3.997c-3.075,3.221-4.665,7.28-5.598,11.444
	c-2.615,11.665-10.972,14.509-21.37,14.536C352.029,308.007,343.565,308.454,335.517,311.693z"/>
<path fill="#F4906E" d="M144.053,113.158c-2.638,2.945-6.248,5.331-5.781,10.06c-0.694,0.373-1.433,0.517-2.216,0.464
	c-11.801,3.32-22.368,10.358-34.872,11.519c-11.976-9.808-13.269-24.461-16.297-37.953c-2.084-9.288,0.613-19.203-1.224-28.84
	c-0.553-2.904-0.574-5.491-3.409-7.05c3.887-6.666,6.966-14.382,15.902-15.648c11.314-1.603,22.446-0.189,32.744,4.778
	c5.857,2.825,7.126,8.974,6.782,14.863c-0.407,6.983,0.32,13.732,2.014,20.397c6.939-5.029,12.338-5.044,16.256,0.019
	c4.179,5.4,2.919,12.85-3.933,16.941C145.615,105.337,144.151,108.594,144.053,113.158z"/>
<path fill="#822118" d="M144.053,113.158c-1.994-4.991-7.115-10.563,4.114-11.541c4.384-0.382,6.583-5.276,6.085-10.111
	c-0.379-3.679-2.252-6.607-5.951-7.675c-6.151-1.776-8.37,2.941-11.933,9.361c-0.465-10.188-4.673-17.285-2.976-25.989
	c1.901-9.75-2.213-15.081-12.042-17.291c-6.1-1.371-12.404-2.008-18.654-2.492c-8.116-0.629-14.906,1.604-17.354,10.467
	c-0.787,2.85-2.652,3.412-5.093,3.469c-8.631-3.146-12.145-9.437-12.761-18.489c-0.434-6.378,2.2-5.249,6.149-3.546
	c-1.179-8.876-0.575-17.338,3.483-25.949c8.365,10.262,19.495,11.456,31.51,10.669c14.228-0.932,28.277,0.951,41.371,6.598
	c12.13,5.231,18.424,15.863,19.665,28.458C171.916,81.908,162.284,99.726,144.053,113.158z"/>
<path fill="#00112D" d="M74.948,273.818c3.797,4.844,9.617,5.942,14.929,7.811c7.777,2.736,15.766,4.883,23.045,8.899
	c-0.111,1.367-0.823,2.379-1.869,3.197c-5.494,3.045-11.824,3.647-17.562,5.995c-2.729,0.792-5.409,1.91-8.357,1.379
	c-13.763,3.994-27.526,7.988-41.29,11.982c-13.82,6.395-26.998-4.063-25.997-18.481c0.297-4.282,0.528-8.487,2.076-12.522
	c8.735-5.263,16.006-13.017,26.885-14.654c3.721-0.56,7.401-0.604,11.09-0.976C65.065,265.474,70.586,268.306,74.948,273.818z"/>
<path fill="#1F0B0E" d="M49.494,753.607c8.624,0.933,17.515-1.594,25.933,2.006c3.929,14.809,4.024,15.082-10.343,20.085
	c-13.893,4.838-28.006,9.069-42.959,4.538c-1.645-0.498-3.383-0.816-4.905-1.567c-2.538-1.254-6.047-2.458-5.888-5.603
	c0.196-3.854,4.316-2.834,6.85-3.547C29.682,766.282,41.925,764.565,49.494,753.607z"/>
<path fill="#DE7E61" d="M368.402,238.878c-6.721,2.184-13.658,1.772-20.565,1.707c-2.469-4.482,1.488-6.911,3.433-9.696
	c4.586-6.564,5.068-12.735,1.127-19.999c-6.549-12.073-15.239-22.962-19.951-36.05c-0.959-2.665-2.807-5.051-2.312-8.128
	c0.783-1.234,1.968-1.589,3.343-1.53c0.884,0.187,1.612,0.63,2.185,1.327c4.483,1.78,9.254,3.062,13.388,5.447
	c8.301,4.789,14.974,11.597,14.426,21.785C362.647,209.149,366.675,223.851,368.402,238.878z"/>
<path fill="#200B0E" d="M166.61,750.245c4.539-0.149,9.05,0.207,13.57-1.191c3.528-1.091,7.402-1.227,9.935,2.583
	c1.495,4.626,3.058,9.237,4.474,13.892c3.054,10.037,2.275,11.608-7.671,13.391c-8.521,1.527-17.072,1.75-25.581-0.674
	c-3.271-0.932-4.462-2.124-2.639-5.357C162.683,765.822,163.887,757.764,166.61,750.245z"/>
<path fill="#93171B" d="M106.487,178.391c1.073,26.855,2.146,53.71,3.218,80.564c-0.654,0.305-1.306,0.612-1.958,0.919
	c-4.101-0.786-8.202-1.573-12.302-2.36c1.687-26.33,3.373-52.66,5.059-78.99C102.46,176.809,104.456,176.819,106.487,178.391z"/>
<path fill="#0E1218" d="M246.271,741.262c4.271,7.925,8.328,15.928,13.899,23.133c4.976,6.435,10.895,8.571,18.569,6.492
	c4.37,2.612,8.741,5.225,13.915,8.317c-8.629,4.787-16.771,3.181-25.016,2.907c-11.539-0.384-10.106-11.752-16.352-17.204
	c-3.762,4.598-3.052,11.137-6.996,15.935C244.295,767.611,234.212,754.073,246.271,741.262z"/>
<path fill="#0D1117" d="M332.698,739.6c5.235,7.735,9.522,16.074,16.062,22.974c5.33,5.624,10.996,7.8,18.291,4.638
	c4.48,2.359,8.96,4.717,14.393,7.578c-8.692,5.479-17.173,4.528-25.52,4.511c-10.677-0.022-10.287-11.721-17.352-16.429
	c-1.506,5.672-2.915,10.976-4.324,16.28C332.395,765.816,321.542,752.93,332.698,739.6z"/>
<path fill="#D9715B" d="M101.185,135.2c2.334-4.81,7.5-2.944,11.168-4.671c6.616-3.114,13.456-5.751,20.193-8.608
	c2.054-0.871,4.316-2.503,4.659,1.587c2.893,9.777-0.612,16.538-9.445,21.283c-5.569,2.992-11.429,5.452-16.713,8.979
	c-3.474,2.804-6.886,6.181-11.344,1.484c-1.954-5.714-2.432-11.339,0.99-16.731C100.857,137.416,101.021,136.308,101.185,135.2z"/>
<path fill="#B3DEDE" d="M109.828,151.005c6.084-1.834,11.383-5.277,16.952-8.187c7.903-4.13,12.314-9.98,10.424-19.313
	c0.34-0.165,0.699-0.265,1.073-0.292c0.082,7.985,0.969,15.748,6.026,22.39c-4.945,10.512-15.687,15.319-23.134,23.381
	c-1.431,1.549-3.1-0.421-4.569-1.119c-2.819-3.048-5.961-5.812-8.234-9.352C108.51,155.942,107.814,153.207,109.828,151.005z"/>
<path fill="#CB2229" d="M109.206,159.881c6.37-0.951,6.361,3.996,7.39,7.985c-6.244,0.746-6.487,7.261-10.11,10.527
	c-1.994,0.043-3.988,0.087-5.983,0.131c-2.739-4.741-5.479-9.483-8.218-14.225c-2.132-2.607-0.485-4.61,1.053-6.631
	c2.934-1.451,5.217,1.224,7.923,1.238C103.898,159.315,106.65,158.823,109.206,159.881z"/>
<path fill="#DE8064" d="M387.522,282.004c-1.561-2.687-3.481-5.234-4.59-8.096c-1.349-3.483-1.234-6.927,3.591-7.751
	c4.266-0.729,6.139-4.87,9.698-6.571c4.568,6.824,3.186,13.538-0.435,20.171C393.842,283.32,391.251,284.845,387.522,282.004z"/>
<path fill="#B6DDDC" d="M100.555,160.943c-2.861,0.772-4.214-1.936-6.382-2.765c-2.643-0.223-3.812-2.478-5.513-3.999
	c1.289-7.31,5.101-12.68,12.032-15.654c0.07,5.83,0.14,11.661,0.21,17.492C102.166,157.757,102.33,159.419,100.555,160.943z"/>
<path fill="#2B0A03" d="M335.663,166.511c0,0-0.811,0.058-0.811,0.058l-0.792-0.183c-2.869-3.304-2.536-7.36-2.621-11.303
	c-0.263-12.168,0.357-24.339-0.104-36.49c-0.884-4.416,0.09-8.881-0.261-13.321c0.301-2.126,0.942-4.136,2.163-5.933
	c0.623-0.643,1.366-0.828,2.222-0.559C335.527,121.356,335.595,143.934,335.663,166.511z"/>
<path fill="#A3C0C1" d="M88.66,154.179c2.78,0.034,4.548,1.462,5.512,3.999c-0.628,2.042-1.257,4.083-1.887,6.123
	c-2.493,0.494-5.814,2.384-5.036-2.833C87.615,159.023,88.184,156.608,88.66,154.179z"/>
<path fill="#2B0A03" d="M335.459,98.779c-0.382,0.004-0.748-0.067-1.1-0.214c-2.307-1.341-3.029-3.662-3.74-6.001
	c-0.533-3.901-1.467-7.881,1.943-11.09c2.985-2.941,0.487-6.942,1.966-10.17C336.954,80.394,333.382,89.682,335.459,98.779z"/>
<path fill="#FDFDFD" d="M110.829,292.444c0.698-0.639,1.396-1.278,2.094-1.917c6.43-0.162,8.16,3.907,8.394,9.323
	c0.218,19.527,0.459,39.054,0.629,58.581c0.025,2.839-0.29,5.681-0.449,8.523c-0.001,0.001-0.755-0.054-0.755-0.054l-0.753,0.059
	c-4.237-1.365-8.277-3.013-10.505-7.296c-1.898-14.858-0.284-29.78-0.875-44.662C109.04,307.451,106.831,299.64,110.829,292.444z"/>
<path fill="#ACAEB2" d="M111.217,361.552c3.988,0.075,7.364,1.144,8.77,5.408c0.056,1.723,0.305,3.467,0.129,5.166
	c-0.469,4.512,2.236,11.44-4.634,12.089c-7.339,0.694-16.046,4.88-22.094-3.719c-2.76-4.321-1.969-9.045-1.577-13.731
	c1.756-7.636,7.646-7.699,13.698-7.484C107.689,359.336,109.577,360.134,111.217,361.552z"/>
<path fill="#3A1C0F" d="M93.893,366.976c-0.168,4.507-0.337,9.014-0.505,13.52c-4.42-0.563-8.841-1.124-13.261-1.686
	c0.091-4.672,0.181-9.344,0.271-14.016C85.412,362.334,89.781,363.864,93.893,366.976z"/>
<path fill="#00ACB8" d="M330.666,166.807c6.105,14.945,14.928,28.415,23.277,42.103c5.682,9.315,4.356,17.28-2.382,25.11
	c-1.654,1.922-3.804,3.631-3.724,6.566c-4.533,0.037-6.181,3.19-7.797,6.767c-7.412,16.415-14.982,32.759-22.496,49.12
	c-17.856,0.156-35.513-1.003-52.313-7.864c-6.32-5.234-5.175-13.349-7.749-20.031c-1.083-7.173-5.374-13.884-3.123-21.539
	c5.578-11.537,10.534-23.431,16.883-34.527c9.05-15.817,4.16-30.75-1.067-45.934c2.856-0.759,5.712-1.518,8.569-2.277
	c3.121-1.049,5.497,0.845,7.926,2.165c12.418,6.75,24.572,8.638,36.231-1.598C325.796,164.295,328.646,163.905,330.666,166.807z"/>
<path fill="#EE8D6C" d="M180.159,273.166c-10.993-1.606-22.291-1.781-32.525-6.94c-1.918-5.733,2.21-12.129,9.621-13.273
	c8.755-1.351,17.621-2.714,27.344-1.421c-4.356,5.956-11.137,3.462-17.562,5.972c6.867,3.793,13.908,4.578,18.918,9.224
	c-2.006,2.07-3.836,1.256-5.483,1.474c-2.645-1.315-5.903-0.407-8.334-2.285c-0.32,0.064-0.553-0.649-0.954-0.146
	c2.267,0.877,4.451,1.777,5.782,3.929C178.03,270.857,179.094,272.012,180.159,273.166z"/>
<path fill="#141E35" d="M171.811,264.465c2.887,1.246,5.774,2.493,8.66,3.739c-1.169,0.499-2.337,0.999-3.506,1.498
	c-2.76-1.169-5.52-2.337-8.28-3.506C168.239,262.934,170.348,264.282,171.811,264.465z"/>
<path fill="#F28F6D" d="M74.948,273.818c-5.683-2.457-11.366-4.914-17.049-7.371c-1.391-3.182-8.956,1.134-7.151-5.666
	c1.651-6.219,5.267-10.913,12.245-11.56c7.87-0.73,14.272,3.25,20.718,6.947C81.649,262.477,80.636,269.308,74.948,273.818z"/>
<path fill="#FDFDFD" d="M93.893,366.976c-4.499-0.728-8.998-1.457-13.495-2.183c1.58-21.23,3.158-42.463,4.736-63.695
	c1.976-2.232,4.943-2.058,7.426-3.059c3.384,7.236,1.281,15.618,5.215,22.939c2.195,4.086,3.79,7.419,9.038,6.808
	c2.379,11.324,3.751,22.61-0.824,33.746C101.724,362.831,95.102,358.889,93.893,366.976z"/>
<path fill="#F4906E" d="M332.561,81.473c-0.023,4.165-0.046,8.33-0.07,12.496c1.161,3.342,0.902,6.707,0.168,10.08
	c0.896,4.109,0.911,8.218,0.006,12.328c0.703,8.318-2.989,15.46-6.135,22.732c-1.685,3.894-5.001,5.219-9.001,5.272
	c-16.222-1.37-29.956-6.848-37.302-22.759c-0.658-2.457-0.967-5.032-2.155-7.352c-0.209-2.14,0.267-4.359-0.784-6.404
	c-1.458-4.327,0.484-5.754,4.566-5.339c1.323,2.103,2.646,4.206,4.682,7.442c0.962-5.758,1.602-10.594,2.595-15.356
	c3.47-16.642,12.73-23.926,29.457-23.265C325.453,71.62,330.735,74.191,332.561,81.473z"/>
<path fill="#F3906E" d="M322.733,166.205c-6.324,8.866-15.05,9.518-24.62,7.15c-7.044-1.743-13.449-4.891-19.37-9.054
	c0.677-4.508,1.354-9.016,2.032-13.523c0.079-6.6,2.829-8.992,9.461-6.624c5.345,1.908,11.001,2.587,16.718,2.639
	c3.146,0.029,6.243,0.497,8.521,3.067C317.505,155.472,318.665,161.483,322.733,166.205z"/>
<path fill="#D8705A" d="M314.821,150.841c-9.618-3.085-20.036-1.491-29.607-5.365c-4.781-1.935-1.538,4.649-4.44,5.301
	c-0.808-10.253,0.649-20.64-1.826-30.794c0.435-0.72,0.97-0.805,1.607-0.255c7.711,14.67,20.454,21.211,36.419,22.549
	C317.974,145.564,317.558,148.494,314.821,150.841z"/>
<path fill="#EE8664" d="M281.855,102.527c-1.746,1.251-5.184,1.48-3.057,5.067c-0.711,2.435-1.714,4.836-0.887,7.459
	c0.17,1.215-0.058,2.237-1.318,2.763c-5.172-3.002-8.123-6.976-5.338-13.136c2.007-4.44,5.609-5.048,9.823-3.51
	C281.452,101.307,281.601,102.06,281.855,102.527z"/>
<path fill="#FBEAE5" d="M276.593,117.816c0.26-1.032,0.52-2.064,0.78-3.095c0.349-0.642,0.814-0.775,1.413-0.322
	c2.657,1.09,3.191,2.885,1.77,5.329c-0.561-0.066-1.098,0.018-1.609,0.254C278.163,119.261,277.378,118.539,276.593,117.816z"/>
<path fill="#E77D60" d="M150.695,90.309c-4.673,1.166,1.15,8.566-5.123,8.242c-1.829-0.095-3.099-1.814-3.022-3.678
	C142.783,89.19,147.877,92.013,150.695,90.309z"/>
<path fill="#93171B" d="M104.582,326.984c-1.027,1.61-2.055,3.219-3.397,5.323c-6.741-10.935-10.348-21.921-8.63-34.268
	c6.095-1.865,12.184-3.73,18.274-5.595c0.094,7.478,0.187,14.956,0.281,22.433C109.067,318.985,109.67,324.519,104.582,326.984z"/>
<path fill="#2B0A03" d="M314.821,150.841c0.698-2.86-0.734-6.255,2.153-8.564c4.429,0.875,6.849-1.282,8.246-5.265
	c2.42-6.9,4.957-13.759,7.445-20.636c2.881,10.593,0.732,21.396,1.29,32.088c0.311,5.959,0.087,11.946,0.104,17.92
	c-1.132,0.14-2.264,0.281-3.395,0.421c-2.644-0.2-5.289-0.4-7.933-0.601C313.969,164.239,315.631,156.903,314.821,150.841z"/>
<path fill="#F18D6B" d="M100.555,160.943c0.116-1.642,0.232-3.285,0.348-4.926c4.744,1.477,6.459-2.436,8.925-5.013
	c-0.204,2.958-0.41,5.915-0.618,8.875C106.581,162.341,103.528,161.319,100.555,160.943z"/>
<path fill="#2B0A03" d="M332.691,104.049c-0.067-3.36-0.133-6.72-0.2-10.08c2.4,0.968,1.997,2.891,2.22,4.598
	C334.15,100.422,334.896,102.62,332.691,104.049z"/>
<path fill="#C6E4DE" d="M104.582,326.984c2.176-4.036,4.352-8.073,6.528-12.108c0.035,15.559,0.071,31.117,0.107,46.675
	c-1.743-0.006-3.485-0.012-5.228-0.018C105.163,350.032,107.821,338.388,104.582,326.984z"/>
<path fill="#523A30" d="M108.798,374.77c-0.046,1.187-1.317,2.306-3.762,2.271c-2.489-0.036-3.588-1.331-3.702-3.706
	c-0.134-2.782,1.614-3.281,3.852-3.29C107.537,370.035,109.03,370.874,108.798,374.77z"/>
<path fill="#925E55" d="M171.811,264.465c-1.042,0.577-2.084,1.154-3.126,1.731c-1.422-0.216-3.318-1.423-2.531-2.264
	C167.733,262.245,170.054,262.688,171.811,264.465z"/>
<path fill="#CDE9E4" d="M104.121,342.182c-0.228,1.551-0.922,2.818-2.652,2.687c-1.275-0.096-1.961-1.187-1.88-2.45
	c0.106-1.645,1.169-2.634,2.771-2.657C103.845,339.741,104.077,340.971,104.121,342.182z"/>
<path fill="#E77A5E" d="M278.785,114.399c-0.449,0.205-0.921,0.311-1.413,0.321c-2.419-2.954-3.051-5.551,1.426-7.126
	C281.896,109.868,279.762,112.133,278.785,114.399z"/>
<path fill="#001F41" d="M209.374,291.897c0,0.166,0,0.333,0,0.499c-0.678-0.806-1.355-1.593-2.035-2.358
	c-5.169-5.819-10.492-10.403-17.519-13.102c-3.346-1.285-7.391-0.732-10.071-3.771c-10.322-4.562-21.268-6.187-32.399-6.939
	c-13.752,1.082-26.527-3.996-39.733-6.352c-3.589-3.377-7.61-4.496-12.254-2.362c-2.208-0.449-4.416-0.898-6.624-1.348
	c-1.688,0.001-3.376,0.001-5.064,0.002c-4.386,5.246-6.255,11.824-9.317,17.765c1.198,5.467,6.056,6.553,10.187,8.099
	c9.088,3.401,18.401,6.188,27.38,9.935c5.057,0.3,5.055,6.527,9.209,7.884c1.498-1.691-1.749-7.411,3.402-5.534
	c16.845,6.139,34.312,10.678,50.303,19.084c6.719-0.217,12.194,3.86,18.419,5.451c8.231,2.104,13.871,0.371,16.474-8.207
	c1.332-5.743,0.966-11.532,0.716-17.316C210.113,292.868,209.756,292.391,209.374,291.897z"/>
<path fill="#F4906E" d="M233.501,374.208c2.925,8.394,10.119,14.282,13.536,22.38c-3.415,2.382-6.144-1.213-9.345-0.372
	c-1.22,4.623,0.427,9.228,2.037,13.155c3.375,8.235-2.951,8.889-7.439,11.273c-7.917-2.857-14.531-7.007-15.314-16.428
	c-0.635-7.643-1.993-15.134-0.855-23.012c1.944-13.454-2.86-26.547-3.821-39.923c-0.733-10.202,0.706-20.59-2.04-30.646
	c-1.597-6.371,0.144-33.686,2.449-38.428c5.658-28.478,14.538-56.083,22.752-83.867c1.232-4.168,2.706-8.659,6.089-11.225
	c6.137-4.655,6.628-10.58,6.461-17.463c-0.398-16.386-0.34-32.785-0.287-49.178c0.012-3.651-0.821-7.497,1.311-10.931
	c3.675,2.988,2.852,7.239,2.892,11.105c0.153,14.828,0.014,29.659,0.077,44.488c0.048,11.183,0.176,11.263,10.831,9.919
	c1.986-0.251,3.959-0.539,5.941-0.036c9.524,11.879,12.968,25.018,7.718,39.714c-5.314,14.875-13.212,28.55-20.218,42.635
	c-4.303,6.171-7.631,12.909-11.22,19.504c-4.203,6.522-5.251,13.657-5.386,21.353c-0.419,23.883-4.436,47.418-7.792,71.004
	C231.144,364.389,230.306,369.501,233.501,374.208z"/>
<path fill="#280700" d="M269.102,166.577c-4.6,0.744-9.414,0.881-13.75,2.369c-7.093,2.434-7.565-0.79-7.527-6.444
	c0.139-20.99-0.108-41.983-0.211-62.967c1.85-18.097,5.419-35.432,23.96-44.757c14.62-7.353,30.137-8.259,45.732-3.85
	c10.041,2.839,16.219,9.709,17.214,20.379c0.09,3.626,1.758,7.408-1.092,10.742c-1.24,0.022-2.175-0.591-3.085-1.36
	c-15.062-12.74-32.891-7.657-38.838,11.111c-1.219,3.848-1.695,7.877-2.5,11.826c-0.507,2.486-0.445,5.689-3.665,6.229
	c-3.294,0.552-3.991-2.77-5.491-4.749c-2.054-2.557-4.307-2.618-6.571-0.348c-1.804,1.81-2.061,4.037-1.075,6.321
	c1.164,2.698,3.688,4.325,5.556,6.489c0.933,1.023,1.704,2.139,2.324,3.373c3.825,9.588,1.298,19.585,2.021,29.372
	c-0.043,4.98,0.251,10.038-3.197,14.282C275.983,166.882,272.752,167.737,269.102,166.577z"/>
</svg>
