<?xml version="1.0" encoding="utf-8"?>
<!-- Generator: Adobe Illustrator 17.0.0, SVG Export Plug-In . SVG Version: 6.00 Build 0)  -->
<!DOCTYPE svg PUBLIC "-//W3C//DTD SVG 1.1//EN" "http://www.w3.org/Graphics/SVG/1.1/DTD/svg11.dtd">
<svg version="1.1" id="Layer_1" xmlns="http://www.w3.org/2000/svg" xmlns:xlink="http://www.w3.org/1999/xlink" x="0px" y="0px"
	 width="620.993px" height="140.259px" viewBox="0 0 620.993 140.259" enable-background="new 0 0 620.993 140.259"
	 xml:space="preserve">
<g display="none">
	<path display="inline" d="M156.319,431.571c-9.047,0-16.729-1.646-23.052-4.935s-11.745-7.71-16.268-13.261l12.027-11.256
		c3.802,4.626,7.991,8.121,12.566,10.485c4.573,2.365,9.792,3.546,15.651,3.546c6.886,0,12.078-1.542,15.573-4.626
		c3.494-3.084,5.243-7.247,5.243-12.489c0-4.214-1.233-7.556-3.701-10.022c-2.467-2.468-6.837-4.318-13.106-5.552l-9.56-1.696
		c-10.485-1.951-18.35-5.396-23.592-10.331c-5.243-4.934-7.864-11.719-7.864-20.354c0-4.727,0.898-9.021,2.698-12.875
		c1.798-3.854,4.317-7.093,7.556-9.714c3.238-2.622,7.17-4.65,11.796-6.091c4.626-1.438,9.815-2.159,15.573-2.159
		c8.12,0,15.162,1.414,21.125,4.24c5.961,2.829,11.049,6.915,15.266,12.259l-12.182,10.794c-2.775-3.598-6.168-6.477-10.177-8.636
		c-4.009-2.158-8.996-3.237-14.957-3.237c-6.168,0-10.948,1.233-14.34,3.7c-3.393,2.467-5.089,6.066-5.089,10.794
		c0,4.524,1.388,7.891,4.163,10.1c2.775,2.212,7.094,3.882,12.953,5.012l9.56,2.004c10.794,2.058,18.682,5.552,23.669,10.485
		c4.985,4.935,7.479,11.719,7.479,20.354c0,5.038-0.875,9.613-2.621,13.724c-1.749,4.112-4.294,7.633-7.633,10.563
		c-3.342,2.93-7.428,5.192-12.259,6.784C167.985,430.773,162.487,431.571,156.319,431.571z"/>
	<path display="inline" d="M223.548,335.199c-3.496,0-6.04-0.821-7.633-2.467c-1.595-1.644-2.39-3.752-2.39-6.322v-2.621
		c0-2.568,0.795-4.677,2.39-6.322c1.593-1.644,4.137-2.467,7.633-2.467c3.493,0,6.014,0.823,7.556,2.467
		c1.542,1.646,2.313,3.754,2.313,6.322v2.621c0,2.57-0.771,4.679-2.313,6.322C229.562,334.378,227.041,335.199,223.548,335.199z
		 M215.067,349.539h16.807v80.182h-16.807V349.539z"/>
	<path display="inline" d="M273.044,429.721c-5.758,0-10.049-1.465-12.875-4.395c-2.829-2.93-4.24-7.016-4.24-12.259v-97.451h16.807
		v100.381h11.103v13.724H273.044z"/>
	<path display="inline" d="M299.872,429.721v-80.182h16.808V362.8h0.771c0.822-2.055,1.824-4.009,3.007-5.859
		c1.181-1.85,2.621-3.469,4.317-4.856c1.696-1.389,3.7-2.468,6.014-3.238c2.313-0.771,5.012-1.156,8.095-1.156
		c5.448,0,10.278,1.337,14.495,4.009c4.214,2.674,7.298,6.784,9.251,12.335h0.463c1.438-4.521,4.214-8.377,8.326-11.564
		c4.11-3.185,9.406-4.779,15.883-4.779c8.018,0,14.236,2.698,18.657,8.095c4.419,5.396,6.631,13.082,6.631,23.052v50.885h-16.808
		v-48.88c0-6.168-1.183-10.817-3.547-13.954c-2.365-3.135-6.117-4.703-11.256-4.703c-2.159,0-4.216,0.284-6.168,0.848
		c-1.954,0.566-3.677,1.414-5.165,2.544c-1.492,1.133-2.699,2.571-3.624,4.317c-0.925,1.75-1.388,3.754-1.388,6.014v53.814h-16.808
		v-48.88c0-12.437-4.883-18.657-14.648-18.657c-2.058,0-4.086,0.284-6.09,0.848c-2.005,0.566-3.778,1.414-5.32,2.544
		c-1.542,1.133-2.775,2.571-3.7,4.317c-0.926,1.75-1.388,3.754-1.388,6.014v53.814H299.872z"/>
	<path display="inline" d="M494.618,429.721c-4.421,0-7.813-1.258-10.177-3.777c-2.366-2.519-3.805-5.729-4.317-9.638h-0.771
		c-1.542,5.038-4.37,8.842-8.48,11.41c-4.112,2.568-9.098,3.855-14.957,3.855c-8.326,0-14.726-2.159-19.197-6.477
		s-6.707-10.124-6.707-17.424c0-8.019,2.903-14.032,8.712-18.041c5.807-4.009,14.313-6.014,25.52-6.014h14.494v-6.784
		c0-4.935-1.337-8.736-4.009-11.41c-2.675-2.673-6.838-4.01-12.49-4.01c-4.729,0-8.584,1.029-11.564,3.084
		c-2.982,2.058-5.501,4.679-7.556,7.864l-10.022-9.098c2.672-4.522,6.423-8.249,11.256-11.179c4.831-2.93,11.152-4.395,18.966-4.395
		c10.382,0,18.35,2.416,23.9,7.247c5.551,4.833,8.326,11.771,8.326,20.816v40.244h8.481v13.724H494.618z M460.695,418.772
		c5.243,0,9.561-1.156,12.952-3.469c3.393-2.313,5.089-5.421,5.089-9.329V394.41H464.55c-11.617,0-17.424,3.6-17.424,10.794v2.775
		c0,3.6,1.207,6.298,3.624,8.095C453.164,417.874,456.479,418.772,460.695,418.772z"/>
	<path display="inline" d="M520.522,429.721v-80.182h16.807v15.42h0.771c1.13-4.11,3.493-7.71,7.093-10.794
		c3.598-3.084,8.582-4.626,14.957-4.626h4.472v16.19h-6.63c-6.684,0-11.797,1.08-15.343,3.238c-3.547,2.159-5.32,5.347-5.32,9.561
		v51.192H520.522z"/>
	<path display="inline" d="M588.059,335.199c-3.496,0-6.04-0.821-7.633-2.467c-1.595-1.644-2.39-3.752-2.39-6.322v-2.621
		c0-2.568,0.795-4.677,2.39-6.322c1.593-1.644,4.137-2.467,7.633-2.467c3.493,0,6.014,0.823,7.556,2.467
		c1.542,1.646,2.313,3.754,2.313,6.322v2.621c0,2.57-0.771,4.679-2.313,6.322C594.072,334.378,591.552,335.199,588.059,335.199z
		 M579.578,349.539h16.807v80.182h-16.807V349.539z"/>
	<path display="inline" d="M637.556,429.721c-5.758,0-10.049-1.465-12.875-4.395c-2.828-2.93-4.24-7.016-4.24-12.259v-97.451h16.807
		v100.381h11.103v13.724H637.556z"/>
	<path display="inline" d="M680.574,429.721c-5.758,0-10.049-1.465-12.875-4.395c-2.828-2.93-4.24-7.016-4.24-12.259v-97.451h16.807
		v100.381h11.103v13.724H680.574z"/>
	<path display="inline" d="M715.884,335.199c-3.496,0-6.04-0.821-7.633-2.467c-1.595-1.644-2.39-3.752-2.39-6.322v-2.621
		c0-2.568,0.795-4.677,2.39-6.322c1.593-1.644,4.137-2.467,7.633-2.467c3.493,0,6.014,0.823,7.556,2.467
		c1.542,1.646,2.313,3.754,2.313,6.322v2.621c0,2.57-0.771,4.679-2.313,6.322C721.897,334.378,719.377,335.199,715.884,335.199z
		 M707.403,349.539h16.807v80.182h-16.807V349.539z"/>
</g>
<g>
	<path d="M3.69,108.355V8.036h43.117c9.293,0,16.479,2.731,21.559,8.192c5.077,5.461,7.617,12.791,7.617,21.99
		c0,9.198-2.54,16.528-7.617,21.989C63.286,65.669,56.1,68.4,46.807,68.4H19.931v39.955H3.69z M19.931,54.027h25.87
		c4.118,0,7.33-1.067,9.629-3.204c2.3-2.136,3.449-5.199,3.449-9.187V34.8c0-3.988-1.15-7.049-3.449-9.187
		c-2.299-2.135-5.511-3.204-9.629-3.204h-25.87V54.027z"/>
	<path d="M88.632,108.355V33.619h15.666v14.372h0.719c1.053-3.831,3.256-7.186,6.611-10.06c3.353-2.875,7.999-4.312,13.941-4.312
		h4.168V48.71h-6.18c-6.229,0-10.995,1.005-14.3,3.018c-3.306,2.012-4.958,4.983-4.958,8.91v47.716H88.632z"/>
	<path d="M169.692,110.08c-5.367,0-10.157-0.912-14.372-2.731c-4.217-1.819-7.81-4.43-10.779-7.833
		c-2.971-3.4-5.246-7.52-6.827-12.361c-1.581-4.837-2.371-10.226-2.371-16.169c0-5.939,0.79-11.329,2.371-16.169
		c1.581-4.837,3.856-8.958,6.827-12.36c2.969-3.4,6.562-6.011,10.779-7.833c4.215-1.82,9.005-2.731,14.372-2.731
		c5.462,0,10.277,0.96,14.444,2.874c4.168,1.918,7.639,4.577,10.42,7.977c2.776,3.402,4.861,7.355,6.252,11.857
		c1.387,4.505,2.082,9.342,2.082,14.516v5.892h-51.308v2.428c0,5.713,1.7,10.4,5.102,14.064c3.4,3.665,8.264,5.498,14.588,5.498
		c4.599,0,8.48-0.999,11.641-2.998c3.161-1.999,5.842-4.714,8.049-8.141l9.197,9.081c-2.78,4.612-6.803,8.289-12.072,11.028
		C182.818,108.71,176.685,110.08,169.692,110.08z M169.692,44.111c-2.683,0-5.151,0.481-7.401,1.437
		c-2.252,0.96-4.168,2.3-5.749,4.024c-1.581,1.725-2.803,3.786-3.665,6.181c-0.863,2.396-1.293,5.03-1.293,7.904v1.006h34.78v-1.437
		c0-5.749-1.486-10.371-4.455-13.87C178.938,45.86,174.867,44.111,169.692,44.111z"/>
	<path d="M221.576,46.41h-11.354V33.619h11.354V21.258c0-6.036,1.58-10.755,4.742-14.156C229.481,3.702,234.224,2,240.548,2h12.36
		v12.791h-15.666v18.828h15.666V46.41h-15.666v61.945h-15.665V46.41z"/>
	<path d="M292.719,110.08c-5.174,0-9.895-0.912-14.157-2.731c-4.264-1.819-7.882-4.43-10.851-7.833
		c-2.971-3.4-5.271-7.52-6.899-12.361c-1.631-4.837-2.444-10.226-2.444-16.169c0-5.939,0.813-11.329,2.444-16.169
		c1.628-4.837,3.927-8.958,6.899-12.36c2.969-3.4,6.586-6.011,10.851-7.833c4.263-1.82,8.983-2.731,14.157-2.731
		c5.174,0,9.892,0.912,14.156,2.731c4.263,1.821,7.88,4.433,10.852,7.833c2.969,3.402,5.268,7.523,6.899,12.36
		c1.628,4.84,2.443,10.23,2.443,16.169c0,5.943-0.815,11.332-2.443,16.169c-1.631,4.84-3.93,8.961-6.899,12.361
		c-2.971,3.403-6.589,6.014-10.852,7.833C302.611,109.168,297.893,110.08,292.719,110.08z M292.719,97.001
		c5.365,0,9.676-1.643,12.935-4.931c3.256-3.288,4.887-8.217,4.887-14.793v-12.58c0-6.574-1.631-11.505-4.887-14.793
		c-3.259-3.288-7.57-4.931-12.935-4.931c-5.367,0-9.679,1.643-12.936,4.931c-3.258,3.288-4.886,8.219-4.886,14.793v12.58
		c0,6.575,1.628,11.505,4.886,14.793C283.04,95.357,287.352,97.001,292.719,97.001z"/>
	<path d="M341.872,108.355V33.619h15.666v14.372h0.718c1.053-3.831,3.256-7.186,6.611-10.06c3.353-2.875,7.999-4.312,13.942-4.312
		h4.167V48.71h-6.18c-6.229,0-10.994,1.005-14.3,3.018c-3.306,2.012-4.958,4.983-4.958,8.91v47.716H341.872z"/>
	<path d="M394.33,108.355V33.619h15.666v12.36h0.718c0.766-1.916,1.7-3.737,2.803-5.461c1.101-1.725,2.443-3.234,4.024-4.527
		c1.581-1.294,3.449-2.3,5.605-3.019c2.156-0.718,4.672-1.078,7.546-1.078c5.077,0,9.58,1.246,13.51,3.737
		c3.927,2.493,6.803,6.324,8.624,11.498h0.43c1.341-4.215,3.928-7.808,7.761-10.779c3.831-2.969,8.767-4.456,14.804-4.456
		c7.474,0,13.27,2.515,17.39,7.546c4.119,5.03,6.181,12.194,6.181,21.486v47.429h-15.666v-45.56c0-5.749-1.102-10.083-3.306-13.007
		c-2.206-2.922-5.702-4.383-10.492-4.383c-2.013,0-3.93,0.265-5.749,0.79c-1.821,0.527-3.426,1.318-4.815,2.372
		c-1.39,1.055-2.515,2.396-3.377,4.024c-0.863,1.63-1.294,3.499-1.294,5.605v50.159h-15.666v-45.56
		c0-11.592-4.552-17.39-13.654-17.39c-1.917,0-3.808,0.265-5.677,0.79c-1.868,0.527-3.521,1.318-4.958,2.372
		c-1.437,1.055-2.587,2.396-3.449,4.024c-0.863,1.63-1.293,3.499-1.293,5.605v50.159H394.33z"/>
	<path d="M534.458,108.355c-5.367,0-9.366-1.365-12.001-4.096c-2.636-2.731-3.952-6.54-3.952-11.427V2h15.666v93.564h10.348v12.791
		H534.458z"/>
	<path d="M601.576,33.619h15.091l-31.475,89.54c-0.863,2.491-1.846,4.621-2.947,6.396c-1.102,1.772-2.396,3.209-3.881,4.311
		c-1.487,1.101-3.283,1.916-5.39,2.444c-2.109,0.525-4.599,0.79-7.474,0.79h-9.054v-12.791h12.647l4.312-12.648l-27.163-78.042
		h15.665l14.947,43.98l4.312,16.24h0.719l4.742-16.24L601.576,33.619z"/>
</g>
</svg>
