<?xml version="1.0" encoding="utf-8"?>
<!-- Generator: Adobe Illustrator 17.0.0, SVG Export Plug-In . SVG Version: 6.00 Build 0)  -->
<!DOCTYPE svg PUBLIC "-//W3C//DTD SVG 1.1//EN" "http://www.w3.org/Graphics/SVG/1.1/DTD/svg11.dtd">
<svg version="1.1" id="Layer_1" xmlns="http://www.w3.org/2000/svg" xmlns:xlink="http://www.w3.org/1999/xlink" x="0px" y="0px"
	 width="40px" height="40px" viewBox="0 0 40 40" enable-background="new 0 0 40 40" xml:space="preserve">
<g>
	<g>
		<path fill="#FFFFFF" d="M39.025,36.058c0,1.65-1.35,3-3,3H3.975c-1.65,0-3-1.35-3-3V4.008c0-1.65,1.35-3,3-3h32.05
			c1.65,0,3,1.35,3,3V36.058z"/>
		<path fill="none" stroke="#0C80C3" stroke-miterlimit="10" d="M39.025,36.058c0,1.65-1.35,3-3,3H3.975c-1.65,0-3-1.35-3-3V4.008
			c0-1.65,1.35-3,3-3h32.05c1.65,0,3,1.35,3,3V36.058z"/>
	</g>
	<path fill="#0780C2" d="M37.112,0.942H2.881c-0.897,0-1.623,0.727-1.623,1.623v6.687h37.478V2.565
		C38.736,1.668,38.009,0.942,37.112,0.942z"/>
	<path fill="#FFFFFF" d="M13.865,5.097c0,1.232-0.999,2.231-2.231,2.231H6.182c-1.232,0-2.231-0.999-2.231-2.231l0,0
		c0-1.232,0.999-2.231,2.231-2.231h5.453C12.867,2.866,13.865,3.865,13.865,5.097L13.865,5.097z"/>
	<path fill="#5EC3BA" d="M24.957,5.097c0,1.232-0.999,2.231-2.231,2.231h-5.453c-1.232,0-2.231-0.999-2.231-2.231l0,0
		c0-1.232,0.999-2.231,2.231-2.231h5.453C23.958,2.866,24.957,3.865,24.957,5.097L24.957,5.097z"/>
	<path fill="#FFFFFF" d="M36.049,5.097c0,1.232-0.999,2.231-2.231,2.231h-5.453c-1.232,0-2.231-0.999-2.231-2.231l0,0
		c0-1.232,0.999-2.231,2.231-2.231h5.453C35.05,2.866,36.049,3.865,36.049,5.097L36.049,5.097z"/>
	<g>
		<path fill="#4DC4F1" d="M35.568,16.121c0,0.332-0.45,0.604-1,0.604h-17.78c-0.55,0-1-0.272-1-0.604c0-0.332,0.45-0.604,1-0.604
			h17.78C35.118,15.518,35.568,15.789,35.568,16.121z"/>
	</g>
	<g>
		<path fill="#4DC4F1" d="M29.126,18.311c0,0.332-0.45,0.604-1,0.604H16.788c-0.55,0-1-0.272-1-0.604c0-0.332,0.45-0.604,1-0.604
			h11.338C28.676,17.707,29.126,17.979,29.126,18.311z"/>
	</g>
	<g id="XMLID_23_">
		<path fill="#333333" d="M10.315,19.048c-1.306-0.103-2.427-0.955-2.869-2.171c-0.303-0.83-0.263-1.73,0.111-2.532
			c0.374-0.803,1.037-1.412,1.868-1.714c0.365-0.133,0.744-0.2,1.129-0.2c1.39,0,2.642,0.876,3.116,2.18
			c0.357,0.979,0.239,2.045-0.326,2.925l-0.189,0.104l-0.122-0.036l-0.066-0.311c0.487-0.759,0.59-1.68,0.282-2.527
			c-0.41-1.126-1.492-1.884-2.692-1.884c-0.333,0-0.662,0.058-0.977,0.173c-0.718,0.261-1.291,0.787-1.614,1.48
			c-0.324,0.695-0.358,1.471-0.097,2.189c0.383,1.052,1.352,1.788,2.468,1.876l0.153,0.077l0.054,0.164l-0.224,0.209H10.315z"/>
		<path id="XMLID_24_" fill="#333333" d="M10.318,18.867c-0.001,0-0.002,0-0.003,0c-1.221-0.096-2.28-0.901-2.699-2.052
			c-0.591-1.622,0.249-3.423,1.871-4.013c1.622-0.591,3.423,0.249,4.013,1.871c0.337,0.927,0.225,1.935-0.309,2.765
			c-0.013,0.02-0.04,0.026-0.06,0.013c-0.02-0.013-0.026-0.04-0.013-0.06c0.519-0.808,0.628-1.787,0.3-2.688
			c-0.574-1.577-2.324-2.393-3.901-1.819c-1.577,0.574-2.393,2.324-1.819,3.901c0.407,1.118,1.437,1.901,2.624,1.994
			c0.024,0.002,0.042,0.023,0.04,0.047C10.36,18.849,10.341,18.867,10.318,18.867z"/>
	</g>
	<g id="XMLID_21_">
		<path fill="#333333" d="M10.546,22.388c-0.628,0-1.245-0.182-1.783-0.526L8.695,21.55l0.189-0.103l0.125,0.039
			c0.461,0.295,0.994,0.451,1.537,0.451c0.334,0,0.665-0.058,0.984-0.174c0.718-0.262,1.291-0.787,1.614-1.481
			c0.324-0.694,0.358-1.47,0.097-2.188c-0.411-1.126-1.493-1.884-2.693-1.884c-0.333,0-0.661,0.058-0.976,0.173
			c-1.04,0.379-1.775,1.334-1.873,2.437l-0.225,0.205L7.25,18.783c0.114-1.278,0.965-2.385,2.168-2.821
			c0.365-0.134,0.745-0.201,1.131-0.201c1.389,0,2.641,0.876,3.114,2.18c0.303,0.83,0.263,1.73-0.111,2.532
			c-0.374,0.803-1.038,1.411-1.868,1.713C11.316,22.32,10.934,22.388,10.546,22.388z"/>
		<path id="XMLID_22_" fill="#333333" d="M10.546,22.207c-0.589,0-1.171-0.168-1.685-0.497c-0.02-0.013-0.026-0.04-0.013-0.06
			c0.013-0.02,0.04-0.026,0.06-0.013c0.807,0.516,1.785,0.625,2.684,0.298c1.577-0.574,2.393-2.324,1.819-3.901
			c-0.574-1.577-2.324-2.393-3.901-1.819c-1.105,0.402-1.887,1.419-1.991,2.591c-0.002,0.024-0.023,0.042-0.047,0.04
			c-0.024-0.002-0.042-0.023-0.04-0.047c0.108-1.205,0.912-2.251,2.049-2.665c1.622-0.591,3.423,0.249,4.013,1.871
			c0.591,1.622-0.249,3.423-1.871,4.013C11.27,22.144,10.907,22.207,10.546,22.207z"/>
	</g>
	<g id="XMLID_19_">
		<path fill="#333333" d="M7.237,22.374c-0.483,0-0.953-0.105-1.398-0.312c-0.802-0.374-1.41-1.038-1.712-1.869
			c-0.357-0.98-0.238-2.046,0.327-2.926l0.189-0.104l0.122,0.036l0.066,0.311c-0.488,0.759-0.592,1.68-0.283,2.528
			c0.261,0.718,0.787,1.292,1.481,1.616c0.383,0.18,0.789,0.27,1.207,0.27c0.334,0,0.664-0.058,0.981-0.174
			c0.718-0.262,1.292-0.787,1.615-1.48c0.324-0.693,0.358-1.47,0.096-2.189c-0.383-1.051-1.351-1.787-2.468-1.876l-0.206-0.241
			l0.226-0.209c1.307,0.103,2.428,0.955,2.87,2.171c0.303,0.83,0.263,1.73-0.111,2.532c-0.374,0.803-1.037,1.412-1.868,1.714
			C8.003,22.306,7.622,22.374,7.237,22.374z"/>
		<path id="XMLID_20_" fill="#333333" d="M7.237,22.193c-0.451,0-0.9-0.099-1.321-0.295c-0.758-0.353-1.333-0.981-1.619-1.767
			c-0.337-0.927-0.225-1.935,0.31-2.766c0.013-0.02,0.04-0.026,0.06-0.013c0.02,0.013,0.026,0.04,0.013,0.06
			C4.161,18.22,4.051,19.2,4.379,20.101c0.278,0.764,0.837,1.374,1.574,1.717s1.563,0.38,2.327,0.102
			c0.764-0.278,1.374-0.837,1.717-1.574c0.344-0.737,0.38-1.563,0.102-2.327c-0.407-1.118-1.437-1.901-2.623-1.994
			c-0.024-0.002-0.042-0.023-0.04-0.047c0.002-0.024,0.023-0.042,0.047-0.04c1.221,0.096,2.28,0.901,2.699,2.052
			c0.591,1.622-0.249,3.423-1.871,4.013C7.961,22.129,7.598,22.193,7.237,22.193z"/>
	</g>
	<g id="XMLID_17_">
		<path fill="#333333" d="M7.241,19.035c-0.485,0-0.955-0.105-1.399-0.311c-0.801-0.375-1.409-1.039-1.712-1.869
			c-0.303-0.833-0.263-1.732,0.111-2.534c0.374-0.801,1.038-1.409,1.869-1.712c0.368-0.134,0.75-0.203,1.137-0.203
			c0.633,0,1.252,0.184,1.792,0.533l0.067,0.311l-0.189,0.103l-0.122-0.036c-0.466-0.301-1.002-0.46-1.548-0.46
			c-0.334,0-0.664,0.058-0.984,0.174c-0.718,0.263-1.292,0.788-1.615,1.481c-0.323,0.693-0.357,1.47-0.096,2.189
			c0.263,0.719,0.788,1.293,1.48,1.615c0.385,0.18,0.791,0.27,1.209,0.27c0.334,0,0.664-0.058,0.981-0.173
			c1.039-0.38,1.774-1.335,1.873-2.437l0.223-0.205l0.174,0.081l0.05,0.167c-0.114,1.27-0.965,2.377-2.168,2.815
			C8.01,18.967,7.629,19.035,7.241,19.035z"/>
		<path id="XMLID_18_" fill="#333333" d="M7.241,18.854c-0.451,0-0.9-0.099-1.321-0.295c-0.758-0.353-1.333-0.981-1.619-1.767
			c-0.286-0.786-0.249-1.636,0.105-2.394c0.353-0.758,0.981-1.333,1.767-1.619c0.929-0.338,1.938-0.224,2.77,0.312
			c0.02,0.013,0.026,0.04,0.013,0.06c-0.013,0.02-0.04,0.026-0.06,0.013c-0.808-0.521-1.79-0.632-2.692-0.303
			c-0.764,0.278-1.374,0.837-1.717,1.574c-0.344,0.737-0.38,1.563-0.102,2.327c0.278,0.764,0.837,1.374,1.574,1.717
			c0.737,0.344,1.563,0.38,2.327,0.102c1.105-0.402,1.887-1.419,1.991-2.591c0.002-0.024,0.023-0.042,0.047-0.04
			c0.024,0.002,0.042,0.023,0.04,0.047c-0.108,1.205-0.912,2.251-2.049,2.665C7.965,18.791,7.602,18.854,7.241,18.854z"/>
	</g>
	<g>
		<path fill="#4DC4F1" d="M35.568,29.409c0,0.332-0.45,0.604-1,0.604h-17.78c-0.55,0-1-0.272-1-0.604c0-0.332,0.45-0.604,1-0.604
			h17.78C35.118,28.805,35.568,29.077,35.568,29.409z"/>
	</g>
	<g>
		<path fill="#4DC4F1" d="M29.126,31.598c0,0.332-0.45,0.604-1,0.604H16.788c-0.55,0-1-0.272-1-0.604c0-0.332,0.45-0.604,1-0.604
			h11.338C28.676,30.994,29.126,31.266,29.126,31.598z"/>
	</g>
	<g id="XMLID_15_">
		<path fill="#333333" d="M10.315,32.336c-1.306-0.103-2.427-0.955-2.869-2.171c-0.303-0.83-0.263-1.73,0.111-2.532
			c0.374-0.803,1.037-1.412,1.868-1.714c0.365-0.133,0.744-0.2,1.129-0.2c1.39,0,2.642,0.876,3.116,2.18
			c0.357,0.979,0.239,2.045-0.326,2.925l-0.189,0.104l-0.122-0.036l-0.066-0.311c0.487-0.759,0.59-1.68,0.282-2.527
			c-0.41-1.126-1.492-1.884-2.692-1.884c-0.333,0-0.662,0.058-0.977,0.173c-0.718,0.261-1.291,0.787-1.614,1.48
			c-0.324,0.695-0.358,1.471-0.097,2.189c0.383,1.052,1.352,1.788,2.468,1.876l0.153,0.077l0.054,0.164l-0.224,0.209H10.315z"/>
		<path id="XMLID_16_" fill="#333333" d="M10.318,32.154c-0.001,0-0.002,0-0.003,0c-1.221-0.096-2.28-0.901-2.699-2.052
			c-0.591-1.622,0.249-3.423,1.871-4.013c1.622-0.591,3.423,0.249,4.013,1.871c0.337,0.927,0.225,1.935-0.309,2.765
			c-0.013,0.02-0.04,0.026-0.06,0.013c-0.02-0.013-0.026-0.04-0.013-0.06c0.519-0.808,0.628-1.787,0.3-2.688
			c-0.574-1.577-2.324-2.393-3.901-1.819c-1.577,0.574-2.393,2.324-1.819,3.901c0.407,1.118,1.437,1.901,2.624,1.994
			c0.024,0.002,0.042,0.023,0.04,0.047C10.36,32.137,10.341,32.154,10.318,32.154z"/>
	</g>
	<g id="XMLID_13_">
		<path fill="#333333" d="M10.546,35.676c-0.628,0-1.245-0.182-1.783-0.526l-0.068-0.312l0.189-0.103l0.125,0.039
			c0.461,0.295,0.994,0.451,1.537,0.451c0.334,0,0.665-0.058,0.984-0.174c0.718-0.262,1.291-0.787,1.614-1.481
			c0.324-0.694,0.358-1.47,0.097-2.188c-0.411-1.126-1.493-1.884-2.693-1.884c-0.333,0-0.661,0.058-0.976,0.173
			c-1.04,0.379-1.775,1.334-1.873,2.437l-0.225,0.205L7.25,32.071c0.114-1.278,0.965-2.385,2.168-2.821
			c0.365-0.134,0.745-0.201,1.131-0.201c1.389,0,2.641,0.876,3.114,2.18c0.303,0.83,0.263,1.73-0.111,2.532
			c-0.374,0.803-1.038,1.411-1.868,1.713C11.316,35.608,10.934,35.676,10.546,35.676z"/>
		<path id="XMLID_14_" fill="#333333" d="M10.546,35.495c-0.589,0-1.171-0.168-1.685-0.497c-0.02-0.013-0.026-0.04-0.013-0.06
			c0.013-0.02,0.04-0.026,0.06-0.013c0.807,0.516,1.785,0.625,2.684,0.298c1.577-0.574,2.393-2.324,1.819-3.901
			c-0.574-1.577-2.324-2.393-3.901-1.819c-1.105,0.402-1.887,1.419-1.991,2.591c-0.002,0.024-0.023,0.042-0.047,0.04
			c-0.024-0.002-0.042-0.023-0.04-0.048c0.108-1.205,0.912-2.251,2.049-2.665c1.622-0.591,3.423,0.249,4.013,1.871
			c0.591,1.622-0.249,3.423-1.871,4.013C11.27,35.431,10.907,35.495,10.546,35.495z"/>
	</g>
	<g id="XMLID_11_">
		<path fill="#333333" d="M7.237,35.662c-0.483,0-0.953-0.105-1.398-0.312c-0.802-0.374-1.41-1.038-1.712-1.869
			c-0.357-0.98-0.238-2.046,0.327-2.926l0.189-0.104l0.122,0.036l0.066,0.311c-0.488,0.759-0.592,1.68-0.283,2.528
			c0.261,0.718,0.787,1.292,1.481,1.616c0.383,0.18,0.789,0.27,1.207,0.27c0.334,0,0.664-0.058,0.981-0.174
			c0.718-0.262,1.292-0.787,1.615-1.48c0.324-0.693,0.358-1.47,0.096-2.189c-0.383-1.051-1.351-1.787-2.468-1.876l-0.206-0.241
			l0.226-0.209c1.307,0.103,2.428,0.955,2.87,2.171c0.303,0.83,0.263,1.73-0.111,2.532c-0.374,0.803-1.037,1.412-1.868,1.714
			C8.003,35.593,7.622,35.662,7.237,35.662z"/>
		<path id="XMLID_12_" fill="#333333" d="M7.237,35.48c-0.451,0-0.9-0.099-1.321-0.295c-0.758-0.353-1.333-0.981-1.619-1.767
			c-0.337-0.927-0.225-1.935,0.31-2.766c0.013-0.02,0.04-0.026,0.06-0.013c0.02,0.013,0.026,0.04,0.013,0.06
			c-0.519,0.808-0.629,1.788-0.301,2.689c0.278,0.764,0.837,1.374,1.574,1.717s1.563,0.38,2.327,0.102s1.374-0.837,1.717-1.574
			c0.344-0.737,0.38-1.563,0.102-2.327c-0.407-1.118-1.437-1.901-2.623-1.994c-0.024-0.002-0.042-0.023-0.04-0.047
			c0.002-0.024,0.023-0.042,0.047-0.04c1.221,0.096,2.28,0.901,2.699,2.052c0.591,1.622-0.249,3.423-1.871,4.013
			C7.961,35.417,7.598,35.48,7.237,35.48z"/>
	</g>
	<g id="XMLID_9_">
		<path fill="#333333" d="M7.241,32.323c-0.485,0-0.955-0.105-1.399-0.311c-0.801-0.375-1.409-1.039-1.712-1.869
			c-0.303-0.833-0.263-1.732,0.111-2.534c0.374-0.801,1.038-1.409,1.869-1.712c0.368-0.134,0.75-0.203,1.137-0.203
			c0.633,0,1.252,0.184,1.792,0.533l0.067,0.311L8.918,26.64l-0.122-0.036c-0.466-0.301-1.002-0.46-1.548-0.46
			c-0.334,0-0.664,0.058-0.984,0.174c-0.718,0.263-1.292,0.788-1.615,1.481c-0.323,0.693-0.357,1.47-0.096,2.189
			c0.263,0.719,0.788,1.293,1.48,1.615c0.385,0.18,0.791,0.27,1.209,0.27c0.334,0,0.664-0.058,0.981-0.173
			c1.039-0.38,1.774-1.335,1.873-2.437l0.223-0.205l0.174,0.081l0.05,0.167c-0.114,1.27-0.965,2.377-2.168,2.815
			C8.01,32.255,7.629,32.323,7.241,32.323z"/>
		<path id="XMLID_10_" fill="#333333" d="M7.241,32.141c-0.451,0-0.9-0.099-1.321-0.295c-0.758-0.353-1.333-0.981-1.619-1.767
			c-0.286-0.786-0.249-1.636,0.105-2.394c0.353-0.758,0.981-1.333,1.767-1.619c0.929-0.338,1.938-0.224,2.77,0.312
			c0.02,0.013,0.026,0.04,0.013,0.06c-0.013,0.02-0.04,0.026-0.06,0.013c-0.808-0.521-1.79-0.632-2.692-0.303
			c-0.764,0.278-1.374,0.837-1.717,1.574c-0.344,0.737-0.38,1.563-0.102,2.327s0.837,1.374,1.574,1.717
			c0.737,0.344,1.563,0.38,2.327,0.102c1.105-0.402,1.887-1.419,1.991-2.591c0.002-0.024,0.023-0.042,0.047-0.04
			c0.024,0.002,0.042,0.023,0.04,0.047c-0.108,1.205-0.912,2.251-2.049,2.665C7.965,32.078,7.602,32.141,7.241,32.141z"/>
	</g>
</g>
</svg>
