<?xml version="1.0" encoding="utf-8"?>
<!-- Generator: Adobe Illustrator 24.2.3, SVG Export Plug-In . SVG Version: 6.00 Build 0)  -->
<svg version="1.1" id="Layer_1" xmlns="http://www.w3.org/2000/svg" xmlns:xlink="http://www.w3.org/1999/xlink" x="0px" y="0px"
	 viewBox="0 0 40 40" style="enable-background:new 0 0 40 40;" xml:space="preserve">
<style type="text/css">
	.st0{fill:#E4E6EB;}
	.st1{fill:none;stroke:#898989;stroke-miterlimit:10;}
	.st2{fill:#FFFFFF;}
	.st3{fill:#898989;}
</style>
<path class="st0" d="M37.1,0.9H2.9C2,0.9,1.3,1.7,1.3,2.6v6.7h37.5V2.6C38.7,1.7,38,0.9,37.1,0.9z"/>
<g>
	<path class="st1" d="M39,36.1c0,1.7-1.3,3-3,3H4c-1.7,0-3-1.3-3-3V4c0-1.7,1.3-3,3-3h32c1.7,0,3,1.3,3,3C39,4,39,36.1,39,36.1z"/>
	<path class="st1" d="M39,36.1c0,1.7-1.3,3-3,3H4c-1.7,0-3-1.3-3-3V4c0-1.7,1.3-3,3-3h32c1.7,0,3,1.3,3,3C39,4,39,36.1,39,36.1z"/>
</g>
<path class="st2" d="M13.9,5.1c0,1.2-1,2.2-2.2,2.2H6.2C5,7.3,4,6.3,4,5.1l0,0c0-1.2,1-2.2,2.2-2.2h5.5C12.9,2.9,13.9,3.9,13.9,5.1
	L13.9,5.1z"/>
<path class="st3" d="M25,5.1c0,1.2-1,2.2-2.2,2.2h-5.5c-1.2,0-2.2-1-2.2-2.2l0,0c0-1.2,1-2.2,2.2-2.2h5.5C24,2.9,25,3.9,25,5.1
	L25,5.1z"/>
<path class="st2" d="M36,5.1c0,1.2-1,2.2-2.2,2.2h-5.5c-1.2,0-2.2-1-2.2-2.2l0,0c0-1.2,1-2.2,2.2-2.2h5.5C35,2.9,36,3.9,36,5.1
	L36,5.1z"/>
<g>
	<path class="st3" d="M35.6,16.1c0,0.3-0.5,0.6-1,0.6H16.8c-0.5,0-1-0.3-1-0.6c0-0.3,0.5-0.6,1-0.6h17.8
		C35.1,15.5,35.6,15.8,35.6,16.1z"/>
</g>
<g>
	<path class="st3" d="M29.1,18.3c0,0.3-0.5,0.6-1,0.6H16.8c-0.5,0-1-0.3-1-0.6s0.5-0.6,1-0.6h11.3C28.7,17.7,29.1,18,29.1,18.3z"/>
</g>
<g id="XMLID_23_">
	<path class="st3" d="M10.3,19c-1.3-0.1-2.4-1-2.9-2.2c-0.3-0.8-0.3-1.7,0.1-2.5c0.4-0.8,1-1.4,1.9-1.7c0.4-0.1,0.7-0.2,1.1-0.2
		c1.4,0,2.6,0.9,3.1,2.2c0.4,1,0.2,2-0.3,2.9l-0.2,0.1l-0.1,0L13,17.3c0.5-0.8,0.6-1.7,0.3-2.5c-0.4-1.1-1.5-1.9-2.7-1.9
		c-0.3,0-0.7,0.1-1,0.2c-0.7,0.3-1.3,0.8-1.6,1.5c-0.3,0.7-0.4,1.5-0.1,2.2c0.4,1.1,1.4,1.8,2.5,1.9l0.2,0.1l0.1,0.2L10.3,19
		L10.3,19L10.3,19z"/>
	<path id="XMLID_24_" class="st3" d="M10.3,18.9C10.3,18.9,10.3,18.9,10.3,18.9C9.1,18.8,8,18,7.6,16.8c-0.6-1.6,0.2-3.4,1.9-4
		c1.6-0.6,3.4,0.2,4,1.9c0.3,0.9,0.2,1.9-0.3,2.8c0,0,0,0-0.1,0c0,0,0,0,0-0.1c0.5-0.8,0.6-1.8,0.3-2.7c-0.6-1.6-2.3-2.4-3.9-1.8
		c-1.6,0.6-2.4,2.3-1.8,3.9C8.1,17.9,9.1,18.7,10.3,18.9C10.3,18.8,10.4,18.8,10.3,18.9C10.4,18.8,10.3,18.9,10.3,18.9z"/>
</g>
<g id="XMLID_21_">
	<path class="st3" d="M10.5,22.4c-0.6,0-1.2-0.2-1.8-0.5l-0.1-0.3l0.2-0.1l0.1,0c0.5,0.3,1,0.5,1.5,0.5c0.3,0,0.7-0.1,1-0.2
		c0.7-0.3,1.3-0.8,1.6-1.5c0.3-0.7,0.4-1.5,0.1-2.2c-0.4-1.1-1.5-1.9-2.7-1.9c-0.3,0-0.7,0.1-1,0.2c-1,0.4-1.8,1.3-1.9,2.4L7.5,19
		l-0.2-0.2c0.1-1.3,1-2.4,2.2-2.8c0.4-0.1,0.7-0.2,1.1-0.2c1.4,0,2.6,0.9,3.1,2.2c0.3,0.8,0.3,1.7-0.1,2.5c-0.4,0.8-1,1.4-1.9,1.7
		C11.3,22.3,10.9,22.4,10.5,22.4z"/>
	<path id="XMLID_22_" class="st3" d="M10.5,22.2c-0.6,0-1.2-0.2-1.7-0.5c0,0,0,0,0-0.1c0,0,0,0,0.1,0c0.8,0.5,1.8,0.6,2.7,0.3
		c1.6-0.6,2.4-2.3,1.8-3.9c-0.6-1.6-2.3-2.4-3.9-1.8c-1.1,0.4-1.9,1.4-2,2.6c0,0,0,0,0,0c0,0,0,0,0,0c0.1-1.2,0.9-2.3,2-2.7
		c1.6-0.6,3.4,0.2,4,1.9c0.6,1.6-0.2,3.4-1.9,4C11.3,22.1,10.9,22.2,10.5,22.2z"/>
</g>
<g id="XMLID_19_">
	<path class="st3" d="M7.2,22.4c-0.5,0-1-0.1-1.4-0.3c-0.8-0.4-1.4-1-1.7-1.9c-0.4-1-0.2-2,0.3-2.9l0.2-0.1l0.1,0l0.1,0.3
		c-0.5,0.8-0.6,1.7-0.3,2.5c0.3,0.7,0.8,1.3,1.5,1.6c0.4,0.2,0.8,0.3,1.2,0.3c0.3,0,0.7-0.1,1-0.2c0.7-0.3,1.3-0.8,1.6-1.5
		c0.3-0.7,0.4-1.5,0.1-2.2c-0.4-1.1-1.4-1.8-2.5-1.9L7.3,16l0.2-0.2c1.3,0.1,2.4,1,2.9,2.2c0.3,0.8,0.3,1.7-0.1,2.5
		c-0.4,0.8-1,1.4-1.9,1.7C8,22.3,7.6,22.4,7.2,22.4z"/>
	<path id="XMLID_20_" class="st3" d="M7.2,22.2c-0.5,0-0.9-0.1-1.3-0.3c-0.8-0.4-1.3-1-1.6-1.8c-0.3-0.9-0.2-1.9,0.3-2.8
		c0,0,0,0,0.1,0c0,0,0,0,0,0.1c-0.5,0.8-0.6,1.8-0.3,2.7c0.3,0.8,0.8,1.4,1.6,1.7s1.6,0.4,2.3,0.1s1.4-0.8,1.7-1.6
		c0.3-0.7,0.4-1.6,0.1-2.3c-0.4-1.1-1.4-1.9-2.6-2c0,0,0,0,0,0c0,0,0,0,0,0c1.2,0.1,2.3,0.9,2.7,2.1c0.6,1.6-0.2,3.4-1.9,4
		C8,22.1,7.6,22.2,7.2,22.2z"/>
</g>
<g id="XMLID_17_">
	<path class="st3" d="M7.2,19c-0.5,0-1-0.1-1.4-0.3c-0.8-0.4-1.4-1-1.7-1.9c-0.3-0.8-0.3-1.7,0.1-2.5c0.4-0.8,1-1.4,1.9-1.7
		c0.4-0.1,0.8-0.2,1.1-0.2c0.6,0,1.3,0.2,1.8,0.5l0.1,0.3l-0.2,0.1l-0.1,0c-0.5-0.3-1-0.5-1.5-0.5c-0.3,0-0.7,0.1-1,0.2
		c-0.7,0.3-1.3,0.8-1.6,1.5S4.3,16,4.6,16.7C4.8,17.4,5.3,18,6,18.3c0.4,0.2,0.8,0.3,1.2,0.3c0.3,0,0.7-0.1,1-0.2
		c1-0.4,1.8-1.3,1.9-2.4l0.2-0.2l0.2,0.1l0.1,0.2c-0.1,1.3-1,2.4-2.2,2.8C8,19,7.6,19,7.2,19z"/>
	<path id="XMLID_18_" class="st3" d="M7.2,18.9c-0.5,0-0.9-0.1-1.3-0.3c-0.8-0.4-1.3-1-1.6-1.8s-0.2-1.6,0.1-2.4
		c0.4-0.8,1-1.3,1.8-1.6c0.9-0.3,1.9-0.2,2.8,0.3c0,0,0,0,0,0.1c0,0,0,0-0.1,0c-0.8-0.5-1.8-0.6-2.7-0.3c-0.8,0.3-1.4,0.8-1.7,1.6
		c-0.3,0.7-0.4,1.6-0.1,2.3c0.3,0.8,0.8,1.4,1.6,1.7c0.7,0.3,1.6,0.4,2.3,0.1c1.1-0.4,1.9-1.4,2-2.6c0,0,0,0,0,0s0,0,0,0
		c-0.1,1.2-0.9,2.3-2,2.7C8,18.8,7.6,18.9,7.2,18.9z"/>
</g>
<g>
	<path class="st3" d="M35.6,29.4c0,0.3-0.5,0.6-1,0.6H16.8c-0.5,0-1-0.3-1-0.6s0.5-0.6,1-0.6h17.8C35.1,28.8,35.6,29.1,35.6,29.4z"
		/>
</g>
<g>
	<path class="st3" d="M29.1,31.6c0,0.3-0.5,0.6-1,0.6H16.8c-0.5,0-1-0.3-1-0.6s0.5-0.6,1-0.6h11.3C28.7,31,29.1,31.3,29.1,31.6z"/>
</g>
<g id="XMLID_15_">
	<path class="st3" d="M10.3,32.3c-1.3-0.1-2.4-1-2.9-2.2c-0.3-0.8-0.3-1.7,0.1-2.5c0.4-0.8,1-1.4,1.9-1.7c0.4-0.1,0.7-0.2,1.1-0.2
		c1.4,0,2.6,0.9,3.1,2.2c0.4,1,0.2,2-0.3,2.9l-0.2,0.1l-0.1,0L13,30.6c0.5-0.8,0.6-1.7,0.3-2.5c-0.4-1.1-1.5-1.9-2.7-1.9
		c-0.3,0-0.7,0.1-1,0.2c-0.7,0.3-1.3,0.8-1.6,1.5c-0.3,0.7-0.4,1.5-0.1,2.2c0.4,1.1,1.4,1.8,2.5,1.9l0.2,0.1l0.1,0.2L10.3,32.3
		L10.3,32.3L10.3,32.3z"/>
	<path id="XMLID_16_" class="st3" d="M10.3,32.2C10.3,32.2,10.3,32.2,10.3,32.2c-1.2-0.1-2.3-0.9-2.7-2.1c-0.6-1.6,0.2-3.4,1.9-4
		c1.6-0.6,3.4,0.2,4,1.9c0.3,0.9,0.2,1.9-0.3,2.8c0,0,0,0-0.1,0c0,0,0,0,0-0.1c0.5-0.8,0.6-1.8,0.3-2.7c-0.6-1.6-2.3-2.4-3.9-1.8
		s-2.4,2.3-1.8,3.9C8.1,31.2,9.1,32,10.3,32.2C10.3,32.1,10.4,32.1,10.3,32.2C10.4,32.1,10.3,32.2,10.3,32.2z"/>
</g>
<g id="XMLID_13_">
	<path class="st3" d="M10.5,35.7c-0.6,0-1.2-0.2-1.8-0.5l-0.1-0.3l0.2-0.1l0.1,0c0.5,0.3,1,0.5,1.5,0.5c0.3,0,0.7-0.1,1-0.2
		c0.7-0.3,1.3-0.8,1.6-1.5c0.3-0.7,0.4-1.5,0.1-2.2c-0.4-1.1-1.5-1.9-2.7-1.9c-0.3,0-0.7,0.1-1,0.2c-1,0.4-1.8,1.3-1.9,2.4l-0.2,0.2
		l-0.2-0.2c0.1-1.3,1-2.4,2.2-2.8c0.4-0.1,0.7-0.2,1.1-0.2c1.4,0,2.6,0.9,3.1,2.2c0.3,0.8,0.3,1.7-0.1,2.5c-0.4,0.8-1,1.4-1.9,1.7
		C11.3,35.6,10.9,35.7,10.5,35.7z"/>
	<path id="XMLID_14_" class="st3" d="M10.5,35.5c-0.6,0-1.2-0.2-1.7-0.5c0,0,0,0,0-0.1c0,0,0,0,0.1,0c0.8,0.5,1.8,0.6,2.7,0.3
		c1.6-0.6,2.4-2.3,1.8-3.9c-0.6-1.6-2.3-2.4-3.9-1.8c-1.1,0.4-1.9,1.4-2,2.6c0,0,0,0,0,0s0,0,0,0c0.1-1.2,0.9-2.3,2-2.7
		c1.6-0.6,3.4,0.2,4,1.9c0.6,1.6-0.2,3.4-1.9,4C11.3,35.4,10.9,35.5,10.5,35.5z"/>
</g>
<g id="XMLID_11_">
	<path class="st3" d="M7.2,35.7c-0.5,0-1-0.1-1.4-0.3c-0.8-0.4-1.4-1-1.7-1.9c-0.4-1-0.2-2,0.3-2.9l0.2-0.1l0.1,0l0.1,0.3
		c-0.5,0.8-0.6,1.7-0.3,2.5C4.8,34,5.3,34.6,6,34.9c0.4,0.2,0.8,0.3,1.2,0.3c0.3,0,0.7-0.1,1-0.2c0.7-0.3,1.3-0.8,1.6-1.5
		c0.3-0.7,0.4-1.5,0.1-2.2c-0.4-1.1-1.4-1.8-2.5-1.9l-0.2-0.2L7.5,29c1.3,0.1,2.4,1,2.9,2.2c0.3,0.8,0.3,1.7-0.1,2.5
		c-0.4,0.8-1,1.4-1.9,1.7C8,35.6,7.6,35.7,7.2,35.7z"/>
	<path id="XMLID_12_" class="st3" d="M7.2,35.5c-0.5,0-0.9-0.1-1.3-0.3c-0.8-0.4-1.3-1-1.6-1.8c-0.3-0.9-0.2-1.9,0.3-2.8
		c0,0,0,0,0.1,0c0,0,0,0,0,0.1c-0.5,0.8-0.6,1.8-0.3,2.7c0.3,0.8,0.8,1.4,1.6,1.7s1.6,0.4,2.3,0.1s1.4-0.8,1.7-1.6
		c0.3-0.7,0.4-1.6,0.1-2.3c-0.4-1.1-1.4-1.9-2.6-2c0,0,0,0,0,0s0,0,0,0c1.2,0.1,2.3,0.9,2.7,2.1c0.6,1.6-0.2,3.4-1.9,4
		C8,35.4,7.6,35.5,7.2,35.5z"/>
</g>
<g id="XMLID_9_">
	<path class="st3" d="M7.2,32.3c-0.5,0-1-0.1-1.4-0.3c-0.8-0.4-1.4-1-1.7-1.9c-0.3-0.8-0.3-1.7,0.1-2.5c0.4-0.8,1-1.4,1.9-1.7
		c0.4-0.1,0.8-0.2,1.1-0.2c0.6,0,1.3,0.2,1.8,0.5l0.1,0.3l-0.2,0.1l-0.1,0c-0.5-0.3-1-0.5-1.5-0.5c-0.3,0-0.7,0.1-1,0.2
		c-0.7,0.3-1.3,0.8-1.6,1.5c-0.3,0.7-0.4,1.5-0.1,2.2c0.3,0.7,0.8,1.3,1.5,1.6c0.4,0.2,0.8,0.3,1.2,0.3c0.3,0,0.7-0.1,1-0.2
		c1-0.4,1.8-1.3,1.9-2.4l0.2-0.2l0.2,0.1l0.1,0.2c-0.1,1.3-1,2.4-2.2,2.8C8,32.3,7.6,32.3,7.2,32.3z"/>
	<path id="XMLID_10_" class="st3" d="M7.2,32.1c-0.5,0-0.9-0.1-1.3-0.3c-0.8-0.4-1.3-1-1.6-1.8s-0.2-1.6,0.1-2.4
		c0.4-0.8,1-1.3,1.8-1.6c0.9-0.3,1.9-0.2,2.8,0.3c0,0,0,0,0,0.1c0,0,0,0-0.1,0c-0.8-0.5-1.8-0.6-2.7-0.3c-0.8,0.3-1.4,0.8-1.7,1.6
		c-0.3,0.7-0.4,1.6-0.1,2.3s0.8,1.4,1.6,1.7c0.7,0.3,1.6,0.4,2.3,0.1c1.1-0.4,1.9-1.4,2-2.6c0,0,0,0,0,0c0,0,0,0,0,0
		c-0.1,1.2-0.9,2.3-2,2.7C8,32.1,7.6,32.1,7.2,32.1z"/>
</g>
</svg>
