<?xml version="1.0" encoding="utf-8"?>
<!-- Generator: Adobe Illustrator 17.0.0, SVG Export Plug-In . SVG Version: 6.00 Build 0)  -->
<!DOCTYPE svg PUBLIC "-//W3C//DTD SVG 1.1//EN" "http://www.w3.org/Graphics/SVG/1.1/DTD/svg11.dtd">
<svg version="1.1" id="Layer_1" xmlns="http://www.w3.org/2000/svg" xmlns:xlink="http://www.w3.org/1999/xlink" x="0px" y="0px"
	 width="450px" height="43.813px" viewBox="0 0 450 43.813" enable-background="new 0 0 450 43.813" xml:space="preserve">
<g>
	<path fill="#FFFFFF" d="M22.547,43.292c-11.855,0-21.5-9.594-21.5-21.386s9.645-21.385,21.5-21.385h404.906
		c11.855,0,21.5,9.593,21.5,21.385s-9.645,21.386-21.5,21.386H22.547z"/>
	<path fill="#CCCCCC" d="M427.453,1.021c11.579,0,21,9.369,21,20.885s-9.421,20.885-21,20.885H22.547c-11.579,0-21-9.369-21-20.885
		s9.421-20.885,21-20.885H427.453 M427.453,0.021H22.547c-12.1,0-22,9.848-22,21.885s9.9,21.885,22,21.885h404.906
		c12.1,0,22-9.848,22-21.885S439.553,0.021,427.453,0.021L427.453,0.021z"/>
</g>
<g display="none">
	<path display="inline" fill="#FFFFFF" d="M448.878,21.906c0,11.459-9.45,20.835-21,20.835H22.122c-11.55,0-21-9.376-21-20.835
		s9.45-20.835,21-20.835h405.756C439.428,1.071,448.878,10.447,448.878,21.906z"/>
	<path display="inline" fill="none" stroke="#CCCCCC" stroke-miterlimit="10" d="M448.878,21.906c0,11.459-9.45,20.835-21,20.835
		H22.122c-11.55,0-21-9.376-21-20.835s9.45-20.835,21-20.835h405.756C439.428,1.071,448.878,10.447,448.878,21.906z"/>
</g>
<text transform="matrix(1 0 0 1 163.7234 25.6155)" display="none" fill="#97A5B1" font-family="'NunitoSans-Regular'" font-size="12.5009">Search for companies and colleagues</text>
<g>
	<path fill="#0C0C0C" d="M45.115,15.374h4.464c1.184,0,2.104,0.288,2.76,0.864c0.656,0.576,0.984,1.392,0.984,2.448
		c0,1.056-0.331,1.877-0.992,2.464c-0.662,0.586-1.579,0.88-2.752,0.88h-3.152v4.624h-1.312V15.374z M49.451,20.942
		c1.717,0,2.576-0.752,2.576-2.256c0-1.483-0.859-2.224-2.576-2.224h-3.024v4.48H49.451z"/>
	<path fill="#0C0C0C" d="M61.707,18.862v7.792h-1.264v-1.328c-0.246,0.47-0.589,0.827-1.032,1.072
		c-0.442,0.245-0.941,0.368-1.496,0.368c-0.928,0-1.626-0.258-2.096-0.776c-0.47-0.517-0.704-1.282-0.704-2.296v-4.832h1.296v4.8
		c0,0.694,0.139,1.203,0.416,1.528s0.715,0.488,1.312,0.488c0.683,0,1.232-0.221,1.648-0.664c0.416-0.442,0.624-1.026,0.624-1.752
		v-4.4H61.707z"/>
	<path fill="#0C0C0C" d="M69.851,19.166c0.522,0.331,0.928,0.8,1.216,1.408s0.432,1.312,0.432,2.112
		c0,0.811-0.144,1.522-0.432,2.136c-0.288,0.614-0.693,1.091-1.216,1.432c-0.523,0.341-1.125,0.512-1.808,0.512
		c-0.608,0-1.139-0.133-1.592-0.4c-0.453-0.267-0.797-0.645-1.032-1.136v1.424h-1.296v-11.28h1.296v4.832
		c0.234-0.49,0.579-0.869,1.032-1.136c0.454-0.267,0.984-0.4,1.592-0.4C68.726,18.67,69.328,18.835,69.851,19.166z M69.547,24.902
		c0.416-0.528,0.624-1.267,0.624-2.216c0-0.928-0.208-1.648-0.624-2.16c-0.416-0.512-1.003-0.768-1.76-0.768
		s-1.341,0.256-1.752,0.768c-0.411,0.512-0.616,1.243-0.616,2.192c0,0.95,0.205,1.683,0.616,2.2s0.995,0.776,1.752,0.776
		S69.131,25.43,69.547,24.902z"/>
	<path fill="#0C0C0C" d="M73.435,26.654v-11.28h1.296v11.28H73.435z"/>
	<path fill="#0C0C0C" d="M77.019,15.486h1.568v1.456h-1.568V15.486z M77.147,26.654v-7.792h1.296v7.792H77.147z"/>
	<path fill="#0C0C0C" d="M82.155,26.27c-0.565-0.331-1-0.797-1.304-1.4c-0.304-0.603-0.456-1.309-0.456-2.12
		s0.157-1.522,0.472-2.136c0.314-0.613,0.757-1.09,1.328-1.432c0.57-0.341,1.24-0.512,2.008-0.512c0.522,0,1.035,0.093,1.536,0.28
		c0.501,0.187,0.906,0.435,1.216,0.744l-0.432,0.96c-0.736-0.597-1.482-0.896-2.24-0.896c-0.8,0-1.424,0.262-1.872,0.784
		c-0.448,0.522-0.672,1.259-0.672,2.208c0,0.938,0.224,1.664,0.672,2.176c0.448,0.512,1.072,0.768,1.872,0.768
		c0.757,0,1.504-0.298,2.24-0.896l0.432,0.96c-0.331,0.31-0.747,0.555-1.248,0.736c-0.501,0.182-1.019,0.272-1.552,0.272
		C83.387,26.766,82.72,26.601,82.155,26.27z"/>
</g>
<text transform="matrix(1 0 0 1 347.2234 26.6538)" display="none" fill="#0C0C0C" font-family="'NunitoSans-Regular'" font-size="16">My reviews</text>
<g>
	<path d="M37.957,17.882c-0.717-1.228-1.689-2.2-2.917-2.917c-1.228-0.717-2.569-1.075-4.024-1.075
		c-1.454,0-2.795,0.358-4.024,1.075c-1.228,0.717-2.201,1.689-2.917,2.917C23.358,19.111,23,20.452,23,21.906
		c0,1.454,0.358,2.795,1.075,4.024c0.717,1.228,1.689,2.2,2.917,2.917c1.228,0.717,2.569,1.075,4.024,1.075
		c1.454,0,2.796-0.358,4.024-1.075c1.228-0.717,2.2-1.689,2.917-2.917c0.717-1.228,1.075-2.57,1.075-4.024
		C39.032,20.452,38.674,19.111,37.957,17.882z M32.019,26.124c-0.07-0.083-0.094-0.153-0.073-0.209
		c-0.007,0.035-0.031,0.066-0.073,0.094c-0.035-0.042-0.098-0.094-0.188-0.156c-0.091-0.063-0.153-0.115-0.188-0.157
		c-0.014-0.021-0.033-0.05-0.057-0.089c-0.024-0.038-0.056-0.089-0.094-0.151c-0.038-0.063-0.066-0.117-0.083-0.162
		c-0.017-0.045-0.019-0.071-0.005-0.078c-0.132,0.056-0.324,0.018-0.574-0.115c-0.049-0.028-0.122-0.101-0.219-0.219
		s-0.198-0.17-0.303-0.157c-0.035,0.007-0.082,0.019-0.141,0.037c-0.059,0.018-0.11,0.026-0.151,0.026s-0.097-0.014-0.167-0.042
		c-0.056-0.021-0.13-0.061-0.224-0.12c-0.094-0.059-0.158-0.096-0.193-0.109c-0.09-0.049-0.136-0.073-0.136-0.073l-0.167-0.083
		c-0.042-0.021-0.085-0.054-0.131-0.099c-0.045-0.045-0.075-0.092-0.089-0.141c-0.014-0.042-0.031-0.125-0.052-0.251
		c-0.021-0.125-0.049-0.216-0.083-0.271c-0.042-0.07-0.101-0.139-0.177-0.209c-0.076-0.07-0.146-0.105-0.209-0.105
		c0.056,0,0.056-0.047,0-0.141c-0.056-0.094-0.104-0.162-0.146-0.203c-0.014-0.014-0.056-0.059-0.125-0.136
		c-0.07-0.077-0.129-0.143-0.177-0.198c-0.049-0.056-0.091-0.12-0.125-0.193c-0.035-0.073-0.042-0.134-0.021-0.183
		c0.007-0.007,0-0.017-0.021-0.031c-0.021-0.014-0.047-0.028-0.078-0.042c-0.031-0.014-0.061-0.026-0.089-0.037
		c-0.028-0.01-0.049-0.016-0.063-0.016c0.014,0.028,0.03,0.078,0.047,0.151c0.017,0.073,0.037,0.127,0.057,0.162
		c0.014,0.028,0.073,0.129,0.177,0.302c0.181,0.292,0.264,0.508,0.251,0.647c-0.042,0.014-0.07,0.007-0.084-0.021
		c-0.014-0.028-0.024-0.066-0.031-0.115c-0.007-0.049-0.014-0.083-0.021-0.104c-0.021-0.042-0.075-0.087-0.162-0.136
		c-0.087-0.049-0.141-0.097-0.162-0.146c0.007,0,0.016-0.003,0.026-0.01c0.01-0.007,0.019-0.01,0.026-0.01
		c0.007-0.063-0.029-0.143-0.11-0.24c-0.08-0.097-0.113-0.167-0.099-0.209c-0.056-0.042-0.104-0.124-0.146-0.245
		c-0.042-0.122-0.077-0.2-0.104-0.235c-0.028-0.042-0.062-0.078-0.104-0.11c-0.042-0.031-0.094-0.066-0.157-0.104
		c-0.063-0.038-0.104-0.064-0.125-0.078c-0.014-0.007-0.042-0.038-0.083-0.094c-0.23-0.278-0.299-0.428-0.209-0.449
		c-0.09,0.021-0.165-0.047-0.224-0.204c-0.059-0.157-0.078-0.277-0.057-0.36l-0.021-0.01c0.007-0.028,0.01-0.11,0.01-0.245
		c0-0.136,0.009-0.259,0.026-0.371c0.017-0.111,0.05-0.167,0.099-0.167c-0.049,0.007-0.085-0.037-0.11-0.13
		c-0.024-0.094-0.026-0.158-0.005-0.193c0.007-0.021,0.038-0.007,0.094,0.042c0.056,0.049,0.087,0.08,0.094,0.094
		c0.09-0.049,0.125-0.111,0.104-0.188c-0.014-0.028-0.087-0.101-0.219-0.219c-0.299-0.195-0.452-0.289-0.459-0.282
		c0.042-0.076,0.031-0.143-0.031-0.198c-0.07,0.042-0.11,0.052-0.12,0.031c-0.01-0.021-0.019-0.059-0.026-0.115
		c-0.007-0.056-0.024-0.087-0.052-0.094c-0.035-0.007-0.077-0.035-0.125-0.083c0.619-0.988,1.437-1.76,2.453-2.317
		c0.042-0.007,0.118-0.01,0.23-0.01c0.056,0.007,0.108,0.024,0.157,0.052c0.049,0.028,0.099,0.066,0.151,0.115
		c0.052,0.049,0.092,0.083,0.12,0.104c0.014-0.042-0.003-0.104-0.052-0.188c0.014-0.042,0.09-0.084,0.23-0.125
		c0.16-0.021,0.264-0.017,0.313,0.01c-0.042-0.063-0.111-0.15-0.209-0.261L28.7,15.801c-0.056-0.049-0.202-0.024-0.438,0.073
		c-0.014,0.007-0.049,0.026-0.104,0.057c-0.056,0.031-0.101,0.054-0.136,0.068c-0.042,0.014-0.083,0.017-0.125,0.01
		c0.334-0.181,0.661-0.324,0.981-0.428c0.021,0.014,0.056,0.043,0.104,0.089c0.049,0.045,0.087,0.078,0.115,0.099
		c-0.021-0.014-0.035-0.007-0.042,0.021c-0.028,0.083-0.028,0.153,0,0.209c0.035,0.049,0.082,0.077,0.141,0.084
		c0.059,0.007,0.13,0.003,0.214-0.011c0.083-0.014,0.139-0.021,0.167-0.021l0.104,0.011c0.223,0.021,0.31,0,0.261-0.063
		c0.021,0.028,0.045,0.085,0.073,0.172c0.028,0.087,0.059,0.148,0.094,0.183c0.035-0.028,0.042-0.077,0.021-0.146
		c-0.021-0.07-0.021-0.118,0-0.146c0.007-0.014,0.028-0.028,0.063-0.042c0.035-0.014,0.075-0.029,0.12-0.047
		c0.045-0.017,0.075-0.03,0.089-0.037c0.042-0.028,0.014-0.077-0.084-0.146c-0.014-0.007-0.043-0.017-0.089-0.031
		c-0.045-0.014-0.085-0.028-0.12-0.042c-0.035-0.014-0.071-0.033-0.11-0.057c-0.038-0.024-0.056-0.052-0.052-0.084
		c0.004-0.031,0.023-0.071,0.057-0.12c0.042-0.035,0.11-0.049,0.204-0.042c0.094,0.007,0.165,0.024,0.214,0.052
		c0.188,0.104,0.216,0.199,0.084,0.282c0.07,0.007,0.153,0.035,0.251,0.083c0.097,0.049,0.136,0.101,0.115,0.157
		c0.056-0.104,0.111-0.157,0.167-0.157c0.035,0.007,0.068,0.054,0.099,0.141c0.031,0.087,0.05,0.134,0.057,0.141
		c0.056,0.076,0.111,0.094,0.167,0.052c0.056-0.042,0.113-0.103,0.172-0.183c0.059-0.08,0.092-0.116,0.099-0.11
		c-0.07-0.028-0.077-0.056-0.021-0.083c0.104-0.063,0.198-0.08,0.282-0.052c0.021,0.014,0.049,0.045,0.083,0.094
		c0.062,0.125,0.052,0.184-0.031,0.178c0.063,0.056,0.088,0.125,0.078,0.209c-0.01,0.083-0.065,0.122-0.162,0.115
		c-0.035,0-0.085-0.017-0.152-0.052c-0.066-0.035-0.116-0.054-0.151-0.057c-0.035-0.004-0.084,0.016-0.146,0.057
		c-0.028,0.035-0.064,0.094-0.11,0.177c-0.045,0.084-0.085,0.143-0.12,0.177c-0.104,0.104-0.278,0.143-0.522,0.115
		c0.021,0,0.019,0.021-0.005,0.063c-0.024,0.042-0.057,0.089-0.099,0.141c-0.042,0.052-0.066,0.082-0.073,0.089
		c-0.063,0.07-0.104,0.15-0.125,0.24c0,0.014-0.004,0.061-0.011,0.141c-0.007,0.08-0.021,0.141-0.042,0.183
		c0.083-0.021,0.15,0.021,0.198,0.125c0.042,0.097,0.042,0.15,0,0.157c0.23-0.035,0.431-0.021,0.606,0.042
		c0.25,0.09,0.393,0.181,0.428,0.271c0.042-0.063,0.142-0.066,0.303-0.011c0.063,0.035,0.118,0.139,0.167,0.313
		c0.028,0.104,0.075,0.195,0.141,0.271c0.066,0.077,0.137,0.097,0.214,0.063l0.031-0.021c0.028-0.014,0.05-0.026,0.068-0.036
		c0.018-0.01,0.037-0.024,0.057-0.042c0.021-0.017,0.033-0.033,0.037-0.047c0.003-0.014-0.002-0.028-0.016-0.042
		c-0.049-0.042-0.085-0.099-0.11-0.172c-0.024-0.073-0.019-0.137,0.016-0.193c0.021-0.028,0.076-0.07,0.167-0.125
		c0.091-0.056,0.146-0.111,0.167-0.167c0.028-0.09-0.007-0.165-0.104-0.225c-0.097-0.059-0.146-0.113-0.146-0.162
		c0-0.035,0.023-0.077,0.068-0.125c0.045-0.049,0.065-0.094,0.057-0.136c0-0.021-0.012-0.064-0.037-0.131
		c-0.024-0.066-0.038-0.115-0.042-0.146c-0.004-0.031,0.012-0.068,0.047-0.11c0.049-0.028,0.163-0.026,0.344,0.005
		c0.181,0.031,0.299,0.064,0.355,0.099c0.021,0.014,0.066,0.035,0.136,0.063c0.07,0.028,0.13,0.057,0.183,0.089
		c0.052,0.031,0.082,0.061,0.088,0.089h-0.052c0.049,0.042,0.078,0.09,0.089,0.146c0.011,0.056-0.015,0.098-0.078,0.125
		c0.042-0.007,0.097,0.003,0.167,0.031c0.111,0.042,0.115,0.08,0.01,0.115c0.021-0.007,0.05-0.014,0.088-0.021
		c0.038-0.007,0.068-0.017,0.089-0.031c0.014-0.007,0.031-0.019,0.052-0.037c0.021-0.017,0.037-0.028,0.047-0.031
		c0.01-0.003,0.026-0.007,0.047-0.011c0.021-0.003,0.042,0.002,0.062,0.016c0.007,0,0.023-0.017,0.047-0.052
		c0.024-0.035,0.051-0.07,0.078-0.104c0.028-0.035,0.052-0.052,0.073-0.052c0.021,0,0.04,0.009,0.057,0.026
		c0.018,0.017,0.031,0.037,0.042,0.057c0.01,0.021,0.021,0.044,0.031,0.068c0.01,0.024,0.019,0.044,0.026,0.057
		c0.014,0.035,0.047,0.071,0.099,0.11c0.052,0.038,0.085,0.075,0.099,0.11c0.007,0.021,0.021,0.073,0.042,0.157
		c0.021,0.083,0.049,0.141,0.083,0.172c0.035,0.031,0.087,0.057,0.156,0.078c0.014,0.007,0.045,0.004,0.094-0.01
		c0.049-0.014,0.089-0.017,0.12-0.011c0.032,0.007,0.047,0.035,0.047,0.083c0.042-0.042,0.062-0.07,0.062-0.083
		c0.007,0.09,0.03,0.164,0.068,0.219c0.038,0.056,0.099,0.08,0.183,0.073l-0.021,0.23c-0.021,0.035-0.073,0.061-0.157,0.078
		c-0.084,0.017-0.136,0.033-0.157,0.047c-0.021,0.007-0.071,0.049-0.151,0.125c-0.08,0.077-0.113,0.122-0.099,0.136
		c-0.118-0.132-0.296-0.171-0.532-0.115c-0.264,0.042-0.445,0.083-0.543,0.125c-0.111,0.056-0.188,0.108-0.23,0.157
		c-0.007,0.007-0.019,0.031-0.036,0.073c-0.017,0.042-0.035,0.08-0.052,0.115c-0.018,0.035-0.033,0.052-0.047,0.052
		c0.042-0.007,0.089-0.04,0.141-0.099c0.052-0.059,0.085-0.092,0.099-0.099c0.181-0.118,0.33-0.16,0.449-0.124
		c0.153,0.042,0.177,0.098,0.073,0.167c-0.014,0.014-0.05,0.019-0.109,0.016c-0.059-0.003-0.099-0.002-0.12,0.005
		c0.063,0.014,0.115,0.033,0.157,0.057c0.042,0.024,0.052,0.057,0.031,0.099c0.111,0.063,0.132,0.132,0.063,0.209
		c-0.091,0.091-0.198,0.129-0.324,0.115c0.021,0,0.021,0.014,0,0.042l-0.178,0.115c-0.014,0.007-0.059,0.024-0.136,0.052
		c-0.077,0.028-0.129,0.059-0.157,0.094c-0.021,0.028-0.031,0.07-0.031,0.125c0,0.056-0.004,0.098-0.01,0.125
		c-0.007,0.028-0.035,0.035-0.083,0.021c-0.021,0.042-0.085,0.075-0.193,0.099c-0.108,0.024-0.179,0.061-0.214,0.11
		c0.042,0.056,0.038,0.111-0.011,0.167c-0.084,0.07-0.157,0.063-0.219-0.021c-0.035,0.014-0.061,0.049-0.078,0.104
		c-0.017,0.056-0.044,0.094-0.078,0.115c0.049,0.077,0.042,0.132-0.021,0.167c0.007,0,0.023,0.007,0.047,0.021
		c0.024,0.014,0.05,0.031,0.078,0.052c0.028,0.021,0.045,0.031,0.052,0.031c-0.028,0.062-0.066,0.094-0.115,0.094
		c0.042,0.111-0.01,0.233-0.156,0.365c-0.028,0.028-0.072,0.056-0.131,0.083c-0.059,0.028-0.113,0.05-0.162,0.068
		c-0.049,0.017-0.076,0.03-0.083,0.037c-0.07,0.063-0.122,0.127-0.157,0.193c-0.035,0.066-0.04,0.13-0.016,0.193
		c0.024,0.063,0.089,0.104,0.193,0.125l0.01,0.083v0.188l0.01,0.084c0.007,0.049,0.012,0.092,0.016,0.131
		c0.003,0.038,0.003,0.087,0,0.146c-0.003,0.059-0.019,0.092-0.047,0.099c-0.028,0.007-0.066,0-0.115-0.021
		c-0.056-0.028-0.122-0.181-0.199-0.459c-0.014-0.07-0.056-0.153-0.125-0.25c-0.035,0.035-0.064,0.057-0.089,0.068
		c-0.024,0.01-0.042,0.012-0.052,0.005c-0.01-0.007-0.03-0.023-0.058-0.047c-0.028-0.024-0.052-0.044-0.073-0.057
		c-0.035-0.021-0.096-0.038-0.183-0.052c-0.087-0.014-0.141-0.031-0.162-0.052c-0.167,0.125-0.268,0.094-0.303-0.094
		c-0.014,0.035-0.012,0.082,0.005,0.141c0.017,0.059,0.026,0.092,0.026,0.099c-0.049,0.091-0.125,0.097-0.23,0.021
		c-0.042-0.042-0.137-0.047-0.287-0.016c-0.15,0.031-0.249,0.036-0.297,0.016c0.007,0,0.021,0.01,0.042,0.031
		c0.021,0.014,0.035,0.024,0.042,0.031c-0.007,0.028-0.017,0.049-0.031,0.063c-0.014,0.014-0.028,0.019-0.042,0.016
		c-0.014-0.004-0.03-0.004-0.047,0c-0.017,0.003-0.033,0.008-0.047,0.016c-0.028,0.021-0.063,0.057-0.104,0.109
		c-0.042,0.052-0.073,0.085-0.094,0.099c0.042,0.111,0.061,0.197,0.057,0.256c-0.004,0.059-0.014,0.146-0.031,0.261
		c-0.017,0.115-0.026,0.207-0.026,0.277c0,0.111,0.033,0.24,0.099,0.386c0.066,0.146,0.144,0.247,0.235,0.303
		c0.049,0.028,0.132,0.045,0.251,0.052c0.118,0.007,0.202,0,0.25-0.021c0.042-0.021,0.073-0.045,0.094-0.073
		c0.021-0.028,0.038-0.068,0.052-0.12c0.014-0.052,0.024-0.089,0.031-0.109c0.049-0.132,0.139-0.202,0.271-0.209
		c0.084-0.007,0.144,0.002,0.183,0.026c0.038,0.024,0.054,0.057,0.047,0.099c-0.007,0.042-0.021,0.085-0.042,0.13
		c-0.021,0.045-0.047,0.096-0.078,0.151c-0.031,0.056-0.05,0.098-0.057,0.126c-0.014,0.056-0.026,0.134-0.037,0.235
		c-0.01,0.101-0.019,0.162-0.026,0.183c0.014,0.007,0.066,0.01,0.157,0.01c0-0.014,0.005-0.037,0.016-0.068
		c0.01-0.031,0.016-0.05,0.016-0.057c0.035,0.056,0.091,0.087,0.167,0.094c0.077,0.007,0.132-0.021,0.167-0.083
		c0.014,0.021,0.056,0.073,0.125,0.157c0.07,0.083,0.108,0.153,0.115,0.209c0.007,0.028,0.021,0.073,0.042,0.136
		c0.021,0.063,0.028,0.106,0.021,0.131c-0.007,0.024-0.042,0.036-0.104,0.036c-0.028,0-0.045,0.01-0.052,0.031
		c-0.007,0.021-0.007,0.047,0,0.078c0.007,0.031,0.016,0.061,0.026,0.089c0.01,0.028,0.024,0.057,0.042,0.089
		c0.018,0.031,0.026,0.05,0.026,0.057c0.125,0.229,0.296,0.292,0.511,0.188c0,0.202-0.049,0.313-0.146,0.334
		C32.151,26.242,32.088,26.207,32.019,26.124z M32.175,28.482c-0.014-0.07-0.021-0.125-0.02-0.167
		c-0.007-0.056,0.017-0.131,0.073-0.224c0.056-0.094,0.083-0.165,0.083-0.214c-0.111-0.028-0.153-0.118-0.125-0.271
		c0.014-0.104,0.115-0.244,0.303-0.417c0.132-0.118,0.174-0.286,0.125-0.501c-0.021-0.09-0.039-0.223-0.052-0.397
		c-0.014-0.174-0.028-0.296-0.042-0.365c0,0.021,0.033,0.04,0.099,0.057c0.066,0.017,0.106,0.04,0.12,0.068
		c0.014-0.021,0.031-0.059,0.052-0.115c0.021-0.056,0.042-0.097,0.062-0.125c0.014-0.021,0.044-0.047,0.089-0.078
		c0.045-0.031,0.075-0.05,0.089-0.057c0.014-0.007,0.045-0.029,0.094-0.068c0.049-0.038,0.089-0.068,0.12-0.089
		c0.032-0.021,0.073-0.037,0.125-0.047c0.052-0.01,0.089,0.005,0.109,0.047c0.035,0.042,0.028,0.106-0.021,0.193
		c-0.049,0.087-0.049,0.148,0,0.183c0.007-0.021,0.014-0.066,0.021-0.136c0.007-0.07,0.028-0.122,0.063-0.157
		c0.042-0.042,0.082-0.066,0.12-0.073c0.038-0.007,0.073-0.002,0.104,0.016c0.032,0.017,0.068,0.041,0.11,0.073
		c0.042,0.031,0.08,0.05,0.115,0.057c0.104,0.035,0.23,0.111,0.376,0.23c-0.007-0.007-0.007-0.016,0-0.026
		c0.007-0.01,0.021-0.021,0.042-0.031c0.021-0.01,0.04-0.021,0.057-0.031c0.017-0.01,0.036-0.019,0.057-0.026l0.031-0.01
		c0.049,0,0.083-0.003,0.104-0.011c0.021-0.007,0.051,0,0.089,0.021c0.038,0.021,0.064,0.036,0.078,0.047
		c0.014,0.01,0.038,0.029,0.073,0.057c0.035,0.028,0.059,0.049,0.073,0.063c0.021,0.014,0.059,0.038,0.115,0.073
		c0.056,0.035,0.099,0.063,0.131,0.083c0.032,0.021,0.059,0.052,0.083,0.094c0.024,0.042,0.033,0.087,0.026,0.136
		c0.042,0.007,0.125,0.035,0.25,0.083c0.021,0.014,0.064,0.026,0.131,0.036c0.066,0.01,0.11,0.026,0.13,0.047
		C34.83,27.574,33.608,28.231,32.175,28.482z"/>
</g>
<text transform="matrix(1 0 0 1 167.0862 26.6538)" display="none" fill="#0C0C0C" font-family="'NunitoSans-Regular'" font-size="16">My organization</text>
<text transform="matrix(1 0 0 1 43.7234 26.6538)" display="none" fill="#0C0C0C" font-family="'NunitoSans-Regular'" font-size="16">Public</text>
<g>
	<path fill="#0C0C0C" d="M358.2,15.374h1.071v11.28h-1.199l0.016-8.736l-3.664,6.944h-0.928l-3.681-6.88l0.017,8.672h-1.216v-11.28
		h1.088l4.271,8.176L358.2,15.374z"/>
	<path fill="#0C0C0C" d="M367.464,18.878h1.296l-4.607,10.656h-1.328l1.312-2.976l-3.296-7.68h1.376l2.608,6.368L367.464,18.878z"/>
	<path fill="#0C0C0C" d="M378.647,19.79l-0.848,0.08c-0.801,0.075-1.379,0.326-1.736,0.752c-0.357,0.427-0.536,0.955-0.536,1.584
		v4.448h-1.296v-7.792h1.264v1.36c0.438-0.906,1.296-1.413,2.576-1.52l0.464-0.032L378.647,19.79z"/>
	<path fill="#0C0C0C" d="M386.248,22.958h-5.696c0.043,0.907,0.288,1.592,0.736,2.056c0.447,0.464,1.082,0.696,1.903,0.696
		c0.907,0,1.739-0.31,2.496-0.928l0.433,0.944c-0.342,0.32-0.779,0.574-1.313,0.76s-1.077,0.28-1.632,0.28
		c-1.216,0-2.174-0.357-2.872-1.072c-0.698-0.714-1.048-1.701-1.048-2.96c0-0.8,0.154-1.506,0.464-2.12
		c0.31-0.613,0.744-1.09,1.304-1.432c0.561-0.341,1.197-0.512,1.912-0.512c1.035,0,1.846,0.339,2.433,1.016
		c0.586,0.677,0.88,1.608,0.88,2.792V22.958z M381.311,20.318c-0.41,0.427-0.653,1.029-0.728,1.808h4.527
		c-0.021-0.79-0.219-1.395-0.592-1.816c-0.373-0.421-0.896-0.632-1.567-0.632C382.268,19.678,381.722,19.891,381.311,20.318z"/>
	<path fill="#0C0C0C" d="M393.639,18.878h1.296l-3.359,7.776h-1.217l-3.344-7.776h1.376L391,25.246L393.639,18.878z"/>
	<path fill="#0C0C0C" d="M396.151,15.486h1.568v1.456h-1.568V15.486z M396.279,26.654v-7.792h1.296v7.792H396.279z"/>
	<path fill="#0C0C0C" d="M406.519,22.958h-5.696c0.043,0.907,0.288,1.592,0.736,2.056c0.447,0.464,1.082,0.696,1.903,0.696
		c0.907,0,1.739-0.31,2.496-0.928l0.433,0.944c-0.342,0.32-0.779,0.574-1.313,0.76s-1.077,0.28-1.632,0.28
		c-1.216,0-2.174-0.357-2.872-1.072c-0.698-0.714-1.048-1.701-1.048-2.96c0-0.8,0.154-1.506,0.464-2.12
		c0.31-0.613,0.744-1.09,1.304-1.432c0.561-0.341,1.197-0.512,1.912-0.512c1.035,0,1.846,0.339,2.433,1.016
		c0.586,0.677,0.88,1.608,0.88,2.792V22.958z M401.583,20.318c-0.41,0.427-0.653,1.029-0.728,1.808h4.527
		c-0.021-0.79-0.219-1.395-0.592-1.816c-0.373-0.421-0.896-0.632-1.567-0.632C402.54,19.678,401.994,19.891,401.583,20.318z"/>
	<path fill="#0C0C0C" d="M418.903,18.862h1.296l-2.896,7.792h-1.247l-2.192-6.032l-2.208,6.032h-1.232l-2.896-7.792h1.344
		l2.208,6.256l2.256-6.256h1.12l2.224,6.256L418.903,18.862z"/>
	<path fill="#0C0C0C" d="M421.175,25.758l0.432-0.96c0.416,0.331,0.84,0.568,1.271,0.712c0.433,0.144,0.921,0.216,1.465,0.216
		c0.575,0,1.016-0.098,1.319-0.296c0.305-0.197,0.456-0.482,0.456-0.856c0-0.309-0.102-0.554-0.304-0.736
		c-0.203-0.181-0.539-0.325-1.008-0.432l-1.313-0.304c-0.661-0.149-1.168-0.405-1.52-0.768c-0.353-0.363-0.528-0.811-0.528-1.344
		c0-0.693,0.272-1.253,0.816-1.68c0.544-0.426,1.269-0.64,2.176-0.64c0.544,0,1.062,0.088,1.552,0.264
		c0.49,0.176,0.901,0.43,1.232,0.76l-0.433,0.944c-0.715-0.608-1.498-0.912-2.352-0.912c-0.544,0-0.968,0.104-1.272,0.312
		c-0.304,0.208-0.456,0.499-0.456,0.872c0,0.31,0.094,0.558,0.28,0.744s0.488,0.328,0.904,0.424l1.328,0.32
		c0.725,0.17,1.264,0.429,1.615,0.776c0.353,0.347,0.528,0.797,0.528,1.352c0,0.683-0.274,1.227-0.824,1.632
		c-0.549,0.406-1.299,0.608-2.248,0.608C422.983,26.766,421.943,26.43,421.175,25.758z"/>
</g>
<g>
	<path fill="#0C0C0C" d="M178.062,15.374h1.072v11.28h-1.2l0.016-8.736l-3.664,6.944h-0.928l-3.68-6.88l0.016,8.672h-1.216v-11.28
		h1.088l4.272,8.176L178.062,15.374z"/>
	<path fill="#0C0C0C" d="M187.326,18.878h1.296l-4.608,10.656h-1.328l1.312-2.976l-3.296-7.68h1.376l2.608,6.368L187.326,18.878z"/>
	<path fill="#0C0C0C" d="M195.382,26.27c-0.56-0.331-0.992-0.803-1.296-1.416c-0.304-0.613-0.456-1.326-0.456-2.136
		s0.152-1.522,0.456-2.136c0.304-0.613,0.736-1.085,1.296-1.416c0.56-0.331,1.208-0.496,1.944-0.496
		c0.736,0,1.386,0.166,1.952,0.496s1,0.803,1.304,1.416s0.456,1.325,0.456,2.136s-0.152,1.523-0.456,2.136s-0.739,1.085-1.304,1.416
		s-1.216,0.496-1.952,0.496C196.59,26.766,195.942,26.601,195.382,26.27z M199.094,24.934c0.41-0.506,0.616-1.245,0.616-2.216
		c0-0.949-0.208-1.683-0.624-2.2c-0.416-0.517-1.002-0.776-1.76-0.776c-0.758,0-1.344,0.259-1.76,0.776
		c-0.416,0.518-0.624,1.251-0.624,2.2c0,0.96,0.206,1.696,0.616,2.208s1,0.768,1.768,0.768S198.683,25.44,199.094,24.934z"/>
	<path fill="#0C0C0C" d="M207.39,19.79l-0.848,0.08c-0.8,0.075-1.379,0.326-1.736,0.752c-0.358,0.427-0.536,0.955-0.536,1.584v4.448
		h-1.296v-7.792h1.264v1.36c0.438-0.906,1.296-1.413,2.576-1.52l0.464-0.032L207.39,19.79z"/>
	<path fill="#0C0C0C" d="M215.438,18.862v7.264c0,1.162-0.298,2.04-0.896,2.632c-0.597,0.592-1.482,0.888-2.656,0.888
		c-1.366,0-2.512-0.352-3.44-1.056l0.432-0.96c0.522,0.341,1.013,0.586,1.472,0.736s0.971,0.224,1.536,0.224
		c0.747,0,1.312-0.2,1.696-0.6c0.384-0.4,0.576-0.984,0.576-1.752v-1.376c-0.224,0.501-0.568,0.885-1.032,1.152
		c-0.464,0.267-1.011,0.4-1.64,0.4c-0.683,0-1.288-0.16-1.816-0.48c-0.528-0.32-0.939-0.773-1.232-1.36
		c-0.293-0.586-0.44-1.264-0.44-2.032c0-0.768,0.146-1.445,0.44-2.032c0.293-0.586,0.704-1.04,1.232-1.36
		c0.528-0.32,1.133-0.48,1.816-0.48c0.618,0,1.157,0.133,1.616,0.4s0.805,0.646,1.04,1.136v-1.344H215.438z M213.502,24.598
		c0.426-0.496,0.64-1.181,0.64-2.056c0-0.864-0.21-1.544-0.632-2.04s-1.011-0.744-1.768-0.744s-1.352,0.248-1.784,0.744
		c-0.432,0.496-0.648,1.176-0.648,2.04c0,0.875,0.216,1.56,0.648,2.056c0.432,0.496,1.027,0.744,1.784,0.744
		C212.488,25.342,213.075,25.094,213.502,24.598z"/>
	<path fill="#0C0C0C" d="M223.222,19.43c0.485,0.507,0.728,1.278,0.728,2.312v4.912h-1.264v-1.328
		c-0.203,0.459-0.512,0.813-0.928,1.064c-0.416,0.251-0.896,0.376-1.44,0.376c-0.501,0-0.963-0.101-1.384-0.304
		s-0.755-0.485-1-0.848c-0.246-0.362-0.368-0.763-0.368-1.2c0-0.586,0.149-1.042,0.448-1.368c0.298-0.325,0.789-0.56,1.472-0.704
		c0.682-0.144,1.632-0.216,2.848-0.216h0.352v-0.528c0-0.65-0.133-1.123-0.4-1.416c-0.267-0.293-0.699-0.44-1.296-0.44
		c-0.896,0-1.787,0.278-2.672,0.832l-0.432-0.944c0.405-0.288,0.893-0.52,1.464-0.696c0.571-0.176,1.123-0.264,1.656-0.264
		C221.998,18.67,222.736,18.923,223.222,19.43z M222.07,25.094c0.41-0.432,0.616-0.989,0.616-1.672v-0.464h-0.288
		c-0.938,0-1.653,0.04-2.144,0.12c-0.491,0.08-0.84,0.214-1.048,0.4s-0.312,0.461-0.312,0.824c0,0.416,0.152,0.76,0.456,1.032
		c0.304,0.272,0.686,0.408,1.144,0.408C221.134,25.742,221.659,25.526,222.07,25.094z"/>
	<path fill="#0C0C0C" d="M233.037,21.758v4.896h-1.296v-4.816c0-0.725-0.142-1.253-0.424-1.584
		c-0.283-0.331-0.734-0.496-1.352-0.496c-0.715,0-1.286,0.219-1.712,0.656c-0.427,0.438-0.64,1.03-0.64,1.776v4.464h-1.296v-7.792
		h1.28v1.28c0.256-0.48,0.613-0.845,1.072-1.096c0.459-0.25,0.981-0.376,1.568-0.376C232.104,18.67,233.037,19.699,233.037,21.758z"
		/>
	<path fill="#0C0C0C" d="M235.277,15.486h1.568v1.456h-1.568V15.486z M235.405,26.654v-7.792h1.296v7.792H235.405z"/>
	<path fill="#0C0C0C" d="M240.285,25.63h5.008v1.024h-6.608v-0.896l4.864-5.872h-4.704v-1.024h6.272v0.944L240.285,25.63z"/>
	<path fill="#0C0C0C" d="M252.469,19.43c0.485,0.507,0.728,1.278,0.728,2.312v4.912h-1.264v-1.328
		c-0.203,0.459-0.512,0.813-0.928,1.064c-0.416,0.251-0.896,0.376-1.44,0.376c-0.501,0-0.963-0.101-1.384-0.304
		s-0.755-0.485-1-0.848c-0.246-0.362-0.368-0.763-0.368-1.2c0-0.586,0.149-1.042,0.448-1.368c0.298-0.325,0.789-0.56,1.472-0.704
		c0.682-0.144,1.632-0.216,2.848-0.216h0.352v-0.528c0-0.65-0.133-1.123-0.4-1.416c-0.267-0.293-0.699-0.44-1.296-0.44
		c-0.896,0-1.787,0.278-2.672,0.832l-0.432-0.944c0.405-0.288,0.893-0.52,1.464-0.696c0.571-0.176,1.123-0.264,1.656-0.264
		C251.245,18.67,251.984,18.923,252.469,19.43z M251.318,25.094c0.41-0.432,0.616-0.989,0.616-1.672v-0.464h-0.288
		c-0.938,0-1.653,0.04-2.144,0.12c-0.491,0.08-0.84,0.214-1.048,0.4s-0.312,0.461-0.312,0.824c0,0.416,0.152,0.76,0.456,1.032
		c0.304,0.272,0.686,0.408,1.144,0.408C250.382,25.742,250.907,25.526,251.318,25.094z"/>
	<path fill="#0C0C0C" d="M259.694,25.678l-0.064,1.024c-0.246,0.042-0.512,0.064-0.8,0.064c-0.938,0-1.646-0.245-2.12-0.736
		c-0.475-0.49-0.712-1.173-0.712-2.048v-4.096h-1.52v-1.024h1.52v-2.368h1.296v2.368h2.208v1.024h-2.208v4
		c0,1.227,0.565,1.84,1.696,1.84C259.224,25.726,259.459,25.71,259.694,25.678z"/>
	<path fill="#0C0C0C" d="M260.877,15.486h1.568v1.456h-1.568V15.486z M261.006,26.654v-7.792h1.296v7.792H261.006z"/>
	<path fill="#0C0C0C" d="M266.005,26.27c-0.56-0.331-0.992-0.803-1.296-1.416c-0.304-0.613-0.456-1.326-0.456-2.136
		s0.152-1.522,0.456-2.136c0.304-0.613,0.736-1.085,1.296-1.416c0.56-0.331,1.208-0.496,1.944-0.496
		c0.736,0,1.386,0.166,1.952,0.496s1,0.803,1.304,1.416s0.456,1.325,0.456,2.136s-0.152,1.523-0.456,2.136s-0.739,1.085-1.304,1.416
		s-1.216,0.496-1.952,0.496C267.213,26.766,266.565,26.601,266.005,26.27z M269.717,24.934c0.41-0.506,0.616-1.245,0.616-2.216
		c0-0.949-0.208-1.683-0.624-2.2c-0.416-0.517-1.002-0.776-1.76-0.776c-0.758,0-1.344,0.259-1.76,0.776
		c-0.416,0.518-0.624,1.251-0.624,2.2c0,0.96,0.206,1.696,0.616,2.208s1,0.768,1.768,0.768S269.306,25.44,269.717,24.934z"/>
	<path fill="#0C0C0C" d="M280.317,21.758v4.896h-1.296v-4.816c0-0.725-0.142-1.253-0.424-1.584
		c-0.283-0.331-0.734-0.496-1.352-0.496c-0.715,0-1.286,0.219-1.712,0.656c-0.427,0.438-0.64,1.03-0.64,1.776v4.464h-1.296v-7.792
		h1.28v1.28c0.256-0.48,0.613-0.845,1.072-1.096c0.459-0.25,0.981-0.376,1.568-0.376C279.383,18.67,280.317,19.699,280.317,21.758z"
		/>
</g>
<path d="M163.049,28.892h-1.02V16.214c0-0.286-0.232-0.517-0.517-0.517h-3.881v-1.294c0-0.286-0.232-0.517-0.517-0.517h-3.59
	c-0.286,0-0.517,0.232-0.517,0.517v1.294h-0.42c-0.286,0-0.517,0.232-0.517,0.517v12.678h-1.02c-0.279,0-0.518,0.214-0.531,0.493
	c-0.014,0.297,0.223,0.542,0.517,0.542h3.687c0.143,0,0.259-0.116,0.259-0.259v-2.975h-0.212c-0.279,0-0.518-0.214-0.532-0.492
	c-0.014-0.297,0.223-0.543,0.517-0.543c0.156,0,4.707,0,4.578,0c0.279,0,0.518,0.214,0.532,0.492
	c0.014,0.297-0.223,0.543-0.517,0.543h-0.226v2.975c0,0.143,0.116,0.259,0.259,0.259h3.687c0.294,0,0.531-0.245,0.517-0.542
	C163.567,29.106,163.328,28.892,163.049,28.892L163.049,28.892z M155.786,24.591h-0.582c-0.286,0-0.517-0.232-0.517-0.517
	s0.232-0.517,0.517-0.517h0.582c0.286,0,0.517,0.232,0.517,0.517S156.072,24.591,155.786,24.591z M155.786,22.65h-0.582
	c-0.286,0-0.517-0.232-0.517-0.517s0.232-0.517,0.517-0.517h0.582c0.286,0,0.517,0.232,0.517,0.517S156.072,22.65,155.786,22.65z
	 M155.786,20.71h-0.582c-0.286,0-0.517-0.232-0.517-0.517s0.232-0.517,0.517-0.517h0.582c0.286,0,0.517,0.232,0.517,0.517
	S156.072,20.71,155.786,20.71z M155.786,18.769h-0.582c-0.286,0-0.517-0.232-0.517-0.517s0.232-0.517,0.517-0.517h0.582
	c0.286,0,0.517,0.232,0.517,0.517S156.072,18.769,155.786,18.769z M158.859,24.591h-0.582c-0.286,0-0.517-0.232-0.517-0.517
	s0.232-0.517,0.517-0.517h0.582c0.286,0,0.517,0.232,0.517,0.517S159.145,24.591,158.859,24.591z M158.859,22.65h-0.582
	c-0.286,0-0.517-0.232-0.517-0.517s0.232-0.517,0.517-0.517h0.582c0.286,0,0.517,0.232,0.517,0.517S159.145,22.65,158.859,22.65z
	 M158.859,20.71h-0.582c-0.286,0-0.517-0.232-0.517-0.517s0.232-0.517,0.517-0.517h0.582c0.286,0,0.517,0.232,0.517,0.517
	S159.145,20.71,158.859,20.71z M158.859,18.769h-0.582c-0.286,0-0.517-0.232-0.517-0.517s0.232-0.517,0.517-0.517h0.582
	c0.286,0,0.517,0.232,0.517,0.517S159.145,18.769,158.859,18.769z M156.013,29.668v-2.717c0-0.143,0.116-0.259,0.259-0.259h1.552
	c0.143,0,0.259,0.116,0.259,0.259v2.717c0,0.143-0.116,0.259-0.259,0.259h-1.552C156.129,29.927,156.013,29.811,156.013,29.668z"/>
<g>
	<g>
		<path d="M334.094,13.917c-4.405,0-7.99,3.584-7.99,7.99s3.584,7.99,7.99,7.99s7.99-3.584,7.99-7.99S338.499,13.917,334.094,13.917
			z M334.094,16.247c2.111,0,3.828,1.717,3.828,3.828s-1.717,3.828-3.828,3.828s-3.828-1.717-3.828-3.828
			S331.983,16.247,334.094,16.247z M334.094,28.564c-2.176,0-4.105-1.053-5.32-2.672c1.332-0.641,3.234-1.323,5.32-1.323
			c2.087,0,3.989,0.682,5.32,1.323C338.198,27.511,336.269,28.564,334.094,28.564z"/>
	</g>
</g>
</svg>
