<?xml version="1.0" encoding="utf-8"?>
<!-- Generator: Adobe Illustrator 24.2.3, SVG Export Plug-In . SVG Version: 6.00 Build 0)  -->
<svg version="1.1" id="Layer_1" xmlns="http://www.w3.org/2000/svg" xmlns:xlink="http://www.w3.org/1999/xlink" x="0px" y="0px"
	 viewBox="0 0 40 40" style="enable-background:new 0 0 40 40;" xml:space="preserve">
<style type="text/css">
	.st0{fill:url(#SVGID_1_);}
	.st1{fill:#FFFFFF;}
	.st2{display:none;}
	.st3{display:inline;fill:#FFFFFF;}
</style>
<linearGradient id="SVGID_1_" gradientUnits="userSpaceOnUse" x1="0" y1="20" x2="40" y2="20">
	<stop  offset="0" style="stop-color:#44C1EF"/>
	<stop  offset="1" style="stop-color:#0782C5"/>
</linearGradient>
<circle class="st0" cx="20" cy="20" r="20"/>
<g id="XMLID_23_">
	<g>
		<path class="st1" d="M12.5,25.1c-1.4-0.1-2.6-1-3.1-2.4c-0.3-0.9-0.3-1.9,0.1-2.7c0.4-0.9,1.1-1.5,2-1.9C12,18,12.4,18,12.8,18
			c1.5,0,2.9,1,3.4,2.4c0.4,1.1,0.3,2.2-0.4,3.2l-0.2,0.1l-0.1,0l-0.1-0.3c0.5-0.8,0.6-1.8,0.3-2.7c-0.4-1.2-1.6-2-2.9-2
			c-0.4,0-0.7,0.1-1.1,0.2c-0.8,0.3-1.4,0.9-1.8,1.6c-0.4,0.8-0.4,1.6-0.1,2.4c0.4,1.1,1.5,1.9,2.7,2l0.2,0.1l0.1,0.2L12.5,25.1
			L12.5,25.1z"/>
		<path id="XMLID_12_" class="st1" d="M12.5,24.9C12.5,24.9,12.5,24.9,12.5,24.9c-1.3-0.1-2.5-1-2.9-2.2C9,21,9.9,19,11.6,18.4
			c1.8-0.6,3.7,0.3,4.4,2c0.4,1,0.2,2.1-0.3,3c0,0,0,0-0.1,0c0,0,0,0,0-0.1c0.6-0.9,0.7-1.9,0.3-2.9c-0.6-1.7-2.5-2.6-4.2-2
			c-1.7,0.6-2.6,2.5-2,4.2C10.1,23.9,11.3,24.7,12.5,24.9C12.6,24.9,12.6,24.9,12.5,24.9C12.6,24.9,12.6,24.9,12.5,24.9z"/>
	</g>
</g>
<g id="XMLID_21_">
	<g>
		<path class="st1" d="M12.8,28.8c-0.7,0-1.4-0.2-1.9-0.6l-0.1-0.3l0.2-0.1l0.1,0c0.5,0.3,1.1,0.5,1.7,0.5c0.4,0,0.7-0.1,1.1-0.2
			c0.8-0.3,1.4-0.9,1.8-1.6c0.4-0.8,0.4-1.6,0.1-2.4c-0.4-1.2-1.6-2-2.9-2c-0.4,0-0.7,0.1-1.1,0.2c-1.1,0.4-1.9,1.4-2,2.6l-0.2,0.2
			l-0.2-0.3c0.1-1.4,1-2.6,2.4-3.1c0.4-0.1,0.8-0.2,1.2-0.2c1.5,0,2.9,1,3.4,2.4c0.3,0.9,0.3,1.9-0.1,2.7c-0.4,0.9-1.1,1.5-2,1.9
			C13.6,28.7,13.2,28.8,12.8,28.8z"/>
		<path id="XMLID_11_" class="st1" d="M12.8,28.6c-0.6,0-1.3-0.2-1.8-0.5c0,0,0,0,0-0.1c0,0,0,0,0.1,0c0.9,0.6,1.9,0.7,2.9,0.3
			c1.7-0.6,2.6-2.5,2-4.2c-0.6-1.7-2.5-2.6-4.2-2c-1.2,0.4-2,1.5-2.2,2.8c0,0,0,0-0.1,0c0,0,0,0,0-0.1c0.1-1.3,1-2.4,2.2-2.9
			c1.8-0.6,3.7,0.3,4.4,2c0.6,1.8-0.3,3.7-2,4.4C13.6,28.5,13.2,28.6,12.8,28.6z"/>
	</g>
</g>
<g id="XMLID_19_">
	<g>
		<path class="st1" d="M9.2,28.8c-0.5,0-1-0.1-1.5-0.3c-0.9-0.4-1.5-1.1-1.9-2c-0.4-1.1-0.3-2.2,0.4-3.2l0.2-0.1l0.1,0l0.1,0.3
			c-0.5,0.8-0.6,1.8-0.3,2.7C6.6,27,7.1,27.6,7.9,28c0.4,0.2,0.9,0.3,1.3,0.3c0.4,0,0.7-0.1,1.1-0.2c0.8-0.3,1.4-0.9,1.8-1.6
			c0.4-0.8,0.4-1.6,0.1-2.4c-0.4-1.1-1.5-1.9-2.7-2l-0.2-0.3l0.2-0.2c1.4,0.1,2.6,1,3.1,2.4c0.3,0.9,0.3,1.9-0.1,2.7
			c-0.4,0.9-1.1,1.5-2,1.9C10,28.7,9.6,28.8,9.2,28.8z"/>
		<path id="XMLID_10_" class="st1" d="M9.2,28.6c-0.5,0-1-0.1-1.4-0.3c-0.8-0.4-1.4-1.1-1.8-1.9c-0.4-1-0.2-2.1,0.3-3c0,0,0,0,0.1,0
			c0,0,0,0,0,0.1c-0.6,0.9-0.7,1.9-0.3,2.9c0.3,0.8,0.9,1.5,1.7,1.9c0.8,0.4,1.7,0.4,2.5,0.1s1.5-0.9,1.9-1.7
			c0.4-0.8,0.4-1.7,0.1-2.5c-0.4-1.2-1.6-2.1-2.8-2.2c0,0,0,0,0-0.1c0,0,0,0,0.1,0c1.3,0.1,2.5,1,2.9,2.2c0.6,1.8-0.3,3.7-2,4.4
			C10,28.5,9.6,28.6,9.2,28.6z"/>
	</g>
</g>
<g id="XMLID_17_">
	<g>
		<path class="st1" d="M9.2,25.1c-0.5,0-1-0.1-1.5-0.3c-0.9-0.4-1.5-1.1-1.9-2C5.5,21.9,5.5,20.9,6,20c0.4-0.9,1.1-1.5,2-1.9
			c0.4-0.1,0.8-0.2,1.2-0.2c0.7,0,1.4,0.2,1.9,0.6l0.1,0.3L11,19l-0.1,0c-0.5-0.3-1.1-0.5-1.7-0.5c-0.4,0-0.7,0.1-1.1,0.2
			c-0.8,0.3-1.4,0.9-1.8,1.6C6,21,6,21.8,6.3,22.6c0.3,0.8,0.9,1.4,1.6,1.8c0.4,0.2,0.9,0.3,1.3,0.3c0.4,0,0.7-0.1,1.1-0.2
			c1.1-0.4,1.9-1.4,2-2.6l0.2-0.2l0.2,0.1l0.1,0.2c-0.1,1.4-1,2.6-2.4,3.1C10,25.1,9.6,25.1,9.2,25.1z"/>
		<path id="XMLID_9_" class="st1" d="M9.2,24.9c-0.5,0-1-0.1-1.4-0.3C7,24.2,6.3,23.5,6,22.7c-0.3-0.9-0.3-1.8,0.1-2.6
			c0.4-0.8,1.1-1.4,1.9-1.8c1-0.4,2.1-0.2,3,0.3c0,0,0,0,0,0.1c0,0,0,0-0.1,0c-0.9-0.6-1.9-0.7-2.9-0.3c-0.8,0.3-1.5,0.9-1.9,1.7
			c-0.4,0.8-0.4,1.7-0.1,2.5s0.9,1.5,1.7,1.9c0.8,0.4,1.7,0.4,2.5,0.1c1.2-0.4,2-1.5,2.2-2.8c0,0,0,0,0.1,0c0,0,0,0,0,0.1
			c-0.1,1.3-1,2.4-2.2,2.9C10,24.9,9.6,24.9,9.2,24.9z"/>
	</g>
</g>
<rect x="18.9" y="21.5" class="st1" width="14.9" height="1.3"/>
<rect x="18.9" y="24.9" class="st1" width="13.1" height="1.3"/>
<g class="st2">
	<path class="st3" d="M18.2,19.1H13c-0.5,0-0.9-0.4-0.9-0.9V13c0-0.5,0.4-0.9,0.9-0.9h5.2c0.5,0,0.9,0.4,0.9,0.9v5.2
		C19,18.7,18.6,19.1,18.2,19.1z"/>
	<path class="st3" d="M27,19.1h-5.2c-0.5,0-0.9-0.4-0.9-0.9V13c0-0.5,0.4-0.9,0.9-0.9H27c0.5,0,0.9,0.4,0.9,0.9v5.2
		C27.9,18.7,27.5,19.1,27,19.1z"/>
	<path class="st3" d="M18.2,27.8H13c-0.5,0-0.9-0.4-0.9-0.9v-5.2c0-0.5,0.4-0.9,0.9-0.9h5.2c0.5,0,0.9,0.4,0.9,0.9V27
		C19,27.4,18.6,27.8,18.2,27.8z"/>
	<path class="st3" d="M27,27.8h-5.2c-0.5,0-0.9-0.4-0.9-0.9v-5.2c0-0.5,0.4-0.9,0.9-0.9H27c0.5,0,0.9,0.4,0.9,0.9V27
		C27.9,27.4,27.5,27.8,27,27.8z"/>
</g>
<g>
	<path class="st1" d="M12.9,15.1H9.5c-1,0-1.9-0.8-1.9-1.9v0c0-1,0.8-1.9,1.9-1.9h3.4c1,0,1.9,0.8,1.9,1.9v0
		C14.8,14.2,14,15.1,12.9,15.1z"/>
	<path class="st1" d="M21.6,15.1h-3.4c-1,0-1.9-0.8-1.9-1.9v0c0-1,0.8-1.9,1.9-1.9h3.4c1,0,1.9,0.8,1.9,1.9v0
		C23.4,14.2,22.6,15.1,21.6,15.1z"/>
	<path class="st1" d="M30.5,15.1h-3.4c-1,0-1.9-0.8-1.9-1.9v0c0-1,0.8-1.9,1.9-1.9h3.4c1,0,1.9,0.8,1.9,1.9v0
		C32.4,14.2,31.6,15.1,30.5,15.1z"/>
</g>
</svg>
