<?xml version="1.0" encoding="utf-8"?>
<!-- Generator: Adobe Illustrator 17.0.0, SVG Export Plug-In . SVG Version: 6.00 Build 0)  -->
<!DOCTYPE svg PUBLIC "-//W3C//DTD SVG 1.1//EN" "http://www.w3.org/Graphics/SVG/1.1/DTD/svg11.dtd">
<svg version="1.1" xmlns="http://www.w3.org/2000/svg" xmlns:xlink="http://www.w3.org/1999/xlink" x="0px" y="0px" width="722px"
	 height="453px" viewBox="0 0 722 453" enable-background="new 0 0 722 453" xml:space="preserve">
<g id="Background" display="none">
	<linearGradient id="XMLID_148_" gradientUnits="userSpaceOnUse" x1="375" y1="-4.641" x2="375" y2="497.574">
		<stop  offset="0" style="stop-color:#FFFDFE"/>
		<stop  offset="1" style="stop-color:#F1F5FF"/>
	</linearGradient>
	<rect id="XMLID_3419_" display="inline" fill="url(#XMLID_148_)" width="750" height="500"/>
</g>
<g id="Objects">
	<g>
		<g id="XMLID_1017_">
			<path id="XMLID_1019_" fill="#3DC19A" d="M607.095,369.646c0,0,0.517-17.182-10.689-30.284
				c-11.206-13.102-32.239-19.309-49.134-15.861c-16.895,3.448-11.896,10.861-6.206,13.447c5.689,2.586,12.585,5.208,7.586,9.155
				c-5,3.947-7.413,11.705,0.345,13.946c7.758,2.241,14.826-0.862,23.274,4.827C580.718,370.566,595.027,372.329,607.095,369.646z"
				/>
			<path id="XMLID_1018_" fill="none" stroke="#3B55CE" stroke-width="1.05" stroke-linecap="round" stroke-miterlimit="10" d="
				M545.791,328.399c22.593,1.263,46.626,13.84,56.514,41.247"/>
		</g>
		<g id="XMLID_1020_">
			<path id="XMLID_1022_" fill="#91DBAC" d="M618.713,369.646c0,0-22.547,4.412-33.886-7.7
				c-11.339-12.113,2.319-21.734-6.443-30.968c-8.762-9.235-16.494-8.719-18.555-17.481c-2.062-8.762,8.645-8.989,7.614-17.751
				s-12.082-13.059-7.326-21.096c2.237-3.78,9.773-7.079,21.071,0.335c5.751,3.774,12.357,7.519,18.836,7.519
				c7.921,0,13.882,2.278,14.786,13.428c0.905,11.15,0.756,20.477,10.007,27.137C637.288,332.045,645.54,352.292,618.713,369.646z"
				/>
			<path id="XMLID_1021_" fill="none" stroke="#3B55CE" stroke-width="1.05" stroke-linecap="round" stroke-miterlimit="10" d="
				M568.661,276.49c19.017,16.026,41.609,47.948,50.052,93.156"/>
		</g>
		<g id="XMLID_454_">
			<g id="XMLID_447_">
				<path id="XMLID_446_" fill="#40C7A7" d="M274.329,317.007c0,0,26.579-34.479,35.873-66.675
					c9.294-32.196,11.949-77.337,8.962-78.333c-2.987-0.996-26.885,26.222-36.727,57.422
					C273.906,256.467,274.329,317.007,274.329,317.007z"/>
				<path id="XMLID_451_" fill="none" stroke="#3B55CE" stroke-width="1.05" stroke-linecap="round" stroke-miterlimit="10" d="
					M313.189,183.616c0,0-34.699,68.79-36.333,123.178"/>
			</g>
			<g id="XMLID_440_">
				<path id="XMLID_441_" fill="#40C7A7" d="M294.631,371.395c0,0,0.565-25.438-9.868-41.916
					c-10.434-16.478-46.843-45.006-58.193-41.474c-8.955,2.787-10.03,67.991,13.254,83.39H294.631z"/>
				<path id="XMLID_442_" fill="none" stroke="#3B55CE" stroke-width="1.05" stroke-linecap="round" stroke-miterlimit="10" d="
					M230.51,295.09c0,0,29.015,31.165,39.762,76.305"/>
			</g>
			<g id="XMLID_453_">
				<path id="XMLID_444_" fill="#22A482" d="M289.179,371.892c0,0-3.871-66.474-12.85-94.831
					c-6.806-21.493-18.681-39.863-41.879-52.759c-15.293-8.502-30.448-7.523-26.15,0c4.299,7.523,17.911,18.307,35.463,46.568
					c15.857,25.531,30.324,75.235,30.565,101.022H289.179z"/>
				<path id="XMLID_443_" fill="none" stroke="#3B55CE" stroke-width="1.05" stroke-linecap="round" stroke-miterlimit="10" d="
					M216.182,223.944c17.911,11.105,39.287,32.37,48.717,59.708c9.43,27.338,13.254,73.557,12.896,88.24"/>
			</g>
			<path id="XMLID_445_" fill="#22A482" d="M274.329,328.578c0,0-1.445-36.459,30.69-33.852c28.393,2.303,26.15,33.852,26.15,33.852
				s13.552-9.896,29.374-2.215c20.944,10.167,15.045,32.239,15.045,32.239H274.329V328.578z"/>
		</g>
		<path id="XMLID_470_" fill="#638BE2" d="M710.518,374.078H7.937c-1.482,0-2.683-1.201-2.683-2.683l0,0
			c0-1.482,1.201-2.683,2.683-2.683h702.581c1.482,0,2.683,1.201,2.683,2.683l0,0C713.201,372.877,712,374.078,710.518,374.078z"/>
		<path id="XMLID_467_" fill="#E5F7FF" d="M613.572,441.031H179.09c-29.764,0-53.892-24.128-53.892-53.892v-13.061h542.266v13.061
			C667.464,416.902,643.336,441.031,613.572,441.031z"/>
		<path id="XMLID_3348_" fill="#0861BA" d="M448.568,4.067H288.857c-8.024,0-14.528,6.504-14.528,14.528v335.589
			c0,8.023,6.504,14.528,14.528,14.528h159.711c8.023,0,14.528-6.504,14.528-14.528V18.595
			C463.096,10.572,456.591,4.067,448.568,4.067z M452.662,334.71c0,4.158-3.371,7.529-7.529,7.529H292.292
			c-4.158,0-7.529-3.371-7.529-7.529V38.069c0-4.158,3.371-7.528,7.529-7.528h152.842c4.158,0,7.529,3.371,7.529,7.528V334.71z"/>
		<path id="XMLID_3350_" opacity="0.3" fill="#BCD3F9" d="M445.134,30.54H292.292c-4.158,0-7.529,3.371-7.529,7.528V334.71
			c0,4.158,3.371,7.529,7.529,7.529h152.842c4.158,0,7.529-3.371,7.529-7.529V38.069C452.662,33.911,449.291,30.54,445.134,30.54z"
			/>
		<circle id="XMLID_462_" fill="#000E5B" cx="360.26" cy="17.304" r="4.861"/>
		<path id="XMLID_459_" fill="#000E5B" d="M398.282,17.304L398.282,17.304c0-1.626-1.318-2.944-2.944-2.944h-19.339
			c-1.626,0-2.944,1.318-2.944,2.944l0,0c0,1.626,1.318,2.944,2.944,2.944h19.339C396.964,20.248,398.282,18.93,398.282,17.304z"/>
		<g id="XMLID_415_">
			<path id="XMLID_3486_" fill="#85B8ED" d="M526.923,226.971H341.919c-2.964,0-5.366-2.403-5.366-5.366v-61.407
				c0-2.964,2.402-5.366,5.366-5.366h185.003c2.964,0,5.366,2.402,5.366,5.366v61.407
				C532.289,224.568,529.886,226.971,526.923,226.971z"/>
			<path id="XMLID_3489_" fill="#85B8ED" d="M526.923,135.369H341.919c-2.964,0-5.366-2.402-5.366-5.366V68.597
				c0-2.964,2.402-5.366,5.366-5.366h185.003c2.964,0,5.366,2.402,5.366,5.366v61.406
				C532.289,132.967,529.886,135.369,526.923,135.369z"/>
			<path id="XMLID_3483_" fill="#85B8ED" d="M526.923,318.572H341.919c-2.964,0-5.366-2.402-5.366-5.366V251.8
				c0-2.964,2.402-5.366,5.366-5.366h185.003c2.964,0,5.366,2.402,5.366,5.366v61.406
				C532.289,316.17,529.886,318.572,526.923,318.572z"/>
			<g id="XMLID_414_">
				<path id="XMLID_455_" fill="#FFFFF8" d="M523.857,130.857H338.854c-2.964,0-5.366-2.402-5.366-5.366V64.085
					c0-2.964,2.402-5.366,5.366-5.366h185.004c2.963,0,5.366,2.402,5.366,5.366v61.406
					C529.223,128.455,526.821,130.857,523.857,130.857z"/>
				<circle id="XMLID_456_" fill="#FFFFF8" cx="371.653" cy="94.788" r="26.931"/>
				<path id="XMLID_457_" fill="#3ED9C7" d="M465.374,87.249h-54.792c-1.482,0-2.683-1.201-2.683-2.683v-6.213
					c0-1.482,1.201-2.683,2.683-2.683h54.792c1.482,0,2.683,1.201,2.683,2.683v6.213C468.057,86.048,466.856,87.249,465.374,87.249z
					"/>
				<path id="XMLID_458_" fill="#638BE2" d="M511.881,96.961H408.794c-0.494,0-0.894,0.4-0.894,0.894v0.55
					c0,0.494,0.401,0.894,0.894,0.894h103.087c0.494,0,0.894-0.4,0.894-0.894v-0.55C512.775,97.362,512.375,96.961,511.881,96.961z"
					/>
				<path id="XMLID_461_" fill="#638BE2" d="M511.881,106.628H408.794c-0.494,0-0.894,0.4-0.894,0.894v0.55
					c0,0.494,0.401,0.894,0.894,0.894h103.087c0.494,0,0.894-0.4,0.894-0.894v-0.55
					C512.775,107.029,512.375,106.628,511.881,106.628z"/>
				<path id="XMLID_463_" fill="#638BE2" d="M511.881,116.296H408.794c-0.494,0-0.894,0.4-0.894,0.894v0.55
					c0,0.494,0.401,0.894,0.894,0.894h103.087c0.494,0,0.894-0.4,0.894-0.894v-0.55
					C512.775,116.696,512.375,116.296,511.881,116.296z"/>
			</g>
			<g id="XMLID_416_">
				<path id="XMLID_498_" fill="#FFFFF8" d="M523.857,222.459H338.854c-2.964,0-5.366-2.402-5.366-5.366v-61.406
					c0-2.964,2.402-5.366,5.366-5.366h185.004c2.963,0,5.366,2.402,5.366,5.366v61.406
					C529.223,220.056,526.821,222.459,523.857,222.459z"/>
				<circle id="XMLID_421_" fill="#FFFFF8" cx="371.653" cy="186.39" r="26.931"/>
				<path id="XMLID_420_" fill="#3ED9C7" d="M465.374,178.85h-54.792c-1.482,0-2.683-1.201-2.683-2.683v-6.213
					c0-1.482,1.201-2.683,2.683-2.683h54.792c1.482,0,2.683,1.201,2.683,2.683v6.213C468.057,177.649,466.856,178.85,465.374,178.85
					z"/>
				<path id="XMLID_419_" fill="#638BE2" d="M511.881,188.563H408.794c-0.494,0-0.894,0.4-0.894,0.894v0.55
					c0,0.494,0.401,0.894,0.894,0.894h103.087c0.494,0,0.894-0.4,0.894-0.894v-0.55
					C512.775,188.963,512.375,188.563,511.881,188.563z"/>
				<path id="XMLID_418_" fill="#638BE2" d="M511.881,198.23H408.794c-0.494,0-0.894,0.4-0.894,0.894v0.55
					c0,0.494,0.401,0.894,0.894,0.894h103.087c0.494,0,0.894-0.4,0.894-0.894v-0.55C512.775,198.63,512.375,198.23,511.881,198.23z"
					/>
				<path id="XMLID_417_" fill="#638BE2" d="M511.881,207.897H408.794c-0.494,0-0.894,0.4-0.894,0.894v0.55
					c0,0.494,0.401,0.894,0.894,0.894h103.087c0.494,0,0.894-0.4,0.894-0.894v-0.55
					C512.775,208.297,512.375,207.897,511.881,207.897z"/>
			</g>
			<g id="XMLID_534_">
				<path id="XMLID_541_" fill="#FFFFF8" d="M523.857,314.06H338.854c-2.964,0-5.366-2.402-5.366-5.366v-61.406
					c0-2.964,2.402-5.366,5.366-5.366h185.004c2.963,0,5.366,2.402,5.366,5.366v61.406
					C529.223,311.658,526.821,314.06,523.857,314.06z"/>
				<circle id="XMLID_539_" fill="#FFFFF8" cx="371.653" cy="277.991" r="26.931"/>
				<path id="XMLID_538_" fill="#3ED9C7" d="M465.374,270.452h-54.792c-1.482,0-2.683-1.201-2.683-2.683v-6.213
					c0-1.482,1.201-2.683,2.683-2.683h54.792c1.482,0,2.683,1.201,2.683,2.683v6.213
					C468.057,269.25,466.856,270.452,465.374,270.452z"/>
				<path id="XMLID_537_" fill="#638BE2" d="M511.881,280.164H408.794c-0.494,0-0.894,0.4-0.894,0.894v0.55
					c0,0.494,0.401,0.894,0.894,0.894h103.087c0.494,0,0.894-0.4,0.894-0.894v-0.55
					C512.775,280.565,512.375,280.164,511.881,280.164z"/>
				<path id="XMLID_536_" fill="#638BE2" d="M511.881,289.831H408.794c-0.494,0-0.894,0.4-0.894,0.894v0.55
					c0,0.494,0.401,0.894,0.894,0.894h103.087c0.494,0,0.894-0.4,0.894-0.894v-0.55
					C512.775,290.232,512.375,289.831,511.881,289.831z"/>
				<path id="XMLID_535_" fill="#638BE2" d="M511.881,299.498H408.794c-0.494,0-0.894,0.4-0.894,0.894v0.55
					c0,0.494,0.401,0.894,0.894,0.894h103.087c0.494,0,0.894-0.4,0.894-0.894v-0.55
					C512.775,299.899,512.375,299.498,511.881,299.498z"/>
			</g>
		</g>
		<g id="XMLID_412_">
			<defs>
				<circle id="SVGID_1_" cx="371.653" cy="277.991" r="26.931"/>
			</defs>
			<use xlink:href="#SVGID_1_"  overflow="visible" fill="#E5F7FF"/>
			<clipPath id="SVGID_2_">
				<use xlink:href="#SVGID_1_"  overflow="visible"/>
			</clipPath>
			<g id="XMLID_380_" clip-path="url(#SVGID_2_)">
				<g id="XMLID_573_">
					<g id="XMLID_642_">
						<g>
							<path id="XMLID_170_" fill="#001C45" d="M373.204,260.107L373.204,260.107c5.819,0,10.537,4.717,10.537,10.536v27.285
								h-21.073v-27.285C362.667,264.824,367.384,260.107,373.204,260.107z"/>
							<path id="XMLID_169_" fill="#001C45" d="M368.686,298.866h-9.209V273.15c0-4.555,3.693-8.248,8.248-8.248h0.96V298.866z"/>
						</g>
					</g>
					<g id="XMLID_637_">
						<path id="XMLID_641_" fill="#FF9A8D" d="M362.233,276.756c0,0-1.835-0.876-2.925,0.348c-1.091,1.223-0.555,4.003,1.318,4.809
							c1.794,0.772,2.611-0.16,2.611-0.16L362.233,276.756z"/>
						<path id="XMLID_640_" fill="#BA5964" d="M360.314,277.6c0.473-0.14,1.168-0.077,1.542,0.261
							c0.138,0.125-0.124,0.351-0.26,0.291c-0.771-0.336-1.732-0.431-2.172,0.467c-0.023,0.048-0.055-0.005-0.047-0.038
							C359.505,278.079,359.808,277.75,360.314,277.6z"/>
						<path id="XMLID_638_" fill="#BA5964" d="M360.677,277.693c0.09-0.036,0.276,0.193,0.255,0.252
							c-0.131,0.053-0.344,0.188-0.451,0.354c-0.184,0.285-0.245,0.537-0.237,0.88c0.02,0.789,0.429,1.377,1.185,1.598
							c0.014,0.004,0.034,0.045,0.012,0.049c-0.677,0.129-1.393-0.603-1.512-1.208C359.795,278.949,359.893,278.012,360.677,277.693
							z"/>
					</g>
					<g id="XMLID_633_">
						<path id="XMLID_636_" fill="#FF9A8D" d="M381.049,276.68c0,0,1.833-0.8,2.924,0.424c1.091,1.223,0.555,4.003-1.318,4.809
							c-1.794,0.772-2.611-0.16-2.611-0.16L381.049,276.68z"/>
						<path id="XMLID_635_" fill="#BA5964" d="M382.966,277.6c-0.473-0.14-1.168-0.077-1.542,0.261
							c-0.138,0.125,0.124,0.351,0.26,0.291c0.771-0.336,1.732-0.431,2.172,0.467c0.023,0.048,0.055-0.005,0.047-0.038
							C383.774,278.079,383.472,277.75,382.966,277.6z"/>
						<path id="XMLID_634_" fill="#BA5964" d="M382.603,277.693c-0.09-0.036-0.276,0.193-0.255,0.252
							c0.131,0.053,0.344,0.188,0.451,0.354c0.184,0.285,0.245,0.537,0.237,0.88c-0.02,0.789-0.429,1.377-1.185,1.598
							c-0.014,0.004-0.034,0.045-0.012,0.049c0.676,0.129,1.392-0.603,1.512-1.208C383.485,278.949,383.386,278.012,382.603,277.693
							z"/>
					</g>
					<g id="XMLID_630_">
						<path id="XMLID_632_" fill="#FF9A8D" d="M352.942,304.922c0-4.138,0.656-6.61,2.826-7.316c0.989-0.322,6.913-2.17,8.779-2.725
							s2.374-1.665,2.374-2.624s0-4.233,0-4.233h9.463c0,0,0,3.275,0,4.233s0.508,2.069,2.374,2.624
							c1.867,0.555,7.79,2.403,8.779,2.725c2.17,0.706,2.826,3.179,2.826,7.316H352.942z"/>
						<path id="XMLID_631_" fill="#BA5964" d="M366.921,289.253c0.005,0.013,0.931,2.723,4.731,2.723
							c3.801,0,4.727-2.711,4.732-2.723c0-0.697,0-1.228,0-1.228h-9.463C366.921,288.024,366.921,288.556,366.921,289.253z"/>
					</g>
					<path id="XMLID_629_" fill="#FF9A8D" d="M376.076,266.14c-1.362-0.78-2.886-1.238-4.437-1.238
						c-1.551,0-3.075,0.457-4.437,1.238c-3.185,1.824-5.028,5.265-5.024,8.877c0,0.011,0,0.022,0,0.034
						c0.001,1.018,0.06,2.036,0.179,3.047l0.168,1.431c0.131,1.121,0.345,2.232,0.692,3.306c1.369,4.238,5.147,7.09,8.423,7.09
						c3.276,0,7.055-2.852,8.424-7.09c0.347-1.073,0.56-2.185,0.692-3.306l0.168-1.432c0.12-1.024,0.18-2.054,0.179-3.085
						c0-0.005,0-0.011,0-0.016C381.097,271.393,379.255,267.961,376.076,266.14z"/>
					<g id="XMLID_623_">
						<circle id="XMLID_625_" fill="#001C45" cx="375.906" cy="277.193" r="0.991"/>
						<path id="XMLID_624_" fill="#001C45" d="M373.954,274.646l4.6,1.179c0,0-0.185-1.538-1.769-1.926
							C374.859,273.427,373.954,274.646,373.954,274.646z"/>
					</g>
					<g id="XMLID_620_">
						<circle id="XMLID_622_" fill="#001C45" cx="367.4" cy="277.193" r="0.991"/>
						<path id="XMLID_621_" fill="#001C45" d="M369.351,274.646l-4.6,1.179c0,0,0.185-1.538,1.769-1.926
							C368.447,273.427,369.351,274.646,369.351,274.646z"/>
					</g>
					<g id="XMLID_609_">
						<g>
							<path id="XMLID_172_" fill="#001C45" d="M371.638,265.777c0,0,1.967,6.643,9.476,8.177c0,0,0.66-4.317-2.56-6.935
								c-3.22-2.619-6.916-2.461-6.916-2.461V265.777z"/>
							<path id="XMLID_171_" fill="#001C45" d="M371.64,265.816c0,0-1.967,6.643-9.476,8.177c0,0-0.66-4.317,2.56-6.935
								c3.22-2.618,6.916-2.461,6.916-2.461V265.816z"/>
						</g>
					</g>
					<g id="XMLID_581_">
						<path id="XMLID_605_" fill="#FABA50" d="M387.538,297.606c-0.989-0.322-6.913-2.17-8.779-2.725
							c-0.488-0.145-0.881-0.328-1.198-0.537c0.051,0.211,0.078,0.43,0.078,0.655c0,1.67-2.687,3.023-6.001,3.023
							c-3.314,0-6.001-1.354-6.001-3.023c0-0.216,0.024-0.427,0.071-0.63c-0.311,0.198-0.694,0.373-1.162,0.512
							c-1.867,0.555-7.79,2.403-8.779,2.725c-2.17,0.706-2.826,3.179-2.826,7.316h37.422
							C390.364,300.785,389.708,298.312,387.538,297.606z"/>
						<path id="XMLID_584_" fill="#3ED9C7" d="M357.747,296.98c-0.941,0.295-1.683,0.529-1.979,0.626
							c-2.17,0.706-2.826,3.179-2.826,7.316h4.853v-7.942H357.747z"/>
						<path id="XMLID_583_" fill="#3ED9C7" d="M385.558,296.98c0.941,0.295,1.683,0.529,1.979,0.626
							c2.17,0.706,2.826,3.179,2.826,7.316h-4.853v-7.942H385.558z"/>
						<path id="XMLID_582_" fill="#228C7E" d="M371.639,298.681c3.734,0,6.659-1.617,6.659-3.682c0-0.004-0.001-0.116-0.004-0.282
							c-0.619-0.246-1.053-0.562-1.349-0.912c0.021,0.378,0.037,0.967,0.037,1.193c0,1.119-2.194,2.365-5.343,2.365
							c-3.149,0-5.343-1.247-5.343-2.365c0-0.22,0.014-0.786,0.032-1.153c-0.299,0.339-0.734,0.645-1.344,0.883
							c-0.003,0.159-0.004,0.266-0.004,0.27C364.98,297.064,367.905,298.681,371.639,298.681z"/>
					</g>
				</g>
				<path id="XMLID_10_" fill="#BA5964" d="M371.652,276.53c-0.387,0.033-1.378,4.49-0.971,5.251
					c0.168,0.315,0.667,0.628,0.971,0.595c0.305,0.033,0.803-0.28,0.971-0.595C373.031,281.021,372.04,276.563,371.652,276.53z"/>
				<g id="XMLID_424_">
					<path id="XMLID_426_" fill="none" stroke="#001C45" stroke-width="0.5788" stroke-linecap="round" stroke-miterlimit="10" d="
						M359.599,264.33c0,0,3.606-0.01,4.588,2.028"/>
					<path id="XMLID_425_" fill="none" stroke="#001C45" stroke-width="0.5788" stroke-linecap="round" stroke-miterlimit="10" d="
						M360.155,260.889c0,0,4.174,1.555,4.031,5.803"/>
				</g>
			</g>
		</g>
		<g id="XMLID_413_">
			<defs>
				<circle id="SVGID_3_" cx="371.653" cy="186.39" r="26.931"/>
			</defs>
			<use xlink:href="#SVGID_3_"  overflow="visible" fill="#E5F7FF"/>
			<clipPath id="SVGID_4_">
				<use xlink:href="#SVGID_3_"  overflow="visible"/>
			</clipPath>
			<g id="XMLID_381_" clip-path="url(#SVGID_4_)">
				<g id="XMLID_527_">
					<g id="XMLID_566_">
						<path id="XMLID_569_" fill="#FF9A8D" d="M362.247,184.934c0,0-1.821-0.655-2.912,0.568s-0.555,4.003,1.318,4.809
							c1.794,0.772,2.611-0.16,2.611-0.16L362.247,184.934z"/>
						<path id="XMLID_568_" fill="#BA5964" d="M360.341,185.998c0.473-0.141,1.168-0.077,1.542,0.261
							c0.138,0.125-0.124,0.351-0.26,0.291c-0.771-0.336-1.732-0.431-2.172,0.467c-0.023,0.048-0.055-0.005-0.047-0.038
							C359.533,186.478,359.835,186.148,360.341,185.998z"/>
						<path id="XMLID_567_" fill="#BA5964" d="M360.704,186.092c0.09-0.036,0.276,0.193,0.255,0.252
							c-0.131,0.053-0.344,0.188-0.451,0.354c-0.184,0.285-0.245,0.537-0.237,0.88c0.02,0.789,0.429,1.377,1.185,1.598
							c0.014,0.004,0.034,0.045,0.012,0.049c-0.676,0.129-1.392-0.603-1.512-1.208C359.822,187.347,359.921,186.411,360.704,186.092
							z"/>
					</g>
					<g id="XMLID_562_">
						<path id="XMLID_565_" fill="#FF9A8D" d="M381.085,184.934c0,0,1.824-0.655,2.915,0.568c1.091,1.223,0.555,4.003-1.318,4.809
							c-1.794,0.772-2.611-0.16-2.611-0.16L381.085,184.934z"/>
						<path id="XMLID_564_" fill="#BA5964" d="M382.993,185.998c-0.473-0.141-1.168-0.077-1.542,0.261
							c-0.138,0.125,0.124,0.351,0.26,0.291c0.771-0.336,1.732-0.431,2.172,0.467c0.024,0.048,0.055-0.005,0.047-0.038
							C383.801,186.478,383.499,186.148,382.993,185.998z"/>
						<path id="XMLID_563_" fill="#BA5964" d="M382.63,186.092c-0.09-0.036-0.276,0.193-0.255,0.252
							c0.131,0.053,0.344,0.188,0.451,0.354c0.184,0.285,0.245,0.537,0.237,0.88c-0.02,0.789-0.428,1.377-1.184,1.598
							c-0.014,0.004-0.034,0.045-0.012,0.049c0.677,0.129,1.393-0.603,1.512-1.208C383.512,187.347,383.414,186.411,382.63,186.092z
							"/>
					</g>
					<g id="XMLID_559_">
						<path id="XMLID_561_" fill="#FF9A8D" d="M349.463,213.321c0-4.138,1.96-6.61,4.13-7.316c0.989-0.322,8.217-2.17,10.084-2.725
							c1.866-0.555,2.374-1.665,2.374-2.624c0-0.959,0-5.103,0-5.103h11.202c0,0,0,4.144,0,5.103c0,0.959,0.508,2.069,2.374,2.624
							c1.866,0.555,9.095,2.403,10.084,2.725c2.17,0.706,4.13,3.179,4.13,7.316H349.463z"/>
						<path id="XMLID_560_" fill="#BA5964" d="M366.052,195.553c0,0,0,0.456,0,1.781c0,0,2.035,3.181,5.614,3.181
							c3.579,0,5.588-3.158,5.588-3.158c0-1.333,0-1.804,0-1.804H366.052z"/>
					</g>
					<g id="XMLID_557_">
						<g>
							<path id="XMLID_158_" fill="#3ED9C7" d="M389.712,206.004c-0.989-0.322-8.217-2.17-10.084-2.725
								c-0.226-0.067-0.43-0.143-0.618-0.225c0.18,0.438,0.279,0.901,0.279,1.382c0,2.694-3.419,4.878-7.637,4.878
								c-4.218,0-7.637-2.184-7.637-4.878c0-0.48,0.099-0.943,0.279-1.382c-0.187,0.082-0.392,0.158-0.618,0.225
								c-1.866,0.555-9.095,2.403-10.084,2.725c-2.17,0.706-4.13,3.179-4.13,7.316h44.379
								C393.842,209.183,391.882,206.711,389.712,206.004z"/>
						</g>
					</g>
					<path id="XMLID_556_" fill="#FF9A8D" d="M376.103,174.539c-1.362-0.78-2.886-1.238-4.437-1.238
						c-1.552,0-3.152,0.383-4.514,1.163c-3.179,1.821-4.944,5.327-4.947,8.931c0,0.005,0,0.01,0,0.016
						c-0.001,1.031,0.059,2.061,0.179,3.085l0.168,1.431c0.131,1.12,0.497,3.284,1.347,5.362c1.687,4.122,5.452,5.469,7.768,5.469
						c2.316,0,6.081-1.347,7.768-5.469c0.85-2.078,1.216-4.242,1.347-5.362l0.168-1.431c0.12-1.024,0.18-2.054,0.179-3.085
						c0-0.005,0-0.011,0-0.016C381.124,179.792,379.282,176.36,376.103,174.539z"/>
					<g id="XMLID_547_">
						<circle id="XMLID_552_" fill="#001C45" cx="375.933" cy="185.604" r="0.991"/>
						<path id="XMLID_551_" fill="#001C45" d="M374.416,182.622l4.6,1.179c0,0-0.249-1.3-1.863-2.075
							c-0.704-0.338-1.518-0.364-2.032-0.121C374.38,181.956,374.416,182.622,374.416,182.622z"/>
						<path id="XMLID_550_" fill="#001C45" d="M368.915,182.622l-4.6,1.179c0,0,0.249-1.3,1.863-2.075
							c0.704-0.338,1.519-0.364,2.032-0.121C368.952,181.956,368.915,182.622,368.915,182.622z"/>
						<g id="XMLID_548_">
							<g>
								<circle id="XMLID_159_" fill="#001C45" cx="367.427" cy="185.604" r="0.991"/>
							</g>
						</g>
					</g>
					<g id="XMLID_639_">
						<g>
							<g id="XMLID_184_">
								<path fill="#001C45" d="M362.204,185.155c0,0,0.264-0.079,0.537-0.328c0.23-0.21,0.729-0.728,0.729-2.653
									c0-1.924,0.512-5.42,2.328-6.631c0,0,0.09-0.926-0.382-1.121c-0.636-0.262-2.236,0.09-3.343,1.138
									c-2.39,2.262-1.411,9.236-1.411,9.236C361.063,184.759,361.793,184.863,362.204,185.155z"/>
							</g>
							<g id="XMLID_183_">
								<path fill="#001C45" d="M381.438,185.053c0,0-0.465-0.043-0.719-0.241c-0.254-0.198-0.857-0.713-0.857-2.638
									c0-1.924-0.512-5.42-2.328-6.631c0,0,1.483-1.484,3.594,0c2.132,1.499,1.546,9.254,1.546,9.254
									C382.225,184.774,381.814,184.87,381.438,185.053z"/>
							</g>
							<g id="XMLID_182_">
								<path fill="#001C45" d="M381.441,179.537v5.516c0.371-0.184,0.785-0.272,1.233-0.257c1.26-13.591-5.14-16.486-11.967-15.27
									c-5.031,0.896-5.656,5.552-5.656,5.552l0.747,0.465c0.885,0,1.332,0.582,2.013,1.108c0.7,0.54,1.422,1.053,2.194,1.486
									c1.289,0.723,2.737,1.223,4.214,1.201c0.37-0.005,0.779-0.062,1.022-0.342c0.304-0.35,0.217-0.886,0.061-1.323
									c-0.198-0.557-0.479-1.082-0.828-1.559c0.934,0.773,1.861,1.533,3.667,1.723c0.887,0.093,1.449-0.451,1.117-1.378
									C379.238,176.407,381.441,178.393,381.441,179.537z"/>
							</g>
						</g>
					</g>
				</g>
				<path id="XMLID_9_" fill="#BA5964" d="M371.652,184.998c-0.464,0.033-1.654,4.49-1.165,5.251c0.202,0.315,0.8,0.627,1.165,0.595
					c0.366,0.033,0.963-0.28,1.166-0.595C373.307,189.489,372.117,185.031,371.652,184.998z"/>
				<path id="XMLID_298_" fill="#001C45" d="M364.575,175.025c0,0,0.221-4.463,6.074-6.233c5.001-1.512,10.28,0.53,11.822,2.057
					c2.088,2.069,0.397,4.033-1.781,3.623C379.633,174.275,364.575,175.025,364.575,175.025z"/>
				<g id="XMLID_423_">
					<path id="XMLID_302_" fill="none" stroke="#001C45" stroke-width="0.5788" stroke-linecap="round" stroke-miterlimit="10" d="
						M360.463,172.716c0,0,3.606-0.01,4.588,2.028"/>
					<path id="XMLID_304_" fill="none" stroke="#001C45" stroke-width="0.5788" stroke-linecap="round" stroke-miterlimit="10" d="
						M361.02,169.275c0,0,4.174,1.555,4.031,5.803"/>
				</g>
			</g>
		</g>
		<g id="XMLID_377_">
			<defs>
				<circle id="SVGID_5_" cx="371.653" cy="94.788" r="26.931"/>
			</defs>
			<use xlink:href="#SVGID_5_"  overflow="visible" fill="#E5F7FF"/>
			<clipPath id="SVGID_6_">
				<use xlink:href="#SVGID_5_"  overflow="visible"/>
			</clipPath>
			<g id="XMLID_379_" clip-path="url(#SVGID_6_)">
				<g id="XMLID_460_">
					<g id="XMLID_522_">
						<path id="XMLID_526_" fill="#001C45" d="M382.287,93.21c0,0,3.1-14.708-10.635-14.708c-13.735,0-10.988,14.708-10.988,14.708
							H382.287z"/>
						
							<ellipse id="XMLID_525_" transform="matrix(-0.994 0.1096 -0.1096 -0.994 746.6855 115.5356)" fill="#001C45" cx="370.169" cy="78.28" rx="5.746" ry="4.764"/>
					</g>
					<g id="XMLID_518_">
						<path id="XMLID_521_" fill="#BA5964" d="M362.204,93.014c0,0-1.805-0.771-2.896,0.452c-1.091,1.223-0.555,4.003,1.318,4.809
							c1.794,0.772,2.611-0.16,2.611-0.16L362.204,93.014z"/>
						<path id="XMLID_520_" fill="#893A47" d="M360.314,93.962c0.473-0.141,1.168-0.077,1.542,0.261
							c0.138,0.125-0.124,0.351-0.26,0.291c-0.771-0.336-1.732-0.431-2.172,0.467c-0.024,0.048-0.055-0.005-0.047-0.038
							C359.506,94.442,359.808,94.112,360.314,93.962z"/>
						<path id="XMLID_519_" fill="#893A47" d="M360.677,94.056c0.09-0.036,0.276,0.193,0.255,0.252
							c-0.131,0.053-0.344,0.188-0.451,0.354c-0.184,0.285-0.245,0.537-0.237,0.88c0.02,0.789,0.429,1.377,1.185,1.598
							c0.014,0.004,0.034,0.045,0.012,0.049c-0.677,0.129-1.393-0.603-1.512-1.208C359.795,95.311,359.893,94.375,360.677,94.056z"
							/>
					</g>
					<g id="XMLID_514_">
						<path id="XMLID_517_" fill="#BA5964" d="M381.071,93.017c0,0,1.811-0.774,2.902,0.449c1.091,1.223,0.555,4.003-1.318,4.809
							c-1.794,0.772-2.611-0.16-2.611-0.16L381.071,93.017z"/>
						<path id="XMLID_516_" fill="#893A47" d="M382.966,93.962c-0.473-0.141-1.168-0.077-1.542,0.261
							c-0.138,0.125,0.124,0.351,0.26,0.291c0.771-0.336,1.732-0.431,2.172,0.467c0.023,0.048,0.055-0.005,0.047-0.038
							C383.774,94.442,383.472,94.112,382.966,93.962z"/>
						<path id="XMLID_515_" fill="#893A47" d="M382.603,94.056c-0.09-0.036-0.276,0.193-0.255,0.252
							c0.131,0.053,0.344,0.188,0.451,0.354c0.184,0.285,0.245,0.537,0.237,0.88c-0.02,0.789-0.429,1.377-1.185,1.598
							c-0.014,0.004-0.034,0.045-0.012,0.049c0.676,0.129,1.392-0.603,1.512-1.208C383.485,95.311,383.386,94.375,382.603,94.056z"
							/>
					</g>
					<g id="XMLID_511_">
						<polygon id="XMLID_513_" fill="#3ED9C7" points="381.855,112.625 377.146,108.773 366.039,108.773 361.422,112.625 						"/>
						<polygon id="XMLID_512_" fill="#228C7E" points="366.039,108.773 365.716,111.142 377.561,111.142 377.146,108.773 						"/>
					</g>
					<g id="XMLID_508_">
						<path id="XMLID_510_" fill="#BA5964" d="M352.942,121.719c0-4.138,0.656-6.61,2.826-7.316c0.989-0.322,6.913-2.17,8.779-2.725
							c1.867-0.555,2.374-1.665,2.374-2.624c0-0.959,0-4.233,0-4.233h9.463c0,0,0,3.274,0,4.233c0,0.959,0.508,2.069,2.374,2.624
							c1.867,0.555,7.79,2.403,8.779,2.725c2.17,0.706,2.826,3.179,2.826,7.316H352.942z"/>
						<path id="XMLID_509_" fill="#893A47" d="M366.921,106.05c0.005,0.013,0.931,2.723,4.731,2.723
							c3.801,0,4.727-2.711,4.732-2.723c0-0.697,0-1.228,0-1.228h-9.463C366.921,104.821,366.921,105.353,366.921,106.05z"/>
					</g>
					<g id="XMLID_501_">
						<path id="XMLID_507_" fill="#FABA50" d="M367.12,116.886c0,0,1.745,1.073,4.533,1.073s4.517-1.073,4.517-1.073l-1.284,4.833
							h-6.496L367.12,116.886z"/>
						<g id="XMLID_502_">
							<path id="XMLID_506_" fill="#228C7E" d="M365.638,111.797c0-0.216,0.024-0.427,0.071-0.63
								c-0.311,0.198-0.694,0.373-1.162,0.512c-1.867,0.555-7.79,2.403-8.779,2.725c-2.17,0.706-2.826,3.179-2.826,7.316h15.449
								l-1.982-7.671C365.181,113.495,365.638,112.692,365.638,111.797z"/>
							<path id="XMLID_505_" fill="#228C7E" d="M387.538,114.403c-0.989-0.322-6.913-2.17-8.779-2.725
								c-0.488-0.145-0.881-0.329-1.198-0.537c0.051,0.211,0.078,0.43,0.078,0.655c0,0.896,0.437,1.698-0.791,2.252l-1.962,7.671
								h15.477C390.364,117.582,389.708,115.109,387.538,114.403z"/>
							<polygon id="XMLID_504_" fill="#3ED9C7" points="377.561,111.142 381.855,112.625 380.267,114.691 377.476,115.46 
								379.675,117.139 374.886,121.719 							"/>
							<polygon id="XMLID_503_" fill="#3ED9C7" points="365.716,111.142 361.422,112.625 363.01,114.691 365.801,115.46 
								363.602,116.787 368.39,121.719 							"/>
						</g>
					</g>
					<path id="XMLID_500_" fill="#BA5964" d="M376.076,82.937c-1.362-0.78-2.886-1.237-4.437-1.237
						c-1.551,0-3.075,0.457-4.437,1.237c-3.185,1.825-5.028,5.266-5.024,8.877c0,0.011,0,0.022,0,0.034
						c0.001,1.018,0.06,2.036,0.179,3.047l0.167,1.431c0.131,1.121,0.345,2.233,0.692,3.306c1.369,4.238,5.147,7.419,8.424,7.419
						c3.276,0,7.055-3.181,8.424-7.419c0.347-1.074,0.56-2.186,0.692-3.306l0.168-1.431c0.12-1.024,0.18-2.055,0.179-3.085
						c0-0.005,0-0.011,0-0.016C381.097,88.19,379.255,84.759,376.076,82.937z"/>
					<g id="XMLID_488_">
						<circle id="XMLID_492_" fill="#001C45" cx="375.906" cy="94.237" r="0.991"/>
						<path id="XMLID_491_" fill="#001C45" d="M373.954,91.69l4.6,1.179c0,0-0.185-1.539-1.769-1.926
							C374.859,90.471,373.954,91.69,373.954,91.69z"/>
						<circle id="XMLID_490_" fill="#001C45" cx="367.4" cy="94.237" r="0.991"/>
						<path id="XMLID_489_" fill="#001C45" d="M369.351,91.69l-4.6,1.179c0,0,0.185-1.539,1.769-1.926
							C368.447,90.471,369.351,91.69,369.351,91.69z"/>
					</g>
					<g id="XMLID_464_">
						<path id="XMLID_473_" fill="#001C45" d="M362.078,89.389h6.312c0,0,0.21-2.821,1.526-5.249v5.249h4.703V84.14
							c0,0,1.286,3.075,1.286,5.249h5.297c0,0-0.503-8.644-9.562-8.644C362.581,80.744,362.078,89.389,362.078,89.389z"/>
					</g>
				</g>
				<path id="XMLID_8_" fill="#893A47" d="M371.653,93.246c-0.387,0.033-1.378,4.49-0.971,5.251
					c0.168,0.315,0.666,0.627,0.971,0.595c0.304,0.033,0.802-0.28,0.971-0.595C373.031,97.737,372.04,93.279,371.653,93.246z"/>
				<g id="XMLID_430_">
					<path id="XMLID_435_" fill="none" stroke="#001C45" stroke-width="0.5788" stroke-linecap="round" stroke-miterlimit="10" d="
						M376.142,74.206c0,0,1.292,3.367-0.264,5.009"/>
					<path id="XMLID_431_" fill="none" stroke="#001C45" stroke-width="0.5788" stroke-linecap="round" stroke-miterlimit="10" d="
						M379.556,74.206c0,0,0.031,4.454-3.99,5.832"/>
				</g>
			</g>
		</g>
		<g id="XMLID_936_">
			<g id="XMLID_667_">
				<g id="XMLID_7_">
					<path id="XMLID_51_" fill="#BA5964" d="M168.529,193.844l12.739-3.589c0,0,0.163-4.488,1.869-7.386
						c1.911-3.246,2.321-5.841,3.268-4.74c0.965,1.123,0.872,2.045,0.132,4.117c-0.74,2.072,0.13,4.252,0.13,4.252l6.758-7.927
						c0,0-0.864,4.734-2.581,9.403c-1.302,3.542-2.684,5.553-7.101,8.183c-5.238,3.119-12.974,5.753-12.974,5.753L168.529,193.844z"
						/>
					<path id="XMLID_821_" fill="#228C7E" d="M147.84,161.902c3.503,2.966,3.192,4.801,6.656,16.014
						c2.935,9.501,5.121,17.962,5.121,17.962l9.826-2.779l1.289,9.173c0,0-14.488,6.544-17.889,5.625
						c-4.245-1.147-15.59-38.579-15.59-38.579C136.371,162.676,143.21,157.469,147.84,161.902z"/>
					<path id="XMLID_52_" fill="none" stroke="#AAEEED" stroke-width="1.05" stroke-linecap="round" stroke-miterlimit="10" d="
						M169.529,193.373c0,0,1.202,3.473,1.202,8.9"/>
				</g>
				<g id="XMLID_784_">
					<path id="XMLID_801_" fill="#8FC9C6" d="M168.909,366.026c0.434,0.818,0.104,2.468-3.176,3.833
						c-3.28,1.364-9.212,0.786-11.568,0.323s-3.791-1.148-7.281-0.418c-3.49,0.73-9.207,0.411-10.94-1.053
						c-0.601-0.694-0.196-2.13-0.196-2.13L168.909,366.026z"/>
					<g id="XMLID_788_">
						<defs>
							<path id="SVGID_7_" d="M137.619,355.815c-0.478,2.394-2.429,8.031-1.871,10.766c2.452,2.075,7.701,2.217,11.637,1.224
								c3.937-0.993,6.706,1.025,11.645,1.315c4.847,0.284,8.889-1.064,9.878-3.094c1.079-2.214-7.388-3.927-13.157-5.7
								c-6.456-1.984-9.791-5.166-9.791-5.166L137.619,355.815z"/>
						</defs>
						<use xlink:href="#SVGID_7_"  overflow="visible" fill="#228C7E"/>
						<clipPath id="SVGID_8_">
							<use xlink:href="#SVGID_7_"  overflow="visible"/>
						</clipPath>
						
							<path id="XMLID_798_" clip-path="url(#SVGID_8_)" fill="none" stroke="#8FC9C6" stroke-width="0.525" stroke-linecap="round" stroke-miterlimit="10" d="
							M147.916,360.443c0,0,1.16-3.255,2.713-4.308"/>
						
							<path id="XMLID_795_" clip-path="url(#SVGID_8_)" fill="none" stroke="#8FC9C6" stroke-width="0.525" stroke-linecap="round" stroke-miterlimit="10" d="
							M152.308,362.185c0,0,1.16-3.255,2.713-4.308"/>
						
							<path id="XMLID_792_" clip-path="url(#SVGID_8_)" fill="none" stroke="#8FC9C6" stroke-width="0.525" stroke-linecap="round" stroke-miterlimit="10" d="
							M156.699,363.927c0,0,1.16-3.255,2.712-4.308"/>
					</g>
					<path id="XMLID_785_" fill="#FF9A8D" d="M137.148,346.949l0.471,8.866c0,0,1.105,0.367,1.567,0.91
						c0.462,0.543,1.093,2.344,1.87,2.376c3.083,0.127,4.904-3.94,4.904-3.94v-9.154L137.148,346.949z"/>
				</g>
				<g id="XMLID_768_">
					<path id="XMLID_954_" fill="#AAEEED" d="M88.819,368.134c-0.553,0.743-2.185,1.152-4.824-1.227s-4.658-7.986-5.251-10.313
						c-0.592-2.327-0.588-3.918-2.744-6.758c-2.156-2.84-4.318-8.142-3.738-10.335c0.369-0.84,1.84-1.09,1.84-1.09L88.819,368.134z"
						/>
					<g id="XMLID_772_">
						<defs>
							<path id="SVGID_9_" d="M84.632,335.487c-2.367,0.594-8.297,1.248-10.529,2.925c-0.824,3.105,1.298,7.908,3.883,11.039
								c2.585,3.131,1.948,6.498,3.804,11.085c1.821,4.501,4.772,7.575,7.029,7.599c2.463,0.026,0.381-8.358-0.49-14.33
								c-0.975-6.683,0.47-11.06,0.47-11.06L84.632,335.487z"/>
						</defs>
						<use xlink:href="#SVGID_9_"  overflow="visible" fill="#03AA99"/>
						<clipPath id="SVGID_10_">
							<use xlink:href="#SVGID_9_"  overflow="visible"/>
						</clipPath>
						
							<path id="XMLID_951_" clip-path="url(#SVGID_10_)" fill="none" stroke="#AAEEED" stroke-width="0.525" stroke-linecap="round" stroke-miterlimit="10" d="
							M84.865,346.774c0,0,3.438-0.347,5.055,0.604"/>
						
							<path id="XMLID_947_" clip-path="url(#SVGID_10_)" fill="none" stroke="#AAEEED" stroke-width="0.525" stroke-linecap="round" stroke-miterlimit="10" d="
							M85.173,351.489c0,0,3.438-0.347,5.055,0.604"/>
						
							<path id="XMLID_800_" clip-path="url(#SVGID_10_)" fill="none" stroke="#AAEEED" stroke-width="0.525" stroke-linecap="round" stroke-miterlimit="10" d="
							M85.482,356.203c0,0,3.438-0.347,5.055,0.604"/>
					</g>
					<path id="XMLID_769_" fill="#FF9A8D" d="M89.928,330.047l-5.296,5.44c0,0,0.142,1.156-0.15,1.806
						c-0.293,0.65-1.649,1.993-1.345,2.708c1.207,2.84,5.662,2.742,5.662,2.742l7.642-5.997L89.928,330.047z"/>
				</g>
				<path id="XMLID_778_" fill="#1E4174" d="M155.501,210.236c-10.694,0-19.843,0.805-19.843,0.805
					c-3.42,1.497-9.289,9.27-11.017,14.205c-1.731,4.944-1.025,13.184-0.123,17.429c5.021,23.649,9.422,37.967,11.372,47.344
					c1.193,5.735-4.697,8.405-3.791,18.833c1.126,12.957,5.048,38.098,5.048,38.098s4.074,2.267,8.801,0.101
					c0,0,4.811-46.396,5.429-51.666c0.832-7.093,1.85-11.672,2.622-26.337C155.036,249.366,155.501,210.236,155.501,210.236z"/>
				<line id="XMLID_770_" fill="#FF9A8D" x1="145.949" y1="347.05" x2="152.074" y2="290.019"/>
				<path id="XMLID_771_" fill="#85B8ED" d="M96.441,336.746c0,0,41.23-30.211,43.721-32.965c2.491-2.753,3.933-66.081,4.589-70.146
					c0,0,10.448-14.856,10.75-23.399l-21.829-2.805c-1.395,5.241-8.771,5.308-14.379,17.842c-4.884,10.917,2.613,41.113,5.14,71.119
					c0,0-4.318,0.056-9.51,3.764c-4.764,3.403-24.995,29.891-24.995,29.891S91.46,335.092,96.441,336.746z"/>
				<path id="XMLID_53_" fill="#4E7EAC" d="M133.672,207.43c-1.395,5.241-8.771,5.308-14.379,17.842
					c-4.884,10.917,2.613,41.113,5.14,71.119c0,0-4.318,0.056-9.51,3.764c-4.764,3.403-24.995,29.892-24.995,29.892
					s0.458,1.487,1.667,3.111c4.165-5.237,15.35-17.835,21.888-24.642c8.661-9.018,14.21-9.304,14.625-11.217
					c0.415-1.913-0.024-30.217-1.517-47.886c-1.493-17.669,0-24.819,5.169-31.238c3.579-4.445,5.388-9.109,5.388-9.109
					c8.173,6.643,15.933,4.965,17.852,4.402c0.28-1.14,0.466-2.232,0.501-3.233L133.672,207.43z"/>
				<g id="XMLID_6_">
					<defs>
						<path id="SVGID_11_" d="M96.441,336.746c0,0,41.23-30.211,43.721-32.965c2.491-2.753,3.933-66.081,4.589-70.146
							c0,0,10.448-14.856,10.75-23.399l-21.829-2.805c-1.395,5.241-8.771,5.308-14.379,17.842
							c-4.884,10.917,2.613,41.113,5.14,71.119c0,0-4.318,0.056-9.51,3.764c-4.764,3.403-24.995,29.891-24.995,29.891
							S91.46,335.092,96.441,336.746z"/>
					</defs>
					<clipPath id="SVGID_12_">
						<use xlink:href="#SVGID_11_"  overflow="visible"/>
					</clipPath>
					
						<path id="XMLID_376_" clip-path="url(#SVGID_12_)" fill="none" stroke="#274D79" stroke-width="0.525" stroke-miterlimit="10" d="
						M145.679,204.564c-4.789,9.055-11.846,15.281-14.166,21.318c-2.319,6.037-1.44,18.253-0.999,40.561
						c0.434,21.912,0.951,31.91,0.008,33.406c-0.943,1.496-7.324,2.946-17.323,12.568c-9.999,9.621-22.434,24.329-22.434,24.329"/>
					
						<path id="XMLID_781_" clip-path="url(#SVGID_12_)" fill="none" stroke="#274D79" stroke-width="0.525" stroke-miterlimit="10" d="
						M152.074,206.383c0,0-1.304,15.853-16.348,12.525"/>
					
						<path id="XMLID_782_" clip-path="url(#SVGID_12_)" fill="none" stroke="#274D79" stroke-width="0.525" stroke-miterlimit="10" d="
						M91.516,325.404c0.698,3.628,4.186,8.449,9.35,10.434"/>
				</g>
				<path id="XMLID_765_" fill="#FFB852" d="M136.422,157.819c0,0-3.453,1.669-6.331,5.084c-2.455,3.388-3.585,13.479-2.155,21.28
					c0.872,4.755,7.017,18.91,4.455,25c0,0,14.498,4.874,24.042,1.053c0.567-2.863,0.45-8.071,0.826-16.831
					c1.851-2.01,3.688-5.702,3.854-8.093c0.621-8.899-7.432-12.494-13.975-17.723c-2.637-2.107-4.634-6.428-7.268-8.446
					C138.143,157.819,136.422,157.819,136.422,157.819z"/>
				<g id="XMLID_383_">
					<path id="XMLID_762_" fill="#FF9A8D" d="M142.325,148.049l-4.095,3.641l-1.808,6.129c0,0,2.571,1.721,3.561,3.213
						c1.206,1.817,3.907,6.186,7.156,6.557c0,0-0.327-3.94,0.165-6.061c0.491-2.122,1.974-6.33,1.974-6.33L142.325,148.049z"/>
					<path id="XMLID_759_" fill="#BA5964" d="M142.325,148.049c0,0-0.881,3.431-0.733,5.171c0.148,1.74,1.687,5.359,5.711,8.308
						c0.491-2.122,1.974-6.33,1.974-6.33L142.325,148.049z"/>
					<path id="XMLID_749_" fill="#BA5964" d="M159.556,140.335c0.767,2.755,3.923,6.617,3.235,7.305
						c-0.571,0.571-3.259,0.443-3.259,0.443s-1.976-1.905-1.307-4.578C158.894,140.831,159.556,140.335,159.556,140.335z"/>
					<path id="XMLID_746_" fill="#FF9A8D" d="M152.697,123.115c3.811,0.347,7.633,5.629,7.561,10.435
						c-0.072,4.806-1.183,7.419-0.877,10.813c0.305,3.395,0.285,6.665-1.141,10.223c-0.949,2.367-3.419,2.9-6.708,2.107
						c-3.014-0.727-7.13-3.627-8.078-4.54c-0.948-0.913-1.128-4.104-1.128-4.104s-4.496-0.661-6.556-4.775
						C133.708,139.16,134.081,121.419,152.697,123.115z"/>
					<path id="XMLID_742_" fill="#001C45" d="M142.325,148.049c0,0-4.104-1.608-3.738-6.167c0.375-4.681,6.68-4.848,6.423-0.728
						c0,0,3.667-0.325,4.72-1.936c1.053-1.611,2.074-9.592,2.074-9.592s1.254,1.971,1.903,4.794
						c0.649,2.822,2.757,3.168,6.434,1.422c3.677-1.746,6.257-5.241,6.965-8.629c0,0-3.027-0.081-4.798-1.081
						c0,0,4.158-0.146,5.887-2.797c0,0-4.146,1.807-6.84,0.385c-2.694-1.422-6.65-4.957-11.68-4.347
						c-5.03,0.61-7.858,3.71-7.858,3.71s-4.704-1.957-8.224,0.822c-3.519,2.78-6.001,9.959-2.979,17.393
						c3.017,7.422,7.616,10.394,7.616,10.394L142.325,148.049z"/>
					<path id="XMLID_694_" fill="#001C45" d="M132.605,125.337c0,0-4.18-5.159-10.096-3.647c-5.464,1.396-8.925,5.668-8.829,13.857
						c0.098,8.419,10.944,20.452,1.693,27.779c0,0,13.811,0.196,10.428-16.578c-2.584-12.81,1.926-17.902,5.822-16.309
						L132.605,125.337z"/>
					<g id="XMLID_886_">
						<g id="XMLID_675_">
							<circle id="XMLID_691_" fill="#001C45" cx="155.139" cy="141.595" r="1.104"/>
							<path id="XMLID_690_" fill="#001C45" d="M157.151,138.638l-5.045,1.601c0,0,0.109-1.724,1.848-2.255
								C156.068,137.339,157.151,138.638,157.151,138.638z"/>
						</g>
						<path id="XMLID_672_" fill="#BA5964" d="M141.183,140.902c0.684-0.246,1.711-0.21,2.288,0.256
							c0.214,0.173-0.153,0.526-0.359,0.45c-1.161-0.431-2.582-0.491-3.155,0.867c-0.031,0.073-0.082-0.003-0.072-0.052
							C140.035,141.674,140.452,141.165,141.183,140.902z"/>
						<path id="XMLID_669_" fill="#BA5964" d="M141.725,141.01c0.129-0.061,0.422,0.26,0.395,0.35
							c-0.189,0.089-0.49,0.304-0.634,0.558c-0.246,0.435-0.316,0.81-0.275,1.314c0.094,1.158,0.744,1.989,1.874,2.251
							c0.021,0.005,0.054,0.063,0.021,0.072c-0.984,0.245-2.097-0.771-2.323-1.651C140.533,142.928,140.599,141.544,141.725,141.01z
							"/>
					</g>
				</g>
				<path id="XMLID_737_" fill="#3ED9C7" d="M134.353,158.149l2.384-1.357c0,0,9.641,11.256,10.782,19.905
					c0.813,6.165-3.291,29.257-3.291,29.257s-11.284,0.896-17.128-3.274c0,0,3.41-5.516,1.511-13.651
					c-1.058-4.534-1.921-8.498-2.015-14.004C126.485,168.539,128.661,162.914,134.353,158.149z"/>
				<g id="XMLID_384_">
					<path id="XMLID_387_" fill="#03AA99" d="M145.679,197.039l-14.166-14.521c0,0.002,0,0.004,0,0.005
						c0.064,0.155,7.348,17.866,9.652,23.506c1.837,0.018,3.062-0.076,3.062-0.076S144.92,202.057,145.679,197.039z"/>
					<path id="XMLID_731_" fill="#3ED9C7" d="M137.784,162.678c-4.905,1.731-11.079,9.16-7.888,16.583
						c2.654,6.173,14.068,27.026,16.042,28.485c1.582,1.169,17.451-4.855,21.675-5.878c0,0-0.846-4.487-2.24-8.423l-13.666,2.806
						c0,0-2.198-4.69-4.553-10.422C143.902,177.911,139.977,167.726,137.784,162.678z"/>
					<path id="XMLID_390_" fill="#001C45" d="M183.512,186.099c0.396-0.257,12.325-8.003,16.808-10.914
						c0.915-0.594,1.147-1.833,0.509-2.718l0,0c-0.6-0.833-1.752-1.043-2.607-0.475l-14.84,9.855
						C183.382,181.847,179.091,186.105,183.512,186.099z"/>
					<path id="XMLID_385_" fill="#FF9A8D" d="M165.374,193.445l12.739-3.589c0,0,0.163-4.488,1.869-7.386
						c1.911-3.246,2.321-5.842,3.268-4.74c0.965,1.123,0.872,2.045,0.132,4.117c-0.74,2.072,0.13,4.252,0.13,4.252l9.913-6.427
						c0,0-1.312,4.392-3.17,7.334c-2.015,3.191-3.413,5.637-8.742,8.598s-13.899,5.907-13.899,5.907L165.374,193.445z"/>
					<path id="XMLID_388_" fill="#03AA99" d="M147.155,185.829c0.043-0.405,0.082-0.805,0.12-1.199l-4.581-9.013L147.155,185.829z"
						/>
					<path id="XMLID_714_" fill="none" stroke="#AAEEED" stroke-width="1.05" stroke-linecap="round" stroke-miterlimit="10" d="
						M165.374,192.881c0,0,2.24,2.516,2.472,9.391"/>
				</g>
			</g>
			<g id="XMLID_712_">
				<path id="XMLID_940_" fill="#FFFFFF" d="M224.351,107.238h-83.111c-5.372,0-9.727-4.355-9.727-9.727l0,0
					c0-5.372,4.355-9.727,9.727-9.727h83.111c5.372,0,9.727,4.355,9.727,9.727l0,0C234.079,102.883,229.723,107.238,224.351,107.238
					z"/>
				<g id="XMLID_671_">
					<polygon id="XMLID_650_" fill="#FABA50" points="149.932,91.187 151.809,94.988 156.004,95.598 152.968,98.557 
						153.685,102.736 149.932,100.763 146.18,102.736 146.897,98.557 143.861,95.598 148.056,94.988 					"/>
					<polygon id="XMLID_711_" fill="#FABA50" points="166.563,91.187 168.439,94.988 172.635,95.598 169.599,98.557 
						170.316,102.736 166.563,100.763 162.81,102.736 163.527,98.557 160.491,95.598 164.687,94.988 					"/>
					<polygon id="XMLID_734_" fill="#FABA50" points="183.194,91.187 185.07,94.988 189.265,95.598 186.23,98.557 186.946,102.736 
						183.194,100.763 179.441,102.736 180.158,98.557 177.122,95.598 181.317,94.988 					"/>
					<polygon id="XMLID_907_" fill="#FABA50" points="199.824,91.187 201.701,94.988 205.896,95.598 202.86,98.557 203.577,102.736 
						199.824,100.763 196.072,102.736 196.788,98.557 193.752,95.598 197.948,94.988 					"/>
					<polygon id="XMLID_937_" fill="#FABA50" points="216.455,91.187 218.331,94.988 222.527,95.598 219.491,98.557 
						220.207,102.736 216.455,100.763 212.702,102.736 213.419,98.557 210.383,95.598 214.578,94.988 					"/>
				</g>
				<polygon id="XMLID_715_" fill="#FFFFFF" points="199.824,105.624 199.824,119.301 208.386,105.624 				"/>
			</g>
		</g>
		<g id="XMLID_741_">
			<g id="XMLID_825_">
				<g id="XMLID_615_">
					<path id="XMLID_893_" fill="#BA5964" d="M612.936,180.954l-10.663-4.164c0,0-0.163-3.63-1.753-6.015
						c-2.459-3.689-3.302-7.638-4.344-6.626c-1.061,1.032-0.791,2.908-0.239,5.038c0.552,2.13-0.509,4.223-0.509,4.223l-9.3-7.286
						c0,0-0.316,5.257,1.273,8.353c1.722,3.358,3.846,5.84,8.889,9.263c5.043,3.424,13.273,8.015,13.273,8.015L612.936,180.954z"/>
					<polygon id="XMLID_389_" fill="#228C7E" points="612.936,180.954 628.623,186.258 628.623,198.469 609.563,191.755 					"/>
					
						<line id="XMLID_394_" fill="none" stroke="#AAEEED" stroke-width="1.05" stroke-linecap="round" stroke-miterlimit="10" x1="613.063" y1="180.295" x2="609.659" y2="191.44"/>
				</g>
				<g id="XMLID_843_">
					<g id="XMLID_956_">
						<path id="XMLID_974_" fill="#8FC9C6" d="M615.644,366.026c-0.434,0.818-0.104,2.468,3.176,3.833
							c3.28,1.364,9.211,0.786,11.568,0.323c2.357-0.462,3.791-1.148,7.281-0.418c3.49,0.73,9.207,0.411,10.94-1.053
							c0.601-0.694,0.196-2.13,0.196-2.13L615.644,366.026z"/>
						<g id="XMLID_960_">
							<defs>
								<path id="SVGID_13_" d="M646.934,355.815c0.478,2.394,2.429,8.031,1.871,10.766c-2.453,2.075-7.701,2.217-11.637,1.224
									c-3.937-0.993-6.706,1.025-11.645,1.315c-4.847,0.284-8.889-1.064-9.878-3.094c-1.079-2.214,7.388-3.927,13.157-5.7
									c6.456-1.984,9.791-5.166,9.791-5.166L646.934,355.815z"/>
							</defs>
							<use xlink:href="#SVGID_13_"  overflow="visible" fill="#228C7E"/>
							<clipPath id="SVGID_14_">
								<use xlink:href="#SVGID_13_"  overflow="visible"/>
							</clipPath>
							
								<path id="XMLID_971_" clip-path="url(#SVGID_14_)" fill="none" stroke="#8FC9C6" stroke-width="0.525" stroke-linecap="round" stroke-miterlimit="10" d="
								M636.636,360.443c0,0-1.16-3.255-2.713-4.308"/>
							
								<path id="XMLID_968_" clip-path="url(#SVGID_14_)" fill="none" stroke="#8FC9C6" stroke-width="0.525" stroke-linecap="round" stroke-miterlimit="10" d="
								M632.245,362.185c0,0-1.16-3.255-2.713-4.308"/>
							
								<path id="XMLID_964_" clip-path="url(#SVGID_14_)" fill="none" stroke="#8FC9C6" stroke-width="0.525" stroke-linecap="round" stroke-miterlimit="10" d="
								M627.854,363.927c0,0-1.16-3.255-2.713-4.308"/>
						</g>
						<path id="XMLID_957_" fill="#FF9A8D" d="M646.934,346.266v9.549c0,0-1.105,0.367-1.567,0.91
							c-0.462,0.543-1.093,2.344-1.87,2.376c-3.084,0.127-4.904-3.94-4.904-3.94l-1.16-8.681L646.934,346.266z"/>
					</g>
					<g id="XMLID_915_">
						<path id="XMLID_932_" fill="#AAEEED" d="M693.984,368.134c0.553,0.743,2.185,1.152,4.824-1.227
							c2.638-2.378,4.658-7.986,5.251-10.313s0.588-3.918,2.744-6.758c2.156-2.84,4.318-8.142,3.738-10.335
							c-0.369-0.84-1.84-1.09-1.84-1.09L693.984,368.134z"/>
						<g id="XMLID_919_">
							<defs>
								<path id="SVGID_15_" d="M698.171,335.487c2.367,0.594,8.297,1.248,10.529,2.925c0.824,3.105-1.298,7.908-3.883,11.039
									c-2.585,3.131-1.948,6.498-3.804,11.085c-1.821,4.501-4.772,7.575-7.029,7.599c-2.463,0.026-0.381-8.358,0.49-14.33
									c0.975-6.683-0.47-11.06-0.47-11.06L698.171,335.487z"/>
							</defs>
							<use xlink:href="#SVGID_15_"  overflow="visible" fill="#03AA99"/>
							<clipPath id="SVGID_16_">
								<use xlink:href="#SVGID_15_"  overflow="visible"/>
							</clipPath>
							
								<path id="XMLID_929_" clip-path="url(#SVGID_16_)" fill="none" stroke="#AAEEED" stroke-width="0.525" stroke-linecap="round" stroke-miterlimit="10" d="
								M697.938,346.774c0,0-3.438-0.347-5.055,0.604"/>
							
								<path id="XMLID_926_" clip-path="url(#SVGID_16_)" fill="none" stroke="#AAEEED" stroke-width="0.525" stroke-linecap="round" stroke-miterlimit="10" d="
								M697.629,351.489c0,0-3.438-0.347-5.055,0.604"/>
							
								<path id="XMLID_923_" clip-path="url(#SVGID_16_)" fill="none" stroke="#AAEEED" stroke-width="0.525" stroke-linecap="round" stroke-miterlimit="10" d="
								M697.321,356.203c0,0-3.438-0.347-5.055,0.604"/>
						</g>
						<path id="XMLID_916_" fill="#FF9A8D" d="M692.874,330.047l5.297,5.44c0,0-0.142,1.156,0.15,1.806
							c0.293,0.65,1.649,1.993,1.345,2.708c-1.207,2.84-5.662,2.742-5.662,2.742l-7.642-5.997L692.874,330.047z"/>
					</g>
					<path id="XMLID_912_" fill="#1E4174" d="M628.49,210.236c10.694,0,18.654,0.805,18.654,0.805
						c3.42,1.497,9.289,9.27,11.017,14.205c1.731,4.944,1.025,13.184,0.124,17.429c-5.021,23.649-13.408,37.275-15.358,46.651
						c-1.193,5.735,4.486,2.653,4.486,17.192c0,13.006-0.479,40.733-0.479,40.733s-4.007,2.331-9.3,0.736
						c0,0-8.026-45.729-8.906-50.963c-1.427-8.486-1.919-12.046-2.079-26.73C626.424,249.642,628.49,210.236,628.49,210.236z"/>
					<path id="XMLID_908_" fill="#85B8ED" d="M686.361,336.746c0,0-41.23-30.211-43.721-32.965
						c-2.491-2.753-3.579-59.469-4.234-63.534c0,0-10.103-10.287-10.405-18.831l32.796-16.425c1.395,5.241,0.534,8.348,3.949,21.648
						c3.815,14.859-3.85,39.746-6.377,69.752c0,0,4.318,0.056,9.51,3.764c4.764,3.403,24.995,29.891,24.995,29.891
						S691.343,335.092,686.361,336.746z"/>
					<path id="XMLID_909_" fill="#4E7EAC" d="M692.877,330.045c0,0-0.465,1.485-1.663,3.112
						c-4.168-5.241-15.365-17.833-21.893-24.648c-8.657-9.015-14.22-9.301-14.631-11.215c-0.412-1.914,0.036-30.21,1.52-47.882
						c1.503-17.672,0-24.826-5.169-31.23c-1.806-2.254-3.166-4.561-4.06-6.278l13.808-6.922c1.395,5.259,0.536,8.353,3.953,21.661
						c3.828,14.864-3.846,39.744-6.368,69.739c0,0,0.608,0.018,1.628,0.215c0.698,0.143,1.574,0.376,2.594,0.733
						c1.002,0.376,2.146,0.894,3.38,1.592c0.626,0.358,1.252,0.769,1.896,1.234c1.055,0.751,2.826,2.594,4.972,5.026
						c4.007,4.525,9.247,11.072,13.379,16.312c0.626,0.805,1.234,1.574,1.807,2.307
						C690.891,327.469,692.877,330.045,692.877,330.045z"/>
					<path id="XMLID_866_" fill="#4E7EAC" d="M630.159,228.802c0,0,6.423,5.795,16.821,5.795c10.397,0,17.299-4.49,17.299-4.49
						l-2.883-6.972L630.159,228.802z"/>
					<g id="XMLID_890_">
						<defs>
							<path id="SVGID_17_" d="M686.361,336.746c0,0-41.23-30.211-43.721-32.965c-2.491-2.753-3.579-59.469-4.234-63.534
								c0,0-10.103-10.287-10.405-18.831l32.087-16.425c1.395,5.241,0.803,8.469,4.658,21.648
								c3.681,12.584-3.85,39.746-6.377,69.752c0,0,4.318,0.056,9.51,3.764c4.764,3.403,24.995,29.891,24.995,29.891
								S691.343,335.092,686.361,336.746z"/>
						</defs>
						<clipPath id="SVGID_18_">
							<use xlink:href="#SVGID_17_"  overflow="visible"/>
						</clipPath>
						
							<path id="XMLID_900_" clip-path="url(#SVGID_18_)" fill="none" stroke="#274D79" stroke-width="0.525" stroke-miterlimit="10" d="
							M637.123,204.564c4.789,9.055,11.846,15.281,14.166,21.318c2.319,6.037,1.44,18.253,0.999,40.561
							c-0.434,21.912-0.951,31.91-0.008,33.406c0.943,1.496,7.324,2.946,17.323,12.568c9.999,9.621,22.434,24.329,22.434,24.329"/>
						
							<path id="XMLID_899_" clip-path="url(#SVGID_18_)" fill="none" stroke="#274D79" stroke-width="0.525" stroke-miterlimit="10" d="
							M642.852,228.629c0,0,0.075,12.246,9.97,12.941"/>
						
							<path id="XMLID_898_" clip-path="url(#SVGID_18_)" fill="none" stroke="#274D79" stroke-width="0.525" stroke-miterlimit="10" d="
							M691.286,325.404c-0.698,3.628-4.186,8.449-9.35,10.434"/>
					</g>
				</g>
				<path id="XMLID_868_" fill="#10A297" d="M629.189,155.063c-0.692,0.743-0.918,2.173,0.303,6.537l15.274-12.842L629.189,155.063z
					"/>
				<g id="XMLID_305_">
					<path id="XMLID_865_" fill="#BA5964" d="M616.543,130.773c-0.316,1.236-2.265,6.65-2.94,8.252
						c-0.675,1.602,3.586,0.78,3.586,0.78L616.543,130.773z"/>
					<g id="XMLID_496_">
						<polygon id="XMLID_862_" fill="#FF9A8D" points="641.77,148.758 630.644,158.832 626.649,148.374 637.523,136.872 						"/>
						<path id="XMLID_859_" fill="#BA5964" d="M628.405,152.97c0,0,10.753-8.232,9.119-16.098l-10.874,11.503L628.405,152.97z"/>
					</g>
					<path id="XMLID_856_" fill="#FF9A8D" d="M637.489,136.868c0,0-0.237,1.74-0.611,3.096c-0.374,1.355-9.041,8.071-11.533,9.111
						c-2.492,1.039-6.067,1.477-7.803-7.329s-1.644-16.878,3.017-22.395c4.661-5.517,13.925-3.526,18.962,1.017
						C644.558,124.91,643.884,136.787,637.489,136.868z"/>
					<path id="XMLID_853_" fill="#001C45" d="M637.489,136.868L637.489,136.868l1.657,4.547c0,0,1.85-0.745,3.473-4.544
						c1.777-4.157,5.129-11.344,3.607-14.884c-1.996-4.645-8.013-4.831-8.013-4.831s-5.324-8.125-17.68-9.764
						c-12.356-1.639-14.989,7.701-4.861,11.203c0,0-5.068,4.6-0.718,5.788c4.349,1.188,14.913-2.081,14.913-2.081
						s-4.663,3.465-2.694,4.506c1.968,1.041,8.54-1.462,8.54-1.462l0.11,3.634c0,0,2.513-1.614,4.496-0.252
						C642.696,130.359,641.594,136.921,637.489,136.868z"/>
					<path id="XMLID_832_" fill="none" stroke="#001C45" stroke-width="0.7875" stroke-linecap="round" stroke-miterlimit="10" d="
						M636.384,106.474c0,0,5.282,6.188,0.456,12.705c0,0,6.1-1.925,5.767-8.129"/>
				</g>
				<path id="XMLID_869_" fill="#001C45" d="M597.923,175.836c-0.371-0.291-11.562-9.071-15.767-12.37
					c-0.859-0.674-0.979-1.928-0.264-2.753l0,0c0.672-0.777,1.838-0.883,2.639-0.241l13.901,11.14
					C598.432,171.613,602.326,176.237,597.923,175.836z"/>
				<path id="XMLID_850_" fill="#3ED9C7" d="M630.739,160.551c0,0-1.574-3.784-0.886-4.787c2.278-3.316,9.712-13.096,10.745-12.158
					c1.033,0.938,4.168,5.151,4.168,5.151L630.739,160.551z"/>
				<path id="XMLID_847_" fill="#3ED9C7" d="M629.492,161.6c-0.95,4.39-0.869,11.627-1.466,26.98
					c-0.384,9.876-1.377,38.532-1.377,38.532s7.561,4.956,20.262,3.94c12.132-0.971,17.368-6.936,17.368-6.936
					s-1.265-40.298-5.253-56.159c-5.891-16.355-14.26-19.199-14.26-19.199L629.492,161.6z"/>
				<path id="XMLID_804_" fill="#03AA99" d="M648.939,167.271l-11.247,29.027l-9.856-2.662c-0.163,4.424-0.273,8.423-0.463,13.786
					c2.327,1.012,5.164,1.998,8.68,2.984c3.084,0.864,3.927,0.282,5.165-1.813c3.129-5.297,13.107-30.721,13.107-30.721
					L648.939,167.271z"/>
				<path id="XMLID_841_" fill="#03AA99" d="M641.785,158.832c-2.014,1.724-2.95,3.395-4.833,8.836
					c-2.108,6.089-6.63,21.803-6.63,21.803l0.726,0.282L641.785,158.832z"/>
				<path id="XMLID_838_" fill="#3ED9C7" d="M652.196,155.142c-5.72-2.908-10.656,0.954-14.244,12.267
					c-3.41,10.75-6.904,22.344-6.904,22.344l-15.617-6.061l-3.373,10.491c0,0,14.571,9.098,21.046,11.407
					c6.367,2.271,7.599,0.681,17.301-19.098C657.636,171.751,661.559,159.901,652.196,155.142z"/>
				<path id="XMLID_835_" fill="#FF9A8D" d="M615.43,183.692l-10.663-4.476c0,0-0.162-3.63-1.752-6.015
					c-2.459-3.689-3.302-7.638-4.344-6.626c-1.061,1.032-0.791,2.908-0.239,5.038c0.552,2.13-0.509,4.223-0.509,4.223l-9.3-7.286
					c0,0-0.316,5.257,1.273,8.353c1.722,3.358,3.845,5.84,8.889,9.263c5.043,3.424,13.273,8.015,13.273,8.015L615.43,183.692z"/>
				<path id="XMLID_829_" fill="#03AA99" d="M644.766,148.758l-14.027,11.793l-1.247,1.048c-0.406,0.785-0.498,1.499-0.348,2.125
					L644.766,148.758z"/>
				
					<line id="XMLID_826_" fill="none" stroke="#AAEEED" stroke-width="1.05" stroke-linecap="round" stroke-miterlimit="10" x1="615.492" y1="183.009" x2="611.991" y2="194.919"/>
				<g id="XMLID_887_">
					<g id="XMLID_894_">
						<circle id="XMLID_896_" fill="#001C45" cx="622.455" cy="131.329" r="1.104"/>
						<path id="XMLID_895_" fill="#001C45" d="M620.444,128.373l5.045,1.601c0,0-0.109-1.724-1.848-2.255
							C621.526,127.073,620.444,128.373,620.444,128.373z"/>
					</g>
					<path id="XMLID_891_" fill="#BA5964" d="M639.274,130.164c-0.684-0.246-1.711-0.21-2.288,0.256
						c-0.214,0.172,0.154,0.526,0.359,0.45c1.161-0.431,2.582-0.491,3.155,0.867c0.03,0.073,0.082-0.003,0.072-0.052
						C640.423,130.937,640.005,130.427,639.274,130.164z"/>
					<path id="XMLID_888_" fill="#BA5964" d="M638.733,130.272c-0.129-0.061-0.422,0.26-0.395,0.35
						c0.189,0.088,0.49,0.304,0.634,0.558c0.246,0.435,0.316,0.81,0.275,1.314c-0.094,1.158-0.744,1.989-1.874,2.251
						c-0.021,0.005-0.054,0.063-0.021,0.072c0.984,0.246,2.097-0.771,2.323-1.651C639.925,132.19,639.858,130.806,638.733,130.272z"
						/>
				</g>
			</g>
			<g id="XMLID_906_">
				<path id="XMLID_999_" fill="#FFFFFF" d="M572.186,97.475h83.111c5.372,0,9.727-4.355,9.727-9.727l0,0
					c0-5.372-4.355-9.727-9.727-9.727h-83.111c-5.372,0-9.727,4.355-9.727,9.727l0,0C562.459,93.12,566.814,97.475,572.186,97.475z"
					/>
				<g id="XMLID_934_">
					<g id="XMLID_996_">
						<path fill="#FABA50" d="M646.605,82.61l1.406,2.848l0.122,0.247l0.273,0.04l3.143,0.457l-2.274,2.217l-0.198,0.193
							l0.047,0.272l0.537,3.13l-2.811-1.478l-0.244-0.128l-0.244,0.128l-2.811,1.478l0.537-3.13l0.047-0.272l-0.198-0.193
							l-2.274-2.217l3.143-0.457l0.273-0.04l0.122-0.247L646.605,82.61 M646.605,81.424l-1.876,3.802l-4.195,0.61l3.036,2.959
							l-0.717,4.179l3.753-1.973l3.753,1.973l-0.717-4.179l3.036-2.959l-4.196-0.61L646.605,81.424L646.605,81.424z"/>
					</g>
					<polygon id="XMLID_993_" fill="#FABA50" points="629.974,81.424 628.098,85.226 623.902,85.836 626.938,88.795 626.222,92.973 
						629.974,91.001 633.727,92.973 633.01,88.795 636.046,85.836 631.851,85.226 					"/>
					<polygon id="XMLID_990_" fill="#FABA50" points="613.344,81.424 611.467,85.226 607.272,85.836 610.308,88.795 609.591,92.973 
						613.344,91.001 617.096,92.973 616.38,88.795 619.416,85.836 615.22,85.226 					"/>
					<polygon id="XMLID_986_" fill="#FABA50" points="596.713,81.424 594.837,85.226 590.641,85.836 593.677,88.795 592.961,92.973 
						596.713,91.001 600.466,92.973 599.749,88.795 602.785,85.836 598.589,85.226 					"/>
					<polygon id="XMLID_935_" fill="#FABA50" points="580.083,81.424 578.206,85.226 574.011,85.836 577.047,88.795 576.33,92.973 
						580.083,91.001 583.835,92.973 583.119,88.795 586.155,85.836 581.959,85.226 					"/>
				</g>
				<polygon id="XMLID_911_" fill="#FFFFFF" points="596.713,95.861 596.713,109.539 588.151,95.861 				"/>
			</g>
		</g>
	</g>
</g>
<g id="Designed_by_Freepik">
</g>
</svg>
