<?xml version="1.0" encoding="utf-8"?>
<!-- Generator: Adobe Illustrator 17.0.0, SVG Export Plug-In . SVG Version: 6.00 Build 0)  -->
<!DOCTYPE svg PUBLIC "-//W3C//DTD SVG 1.1//EN" "http://www.w3.org/Graphics/SVG/1.1/DTD/svg11.dtd">
<svg version="1.1" id="Layer_1" xmlns="http://www.w3.org/2000/svg" xmlns:xlink="http://www.w3.org/1999/xlink" x="0px" y="0px"
	 width="339.896px" height="43.813px" viewBox="0 0 339.896 43.813" enable-background="new 0 0 339.896 43.813"
	 xml:space="preserve">
<g>
	<path fill="#FFFFFF" d="M272.059,21.906c0,11.459-9.45,20.835-21,20.835H21.886c-11.55,0-21-9.376-21-20.835s9.45-20.835,21-20.835
		h229.173C262.609,1.071,272.059,10.447,272.059,21.906z"/>
	<path fill="none" stroke="#CCCCCC" stroke-miterlimit="10" d="M272.059,21.906c0,11.459-9.45,20.835-21,20.835H21.886
		c-11.55,0-21-9.376-21-20.835s9.45-20.835,21-20.835h229.173C262.609,1.071,272.059,10.447,272.059,21.906z"/>
</g>
<text transform="matrix(1 0 0 1 18.7859 25.6155)" display="none" fill="#97A5B1" font-family="'NunitoSans-Regular'" font-size="12.5009">Search for companies and colleagues</text>
<g>
	<path fill="#97A5B1" d="M19.373,24.603l0.4-0.788c0.433,0.367,0.877,0.629,1.331,0.788c0.454,0.159,0.981,0.238,1.582,0.238
		c0.708,0,1.254-0.138,1.638-0.413c0.383-0.275,0.575-0.663,0.575-1.163c0-0.292-0.092-0.529-0.275-0.712
		c-0.184-0.184-0.425-0.329-0.725-0.438c-0.3-0.108-0.704-0.221-1.212-0.337c-0.684-0.158-1.244-0.325-1.682-0.5
		c-0.438-0.175-0.792-0.425-1.063-0.75s-0.406-0.75-0.406-1.275c0-0.5,0.131-0.944,0.394-1.332c0.262-0.388,0.637-0.688,1.125-0.9
		c0.487-0.212,1.052-0.319,1.694-0.319c0.608,0,1.177,0.096,1.706,0.288s0.977,0.467,1.344,0.825l-0.388,0.788
		c-0.417-0.358-0.84-0.619-1.269-0.781s-0.894-0.244-1.394-0.244c-0.684,0-1.219,0.144-1.606,0.431s-0.582,0.69-0.582,1.207
		c0,0.442,0.171,0.775,0.513,1s0.858,0.417,1.55,0.575c0.758,0.183,1.354,0.352,1.788,0.506c0.433,0.154,0.794,0.385,1.081,0.693
		c0.288,0.309,0.432,0.721,0.432,1.238c0,0.5-0.131,0.938-0.394,1.313c-0.262,0.375-0.64,0.665-1.131,0.869
		s-1.067,0.306-1.725,0.306C21.299,25.716,20.198,25.345,19.373,24.603z"/>
	<path fill="#97A5B1" d="M32.537,22.728h-4.451c0.033,0.708,0.225,1.244,0.575,1.606c0.35,0.362,0.846,0.543,1.488,0.543
		c0.708,0,1.358-0.241,1.95-0.725l0.337,0.737c-0.267,0.25-0.608,0.448-1.025,0.594c-0.417,0.146-0.842,0.219-1.275,0.219
		c-0.95,0-1.698-0.279-2.244-0.837c-0.546-0.558-0.819-1.329-0.819-2.313c0-0.625,0.121-1.177,0.362-1.657
		c0.242-0.479,0.582-0.852,1.019-1.119s0.935-0.4,1.494-0.4c0.808,0,1.442,0.265,1.9,0.793c0.458,0.529,0.688,1.256,0.688,2.182
		V22.728z M28.68,20.666c-0.321,0.333-0.511,0.804-0.569,1.413h3.538c-0.017-0.617-0.171-1.09-0.462-1.419
		c-0.292-0.329-0.7-0.494-1.225-0.494C29.428,20.166,29.001,20.332,28.68,20.666z"/>
	<path fill="#97A5B1" d="M38.231,19.972c0.379,0.396,0.569,0.998,0.569,1.806v3.838h-0.988v-1.038
		c-0.158,0.358-0.4,0.636-0.725,0.832c-0.325,0.196-0.7,0.293-1.125,0.293c-0.392,0-0.752-0.079-1.081-0.237
		c-0.33-0.158-0.59-0.379-0.781-0.663c-0.192-0.283-0.288-0.596-0.288-0.938c0-0.458,0.117-0.814,0.35-1.069
		c0.233-0.254,0.617-0.438,1.15-0.55c0.533-0.112,1.275-0.168,2.225-0.168h0.275v-0.413c0-0.508-0.104-0.877-0.313-1.106
		c-0.208-0.229-0.546-0.344-1.012-0.344c-0.7,0-1.396,0.217-2.088,0.65l-0.337-0.737c0.316-0.225,0.698-0.406,1.144-0.544
		c0.445-0.137,0.877-0.206,1.293-0.206C37.275,19.378,37.851,19.576,38.231,19.972z M37.331,24.397
		c0.321-0.337,0.481-0.773,0.481-1.307v-0.362h-0.225c-0.733,0-1.292,0.031-1.675,0.094s-0.656,0.167-0.819,0.313
		c-0.163,0.146-0.244,0.36-0.244,0.644c0,0.325,0.119,0.594,0.356,0.806c0.237,0.212,0.535,0.319,0.894,0.319
		C36.599,24.903,37.01,24.734,37.331,24.397z"/>
	<path fill="#97A5B1" d="M44.1,20.253l-0.663,0.063c-0.625,0.058-1.077,0.254-1.356,0.587c-0.279,0.333-0.419,0.746-0.419,1.238
		v3.475H40.65v-6.088h0.988v1.063c0.341-0.708,1.012-1.104,2.013-1.188l0.362-0.025L44.1,20.253z"/>
	<path fill="#97A5B1" d="M45.95,25.316c-0.442-0.258-0.781-0.623-1.019-1.094c-0.237-0.471-0.356-1.023-0.356-1.656
		s0.123-1.189,0.369-1.669c0.246-0.479,0.592-0.852,1.038-1.119s0.969-0.4,1.569-0.4c0.408,0,0.808,0.073,1.2,0.219
		c0.392,0.146,0.708,0.339,0.95,0.581l-0.337,0.75c-0.575-0.466-1.158-0.7-1.75-0.7c-0.625,0-1.113,0.204-1.462,0.612
		c-0.35,0.409-0.525,0.983-0.525,1.725c0,0.733,0.175,1.3,0.525,1.7c0.35,0.4,0.837,0.6,1.462,0.6c0.592,0,1.175-0.233,1.75-0.7
		l0.337,0.75c-0.258,0.242-0.583,0.434-0.975,0.575c-0.392,0.142-0.796,0.212-1.212,0.212C46.912,25.703,46.391,25.574,45.95,25.316
		z"/>
	<path fill="#97A5B1" d="M56.175,21.791v3.825h-1.013v-3.763c0-0.567-0.11-0.979-0.331-1.238c-0.221-0.258-0.573-0.387-1.057-0.387
		c-0.558,0-1.004,0.171-1.337,0.512c-0.333,0.342-0.5,0.805-0.5,1.388v3.488h-1.013v-8.813h1.013v3.7
		c0.2-0.367,0.477-0.646,0.831-0.837c0.354-0.192,0.761-0.288,1.219-0.288C55.446,19.378,56.175,20.182,56.175,21.791z"/>
	<path fill="#97A5B1" d="M62.601,19.528h1.725v0.8h-1.725v5.288h-1.013v-5.288h-1.188v-0.8h1.188v-0.2
		c0-0.808,0.202-1.421,0.606-1.837s1.027-0.65,1.869-0.7l0.5-0.025l0.075,0.788l-0.575,0.038c-0.509,0.033-0.879,0.177-1.113,0.431
		s-0.35,0.644-0.35,1.169V19.528z"/>
	<path fill="#97A5B1" d="M66.295,25.316c-0.438-0.258-0.775-0.627-1.013-1.106c-0.237-0.479-0.356-1.036-0.356-1.669
		s0.119-1.189,0.356-1.669c0.238-0.479,0.575-0.848,1.013-1.106c0.438-0.258,0.944-0.387,1.519-0.387
		c0.575,0,1.083,0.129,1.525,0.387c0.442,0.259,0.781,0.627,1.019,1.106c0.237,0.479,0.356,1.036,0.356,1.669
		s-0.119,1.19-0.356,1.669c-0.238,0.479-0.577,0.848-1.019,1.106s-0.95,0.387-1.525,0.387
		C67.239,25.703,66.733,25.574,66.295,25.316z M69.195,24.272c0.321-0.396,0.481-0.973,0.481-1.731c0-0.742-0.162-1.314-0.487-1.719
		s-0.784-0.606-1.375-0.606c-0.592,0-1.05,0.202-1.375,0.606c-0.325,0.404-0.488,0.977-0.488,1.719c0,0.75,0.16,1.325,0.481,1.725
		c0.321,0.4,0.781,0.6,1.381,0.6S68.874,24.668,69.195,24.272z"/>
	<path fill="#97A5B1" d="M75.676,20.253l-0.663,0.063c-0.625,0.058-1.077,0.254-1.356,0.587c-0.279,0.333-0.419,0.746-0.419,1.238
		v3.475h-1.013v-6.088h0.988v1.063c0.341-0.708,1.012-1.104,2.013-1.188l0.362-0.025L75.676,20.253z"/>
	<path fill="#97A5B1" d="M80.877,25.316c-0.442-0.258-0.781-0.623-1.019-1.094c-0.237-0.471-0.356-1.023-0.356-1.656
		s0.123-1.189,0.369-1.669c0.246-0.479,0.592-0.852,1.038-1.119s0.969-0.4,1.569-0.4c0.408,0,0.808,0.073,1.2,0.219
		c0.392,0.146,0.708,0.339,0.95,0.581l-0.337,0.75c-0.575-0.466-1.158-0.7-1.75-0.7c-0.625,0-1.113,0.204-1.462,0.612
		c-0.35,0.409-0.525,0.983-0.525,1.725c0,0.733,0.175,1.3,0.525,1.7c0.35,0.4,0.837,0.6,1.462,0.6c0.592,0,1.175-0.233,1.75-0.7
		l0.337,0.75c-0.258,0.242-0.583,0.434-0.975,0.575c-0.392,0.142-0.796,0.212-1.212,0.212C81.84,25.703,81.319,25.574,80.877,25.316
		z"/>
	<path fill="#97A5B1" d="M86.859,25.316c-0.438-0.258-0.775-0.627-1.013-1.106c-0.237-0.479-0.356-1.036-0.356-1.669
		s0.119-1.189,0.356-1.669c0.238-0.479,0.575-0.848,1.013-1.106c0.438-0.258,0.944-0.387,1.519-0.387
		c0.575,0,1.083,0.129,1.525,0.387c0.442,0.259,0.781,0.627,1.019,1.106c0.237,0.479,0.356,1.036,0.356,1.669
		s-0.119,1.19-0.356,1.669c-0.238,0.479-0.577,0.848-1.019,1.106s-0.95,0.387-1.525,0.387
		C87.802,25.703,87.296,25.574,86.859,25.316z M89.759,24.272c0.321-0.396,0.481-0.973,0.481-1.731c0-0.742-0.162-1.314-0.487-1.719
		s-0.784-0.606-1.375-0.606c-0.592,0-1.05,0.202-1.375,0.606c-0.325,0.404-0.488,0.977-0.488,1.719c0,0.75,0.16,1.325,0.481,1.725
		c0.321,0.4,0.781,0.6,1.381,0.6S89.438,24.668,89.759,24.272z"/>
	<path fill="#97A5B1" d="M101.591,21.791v3.825h-1.013V21.84c0-0.558-0.098-0.966-0.294-1.225c-0.196-0.258-0.51-0.387-0.944-0.387
		c-0.508,0-0.908,0.171-1.2,0.512c-0.292,0.342-0.438,0.809-0.438,1.4v3.475h-1.013V21.84c0-0.566-0.1-0.977-0.3-1.231
		c-0.2-0.254-0.517-0.381-0.95-0.381c-0.509,0-0.909,0.171-1.2,0.512c-0.292,0.342-0.438,0.809-0.438,1.4v3.475H92.79v-6.088h1
		v0.962c0.184-0.358,0.438-0.633,0.763-0.825c0.325-0.192,0.7-0.288,1.125-0.288c0.942,0,1.563,0.4,1.863,1.2
		c0.175-0.375,0.441-0.668,0.8-0.881c0.358-0.213,0.767-0.319,1.225-0.319C100.916,19.378,101.591,20.182,101.591,21.791z"/>
	<path fill="#97A5B1" d="M107.916,19.778c0.408,0.267,0.725,0.64,0.95,1.119c0.225,0.479,0.338,1.036,0.338,1.669
		s-0.113,1.186-0.338,1.656c-0.225,0.471-0.54,0.836-0.944,1.094s-0.877,0.387-1.418,0.387c-0.475,0-0.89-0.104-1.244-0.313
		c-0.354-0.208-0.623-0.504-0.806-0.888v3.363h-1.013v-8.338h1.013v1.05c0.183-0.383,0.452-0.679,0.806-0.887
		s0.769-0.313,1.244-0.313C107.037,19.378,107.507,19.511,107.916,19.778z M107.678,24.266c0.325-0.4,0.488-0.967,0.488-1.7
		s-0.163-1.306-0.488-1.719c-0.325-0.413-0.783-0.619-1.375-0.619s-1.048,0.2-1.369,0.6c-0.321,0.4-0.481,0.971-0.481,1.712
		s0.16,1.315,0.481,1.719c0.32,0.404,0.777,0.606,1.369,0.606S107.354,24.666,107.678,24.266z"/>
	<path fill="#97A5B1" d="M114.923,19.972c0.379,0.396,0.569,0.998,0.569,1.806v3.838h-0.988v-1.038
		c-0.158,0.358-0.4,0.636-0.725,0.832c-0.325,0.196-0.7,0.293-1.125,0.293c-0.392,0-0.752-0.079-1.081-0.237
		c-0.33-0.158-0.59-0.379-0.781-0.663c-0.192-0.283-0.288-0.596-0.288-0.938c0-0.458,0.117-0.814,0.35-1.069
		c0.233-0.254,0.617-0.438,1.15-0.55c0.533-0.112,1.275-0.168,2.225-0.168h0.275v-0.413c0-0.508-0.104-0.877-0.313-1.106
		c-0.208-0.229-0.546-0.344-1.012-0.344c-0.7,0-1.396,0.217-2.088,0.65l-0.337-0.737c0.316-0.225,0.698-0.406,1.144-0.544
		c0.445-0.137,0.877-0.206,1.293-0.206C113.966,19.378,114.543,19.576,114.923,19.972z M114.023,24.397
		c0.321-0.337,0.481-0.773,0.481-1.307v-0.362h-0.225c-0.733,0-1.292,0.031-1.675,0.094s-0.656,0.167-0.819,0.313
		c-0.163,0.146-0.244,0.36-0.244,0.644c0,0.325,0.119,0.594,0.356,0.806c0.237,0.212,0.535,0.319,0.894,0.319
		C113.291,24.903,113.702,24.734,114.023,24.397z"/>
	<path fill="#97A5B1" d="M122.592,21.791v3.825h-1.013v-3.763c0-0.567-0.11-0.979-0.331-1.238c-0.221-0.258-0.573-0.387-1.057-0.387
		c-0.558,0-1.004,0.171-1.337,0.512c-0.333,0.342-0.5,0.805-0.5,1.388v3.488h-1.013v-6.088h1v1c0.2-0.375,0.479-0.66,0.838-0.856
		c0.358-0.195,0.767-0.293,1.225-0.293C121.862,19.378,122.592,20.182,122.592,21.791z"/>
	<path fill="#97A5B1" d="M124.342,16.89h1.225v1.138h-1.225V16.89z M124.442,25.616v-6.088h1.013v6.088H124.442z"/>
	<path fill="#97A5B1" d="M132.443,22.728h-4.451c0.033,0.708,0.225,1.244,0.575,1.606c0.35,0.362,0.846,0.543,1.488,0.543
		c0.708,0,1.358-0.241,1.95-0.725l0.337,0.737c-0.267,0.25-0.608,0.448-1.025,0.594c-0.417,0.146-0.842,0.219-1.275,0.219
		c-0.95,0-1.698-0.279-2.244-0.837c-0.546-0.558-0.819-1.329-0.819-2.313c0-0.625,0.121-1.177,0.362-1.657
		c0.242-0.479,0.582-0.852,1.019-1.119c0.438-0.267,0.935-0.4,1.494-0.4c0.808,0,1.442,0.265,1.9,0.793
		c0.458,0.529,0.688,1.256,0.688,2.182V22.728z M128.586,20.666c-0.321,0.333-0.511,0.804-0.569,1.413h3.538
		c-0.017-0.617-0.171-1.09-0.462-1.419c-0.292-0.329-0.7-0.494-1.225-0.494C129.334,20.166,128.906,20.332,128.586,20.666z"/>
	<path fill="#97A5B1" d="M133.555,24.916l0.337-0.75c0.325,0.258,0.656,0.444,0.994,0.556c0.337,0.113,0.719,0.169,1.144,0.169
		c0.45,0,0.794-0.077,1.031-0.231c0.238-0.154,0.356-0.377,0.356-0.668c0-0.242-0.079-0.433-0.237-0.575
		c-0.159-0.142-0.421-0.254-0.788-0.337l-1.025-0.238c-0.517-0.116-0.913-0.316-1.188-0.6c-0.275-0.284-0.413-0.633-0.413-1.05
		c0-0.542,0.213-0.979,0.638-1.313s0.992-0.5,1.7-0.5c0.425,0,0.829,0.069,1.212,0.206c0.383,0.138,0.704,0.335,0.963,0.594
		l-0.338,0.738c-0.558-0.475-1.171-0.713-1.837-0.713c-0.425,0-0.756,0.082-0.994,0.244c-0.238,0.162-0.356,0.39-0.356,0.681
		c0,0.242,0.073,0.436,0.219,0.581c0.146,0.146,0.381,0.256,0.706,0.332l1.038,0.25c0.567,0.133,0.988,0.335,1.263,0.606
		c0.275,0.271,0.413,0.623,0.413,1.056c0,0.533-0.215,0.958-0.644,1.275c-0.429,0.317-1.015,0.475-1.756,0.475
		C134.967,25.703,134.155,25.441,133.555,24.916z"/>
	<path fill="#97A5B1" d="M147.362,19.972c0.379,0.396,0.569,0.998,0.569,1.806v3.838h-0.988v-1.038
		c-0.158,0.358-0.4,0.636-0.725,0.832c-0.325,0.196-0.7,0.293-1.125,0.293c-0.392,0-0.752-0.079-1.081-0.237
		c-0.33-0.158-0.59-0.379-0.781-0.663c-0.192-0.283-0.288-0.596-0.288-0.938c0-0.458,0.117-0.814,0.35-1.069
		c0.233-0.254,0.617-0.438,1.15-0.55c0.533-0.112,1.275-0.168,2.225-0.168h0.275v-0.413c0-0.508-0.104-0.877-0.313-1.106
		c-0.208-0.229-0.546-0.344-1.012-0.344c-0.7,0-1.396,0.217-2.088,0.65l-0.337-0.737c0.316-0.225,0.698-0.406,1.144-0.544
		c0.445-0.137,0.877-0.206,1.293-0.206C146.406,19.378,146.983,19.576,147.362,19.972z M146.462,24.397
		c0.321-0.337,0.481-0.773,0.481-1.307v-0.362h-0.225c-0.733,0-1.292,0.031-1.675,0.094s-0.656,0.167-0.819,0.313
		c-0.163,0.146-0.244,0.36-0.244,0.644c0,0.325,0.119,0.594,0.356,0.806c0.237,0.212,0.535,0.319,0.894,0.319
		C145.731,24.903,146.141,24.734,146.462,24.397z"/>
	<path fill="#97A5B1" d="M155.031,21.791v3.825h-1.013v-3.763c0-0.567-0.11-0.979-0.331-1.238c-0.221-0.258-0.573-0.387-1.057-0.387
		c-0.558,0-1.004,0.171-1.337,0.512c-0.333,0.342-0.5,0.805-0.5,1.388v3.488h-1.013v-6.088h1v1c0.2-0.375,0.479-0.66,0.838-0.856
		c0.358-0.195,0.767-0.293,1.225-0.293C154.302,19.378,155.031,20.182,155.031,21.791z"/>
	<path fill="#97A5B1" d="M162.282,16.803v8.813h-1.013v-1.113c-0.183,0.384-0.452,0.68-0.806,0.888
		c-0.354,0.208-0.769,0.313-1.244,0.313c-0.534,0-1.004-0.133-1.413-0.4c-0.409-0.267-0.725-0.64-0.95-1.119
		c-0.225-0.479-0.337-1.036-0.337-1.669c0-0.625,0.112-1.175,0.337-1.65s0.542-0.841,0.95-1.1c0.408-0.258,0.879-0.387,1.413-0.387
		c0.475,0,0.889,0.104,1.244,0.313c0.354,0.208,0.623,0.504,0.806,0.887v-3.775H162.282z M160.788,24.259
		c0.321-0.404,0.481-0.977,0.481-1.719s-0.16-1.313-0.481-1.712c-0.321-0.4-0.777-0.6-1.369-0.6s-1.052,0.2-1.381,0.6
		c-0.329,0.4-0.494,0.962-0.494,1.688c0,0.742,0.165,1.319,0.494,1.731c0.329,0.412,0.79,0.619,1.381,0.619
		S160.467,24.664,160.788,24.259z"/>
	<path fill="#97A5B1" d="M168.395,25.316c-0.442-0.258-0.781-0.623-1.019-1.094c-0.237-0.471-0.356-1.023-0.356-1.656
		s0.123-1.189,0.369-1.669c0.246-0.479,0.592-0.852,1.038-1.119s0.969-0.4,1.569-0.4c0.408,0,0.808,0.073,1.2,0.219
		c0.392,0.146,0.708,0.339,0.95,0.581l-0.337,0.75c-0.575-0.466-1.158-0.7-1.75-0.7c-0.625,0-1.113,0.204-1.462,0.612
		c-0.35,0.409-0.525,0.983-0.525,1.725c0,0.733,0.175,1.3,0.525,1.7c0.35,0.4,0.837,0.6,1.462,0.6c0.592,0,1.175-0.233,1.75-0.7
		l0.337,0.75c-0.258,0.242-0.583,0.434-0.975,0.575c-0.392,0.142-0.796,0.212-1.212,0.212
		C169.357,25.703,168.836,25.574,168.395,25.316z"/>
	<path fill="#97A5B1" d="M174.376,25.316c-0.438-0.258-0.775-0.627-1.013-1.106c-0.237-0.479-0.356-1.036-0.356-1.669
		s0.119-1.189,0.356-1.669c0.238-0.479,0.575-0.848,1.013-1.106c0.438-0.258,0.944-0.387,1.519-0.387
		c0.575,0,1.083,0.129,1.525,0.387c0.442,0.259,0.781,0.627,1.019,1.106c0.237,0.479,0.356,1.036,0.356,1.669
		s-0.119,1.19-0.356,1.669c-0.238,0.479-0.577,0.848-1.019,1.106s-0.95,0.387-1.525,0.387
		C175.32,25.703,174.814,25.574,174.376,25.316z M177.277,24.272c0.321-0.396,0.481-0.973,0.481-1.731
		c0-0.742-0.162-1.314-0.487-1.719s-0.784-0.606-1.375-0.606c-0.592,0-1.05,0.202-1.375,0.606c-0.325,0.404-0.488,0.977-0.488,1.719
		c0,0.75,0.16,1.325,0.481,1.725c0.321,0.4,0.781,0.6,1.381,0.6S176.955,24.668,177.277,24.272z"/>
	<path fill="#97A5B1" d="M180.307,25.616v-8.813h1.013v8.813H180.307z"/>
	<path fill="#97A5B1" d="M183.208,25.616v-8.813h1.013v8.813H183.208z"/>
	<path fill="#97A5B1" d="M191.208,22.728h-4.451c0.033,0.708,0.225,1.244,0.575,1.606c0.35,0.362,0.846,0.543,1.488,0.543
		c0.708,0,1.358-0.241,1.95-0.725l0.337,0.737c-0.267,0.25-0.608,0.448-1.025,0.594c-0.417,0.146-0.842,0.219-1.275,0.219
		c-0.95,0-1.698-0.279-2.244-0.837c-0.546-0.558-0.819-1.329-0.819-2.313c0-0.625,0.121-1.177,0.362-1.657
		c0.242-0.479,0.582-0.852,1.019-1.119s0.935-0.4,1.494-0.4c0.808,0,1.442,0.265,1.9,0.793c0.458,0.529,0.688,1.256,0.688,2.182
		V22.728z M187.352,20.666c-0.321,0.333-0.511,0.804-0.569,1.413h3.538c-0.017-0.617-0.171-1.09-0.462-1.419
		c-0.292-0.329-0.7-0.494-1.225-0.494C188.099,20.166,187.672,20.332,187.352,20.666z"/>
	<path fill="#97A5B1" d="M196.903,19.972c0.379,0.396,0.568,0.998,0.568,1.806v3.838h-0.987v-1.038
		c-0.158,0.358-0.4,0.636-0.726,0.832s-0.7,0.293-1.125,0.293c-0.392,0-0.752-0.079-1.081-0.237s-0.59-0.379-0.781-0.663
		c-0.192-0.283-0.288-0.596-0.288-0.938c0-0.458,0.117-0.814,0.351-1.069s0.616-0.438,1.15-0.55
		c0.533-0.112,1.274-0.168,2.225-0.168h0.275v-0.413c0-0.508-0.104-0.877-0.313-1.106c-0.209-0.229-0.546-0.344-1.013-0.344
		c-0.7,0-1.396,0.217-2.088,0.65l-0.338-0.737c0.317-0.225,0.698-0.406,1.145-0.544c0.445-0.137,0.877-0.206,1.294-0.206
		C195.946,19.378,196.523,19.576,196.903,19.972z M196.003,24.397c0.32-0.337,0.481-0.773,0.481-1.307v-0.362h-0.226
		c-0.733,0-1.292,0.031-1.675,0.094c-0.384,0.063-0.656,0.167-0.818,0.313c-0.163,0.146-0.244,0.36-0.244,0.644
		c0,0.325,0.119,0.594,0.356,0.806s0.535,0.319,0.894,0.319C195.271,24.903,195.681,24.734,196.003,24.397z"/>
	<path fill="#97A5B1" d="M204.771,19.528v5.675c0,0.908-0.233,1.594-0.7,2.057c-0.467,0.462-1.158,0.694-2.075,0.694
		c-1.066,0-1.962-0.275-2.688-0.825l0.338-0.75c0.408,0.267,0.792,0.458,1.15,0.575c0.357,0.117,0.758,0.175,1.199,0.175
		c0.584,0,1.025-0.156,1.325-0.469c0.301-0.313,0.45-0.769,0.45-1.369v-1.075c-0.175,0.392-0.443,0.691-0.806,0.9
		c-0.363,0.208-0.79,0.313-1.282,0.313c-0.533,0-1.006-0.125-1.418-0.375c-0.413-0.25-0.734-0.604-0.963-1.063
		c-0.229-0.458-0.344-0.988-0.344-1.588s0.114-1.129,0.344-1.587c0.229-0.458,0.55-0.813,0.963-1.063
		c0.412-0.25,0.885-0.375,1.418-0.375c0.483,0,0.904,0.104,1.263,0.313s0.63,0.504,0.813,0.887v-1.05H204.771z M203.258,24.009
		c0.334-0.387,0.5-0.923,0.5-1.606c0-0.675-0.164-1.206-0.493-1.594s-0.79-0.581-1.382-0.581s-1.056,0.193-1.394,0.581
		s-0.506,0.919-0.506,1.594c0,0.684,0.168,1.219,0.506,1.606c0.338,0.388,0.802,0.582,1.394,0.582
		C202.466,24.591,202.925,24.397,203.258,24.009z"/>
	<path fill="#97A5B1" d="M211.771,19.528v6.088h-0.987v-1.038c-0.191,0.367-0.46,0.646-0.806,0.837
		c-0.347,0.192-0.736,0.288-1.169,0.288c-0.726,0-1.271-0.202-1.638-0.606c-0.367-0.404-0.551-1.002-0.551-1.794v-3.775h1.013v3.75
		c0,0.542,0.108,0.94,0.325,1.194c0.217,0.254,0.559,0.381,1.025,0.381c0.533,0,0.963-0.173,1.287-0.519
		c0.325-0.346,0.488-0.802,0.488-1.369v-3.438H211.771z"/>
	<path fill="#97A5B1" d="M218.76,22.728h-4.45c0.033,0.708,0.225,1.244,0.575,1.606c0.35,0.362,0.846,0.543,1.487,0.543
		c0.708,0,1.358-0.241,1.95-0.725l0.337,0.737c-0.267,0.25-0.608,0.448-1.024,0.594c-0.417,0.146-0.842,0.219-1.275,0.219
		c-0.95,0-1.698-0.279-2.244-0.837c-0.546-0.558-0.818-1.329-0.818-2.313c0-0.625,0.12-1.177,0.362-1.657
		c0.241-0.479,0.581-0.852,1.019-1.119s0.936-0.4,1.494-0.4c0.809,0,1.441,0.265,1.9,0.793c0.458,0.529,0.688,1.256,0.688,2.182
		V22.728z M214.904,20.666c-0.321,0.333-0.511,0.804-0.569,1.413h3.538c-0.017-0.617-0.171-1.09-0.463-1.419
		c-0.291-0.329-0.7-0.494-1.225-0.494C215.652,20.166,215.224,20.332,214.904,20.666z"/>
	<path fill="#97A5B1" d="M219.873,24.916l0.338-0.75c0.324,0.258,0.656,0.444,0.993,0.556c0.338,0.113,0.719,0.169,1.145,0.169
		c0.449,0,0.793-0.077,1.031-0.231c0.237-0.154,0.356-0.377,0.356-0.668c0-0.242-0.08-0.433-0.238-0.575
		c-0.158-0.142-0.421-0.254-0.787-0.337l-1.025-0.238c-0.517-0.116-0.912-0.316-1.188-0.6c-0.275-0.284-0.412-0.633-0.412-1.05
		c0-0.542,0.212-0.979,0.638-1.313c0.425-0.333,0.991-0.5,1.699-0.5c0.426,0,0.829,0.069,1.213,0.206
		c0.384,0.138,0.704,0.335,0.963,0.594l-0.338,0.738c-0.559-0.475-1.171-0.713-1.838-0.713c-0.425,0-0.756,0.082-0.993,0.244
		c-0.237,0.162-0.356,0.39-0.356,0.681c0,0.242,0.073,0.436,0.219,0.581c0.146,0.146,0.381,0.256,0.706,0.332l1.038,0.25
		c0.566,0.133,0.987,0.335,1.263,0.606c0.274,0.271,0.412,0.623,0.412,1.056c0,0.533-0.215,0.958-0.644,1.275
		c-0.43,0.317-1.015,0.475-1.757,0.475C221.286,25.703,220.472,25.441,219.873,24.916z"/>
</g>
<g>
	<g>
		<g>
			<path fill="#2E2E2E" d="M245.801,14.061c-3.81,0-6.91,3.1-6.91,6.91c0,3.81,3.1,6.91,6.91,6.91c3.81,0,6.91-3.1,6.91-6.91
				C252.711,17.161,249.611,14.061,245.801,14.061z M245.801,26.605c-3.107,0-5.634-2.528-5.634-5.634s2.528-5.634,5.634-5.634
				s5.634,2.528,5.634,5.634S248.908,26.605,245.801,26.605z"/>
		</g>
	</g>
	<g>
		<g>
			<path fill="#2E2E2E" d="M254.395,28.663l-3.657-3.657c-0.249-0.249-0.653-0.249-0.902,0c-0.249,0.249-0.249,0.653,0,0.902
				l3.657,3.657c0.125,0.125,0.288,0.187,0.451,0.187c0.163,0,0.326-0.062,0.451-0.187
				C254.645,29.316,254.645,28.912,254.395,28.663z"/>
		</g>
	</g>
</g>
<g>
	<path fill="#C5D9FB" d="M300.677,43.118c-11.869,0.101-21.23-9.035-21.403-20.889c-0.177-12.06,9.228-21.575,21.287-21.535
		c11.841,0.039,21.108,9.312,21.138,21.154C321.729,33.701,312.522,43.017,300.677,43.118z"/>
	<path fill="#5F97F5" d="M300.302,36.783c-3.232,0.208-6.106-0.467-8.724-2.042c-4.186-2.518-4.157-7.25,0.232-9.487
		c5.631-2.87,11.452-2.793,17.193-0.135c2.434,1.127,3.901,3.152,3.931,5.779c0.029,2.512-2.214,3.404-4.116,4.277
		C306.077,36.433,303.187,37.115,300.302,36.783z"/>
	<path fill="#6198F5" d="M300.599,19.827c-4.076,0.055-5.825-2.416-5.829-5.986c-0.004-3.494,2.237-5.591,5.711-5.607
		c3.82-0.018,5.929,2.525,5.888,6.062C306.33,17.632,304.2,19.736,300.599,19.827z"/>
</g>
<polygon fill="#2E2E2E" points="327.895,19.111 327.873,19.133 333.441,24.701 339.01,19.133 338.988,19.111 "/>
</svg>
