<?xml version="1.0" encoding="utf-8"?>
<!-- Generator: Adobe Illustrator 17.0.0, SVG Export Plug-In . SVG Version: 6.00 Build 0)  -->
<!DOCTYPE svg PUBLIC "-//W3C//DTD SVG 1.1//EN" "http://www.w3.org/Graphics/SVG/1.1/DTD/svg11.dtd">
<svg version="1.1" id="Layer_1" xmlns="http://www.w3.org/2000/svg" xmlns:xlink="http://www.w3.org/1999/xlink" x="0px" y="0px"
	 width="519.667px" height="43.813px" viewBox="0 0 519.667 43.813" enable-background="new 0 0 519.667 43.813"
	 xml:space="preserve">
<g>
	<path fill="#FFFFFF" d="M451.83,21.906c0,11.459-9.45,20.835-21,20.835H201.657c-11.55,0-21-9.376-21-20.835s9.45-20.835,21-20.835
		H430.83C442.38,1.071,451.83,10.447,451.83,21.906z"/>
	<path fill="none" stroke="#CCCCCC" stroke-miterlimit="10" d="M451.83,21.906c0,11.459-9.45,20.835-21,20.835H201.657
		c-11.55,0-21-9.376-21-20.835s9.45-20.835,21-20.835H430.83C442.38,1.071,451.83,10.447,451.83,21.906z"/>
</g>
<text transform="matrix(1 0 0 1 198.5567 25.6155)" display="none" fill="#97A5B1" font-family="'NunitoSans-Regular'" font-size="12.5009">Search for companies and colleagues</text>
<text transform="matrix(1 0 0 1 198.5567 25.6155)" display="none" fill="#97A5B1" font-family="'NunitoSans-Regular'" font-size="12.5009">Search for companies and colleagues</text>
<g>
	<path fill="#97A5B1" d="M199.144,24.603l0.4-0.788c0.433,0.367,0.877,0.629,1.331,0.788c0.454,0.159,0.981,0.238,1.582,0.238
		c0.708,0,1.254-0.138,1.638-0.413c0.383-0.275,0.575-0.663,0.575-1.163c0-0.292-0.092-0.529-0.275-0.712
		c-0.184-0.184-0.425-0.329-0.725-0.438c-0.3-0.108-0.704-0.221-1.212-0.337c-0.684-0.158-1.244-0.325-1.682-0.5
		c-0.438-0.175-0.792-0.425-1.063-0.75s-0.406-0.75-0.406-1.275c0-0.5,0.131-0.944,0.394-1.332c0.262-0.388,0.637-0.688,1.125-0.9
		c0.487-0.212,1.052-0.319,1.694-0.319c0.608,0,1.177,0.096,1.706,0.288s0.977,0.467,1.344,0.825l-0.388,0.788
		c-0.417-0.358-0.84-0.619-1.269-0.781s-0.894-0.244-1.394-0.244c-0.684,0-1.219,0.144-1.606,0.431s-0.582,0.69-0.582,1.207
		c0,0.442,0.171,0.775,0.513,1s0.858,0.417,1.55,0.575c0.758,0.183,1.354,0.352,1.788,0.506c0.433,0.154,0.794,0.385,1.081,0.693
		c0.288,0.309,0.432,0.721,0.432,1.238c0,0.5-0.131,0.938-0.394,1.313c-0.262,0.375-0.64,0.665-1.131,0.869
		s-1.067,0.306-1.725,0.306C201.069,25.716,199.969,25.345,199.144,24.603z"/>
	<path fill="#97A5B1" d="M212.308,22.728h-4.451c0.033,0.708,0.225,1.244,0.575,1.606c0.35,0.362,0.846,0.543,1.488,0.543
		c0.708,0,1.358-0.241,1.95-0.725l0.337,0.737c-0.267,0.25-0.608,0.448-1.025,0.594c-0.417,0.146-0.842,0.219-1.275,0.219
		c-0.95,0-1.698-0.279-2.244-0.837c-0.546-0.558-0.819-1.329-0.819-2.313c0-0.625,0.121-1.177,0.362-1.657
		c0.242-0.479,0.582-0.852,1.019-1.119s0.935-0.4,1.494-0.4c0.808,0,1.442,0.265,1.9,0.793c0.458,0.529,0.688,1.256,0.688,2.182
		V22.728z M208.451,20.666c-0.321,0.333-0.511,0.804-0.569,1.413h3.538c-0.017-0.617-0.171-1.09-0.462-1.419
		c-0.292-0.329-0.7-0.494-1.225-0.494C209.199,20.166,208.771,20.332,208.451,20.666z"/>
	<path fill="#97A5B1" d="M218.001,19.972c0.379,0.396,0.569,0.998,0.569,1.806v3.838h-0.988v-1.038
		c-0.158,0.358-0.4,0.636-0.725,0.832c-0.325,0.196-0.7,0.293-1.125,0.293c-0.392,0-0.752-0.079-1.081-0.237
		c-0.33-0.158-0.59-0.379-0.781-0.663c-0.192-0.283-0.288-0.596-0.288-0.938c0-0.458,0.117-0.814,0.35-1.069
		c0.233-0.254,0.617-0.438,1.15-0.55c0.533-0.112,1.275-0.168,2.225-0.168h0.275v-0.413c0-0.508-0.104-0.877-0.313-1.106
		c-0.208-0.229-0.546-0.344-1.012-0.344c-0.7,0-1.396,0.217-2.088,0.65l-0.337-0.737c0.316-0.225,0.698-0.406,1.144-0.544
		c0.445-0.137,0.877-0.206,1.293-0.206C217.045,19.378,217.622,19.576,218.001,19.972z M217.102,24.397
		c0.321-0.337,0.481-0.773,0.481-1.307v-0.362h-0.225c-0.733,0-1.292,0.031-1.675,0.094s-0.656,0.167-0.819,0.313
		c-0.163,0.146-0.244,0.36-0.244,0.644c0,0.325,0.119,0.594,0.356,0.806c0.237,0.212,0.535,0.319,0.894,0.319
		C216.37,24.903,216.781,24.734,217.102,24.397z"/>
	<path fill="#97A5B1" d="M223.871,20.253l-0.663,0.063c-0.625,0.058-1.077,0.254-1.356,0.587c-0.279,0.333-0.419,0.746-0.419,1.238
		v3.475h-1.013v-6.088h0.988v1.063c0.341-0.708,1.012-1.104,2.013-1.188l0.362-0.025L223.871,20.253z"/>
	<path fill="#97A5B1" d="M225.721,25.316c-0.442-0.258-0.781-0.623-1.019-1.094c-0.237-0.471-0.356-1.023-0.356-1.656
		s0.123-1.189,0.369-1.669c0.246-0.479,0.592-0.852,1.038-1.119s0.969-0.4,1.569-0.4c0.408,0,0.808,0.073,1.2,0.219
		c0.392,0.146,0.708,0.339,0.95,0.581l-0.337,0.75c-0.575-0.466-1.158-0.7-1.75-0.7c-0.625,0-1.113,0.204-1.462,0.612
		c-0.35,0.409-0.525,0.983-0.525,1.725c0,0.733,0.175,1.3,0.525,1.7c0.35,0.4,0.837,0.6,1.462,0.6c0.592,0,1.175-0.233,1.75-0.7
		l0.337,0.75c-0.258,0.242-0.583,0.434-0.975,0.575c-0.392,0.142-0.796,0.212-1.212,0.212
		C226.683,25.703,226.162,25.574,225.721,25.316z"/>
	<path fill="#97A5B1" d="M235.946,21.791v3.825h-1.013v-3.763c0-0.567-0.11-0.979-0.331-1.238c-0.221-0.258-0.573-0.387-1.057-0.387
		c-0.558,0-1.004,0.171-1.337,0.512c-0.333,0.342-0.5,0.805-0.5,1.388v3.488h-1.013v-8.813h1.013v3.7
		c0.2-0.367,0.477-0.646,0.831-0.837c0.354-0.192,0.761-0.288,1.219-0.288C235.217,19.378,235.946,20.182,235.946,21.791z"/>
	<path fill="#97A5B1" d="M242.372,19.528h1.725v0.8h-1.725v5.288h-1.013v-5.288h-1.188v-0.8h1.188v-0.2
		c0-0.808,0.202-1.421,0.606-1.837s1.027-0.65,1.869-0.7l0.5-0.025l0.075,0.788l-0.575,0.038c-0.509,0.033-0.879,0.177-1.113,0.431
		s-0.35,0.644-0.35,1.169V19.528z"/>
	<path fill="#97A5B1" d="M246.066,25.316c-0.438-0.258-0.775-0.627-1.013-1.106c-0.237-0.479-0.356-1.036-0.356-1.669
		s0.119-1.189,0.356-1.669c0.238-0.479,0.575-0.848,1.013-1.106c0.438-0.258,0.944-0.387,1.519-0.387
		c0.575,0,1.083,0.129,1.525,0.387c0.442,0.259,0.781,0.627,1.019,1.106c0.237,0.479,0.356,1.036,0.356,1.669
		s-0.119,1.19-0.356,1.669c-0.238,0.479-0.577,0.848-1.019,1.106s-0.95,0.387-1.525,0.387
		C247.01,25.703,246.503,25.574,246.066,25.316z M248.966,24.272c0.321-0.396,0.481-0.973,0.481-1.731
		c0-0.742-0.162-1.314-0.487-1.719s-0.784-0.606-1.375-0.606c-0.592,0-1.05,0.202-1.375,0.606c-0.325,0.404-0.488,0.977-0.488,1.719
		c0,0.75,0.16,1.325,0.481,1.725c0.321,0.4,0.781,0.6,1.381,0.6S248.645,24.668,248.966,24.272z"/>
	<path fill="#97A5B1" d="M255.447,20.253l-0.663,0.063c-0.625,0.058-1.077,0.254-1.356,0.587c-0.279,0.333-0.419,0.746-0.419,1.238
		v3.475h-1.013v-6.088h0.988v1.063c0.341-0.708,1.012-1.104,2.013-1.188l0.362-0.025L255.447,20.253z"/>
	<path fill="#97A5B1" d="M260.648,25.316c-0.442-0.258-0.781-0.623-1.019-1.094c-0.237-0.471-0.356-1.023-0.356-1.656
		s0.123-1.189,0.369-1.669c0.246-0.479,0.592-0.852,1.038-1.119s0.969-0.4,1.569-0.4c0.408,0,0.808,0.073,1.2,0.219
		c0.392,0.146,0.708,0.339,0.95,0.581l-0.337,0.75c-0.575-0.466-1.158-0.7-1.75-0.7c-0.625,0-1.113,0.204-1.462,0.612
		c-0.35,0.409-0.525,0.983-0.525,1.725c0,0.733,0.175,1.3,0.525,1.7c0.35,0.4,0.837,0.6,1.462,0.6c0.592,0,1.175-0.233,1.75-0.7
		l0.337,0.75c-0.258,0.242-0.583,0.434-0.975,0.575c-0.392,0.142-0.796,0.212-1.212,0.212
		C261.61,25.703,261.089,25.574,260.648,25.316z"/>
	<path fill="#97A5B1" d="M266.629,25.316c-0.438-0.258-0.775-0.627-1.013-1.106c-0.237-0.479-0.356-1.036-0.356-1.669
		s0.119-1.189,0.356-1.669c0.238-0.479,0.575-0.848,1.013-1.106c0.438-0.258,0.944-0.387,1.519-0.387
		c0.575,0,1.083,0.129,1.525,0.387c0.442,0.259,0.781,0.627,1.019,1.106c0.237,0.479,0.356,1.036,0.356,1.669
		s-0.119,1.19-0.356,1.669c-0.238,0.479-0.577,0.848-1.019,1.106s-0.95,0.387-1.525,0.387
		C267.573,25.703,267.067,25.574,266.629,25.316z M269.53,24.272c0.321-0.396,0.481-0.973,0.481-1.731
		c0-0.742-0.162-1.314-0.487-1.719s-0.784-0.606-1.375-0.606c-0.592,0-1.05,0.202-1.375,0.606c-0.325,0.404-0.488,0.977-0.488,1.719
		c0,0.75,0.16,1.325,0.481,1.725c0.321,0.4,0.781,0.6,1.381,0.6S269.208,24.668,269.53,24.272z"/>
	<path fill="#97A5B1" d="M281.362,21.791v3.825h-1.013V21.84c0-0.558-0.098-0.966-0.294-1.225c-0.196-0.258-0.51-0.387-0.944-0.387
		c-0.508,0-0.908,0.171-1.2,0.512c-0.292,0.342-0.438,0.809-0.438,1.4v3.475h-1.013V21.84c0-0.566-0.1-0.977-0.3-1.231
		c-0.2-0.254-0.517-0.381-0.95-0.381c-0.509,0-0.909,0.171-1.2,0.512c-0.292,0.342-0.438,0.809-0.438,1.4v3.475h-1.013v-6.088h1
		v0.962c0.184-0.358,0.438-0.633,0.763-0.825c0.325-0.192,0.7-0.288,1.125-0.288c0.942,0,1.563,0.4,1.863,1.2
		c0.175-0.375,0.441-0.668,0.8-0.881c0.358-0.213,0.767-0.319,1.225-0.319C280.687,19.378,281.362,20.182,281.362,21.791z"/>
	<path fill="#97A5B1" d="M287.687,19.778c0.408,0.267,0.725,0.64,0.95,1.119c0.225,0.479,0.338,1.036,0.338,1.669
		s-0.113,1.186-0.338,1.656c-0.225,0.471-0.54,0.836-0.944,1.094s-0.877,0.387-1.418,0.387c-0.475,0-0.89-0.104-1.244-0.313
		c-0.354-0.208-0.623-0.504-0.806-0.888v3.363h-1.013v-8.338h1.013v1.05c0.183-0.383,0.452-0.679,0.806-0.887
		s0.769-0.313,1.244-0.313C286.808,19.378,287.278,19.511,287.687,19.778z M287.449,24.266c0.325-0.4,0.488-0.967,0.488-1.7
		s-0.163-1.306-0.488-1.719c-0.325-0.413-0.783-0.619-1.375-0.619s-1.048,0.2-1.369,0.6c-0.321,0.4-0.481,0.971-0.481,1.712
		s0.16,1.315,0.481,1.719c0.32,0.404,0.777,0.606,1.369,0.606S287.125,24.666,287.449,24.266z"/>
	<path fill="#97A5B1" d="M294.693,19.972c0.379,0.396,0.569,0.998,0.569,1.806v3.838h-0.988v-1.038
		c-0.158,0.358-0.4,0.636-0.725,0.832c-0.325,0.196-0.7,0.293-1.125,0.293c-0.392,0-0.752-0.079-1.081-0.237
		c-0.33-0.158-0.59-0.379-0.781-0.663c-0.192-0.283-0.288-0.596-0.288-0.938c0-0.458,0.117-0.814,0.35-1.069
		c0.233-0.254,0.617-0.438,1.15-0.55c0.533-0.112,1.275-0.168,2.225-0.168h0.275v-0.413c0-0.508-0.104-0.877-0.313-1.106
		c-0.208-0.229-0.546-0.344-1.012-0.344c-0.7,0-1.396,0.217-2.088,0.65l-0.337-0.737c0.316-0.225,0.698-0.406,1.144-0.544
		c0.445-0.137,0.877-0.206,1.293-0.206C293.737,19.378,294.314,19.576,294.693,19.972z M293.793,24.397
		c0.321-0.337,0.481-0.773,0.481-1.307v-0.362h-0.225c-0.733,0-1.292,0.031-1.675,0.094s-0.656,0.167-0.819,0.313
		c-0.163,0.146-0.244,0.36-0.244,0.644c0,0.325,0.119,0.594,0.356,0.806c0.237,0.212,0.535,0.319,0.894,0.319
		C293.062,24.903,293.473,24.734,293.793,24.397z"/>
	<path fill="#97A5B1" d="M302.363,21.791v3.825h-1.013v-3.763c0-0.567-0.11-0.979-0.331-1.238c-0.221-0.258-0.573-0.387-1.057-0.387
		c-0.558,0-1.004,0.171-1.337,0.512c-0.333,0.342-0.5,0.805-0.5,1.388v3.488h-1.013v-6.088h1v1c0.2-0.375,0.479-0.66,0.838-0.856
		c0.358-0.195,0.767-0.293,1.225-0.293C301.633,19.378,302.363,20.182,302.363,21.791z"/>
	<path fill="#97A5B1" d="M304.113,16.89h1.225v1.138h-1.225V16.89z M304.213,25.616v-6.088h1.013v6.088H304.213z"/>
	<path fill="#97A5B1" d="M312.213,22.728h-4.451c0.033,0.708,0.225,1.244,0.575,1.606c0.35,0.362,0.846,0.543,1.488,0.543
		c0.708,0,1.358-0.241,1.95-0.725l0.337,0.737c-0.267,0.25-0.608,0.448-1.025,0.594c-0.417,0.146-0.842,0.219-1.275,0.219
		c-0.95,0-1.698-0.279-2.244-0.837c-0.546-0.558-0.819-1.329-0.819-2.313c0-0.625,0.121-1.177,0.362-1.657
		c0.242-0.479,0.582-0.852,1.019-1.119s0.935-0.4,1.494-0.4c0.808,0,1.442,0.265,1.9,0.793c0.458,0.529,0.688,1.256,0.688,2.182
		V22.728z M308.357,20.666c-0.321,0.333-0.511,0.804-0.569,1.413h3.538c-0.017-0.617-0.171-1.09-0.462-1.419
		c-0.292-0.329-0.7-0.494-1.225-0.494C309.104,20.166,308.677,20.332,308.357,20.666z"/>
	<path fill="#97A5B1" d="M313.326,24.916l0.337-0.75c0.325,0.258,0.656,0.444,0.994,0.556c0.337,0.113,0.719,0.169,1.144,0.169
		c0.45,0,0.794-0.077,1.031-0.231c0.238-0.154,0.356-0.377,0.356-0.668c0-0.242-0.079-0.433-0.237-0.575
		c-0.159-0.142-0.421-0.254-0.788-0.337l-1.025-0.238c-0.517-0.116-0.913-0.316-1.188-0.6c-0.275-0.284-0.413-0.633-0.413-1.05
		c0-0.542,0.213-0.979,0.638-1.313s0.992-0.5,1.7-0.5c0.425,0,0.829,0.069,1.212,0.206c0.383,0.138,0.704,0.335,0.963,0.594
		l-0.338,0.738c-0.558-0.475-1.171-0.713-1.837-0.713c-0.425,0-0.756,0.082-0.994,0.244c-0.238,0.162-0.356,0.39-0.356,0.681
		c0,0.242,0.073,0.436,0.219,0.581c0.146,0.146,0.381,0.256,0.706,0.332l1.038,0.25c0.567,0.133,0.988,0.335,1.263,0.606
		c0.275,0.271,0.413,0.623,0.413,1.056c0,0.533-0.215,0.958-0.644,1.275c-0.429,0.317-1.015,0.475-1.756,0.475
		C314.738,25.703,313.926,25.441,313.326,24.916z"/>
	<path fill="#97A5B1" d="M327.133,19.972c0.379,0.396,0.569,0.998,0.569,1.806v3.838h-0.988v-1.038
		c-0.158,0.358-0.4,0.636-0.725,0.832c-0.325,0.196-0.7,0.293-1.125,0.293c-0.392,0-0.752-0.079-1.081-0.237
		c-0.33-0.158-0.59-0.379-0.781-0.663c-0.192-0.283-0.288-0.596-0.288-0.938c0-0.458,0.117-0.814,0.35-1.069
		c0.233-0.254,0.617-0.438,1.15-0.55c0.533-0.112,1.275-0.168,2.225-0.168h0.275v-0.413c0-0.508-0.104-0.877-0.313-1.106
		c-0.208-0.229-0.546-0.344-1.012-0.344c-0.7,0-1.396,0.217-2.088,0.65l-0.337-0.737c0.316-0.225,0.698-0.406,1.144-0.544
		c0.445-0.137,0.877-0.206,1.293-0.206C326.177,19.378,326.753,19.576,327.133,19.972z M326.233,24.397
		c0.321-0.337,0.481-0.773,0.481-1.307v-0.362h-0.225c-0.733,0-1.292,0.031-1.675,0.094s-0.656,0.167-0.819,0.313
		c-0.163,0.146-0.244,0.36-0.244,0.644c0,0.325,0.119,0.594,0.356,0.806c0.237,0.212,0.535,0.319,0.894,0.319
		C325.501,24.903,325.912,24.734,326.233,24.397z"/>
	<path fill="#97A5B1" d="M334.802,21.791v3.825h-1.013v-3.763c0-0.567-0.11-0.979-0.331-1.238c-0.221-0.258-0.573-0.387-1.057-0.387
		c-0.558,0-1.004,0.171-1.337,0.512c-0.333,0.342-0.5,0.805-0.5,1.388v3.488h-1.013v-6.088h1v1c0.2-0.375,0.479-0.66,0.838-0.856
		c0.358-0.195,0.767-0.293,1.225-0.293C334.073,19.378,334.802,20.182,334.802,21.791z"/>
	<path fill="#97A5B1" d="M342.053,16.803v8.813h-1.013v-1.113c-0.183,0.384-0.452,0.68-0.806,0.888
		c-0.354,0.208-0.769,0.313-1.244,0.313c-0.534,0-1.004-0.133-1.413-0.4c-0.409-0.267-0.725-0.64-0.95-1.119
		c-0.225-0.479-0.337-1.036-0.337-1.669c0-0.625,0.112-1.175,0.337-1.65s0.542-0.841,0.95-1.1c0.408-0.258,0.879-0.387,1.413-0.387
		c0.475,0,0.889,0.104,1.244,0.313c0.354,0.208,0.623,0.504,0.806,0.887v-3.775H342.053z M340.559,24.259
		c0.321-0.404,0.481-0.977,0.481-1.719s-0.16-1.313-0.481-1.712c-0.321-0.4-0.777-0.6-1.369-0.6s-1.052,0.2-1.381,0.6
		c-0.329,0.4-0.494,0.962-0.494,1.688c0,0.742,0.165,1.319,0.494,1.731c0.329,0.412,0.79,0.619,1.381,0.619
		S340.238,24.664,340.559,24.259z"/>
	<path fill="#97A5B1" d="M348.166,25.316c-0.442-0.258-0.781-0.623-1.019-1.094c-0.237-0.471-0.356-1.023-0.356-1.656
		s0.123-1.189,0.369-1.669c0.246-0.479,0.592-0.852,1.038-1.119s0.969-0.4,1.569-0.4c0.408,0,0.808,0.073,1.2,0.219
		c0.392,0.146,0.708,0.339,0.95,0.581l-0.337,0.75c-0.575-0.466-1.158-0.7-1.75-0.7c-0.625,0-1.113,0.204-1.462,0.612
		c-0.35,0.409-0.525,0.983-0.525,1.725c0,0.733,0.175,1.3,0.525,1.7c0.35,0.4,0.837,0.6,1.462,0.6c0.592,0,1.175-0.233,1.75-0.7
		l0.337,0.75c-0.258,0.242-0.583,0.434-0.975,0.575c-0.392,0.142-0.796,0.212-1.212,0.212
		C349.128,25.703,348.607,25.574,348.166,25.316z"/>
	<path fill="#97A5B1" d="M354.147,25.316c-0.438-0.258-0.775-0.627-1.013-1.106c-0.237-0.479-0.356-1.036-0.356-1.669
		s0.119-1.189,0.356-1.669c0.238-0.479,0.575-0.848,1.013-1.106c0.438-0.258,0.944-0.387,1.519-0.387
		c0.575,0,1.083,0.129,1.525,0.387c0.442,0.259,0.781,0.627,1.019,1.106c0.237,0.479,0.356,1.036,0.356,1.669
		s-0.119,1.19-0.356,1.669c-0.238,0.479-0.577,0.848-1.019,1.106s-0.95,0.387-1.525,0.387
		C355.091,25.703,354.584,25.574,354.147,25.316z M357.047,24.272c0.321-0.396,0.481-0.973,0.481-1.731
		c0-0.742-0.162-1.314-0.487-1.719s-0.784-0.606-1.375-0.606c-0.592,0-1.05,0.202-1.375,0.606c-0.325,0.404-0.488,0.977-0.488,1.719
		c0,0.75,0.16,1.325,0.481,1.725c0.321,0.4,0.781,0.6,1.381,0.6S356.726,24.668,357.047,24.272z"/>
	<path fill="#97A5B1" d="M360.078,25.616v-8.813h1.013v8.813H360.078z"/>
	<path fill="#97A5B1" d="M362.979,25.616v-8.813h1.013v8.813H362.979z"/>
	<path fill="#97A5B1" d="M370.979,22.728h-4.451c0.033,0.708,0.225,1.244,0.575,1.606c0.35,0.362,0.846,0.543,1.488,0.543
		c0.708,0,1.358-0.241,1.95-0.725l0.337,0.737c-0.267,0.25-0.608,0.448-1.025,0.594c-0.417,0.146-0.842,0.219-1.275,0.219
		c-0.95,0-1.698-0.279-2.244-0.837c-0.546-0.558-0.819-1.329-0.819-2.313c0-0.625,0.121-1.177,0.362-1.657
		c0.242-0.479,0.582-0.852,1.019-1.119s0.935-0.4,1.494-0.4c0.808,0,1.442,0.265,1.9,0.793c0.458,0.529,0.688,1.256,0.688,2.182
		V22.728z M367.123,20.666c-0.321,0.333-0.511,0.804-0.569,1.413h3.538c-0.017-0.617-0.171-1.09-0.462-1.419
		c-0.292-0.329-0.7-0.494-1.225-0.494C367.87,20.166,367.443,20.332,367.123,20.666z"/>
	<path fill="#97A5B1" d="M376.674,19.972c0.379,0.396,0.568,0.998,0.568,1.806v3.838h-0.987v-1.038
		c-0.158,0.358-0.4,0.636-0.726,0.832s-0.7,0.293-1.125,0.293c-0.392,0-0.752-0.079-1.081-0.237s-0.59-0.379-0.781-0.663
		c-0.192-0.283-0.288-0.596-0.288-0.938c0-0.458,0.117-0.814,0.351-1.069s0.616-0.438,1.15-0.55
		c0.533-0.112,1.274-0.168,2.225-0.168h0.275v-0.413c0-0.508-0.104-0.877-0.313-1.106c-0.209-0.229-0.546-0.344-1.013-0.344
		c-0.7,0-1.396,0.217-2.088,0.65l-0.338-0.737c0.317-0.225,0.698-0.406,1.145-0.544c0.445-0.137,0.877-0.206,1.294-0.206
		C375.717,19.378,376.294,19.576,376.674,19.972z M375.773,24.397c0.32-0.337,0.481-0.773,0.481-1.307v-0.362h-0.226
		c-0.733,0-1.292,0.031-1.675,0.094c-0.384,0.063-0.656,0.167-0.818,0.313c-0.163,0.146-0.244,0.36-0.244,0.644
		c0,0.325,0.119,0.594,0.356,0.806s0.535,0.319,0.894,0.319C375.042,24.903,375.452,24.734,375.773,24.397z"/>
	<path fill="#97A5B1" d="M384.542,19.528v5.675c0,0.908-0.233,1.594-0.7,2.057c-0.467,0.462-1.158,0.694-2.075,0.694
		c-1.066,0-1.962-0.275-2.688-0.825l0.338-0.75c0.408,0.267,0.792,0.458,1.15,0.575c0.357,0.117,0.758,0.175,1.199,0.175
		c0.584,0,1.025-0.156,1.325-0.469c0.301-0.313,0.45-0.769,0.45-1.369v-1.075c-0.175,0.392-0.443,0.691-0.806,0.9
		c-0.363,0.208-0.79,0.313-1.282,0.313c-0.533,0-1.006-0.125-1.418-0.375c-0.413-0.25-0.734-0.604-0.963-1.063
		c-0.229-0.458-0.344-0.988-0.344-1.588s0.114-1.129,0.344-1.587c0.229-0.458,0.55-0.813,0.963-1.063
		c0.412-0.25,0.885-0.375,1.418-0.375c0.483,0,0.904,0.104,1.263,0.313s0.63,0.504,0.813,0.887v-1.05H384.542z M383.029,24.009
		c0.334-0.387,0.5-0.923,0.5-1.606c0-0.675-0.164-1.206-0.493-1.594s-0.79-0.581-1.382-0.581s-1.056,0.193-1.394,0.581
		s-0.506,0.919-0.506,1.594c0,0.684,0.168,1.219,0.506,1.606c0.338,0.388,0.802,0.582,1.394,0.582
		C382.237,24.591,382.696,24.397,383.029,24.009z"/>
	<path fill="#97A5B1" d="M391.542,19.528v6.088h-0.987v-1.038c-0.191,0.367-0.46,0.646-0.806,0.837
		c-0.347,0.192-0.736,0.288-1.169,0.288c-0.726,0-1.271-0.202-1.638-0.606c-0.367-0.404-0.551-1.002-0.551-1.794v-3.775h1.013v3.75
		c0,0.542,0.108,0.94,0.325,1.194c0.217,0.254,0.559,0.381,1.025,0.381c0.533,0,0.963-0.173,1.287-0.519
		c0.325-0.346,0.488-0.802,0.488-1.369v-3.438H391.542z"/>
	<path fill="#97A5B1" d="M398.531,22.728h-4.45c0.033,0.708,0.225,1.244,0.575,1.606c0.35,0.362,0.846,0.543,1.487,0.543
		c0.708,0,1.358-0.241,1.95-0.725l0.337,0.737c-0.267,0.25-0.608,0.448-1.024,0.594c-0.417,0.146-0.842,0.219-1.275,0.219
		c-0.95,0-1.698-0.279-2.244-0.837c-0.546-0.558-0.818-1.329-0.818-2.313c0-0.625,0.12-1.177,0.362-1.657
		c0.241-0.479,0.581-0.852,1.019-1.119s0.936-0.4,1.494-0.4c0.809,0,1.441,0.265,1.9,0.793c0.458,0.529,0.688,1.256,0.688,2.182
		V22.728z M394.675,20.666c-0.321,0.333-0.511,0.804-0.569,1.413h3.538c-0.017-0.617-0.171-1.09-0.463-1.419
		c-0.291-0.329-0.7-0.494-1.225-0.494C395.423,20.166,394.995,20.332,394.675,20.666z"/>
	<path fill="#97A5B1" d="M399.644,24.916l0.338-0.75c0.324,0.258,0.656,0.444,0.993,0.556c0.338,0.113,0.719,0.169,1.145,0.169
		c0.449,0,0.793-0.077,1.031-0.231c0.237-0.154,0.356-0.377,0.356-0.668c0-0.242-0.08-0.433-0.238-0.575
		c-0.158-0.142-0.421-0.254-0.787-0.337l-1.025-0.238c-0.517-0.116-0.912-0.316-1.188-0.6c-0.275-0.284-0.412-0.633-0.412-1.05
		c0-0.542,0.212-0.979,0.638-1.313c0.425-0.333,0.991-0.5,1.699-0.5c0.426,0,0.829,0.069,1.213,0.206
		c0.384,0.138,0.704,0.335,0.963,0.594l-0.338,0.738c-0.559-0.475-1.171-0.713-1.838-0.713c-0.425,0-0.756,0.082-0.993,0.244
		c-0.237,0.162-0.356,0.39-0.356,0.681c0,0.242,0.073,0.436,0.219,0.581c0.146,0.146,0.381,0.256,0.706,0.332l1.038,0.25
		c0.566,0.133,0.987,0.335,1.263,0.606c0.274,0.271,0.412,0.623,0.412,1.056c0,0.533-0.215,0.958-0.644,1.275
		c-0.43,0.317-1.015,0.475-1.757,0.475C401.057,25.703,400.243,25.441,399.644,24.916z"/>
</g>
<g>
	<g>
		<g>
			<path fill="#2E2E2E" d="M425.572,14.061c-3.81,0-6.91,3.1-6.91,6.91c0,3.81,3.1,6.91,6.91,6.91c3.81,0,6.91-3.1,6.91-6.91
				C432.482,17.161,429.382,14.061,425.572,14.061z M425.572,26.605c-3.107,0-5.634-2.528-5.634-5.634s2.528-5.634,5.634-5.634
				s5.634,2.528,5.634,5.634S428.679,26.605,425.572,26.605z"/>
		</g>
	</g>
	<g>
		<g>
			<path fill="#2E2E2E" d="M434.166,28.663l-3.657-3.657c-0.249-0.249-0.653-0.249-0.902,0c-0.249,0.249-0.249,0.653,0,0.902
				l3.657,3.657c0.125,0.125,0.288,0.187,0.451,0.187c0.163,0,0.326-0.062,0.451-0.187
				C434.415,29.316,434.415,28.912,434.166,28.663z"/>
		</g>
	</g>
</g>
<g>
	<path fill="#C5D9FB" d="M480.448,43.118c-11.869,0.101-21.23-9.035-21.403-20.889c-0.177-12.06,9.228-21.575,21.287-21.535
		c11.841,0.039,21.108,9.312,21.138,21.154C501.5,33.701,492.292,43.017,480.448,43.118z"/>
	<path fill="#5F97F5" d="M480.073,36.783c-3.232,0.208-6.106-0.467-8.724-2.042c-4.187-2.518-4.157-7.25,0.232-9.487
		c5.631-2.87,11.452-2.793,17.193-0.135c2.434,1.127,3.901,3.152,3.931,5.779c0.029,2.512-2.214,3.404-4.116,4.277
		C485.848,36.433,482.958,37.115,480.073,36.783z"/>
	<path fill="#6198F5" d="M480.37,19.827c-4.076,0.055-5.825-2.416-5.829-5.986c-0.004-3.494,2.237-5.591,5.711-5.607
		c3.82-0.018,5.929,2.525,5.888,6.062C486.101,17.632,483.971,19.736,480.37,19.827z"/>
</g>
<polygon fill="#2E2E2E" points="507.666,19.111 507.644,19.133 513.212,24.701 518.781,19.133 518.759,19.111 "/>
<g>
	<g id="XMLID_1_">
		<g id="XMLID_281_">
			
				<linearGradient id="XMLID_4_" gradientUnits="userSpaceOnUse" x1="263.7734" y1="-288.8404" x2="400.0936" y2="-316.8457" gradientTransform="matrix(1 0 0 -1 -266 -276)">
				<stop  offset="0" style="stop-color:#0580C3"/>
				<stop  offset="1" style="stop-color:#49C6F3"/>
			</linearGradient>
			<path id="XMLID_282_" fill="url(#XMLID_4_)" d="M32.967,5.99c-0.262,0-0.466,0.079-0.61,0.236
				c-0.144,0.158-0.217,0.381-0.217,0.67V33.24c0,0.289,0.072,0.512,0.217,0.669c0.144,0.158,0.348,0.236,0.61,0.236
				c0.236,0,0.433-0.085,0.59-0.256c0.157-0.17,0.236-0.387,0.236-0.65V6.896c0-0.262-0.079-0.478-0.236-0.65
				C33.4,6.075,33.203,5.99,32.967,5.99z"/>
			
				<linearGradient id="XMLID_6_" gradientUnits="userSpaceOnUse" x1="263.4364" y1="-290.4809" x2="399.7565" y2="-318.4862" gradientTransform="matrix(1 0 0 -1 -266 -276)">
				<stop  offset="0" style="stop-color:#0580C3"/>
				<stop  offset="1" style="stop-color:#49C6F3"/>
			</linearGradient>
			<path id="XMLID_322_" fill="url(#XMLID_6_)" d="M49.78,15.637c-1.286-0.813-2.77-1.221-4.449-1.221
				c-1.68,0-3.163,0.407-4.449,1.221c-1.287,0.814-2.284,1.969-2.992,3.465s-1.063,3.229-1.063,5.198
				c0,1.995,0.355,3.741,1.063,5.237c0.709,1.497,1.706,2.652,2.992,3.465c1.286,0.814,2.77,1.221,4.449,1.221
				s3.163-0.407,4.449-1.221c1.286-0.813,2.284-1.969,2.992-3.465c0.709-1.496,1.063-3.242,1.063-5.237
				c0-1.969-0.355-3.701-1.063-5.198C52.065,17.606,51.066,16.451,49.78,15.637z M50.312,30.463
				c-1.169,1.431-2.841,2.146-5.021,2.146c-2.127,0-3.774-0.715-4.942-2.146c-1.169-1.43-1.752-3.485-1.752-6.163
				c0-2.599,0.597-4.627,1.792-6.084c1.194-1.457,2.841-2.185,4.942-2.185c2.1,0,3.747,0.728,4.942,2.185
				c1.194,1.457,1.792,3.485,1.792,6.084C52.065,26.978,51.48,29.033,50.312,30.463z"/>
			
				<linearGradient id="XMLID_8_" gradientUnits="userSpaceOnUse" x1="264.1516" y1="-286.9995" x2="400.4717" y2="-315.0049" gradientTransform="matrix(1 0 0 -1 -266 -276)">
				<stop  offset="0" style="stop-color:#0580C3"/>
				<stop  offset="1" style="stop-color:#49C6F3"/>
			</linearGradient>
			<path id="XMLID_323_" fill="url(#XMLID_8_)" d="M67.264,24.872c-0.972-0.459-2.363-0.912-4.174-1.359
				c-1.287-0.288-2.278-0.59-2.973-0.905s-1.188-0.689-1.477-1.122c-0.289-0.433-0.433-0.991-0.433-1.674
				c0-1.128,0.452-2.041,1.359-2.737c0.906-0.695,2.093-1.044,3.564-1.044c1.128,0,2.067,0.171,2.815,0.512
				c0.748,0.342,1.463,0.775,2.146,1.3c0.473,0.394,0.813,0.59,1.024,0.59c0.184,0,0.341-0.072,0.473-0.217
				c0.131-0.144,0.197-0.308,0.197-0.492c0-0.288-0.112-0.571-0.335-0.847c-0.223-0.275-0.584-0.597-1.083-0.965
				c-0.683-0.473-1.471-0.84-2.362-1.102c-0.893-0.262-1.825-0.394-2.796-0.394c-2.022,0-3.669,0.512-4.942,1.536
				c-1.273,1.024-1.91,2.349-1.91,3.977c0,1.339,0.499,2.416,1.497,3.229c0.998,0.814,2.651,1.484,4.962,2.008
				c1.391,0.315,2.461,0.637,3.209,0.965c0.748,0.329,1.286,0.715,1.614,1.162s0.493,1.011,0.493,1.693
				c0,1.156-0.46,2.047-1.378,2.678c-0.919,0.63-2.232,0.945-3.938,0.945c-1.26,0-2.304-0.177-3.131-0.532
				c-0.827-0.355-1.621-0.807-2.382-1.359c-0.079-0.053-0.23-0.151-0.452-0.295c-0.223-0.144-0.4-0.217-0.532-0.217
				c-0.184,0-0.342,0.073-0.473,0.217c-0.132,0.145-0.197,0.309-0.197,0.493c0,0.289,0.092,0.545,0.275,0.768
				c0.184,0.223,0.538,0.506,1.063,0.847c0.813,0.526,1.732,0.939,2.756,1.24c1.024,0.301,2.047,0.453,3.072,0.453
				c2.152,0,3.879-0.479,5.178-1.437c1.3-0.958,1.949-2.225,1.949-3.8c0-0.997-0.204-1.818-0.61-2.461
				C68.924,25.882,68.235,25.331,67.264,24.872z"/>
			
				<linearGradient id="XMLID_9_" gradientUnits="userSpaceOnUse" x1="264.8149" y1="-283.7705" x2="401.1351" y2="-311.7758" gradientTransform="matrix(1 0 0 -1 -266 -276)">
				<stop  offset="0" style="stop-color:#0580C3"/>
				<stop  offset="1" style="stop-color:#49C6F3"/>
			</linearGradient>
			<path id="XMLID_324_" fill="url(#XMLID_9_)" d="M83.645,24.872c-0.972-0.459-2.363-0.912-4.174-1.359
				c-1.287-0.288-2.278-0.59-2.973-0.905s-1.188-0.689-1.477-1.122c-0.289-0.433-0.433-0.991-0.433-1.674
				c0-1.128,0.452-2.041,1.359-2.737c0.906-0.695,2.093-1.044,3.564-1.044c1.128,0,2.067,0.171,2.815,0.512
				c0.748,0.342,1.463,0.775,2.146,1.3c0.473,0.394,0.813,0.59,1.024,0.59c0.184,0,0.341-0.072,0.473-0.217
				c0.131-0.144,0.197-0.308,0.197-0.492c0-0.288-0.112-0.571-0.335-0.847c-0.223-0.275-0.584-0.597-1.083-0.965
				c-0.683-0.473-1.471-0.84-2.362-1.102c-0.893-0.262-1.825-0.394-2.796-0.394c-2.022,0-3.669,0.512-4.942,1.536
				c-1.273,1.024-1.91,2.349-1.91,3.977c0,1.339,0.499,2.416,1.497,3.229c0.998,0.814,2.651,1.484,4.962,2.008
				c1.391,0.315,2.461,0.637,3.209,0.965c0.748,0.329,1.286,0.715,1.614,1.162c0.328,0.446,0.493,1.011,0.493,1.693
				c0,1.156-0.46,2.047-1.378,2.678c-0.919,0.63-2.232,0.945-3.938,0.945c-1.26,0-2.304-0.177-3.131-0.532
				c-0.827-0.355-1.621-0.807-2.382-1.359c-0.079-0.053-0.23-0.151-0.452-0.295c-0.223-0.144-0.4-0.217-0.532-0.217
				c-0.184,0-0.342,0.073-0.473,0.217c-0.132,0.145-0.197,0.309-0.197,0.493c0,0.289,0.092,0.545,0.275,0.768
				c0.184,0.223,0.538,0.506,1.063,0.847c0.813,0.526,1.732,0.939,2.756,1.24c1.024,0.301,2.047,0.453,3.072,0.453
				c2.152,0,3.879-0.479,5.178-1.437c1.3-0.958,1.949-2.225,1.949-3.8c0-0.997-0.204-1.818-0.61-2.461
				C85.305,25.882,84.616,25.331,83.645,24.872z"/>
			
				<linearGradient id="XMLID_11_" gradientUnits="userSpaceOnUse" x1="265.5221" y1="-280.3282" x2="401.8423" y2="-308.3335" gradientTransform="matrix(1 0 0 -1 -266 -276)">
				<stop  offset="0" style="stop-color:#0580C3"/>
				<stop  offset="1" style="stop-color:#49C6F3"/>
			</linearGradient>
			<path id="XMLID_327_" fill="url(#XMLID_11_)" d="M101.286,15.637c-1.286-0.813-2.77-1.221-4.449-1.221
				c-1.68,0-3.163,0.407-4.449,1.221c-1.287,0.814-2.284,1.969-2.992,3.465s-1.063,3.229-1.063,5.198
				c0,1.995,0.355,3.741,1.063,5.237c0.709,1.497,1.706,2.652,2.992,3.465c1.286,0.814,2.77,1.221,4.449,1.221
				c1.68,0,3.163-0.407,4.449-1.221c1.286-0.813,2.284-1.969,2.992-3.465c0.709-1.496,1.063-3.242,1.063-5.237
				c0-1.969-0.355-3.701-1.063-5.198C103.571,17.606,102.572,16.451,101.286,15.637z M101.818,30.463
				c-1.169,1.431-2.841,2.146-5.021,2.146c-2.127,0-3.774-0.715-4.942-2.146c-1.169-1.43-1.752-3.485-1.752-6.163
				c0-2.599,0.597-4.627,1.792-6.084c1.194-1.457,2.841-2.185,4.942-2.185c2.1,0,3.747,0.728,4.942,2.185
				c1.194,1.457,1.792,3.485,1.792,6.084C103.571,26.978,102.986,29.033,101.818,30.463z"/>
			
				<linearGradient id="XMLID_12_" gradientUnits="userSpaceOnUse" x1="266.4344" y1="-275.8877" x2="402.7545" y2="-303.893" gradientTransform="matrix(1 0 0 -1 -266 -276)">
				<stop  offset="0" style="stop-color:#0580C3"/>
				<stop  offset="1" style="stop-color:#49C6F3"/>
			</linearGradient>
			<path id="XMLID_328_" fill="url(#XMLID_12_)" d="M128.299,14.417c-1.471,0-2.77,0.342-3.899,1.024
				c-1.129,0.683-1.956,1.615-2.481,2.796c-0.867-2.546-2.835-3.819-5.906-3.819c-1.418,0-2.645,0.329-3.682,0.985
				c-1.037,0.656-1.818,1.601-2.343,2.835v-2.835c0-0.288-0.066-0.512-0.197-0.67c-0.132-0.157-0.329-0.236-0.59-0.236
				c-0.551,0-0.827,0.302-0.827,0.906V33.24c0,0.262,0.072,0.479,0.217,0.65c0.144,0.171,0.348,0.256,0.61,0.256
				c0.262,0,0.466-0.085,0.61-0.256c0.144-0.17,0.217-0.387,0.217-0.65V22.843c0-2.1,0.538-3.767,1.615-5.001
				c1.076-1.233,2.546-1.851,4.41-1.851c1.601,0,2.77,0.466,3.505,1.398c0.735,0.932,1.102,2.422,1.102,4.469v11.38
				c0,0.262,0.072,0.479,0.217,0.65c0.144,0.171,0.348,0.256,0.61,0.256c0.262,0,0.465-0.085,0.61-0.256
				c0.144-0.17,0.217-0.387,0.217-0.65V22.843c0-2.1,0.545-3.767,1.634-5.001c1.089-1.233,2.552-1.851,4.391-1.851
				c1.601,0,2.769,0.466,3.504,1.398c0.735,0.932,1.102,2.422,1.102,4.469v11.38c0,0.262,0.072,0.479,0.217,0.65
				c0.144,0.171,0.348,0.256,0.61,0.256s0.466-0.085,0.61-0.256c0.144-0.17,0.217-0.387,0.217-0.65V21.662
				C134.6,16.832,132.499,14.417,128.299,14.417z"/>
			
				<linearGradient id="XMLID_14_" gradientUnits="userSpaceOnUse" x1="262.9163" y1="-293.0121" x2="399.2365" y2="-321.0175" gradientTransform="matrix(1 0 0 -1 -266 -276)">
				<stop  offset="0" style="stop-color:#0580C3"/>
				<stop  offset="1" style="stop-color:#49C6F3"/>
			</linearGradient>
			<path id="XMLID_331_" fill="url(#XMLID_14_)" d="M28.242,12.099c-1.347-3.7-4.894-6.185-8.83-6.185h-0.003
				c-0.006,0-0.012,0.001-0.018,0.001H2.229c-0.801,0-1.449,0.649-1.449,1.449v25.173c0,0.801,0.649,1.449,1.449,1.449h17.181h0.001
				c1.089-0.002,2.164-0.193,3.195-0.569c2.358-0.858,4.241-2.584,5.302-4.858c1.061-2.275,1.172-4.826,0.314-7.184
				c-0.179-0.491-0.398-0.961-0.649-1.408C28.948,17.562,29.196,14.722,28.242,12.099z M2.365,7.5h11.823
				c-1.417,0.944-2.553,2.259-3.29,3.841c-1.061,2.275-1.172,4.826-0.314,7.184c0.18,0.493,0.399,0.964,0.653,1.411
				c-0.547,0.956-0.931,2.012-1.115,3.123c-1.108-0.008-2.211-0.251-3.245-0.734c-1.891-0.882-3.325-2.447-4.038-4.407
				c-0.314-0.863-0.474-1.762-0.474-2.671V7.5z M16.283,17.426c0.144-0.062,0.289-0.122,0.438-0.176
				c0.355-0.129,0.715-0.231,1.078-0.308c-0.116,0.519-0.284,1.02-0.5,1.497C16.987,18.076,16.646,17.738,16.283,17.426z
				 M16.44,19.902c-0.474,0.636-1.042,1.201-1.689,1.671c-0.617-0.459-1.167-1.009-1.627-1.633c0.471-0.635,1.037-1.199,1.68-1.668
				C15.424,18.731,15.977,19.279,16.44,19.902z M17.505,21.88c0.129,0.354,0.23,0.713,0.307,1.076
				c-0.553-0.116-1.086-0.292-1.593-0.52c0.388-0.327,0.748-0.685,1.078-1.069C17.371,21.534,17.441,21.705,17.505,21.88z
				 M13.272,22.416c-0.139,0.06-0.28,0.118-0.424,0.17c-0.355,0.129-0.715,0.231-1.079,0.308c0.115-0.515,0.282-1.013,0.496-1.488
				C12.575,21.768,12.912,22.106,13.272,22.416z M12.271,18.472c-0.071-0.16-0.137-0.323-0.197-0.489
				c-0.129-0.354-0.231-0.714-0.307-1.076c0.543,0.114,1.068,0.286,1.567,0.508C12.951,17.739,12.597,18.093,12.271,18.472z
				 M2.365,20.469c1.749,2.618,4.711,4.175,7.822,4.175c1.065,0,2.147-0.182,3.204-0.567c0.47-0.171,0.92-0.379,1.35-0.618
				c0.988,0.569,2.083,0.961,3.238,1.141c-0.006,1.11-0.251,2.216-0.734,3.253c-0.882,1.89-2.447,3.325-4.407,4.038
				c-0.863,0.314-1.762,0.512-2.671,0.512H2.365V20.469z M26.47,27.889c-0.882,1.891-2.446,3.325-4.406,4.038
				c-0.858,0.312-1.751,0.472-2.656,0.474H15.33c1.445-0.946,2.604-2.276,3.352-3.88c1.061-2.275,1.172-4.826,0.314-7.184
				c-0.182-0.501-0.406-0.979-0.665-1.432c0.549-0.957,0.933-2.014,1.118-3.128c1.108,0.008,2.211,0.251,3.245,0.734
				c1.89,0.882,3.325,2.446,4.038,4.407C27.444,23.878,27.352,25.999,26.47,27.889z M23.363,16.074
				c-2.274-1.06-4.826-1.171-7.184-0.314c-0.476,0.174-0.933,0.385-1.367,0.629c-0.981-0.56-2.067-0.947-3.212-1.125
				c0.006-1.11,0.251-2.216,0.735-3.252c0.882-1.891,2.446-3.325,4.406-4.038c0.857-0.312,1.749-0.471,2.651-0.473h0.017V7.5l0,0
				h0.003c3.271,0,6.22,2.066,7.339,5.142c0.704,1.935,0.619,4.01-0.207,5.851C25.682,17.479,24.605,16.653,23.363,16.074z"/>
		</g>
		<g id="XMLID_411_">
			<path id="XMLID_3_" fill="#0A1F33" d="M110.775,42.149c-0.078-0.077-0.116-0.18-0.116-0.306c0-0.127,0.039-0.229,0.116-0.307
				c0.078-0.077,0.176-0.116,0.296-0.116c0.113,0,0.208,0.039,0.286,0.116c0.077,0.078,0.116,0.18,0.116,0.307
				c0,0.127-0.039,0.229-0.116,0.306c-0.078,0.078-0.173,0.116-0.286,0.116C110.951,42.265,110.853,42.227,110.775,42.149z"/>
			<path id="XMLID_5_" fill="#0A1F33" d="M115.098,42.065c0,0.155-0.103,0.222-0.307,0.201l-0.275-0.021
				c-0.528-0.035-0.916-0.195-1.163-0.481c-0.247-0.286-0.37-0.728-0.37-1.326v-2.96h-0.877c-0.049,0-0.092-0.018-0.127-0.053
				c-0.036-0.036-0.053-0.078-0.053-0.127c0-0.056,0.018-0.104,0.053-0.143c0.036-0.039,0.078-0.058,0.127-0.058h0.877v-1.406
				c0-0.078,0.021-0.137,0.064-0.18s0.095-0.064,0.159-0.064c0.064,0,0.116,0.021,0.159,0.064s0.064,0.103,0.064,0.18v1.406h1.406
				c0.049,0,0.092,0.019,0.127,0.058s0.053,0.086,0.053,0.143c0,0.049-0.016,0.092-0.048,0.127
				c-0.031,0.036-0.076,0.053-0.132,0.053h-1.406v2.971c0,0.479,0.093,0.821,0.28,1.025c0.187,0.204,0.477,0.325,0.872,0.359
				l0.286,0.021C115.02,41.867,115.098,41.937,115.098,42.065z"/>
			<path id="XMLID_7_" fill="#0A1F33" d="M120.099,41.266c0.036,0.039,0.053,0.083,0.053,0.132c0,0.07-0.027,0.139-0.079,0.206
				c-0.053,0.067-0.146,0.143-0.28,0.228c-0.507,0.303-1.033,0.454-1.575,0.454c-0.768,0-1.373-0.236-1.813-0.708
				c-0.441-0.472-0.661-1.121-0.661-1.945c0-0.528,0.098-0.994,0.296-1.395c0.197-0.402,0.476-0.713,0.835-0.936
				c0.359-0.222,0.772-0.333,1.237-0.333c0.649,0,1.159,0.211,1.533,0.634s0.56,1.001,0.56,1.734c0,0.127-0.025,0.219-0.074,0.275
				c-0.049,0.057-0.137,0.085-0.264,0.085h-3.636c0.007,0.691,0.181,1.223,0.523,1.596c0.342,0.374,0.823,0.56,1.443,0.56
				c0.338,0,0.618-0.046,0.841-0.137c0.222-0.092,0.439-0.211,0.65-0.359c0.148-0.098,0.243-0.148,0.286-0.148
				C120.021,41.208,120.063,41.227,120.099,41.266z M116.816,37.884c-0.328,0.335-0.52,0.802-0.576,1.401h3.541
				c-0.014-0.613-0.165-1.083-0.454-1.411c-0.289-0.328-0.694-0.491-1.216-0.491C117.576,37.381,117.144,37.549,116.816,37.884z"/>
			<path id="XMLID_10_" fill="#0A1F33" d="M125.363,38.862v3.15c0,0.078-0.02,0.137-0.058,0.18
				c-0.039,0.042-0.094,0.064-0.164,0.064c-0.07,0-0.127-0.023-0.169-0.069c-0.042-0.046-0.064-0.104-0.064-0.174v-0.74
				c-0.155,0.324-0.379,0.575-0.671,0.75c-0.292,0.176-0.625,0.264-0.999,0.264c-0.324,0-0.621-0.067-0.888-0.201
				c-0.268-0.134-0.481-0.316-0.64-0.545c-0.159-0.229-0.241-0.485-0.249-0.767c-0.007-0.387,0.088-0.687,0.286-0.899
				c0.197-0.211,0.528-0.363,0.994-0.454c0.465-0.092,1.117-0.137,1.956-0.137h0.211V38.84c0-0.5-0.1-0.865-0.301-1.094
				c-0.201-0.229-0.517-0.344-0.946-0.344c-0.338,0-0.64,0.044-0.904,0.132c-0.264,0.088-0.474,0.189-0.629,0.301
				c-0.028,0.021-0.086,0.062-0.174,0.122c-0.088,0.06-0.161,0.09-0.217,0.09c-0.049,0-0.094-0.019-0.132-0.058
				c-0.039-0.039-0.058-0.086-0.058-0.143c0-0.134,0.123-0.275,0.37-0.423s0.516-0.26,0.808-0.338
				c0.292-0.078,0.583-0.116,0.872-0.116C124.774,36.969,125.363,37.6,125.363,38.862z M124.094,41.616
				c0.254-0.152,0.452-0.361,0.597-0.629c0.144-0.268,0.217-0.571,0.217-0.909v-0.381h-0.201c-0.74,0-1.304,0.03-1.691,0.09
				c-0.387,0.06-0.659,0.162-0.814,0.306c-0.155,0.144-0.232,0.358-0.232,0.64c0,0.325,0.12,0.59,0.359,0.798
				c0.239,0.208,0.543,0.312,0.909,0.312C123.555,41.842,123.84,41.767,124.094,41.616z"/>
			<path id="XMLID_13_" fill="#0A1F33" d="M134.179,38.914v3.108c0,0.07-0.019,0.128-0.058,0.174
				c-0.039,0.046-0.094,0.068-0.164,0.068s-0.125-0.023-0.164-0.068c-0.039-0.046-0.058-0.104-0.058-0.174v-3.055
				c0-0.549-0.099-0.95-0.296-1.2c-0.197-0.25-0.511-0.375-0.941-0.375c-0.493,0-0.886,0.165-1.179,0.497
				c-0.292,0.331-0.439,0.779-0.439,1.343v2.791c0,0.07-0.019,0.128-0.058,0.174c-0.039,0.046-0.094,0.068-0.164,0.068
				c-0.07,0-0.125-0.023-0.164-0.068c-0.039-0.046-0.058-0.104-0.058-0.174v-3.055c0-0.549-0.099-0.95-0.296-1.2
				c-0.198-0.25-0.511-0.375-0.941-0.375c-0.5,0-0.895,0.165-1.184,0.497c-0.289,0.331-0.433,0.779-0.433,1.343v2.791
				c0,0.07-0.019,0.128-0.058,0.174c-0.039,0.046-0.094,0.068-0.164,0.068c-0.07,0-0.125-0.023-0.164-0.068
				c-0.039-0.046-0.058-0.104-0.058-0.174v-4.788c0-0.162,0.074-0.243,0.222-0.243c0.07,0,0.123,0.021,0.159,0.064
				c0.036,0.042,0.053,0.103,0.053,0.18v0.761c0.141-0.331,0.351-0.585,0.629-0.761c0.278-0.176,0.608-0.264,0.988-0.264
				c0.825,0,1.353,0.342,1.585,1.025c0.141-0.317,0.363-0.567,0.666-0.75c0.303-0.183,0.652-0.275,1.047-0.275
				C133.615,36.969,134.179,37.618,134.179,38.914z"/>
		</g>
	</g>
	<g>
		<path fill="#ED1C24" d="M156.98,11.742c0,0.752-0.615,1.367-1.367,1.367h-21.126c-0.752,0-1.367-0.615-1.367-1.367V3.7
			c0-0.752,0.615-1.367,1.367-1.367h21.126c0.752,0,1.367,0.615,1.367,1.367V11.742z"/>
	</g>
	<g>
		<path fill="#FFFFFF" d="M140.959,8.134c0.198,0.267,0.298,0.592,0.298,0.977c0,0.533-0.191,0.951-0.573,1.253
			c-0.382,0.302-0.908,0.453-1.577,0.453h-2.843V4.554h2.753c0.652,0,1.162,0.144,1.533,0.431c0.37,0.287,0.556,0.689,0.556,1.204
			c0,0.331-0.087,0.619-0.262,0.862c-0.175,0.243-0.416,0.421-0.724,0.533C140.481,7.684,140.761,7.868,140.959,8.134z
			 M137.383,7.193h1.448c0.787,0,1.182-0.293,1.182-0.879c0-0.297-0.098-0.515-0.293-0.657c-0.195-0.142-0.492-0.213-0.888-0.213
			h-1.448V7.193z M139.888,9.707c0.189-0.148,0.284-0.379,0.284-0.693s-0.096-0.547-0.289-0.702
			c-0.192-0.154-0.493-0.231-0.901-0.231h-1.599v1.848h1.599C139.397,9.929,139.699,9.855,139.888,9.707z"/>
		<path fill="#FFFFFF" d="M146.045,8.845h-2.958c0.036,0.403,0.156,0.702,0.364,0.897s0.503,0.293,0.888,0.293
			c0.48,0,0.918-0.154,1.315-0.462l0.32,0.764c-0.202,0.166-0.455,0.299-0.76,0.4c-0.305,0.1-0.612,0.151-0.919,0.151
			c-0.711,0-1.272-0.201-1.684-0.604c-0.412-0.403-0.617-0.954-0.617-1.652c0-0.444,0.089-0.838,0.267-1.182s0.428-0.61,0.751-0.8
			c0.323-0.189,0.689-0.284,1.097-0.284c0.598,0,1.07,0.193,1.417,0.577c0.347,0.385,0.52,0.915,0.52,1.59L146.045,8.845
			L146.045,8.845z M143.419,7.433c-0.18,0.19-0.292,0.462-0.333,0.817h2.008c-0.012-0.362-0.1-0.636-0.267-0.822
			c-0.165-0.187-0.396-0.28-0.693-0.28S143.6,7.243,143.419,7.433z"/>
		<path fill="#FFFFFF" d="M149.519,10.027l-0.053,0.826c-0.178,0.018-0.341,0.027-0.489,0.027c-0.611,0-1.061-0.141-1.351-0.422
			c-0.29-0.281-0.435-0.7-0.435-1.257V7.308h-0.835V6.473h0.835V5.176h1.11v1.297h1.146v0.835h-1.146v1.874
			c0,0.581,0.27,0.871,0.808,0.871C149.24,10.053,149.377,10.045,149.519,10.027z"/>
		<path fill="#FFFFFF" d="M153.392,6.811c0.296,0.296,0.444,0.752,0.444,1.368v2.638h-1.057v-0.666
			c-0.1,0.231-0.259,0.412-0.475,0.542c-0.216,0.13-0.467,0.195-0.751,0.195c-0.29,0-0.554-0.059-0.791-0.178
			c-0.237-0.118-0.423-0.282-0.559-0.489c-0.137-0.207-0.205-0.438-0.205-0.693c0-0.32,0.081-0.571,0.244-0.755
			c0.163-0.183,0.428-0.316,0.795-0.4c0.367-0.083,0.873-0.124,1.519-0.124h0.222V8.046c0-0.296-0.064-0.509-0.191-0.64
			c-0.128-0.13-0.339-0.195-0.636-0.195c-0.231,0-0.472,0.04-0.724,0.12c-0.252,0.08-0.499,0.191-0.741,0.333l-0.311-0.764
			c0.242-0.154,0.536-0.282,0.879-0.382c0.344-0.1,0.669-0.151,0.978-0.151C152.643,6.367,153.097,6.514,153.392,6.811z
			 M152.5,9.791c0.186-0.199,0.28-0.454,0.28-0.769V8.836h-0.16c-0.396,0-0.705,0.018-0.924,0.053
			c-0.219,0.036-0.377,0.098-0.471,0.187c-0.095,0.089-0.142,0.21-0.142,0.364c0,0.19,0.066,0.345,0.195,0.467
			c0.13,0.122,0.297,0.182,0.498,0.182C152.072,10.089,152.313,9.99,152.5,9.791z"/>
	</g>
</g>
</svg>
