<?xml version="1.0" encoding="utf-8"?>
<!-- Generator: Adobe Illustrator 17.0.0, SVG Export Plug-In . SVG Version: 6.00 Build 0)  -->
<!DOCTYPE svg PUBLIC "-//W3C//DTD SVG 1.1//EN" "http://www.w3.org/Graphics/SVG/1.1/DTD/svg11.dtd">
<svg version="1.1" id="Layer_1" xmlns="http://www.w3.org/2000/svg" xmlns:xlink="http://www.w3.org/1999/xlink" x="0px" y="0px"
	 width="632px" height="480px" viewBox="0 0 632 480" enable-background="new 0 0 632 480" xml:space="preserve">
<g id="XMLID_122_">
	<g id="XMLID_465_">
		<path id="XMLID_679_" fill="#E7EBF6" d="M392.403,114.367H256.469c-3.698,0-6.696,2.998-6.696,6.695v263.827
			c0,3.698,2.998,6.696,6.696,6.696h135.934c3.698,0,6.696-2.998,6.696-6.696V121.063
			C399.098,117.365,396.1,114.367,392.403,114.367z"/>
		<g id="XMLID_670_">
			<g id="XMLID_677_">
				<linearGradient id="XMLID_2_" gradientUnits="userSpaceOnUse" x1="193.6613" y1="-14.9655" x2="349.6202" y2="140.9934">
					<stop  offset="0" style="stop-color:#0980C1"/>
					<stop  offset="1" style="stop-color:#51C3F0"/>
				</linearGradient>
				<path id="XMLID_678_" fill="url(#XMLID_2_)" d="M268.428,128.125c-0.023,0-0.047-0.001-0.07-0.003
					c-24.806-1.947-46.331-18.307-54.838-41.681c-11.997-32.962,5.059-69.539,38.021-81.536
					c32.96-11.999,69.538,5.059,81.536,38.021c6.852,18.826,4.564,39.303-6.277,56.181c-0.265,0.413-0.815,0.532-1.229,0.268
					c-0.413-0.265-0.533-0.816-0.268-1.229c10.539-16.406,12.763-36.311,6.103-54.611c-11.662-32.04-47.215-48.621-79.257-36.957
					c-32.04,11.662-48.62,47.216-36.958,79.256c8.27,22.72,29.193,38.623,53.306,40.515c0.49,0.039,0.856,0.467,0.817,0.956
					C269.277,127.771,268.888,128.125,268.428,128.125z"/>
			</g>
			<g id="XMLID_675_">
				<linearGradient id="XMLID_3_" gradientUnits="userSpaceOnUse" x1="160.2678" y1="18.428" x2="316.2267" y2="174.3869">
					<stop  offset="0" style="stop-color:#0980C1"/>
					<stop  offset="1" style="stop-color:#51C3F0"/>
				</linearGradient>
				<path id="XMLID_676_" fill="url(#XMLID_3_)" d="M273.053,195.99c-11.958,0-23.786-3.414-34.238-10.104
					c-0.414-0.265-0.535-0.815-0.27-1.229c0.265-0.413,0.816-0.534,1.229-0.27c16.389,10.49,36.263,12.694,54.526,6.048
					c32.04-11.662,48.619-47.216,36.958-79.257C319.594,79.14,284.04,62.561,252,74.222c-22.447,8.17-38.328,28.83-40.459,52.633
					c-0.043,0.489-0.468,0.849-0.965,0.806c-0.489-0.044-0.85-0.476-0.806-0.965c2.192-24.487,18.53-45.741,41.623-54.146
					c32.96-11.998,69.539,5.059,81.536,38.021c11.997,32.962-5.059,69.539-38.021,81.536
					C287.767,194.706,280.385,195.99,273.053,195.99z"/>
			</g>
			<g id="XMLID_673_">
				<linearGradient id="XMLID_4_" gradientUnits="userSpaceOnUse" x1="126.2433" y1="52.4525" x2="282.2021" y2="208.4114">
					<stop  offset="0" style="stop-color:#0980C1"/>
					<stop  offset="1" style="stop-color:#51C3F0"/>
				</linearGradient>
				<path id="XMLID_674_" fill="url(#XMLID_4_)" d="M205.837,195.694c-9.164,0-18.294-2.006-26.847-5.994
					c-15.4-7.181-27.082-19.93-32.893-35.897c-6.855-18.835-4.563-39.319,6.29-56.201c0.266-0.412,0.815-0.532,1.229-0.267
					c0.413,0.266,0.532,0.816,0.267,1.229c-10.55,16.41-12.779,36.322-6.115,54.63c5.649,15.521,17.005,27.913,31.974,34.893
					c14.969,6.98,31.761,7.713,47.282,2.064c15.521-5.649,27.913-17.004,34.893-31.974c6.98-14.969,7.713-31.761,2.064-47.282
					c-8.268-22.716-29.188-38.619-53.297-40.514c-0.489-0.039-0.855-0.467-0.817-0.957c0.039-0.49,0.462-0.849,0.957-0.817
					c24.801,1.95,46.323,18.31,54.828,41.68c11.997,32.962-5.059,69.539-38.021,81.536
					C220.533,194.408,213.174,195.694,205.837,195.694z"/>
			</g>
			<g id="XMLID_671_">
				<linearGradient id="XMLID_5_" gradientUnits="userSpaceOnUse" x1="159.7115" y1="18.9843" x2="315.6703" y2="174.9432">
					<stop  offset="0" style="stop-color:#0980C1"/>
					<stop  offset="1" style="stop-color:#51C3F0"/>
				</linearGradient>
				<path id="XMLID_672_" fill="url(#XMLID_5_)" d="M205.918,127.864c-9.164,0-18.294-2.006-26.847-5.994
					c-15.4-7.181-27.082-19.93-32.893-35.897c-5.812-15.968-5.058-33.242,2.124-48.643c7.181-15.4,19.929-27.082,35.897-32.893
					c18.865-6.867,39.375-4.557,56.271,6.336c0.413,0.266,0.532,0.816,0.265,1.229c-0.265,0.413-0.817,0.532-1.229,0.265
					c-16.423-10.589-36.36-12.834-54.699-6.159c-15.521,5.649-27.912,17.004-34.893,31.973c-6.98,14.97-7.713,31.762-2.064,47.283
					c5.649,15.521,17.004,27.912,31.973,34.893c14.969,6.98,31.761,7.713,47.282,2.064c22.447-8.17,38.328-28.83,40.459-52.633
					c0.043-0.489,0.468-0.849,0.965-0.806c0.489,0.044,0.85,0.476,0.806,0.965c-2.192,24.487-18.53,45.741-41.623,54.146
					C220.614,126.578,213.255,127.864,205.918,127.864z"/>
			</g>
		</g>
		<g id="XMLID_663_">
			<g id="XMLID_667_">
				<path id="XMLID_669_" fill="#4FBEA1" d="M258.549,417.516c0,0,0.503-22.624-8.776-37.279
					c-9.28-14.655-41.661-40.027-51.756-36.886c-7.964,2.479-8.92,60.47,11.788,74.165L258.549,417.516L258.549,417.516z"/>
				<path id="XMLID_668_" fill="none" stroke="#495DA7" stroke-width="1.05" stroke-linecap="round" stroke-miterlimit="10" d="
					M201.522,349.652c0,0,25.805,27.717,35.363,67.864"/>
			</g>
			<g id="XMLID_664_">
				<path id="XMLID_666_" fill="#1FA280" d="M253.7,417.958c0,0-3.443-59.12-11.428-84.341
					c-6.053-19.115-16.614-35.453-37.246-46.923c-13.601-7.561-27.08-6.691-23.257,0c3.823,6.691,15.93,16.282,31.54,41.417
					c14.103,22.707,26.969,66.912,27.184,89.847H253.7z"/>
				<path id="XMLID_665_" fill="none" stroke="#495DA7" stroke-width="1.05" stroke-linecap="round" stroke-miterlimit="10" d="
					M188.779,286.376c15.93,9.877,34.941,28.789,43.328,53.103c8.387,24.314,11.788,65.42,11.469,78.479"/>
			</g>
		</g>
		<path id="XMLID_662_" fill="#6A86C3" d="M628.43,419.902H3.57c-1.318,0-2.386-1.068-2.386-2.386l0,0
			c0-1.318,1.068-2.386,2.386-2.386H628.43c1.318,0,2.386,1.068,2.386,2.386l0,0C630.816,418.834,629.748,419.902,628.43,419.902z"
			/>
		<path id="XMLID_661_" fill="#E5F4FB" d="M542.208,479.448H155.79c-26.471,0-47.93-21.459-47.93-47.93v-11.616h482.279v11.616
			C590.138,457.989,568.68,479.448,542.208,479.448z"/>
		<g id="XMLID_656_">
			<g id="XMLID_658_">
				<path id="XMLID_660_" fill="#4FBEA1" d="M240.493,369.165c0,0,23.639-30.665,31.905-59.299
					c8.266-28.634,10.627-68.782,7.971-69.668c-2.657-0.886-23.911,23.321-32.664,51.07
					C240.117,315.322,240.493,369.165,240.493,369.165z"/>
				<path id="XMLID_659_" fill="none" stroke="#495DA7" stroke-width="1.05" stroke-linecap="round" stroke-miterlimit="10" d="
					M275.054,250.53c0,0-30.86,61.18-32.314,109.552"/>
			</g>
			<path id="XMLID_657_" fill="#1FA280" d="M240.493,379.456c0,0-1.285-32.426,27.295-30.107
				c25.252,2.048,23.257,30.107,23.257,30.107s12.053-8.801,26.125-1.97c18.627,9.042,13.381,28.673,13.381,28.673h-90.057V379.456z
				"/>
		</g>
		<path id="XMLID_653_" fill="#2164AD" d="M395.457,90.823H253.414c-7.136,0-12.921,5.785-12.921,12.921v298.465
			c0,7.135,5.785,12.921,12.921,12.921h142.043c7.135,0,12.921-5.785,12.921-12.921V103.743
			C408.378,96.608,402.593,90.823,395.457,90.823z M399.098,384.889c0,3.698-2.998,6.696-6.696,6.696H256.469
			c-3.698,0-6.696-2.998-6.696-6.696V121.063c0-3.698,2.998-6.695,6.696-6.695h135.934c3.698,0,6.696,2.998,6.696,6.695
			L399.098,384.889L399.098,384.889z"/>
		<circle id="XMLID_652_" fill="#232055" cx="316.918" cy="102.595" r="4.323"/>
		<path id="XMLID_651_" fill="#232055" d="M350.734,102.595L350.734,102.595c0-1.446-1.172-2.618-2.618-2.618h-17.2
			c-1.446,0-2.618,1.172-2.618,2.618l0,0c0,1.446,1.172,2.618,2.618,2.618h17.2C349.562,105.214,350.734,104.041,350.734,102.595z"
			/>
		<g id="XMLID_624_">
			<linearGradient id="XMLID_6_" gradientUnits="userSpaceOnUse" x1="295.8338" y1="256.9889" x2="469.916" y2="256.9889">
				<stop  offset="0" style="stop-color:#0980C1"/>
				<stop  offset="1" style="stop-color:#51C3F0"/>
			</linearGradient>
			<path id="XMLID_649_" fill="url(#XMLID_6_)" d="M465.145,289.068H300.606c-2.636,0-4.772-2.137-4.772-4.772v-54.614
				c0-2.636,2.136-4.772,4.772-4.772h164.537c2.636,0,4.772,2.136,4.772,4.772v54.614
				C469.917,286.931,467.78,289.068,465.145,289.068z"/>
			<linearGradient id="XMLID_7_" gradientUnits="userSpaceOnUse" x1="295.8338" y1="175.5206" x2="469.916" y2="175.5206">
				<stop  offset="0" style="stop-color:#0980C1"/>
				<stop  offset="1" style="stop-color:#51C3F0"/>
			</linearGradient>
			<path id="XMLID_648_" fill="url(#XMLID_7_)" d="M465.145,207.6H300.606c-2.636,0-4.772-2.136-4.772-4.772v-54.613
				c0-2.636,2.136-4.772,4.772-4.772h164.537c2.636,0,4.772,2.136,4.772,4.772v54.613C469.917,205.463,467.78,207.6,465.145,207.6z"
				/>
			<linearGradient id="XMLID_8_" gradientUnits="userSpaceOnUse" x1="295.8338" y1="338.4572" x2="469.916" y2="338.4572">
				<stop  offset="0" style="stop-color:#0980C1"/>
				<stop  offset="1" style="stop-color:#51C3F0"/>
			</linearGradient>
			<path id="XMLID_647_" fill="url(#XMLID_8_)" d="M465.145,370.536H300.606c-2.636,0-4.772-2.136-4.772-4.772v-54.613
				c0-2.636,2.136-4.772,4.772-4.772h164.537c2.636,0,4.772,2.136,4.772,4.772v54.613C469.917,368.4,467.78,370.536,465.145,370.536
				z"/>
			<g id="XMLID_639_">
				<path id="XMLID_646_" fill="#FFFCF8" d="M462.418,203.587H297.88c-2.636,0-4.772-2.136-4.772-4.772v-54.613
					c0-2.636,2.136-4.772,4.772-4.772h164.538c2.635,0,4.772,2.136,4.772,4.772v54.613
					C467.19,201.45,465.054,203.587,462.418,203.587z"/>
				<circle id="XMLID_645_" fill="#FFFCF8" cx="327.051" cy="171.508" r="23.952"/>
				<path id="XMLID_643_" fill="#5EC2B9" d="M410.404,164.803h-48.731c-1.318,0-2.386-1.068-2.386-2.386v-5.526
					c0-1.318,1.068-2.386,2.386-2.386h48.731c1.318,0,2.386,1.068,2.386,2.386v5.526
					C412.79,163.735,411.722,164.803,410.404,164.803z"/>
				<path id="XMLID_642_" fill="#6A86C3" d="M451.767,173.44h-91.683c-0.439,0-0.795,0.356-0.795,0.795v0.489
					c0,0.439,0.357,0.795,0.795,0.795h91.683c0.439,0,0.795-0.356,0.795-0.795v-0.489
					C452.562,173.797,452.206,173.44,451.767,173.44z"/>
				<path id="XMLID_641_" fill="#6A86C3" d="M451.767,182.038h-91.683c-0.439,0-0.795,0.356-0.795,0.795v0.489
					c0,0.439,0.357,0.795,0.795,0.795h91.683c0.439,0,0.795-0.356,0.795-0.795v-0.489
					C452.562,182.395,452.206,182.038,451.767,182.038z"/>
				<path id="XMLID_640_" fill="#6A86C3" d="M451.767,190.636h-91.683c-0.439,0-0.795,0.356-0.795,0.795v0.489
					c0,0.439,0.357,0.795,0.795,0.795h91.683c0.439,0,0.795-0.356,0.795-0.795v-0.489
					C452.562,190.992,452.206,190.636,451.767,190.636z"/>
			</g>
			<g id="XMLID_632_">
				<path id="XMLID_638_" fill="#FFFCF8" d="M462.418,285.055H297.88c-2.636,0-4.772-2.136-4.772-4.772V225.67
					c0-2.636,2.136-4.772,4.772-4.772h164.538c2.635,0,4.772,2.136,4.772,4.772v54.613
					C467.19,282.918,465.054,285.055,462.418,285.055z"/>
				<circle id="XMLID_637_" fill="#FFFCF8" cx="327.051" cy="252.976" r="23.952"/>
				<path id="XMLID_636_" fill="#5EC2B9" d="M410.404,246.271h-48.731c-1.318,0-2.386-1.068-2.386-2.386v-5.526
					c0-1.318,1.068-2.386,2.386-2.386h48.731c1.318,0,2.386,1.068,2.386,2.386v5.526
					C412.79,245.202,411.722,246.271,410.404,246.271z"/>
				<path id="XMLID_635_" fill="#6A86C3" d="M451.767,254.909h-91.683c-0.439,0-0.795,0.356-0.795,0.795v0.489
					c0,0.439,0.357,0.795,0.795,0.795h91.683c0.439,0,0.795-0.356,0.795-0.795v-0.489
					C452.562,255.265,452.206,254.909,451.767,254.909z"/>
				<path id="XMLID_634_" fill="#6A86C3" d="M451.767,263.507h-91.683c-0.439,0-0.795,0.356-0.795,0.795v0.489
					c0,0.439,0.357,0.795,0.795,0.795h91.683c0.439,0,0.795-0.356,0.795-0.795v-0.489
					C452.562,263.862,452.206,263.507,451.767,263.507z"/>
				<path id="XMLID_633_" fill="#6A86C3" d="M451.767,272.104h-91.683c-0.439,0-0.795,0.356-0.795,0.795v0.489
					c0,0.439,0.357,0.795,0.795,0.795h91.683c0.439,0,0.795-0.356,0.795-0.795v-0.489
					C452.562,272.46,452.206,272.104,451.767,272.104z"/>
			</g>
			<g id="XMLID_625_">
				<path id="XMLID_631_" fill="#FFFCF8" d="M462.418,366.523H297.88c-2.636,0-4.772-2.136-4.772-4.772v-54.613
					c0-2.636,2.136-4.772,4.772-4.772h164.538c2.635,0,4.772,2.136,4.772,4.772v54.613
					C467.19,364.387,465.054,366.523,462.418,366.523z"/>
				<circle id="XMLID_630_" fill="#FFFCF8" cx="327.051" cy="334.444" r="23.952"/>
				<path id="XMLID_629_" fill="#5EC2B9" d="M410.404,327.739h-48.731c-1.318,0-2.386-1.068-2.386-2.386v-5.526
					c0-1.318,1.068-2.386,2.386-2.386h48.731c1.318,0,2.386,1.068,2.386,2.386v5.526C412.79,326.67,411.722,327.739,410.404,327.739
					z"/>
				<path id="XMLID_628_" fill="#6A86C3" d="M451.767,336.377h-91.683c-0.439,0-0.795,0.356-0.795,0.795v0.489
					c0,0.439,0.357,0.795,0.795,0.795h91.683c0.439,0,0.795-0.356,0.795-0.795v-0.489
					C452.562,336.734,452.206,336.377,451.767,336.377z"/>
				<path id="XMLID_627_" fill="#6A86C3" d="M451.767,344.974h-91.683c-0.439,0-0.795,0.356-0.795,0.795v0.489
					c0,0.439,0.357,0.795,0.795,0.795h91.683c0.439,0,0.795-0.356,0.795-0.795v-0.489
					C452.562,345.331,452.206,344.974,451.767,344.974z"/>
				<path id="XMLID_626_" fill="#6A86C3" d="M451.767,353.572h-91.683c-0.439,0-0.795,0.356-0.795,0.795v0.489
					c0,0.439,0.357,0.795,0.795,0.795h91.683c0.439,0,0.795-0.356,0.795-0.795v-0.489
					C452.562,353.929,452.206,353.572,451.767,353.572z"/>
			</g>
		</g>
		<g id="XMLID_583_">
			<g id="XMLID_623_">
				<circle id="SVGID_10_" fill="#E5F4FB" cx="327.051" cy="334.444" r="23.952"/>
			</g>
			<g id="XMLID_584_">
				<defs>
					<circle id="XMLID_585_" cx="327.051" cy="334.444" r="23.952"/>
				</defs>
				<clipPath id="XMLID_9_">
					<use xlink:href="#XMLID_585_"  overflow="visible"/>
				</clipPath>
				<g id="XMLID_586_" clip-path="url(#XMLID_9_)">
					<g id="XMLID_591_">
						<g id="XMLID_619_">
							<g id="XMLID_620_">
								<path id="XMLID_622_" fill="#0E1F31" d="M328.43,318.539L328.43,318.539c5.175,0,9.371,4.195,9.371,9.37v24.267H319.06
									v-24.267C319.059,322.734,323.254,318.539,328.43,318.539z"/>
								<path id="XMLID_621_" fill="#0E1F31" d="M324.412,353.01h-8.19v-22.871c0-4.051,3.284-7.336,7.336-7.336h0.854
									L324.412,353.01L324.412,353.01z"/>
							</g>
						</g>
						<g id="XMLID_615_">
							<path id="XMLID_618_" fill="#F5978C" d="M318.673,333.346c0,0-1.632-0.779-2.601,0.309c-0.97,1.088-0.494,3.56,1.172,4.277
								c1.596,0.687,2.322-0.142,2.322-0.142L318.673,333.346z"/>
							<path id="XMLID_617_" fill="#BA5964" d="M316.966,334.097c0.421-0.125,1.039-0.068,1.371,0.232
								c0.123,0.111-0.11,0.312-0.231,0.259c-0.686-0.299-1.54-0.383-1.932,0.415c-0.02,0.043-0.049-0.004-0.042-0.034
								C316.247,334.523,316.516,334.23,316.966,334.097z"/>
							<path id="XMLID_616_" fill="#BA5964" d="M317.289,334.179c0.08-0.032,0.245,0.172,0.227,0.224
								c-0.117,0.047-0.306,0.167-0.401,0.315c-0.164,0.253-0.218,0.478-0.211,0.783c0.018,0.702,0.382,1.225,1.054,1.421
								c0.012,0.004,0.03,0.04,0.011,0.044c-0.602,0.115-1.239-0.536-1.345-1.074C316.505,335.296,316.592,334.463,317.289,334.179z
								"/>
						</g>
						<g id="XMLID_611_">
							<path id="XMLID_614_" fill="#F5978C" d="M335.408,333.278c0,0,1.63-0.711,2.601,0.377c0.97,1.088,0.494,3.56-1.172,4.277
								c-1.596,0.687-2.322-0.142-2.322-0.142L335.408,333.278z"/>
							<path id="XMLID_613_" fill="#BA5964" d="M337.112,334.097c-0.421-0.125-1.039-0.068-1.371,0.232
								c-0.123,0.111,0.11,0.312,0.231,0.259c0.686-0.299,1.54-0.383,1.932,0.415c0.02,0.043,0.049-0.004,0.042-0.034
								C337.831,334.523,337.563,334.23,337.112,334.097z"/>
							<path id="XMLID_612_" fill="#BA5964" d="M336.79,334.179c-0.08-0.032-0.245,0.172-0.227,0.224
								c0.117,0.047,0.306,0.167,0.401,0.315c0.164,0.253,0.218,0.478,0.211,0.783c-0.018,0.702-0.382,1.225-1.054,1.421
								c-0.012,0.004-0.03,0.04-0.011,0.044c0.601,0.115,1.238-0.536,1.345-1.074C337.574,335.296,337.486,334.463,336.79,334.179z"
								/>
						</g>
						<g id="XMLID_608_">
							<path id="XMLID_610_" fill="#F5978C" d="M310.41,358.396c0-3.68,0.583-5.879,2.513-6.507c0.88-0.286,6.148-1.93,7.808-2.424
								c1.66-0.494,2.111-1.481,2.111-2.334c0-0.853,0-3.765,0-3.765h8.416c0,0,0,2.913,0,3.765c0,0.852,0.452,1.84,2.111,2.334
								c1.66,0.494,6.928,2.137,7.808,2.424c1.93,0.628,2.513,2.827,2.513,6.507H310.41z"/>
							<path id="XMLID_609_" fill="#BA5964" d="M322.842,344.46c0.004,0.012,0.828,2.422,4.208,2.422
								c3.381,0,4.204-2.411,4.209-2.422c0-0.62,0-1.092,0-1.092h-8.416C322.842,343.367,322.842,343.841,322.842,344.46z"/>
						</g>
						<path id="XMLID_607_" fill="#F5978C" d="M330.985,323.904c-1.211-0.694-2.567-1.101-3.946-1.101
							c-1.379,0-2.735,0.406-3.946,1.101c-2.833,1.622-4.472,4.683-4.468,7.895c0,0.01,0,0.02,0,0.03
							c0.001,0.905,0.053,1.811,0.159,2.71l0.149,1.273c0.117,0.997,0.307,1.985,0.615,2.94c1.218,3.769,4.578,6.306,7.491,6.306
							c2.914,0,6.275-2.536,7.492-6.306c0.309-0.954,0.498-1.943,0.615-2.94l0.149-1.274c0.107-0.911,0.16-1.827,0.159-2.744
							c0-0.004,0-0.01,0-0.014C335.45,328.576,333.812,325.524,330.985,323.904z"/>
						<g id="XMLID_604_">
							<circle id="XMLID_606_" fill="#0E1F31" cx="330.833" cy="333.735" r="0.881"/>
							<path id="XMLID_605_" fill="#0E1F31" d="M329.097,331.469l4.091,1.049c0,0-0.165-1.368-1.573-1.713
								C329.902,330.385,329.097,331.469,329.097,331.469z"/>
						</g>
						<g id="XMLID_601_">
							<circle id="XMLID_603_" fill="#0E1F31" cx="323.268" cy="333.735" r="0.881"/>
							<path id="XMLID_602_" fill="#0E1F31" d="M325.004,331.469l-4.091,1.049c0,0,0.165-1.368,1.573-1.713
								C324.2,330.385,325.004,331.469,325.004,331.469z"/>
						</g>
						<g id="XMLID_597_">
							<g id="XMLID_598_">
								<path id="XMLID_600_" fill="#0E1F31" d="M327.038,323.581c0,0,1.749,5.908,8.428,7.272c0,0,0.587-3.839-2.277-6.168
									c-2.864-2.329-6.151-2.189-6.151-2.189L327.038,323.581L327.038,323.581z"/>
								<path id="XMLID_599_" fill="#0E1F31" d="M327.039,323.616c0,0-1.749,5.908-8.428,7.272c0,0-0.587-3.839,2.277-6.168
									s6.151-2.189,6.151-2.189L327.039,323.616L327.039,323.616z"/>
							</g>
						</g>
						<g id="XMLID_592_">
							<path id="XMLID_596_" fill="#F6B750" d="M341.179,351.889c-0.88-0.286-6.148-1.93-7.808-2.424
								c-0.434-0.129-0.784-0.292-1.065-0.478c0.045,0.188,0.069,0.382,0.069,0.583c0,1.485-2.39,2.689-5.337,2.689
								s-5.337-1.204-5.337-2.689c0-0.192,0.021-0.38,0.063-0.56c-0.277,0.176-0.617,0.332-1.033,0.455
								c-1.66,0.494-6.928,2.137-7.808,2.424c-1.93,0.628-2.513,2.827-2.513,6.507h33.282
								C343.692,354.717,343.109,352.517,341.179,351.889z"/>
							<path id="XMLID_595_" fill="#5EC2B9" d="M314.683,351.333c-0.837,0.262-1.497,0.47-1.76,0.557
								c-1.93,0.628-2.513,2.827-2.513,6.507h4.316v-7.063L314.683,351.333L314.683,351.333z"/>
							<path id="XMLID_594_" fill="#5EC2B9" d="M339.418,351.333c0.837,0.262,1.497,0.47,1.76,0.557
								c1.93,0.628,2.513,2.827,2.513,6.507h-4.316v-7.063L339.418,351.333L339.418,351.333z"/>
							<path id="XMLID_593_" fill="#228C7E" d="M327.039,352.845c3.321,0,5.922-1.438,5.922-3.275c0-0.004-0.001-0.103-0.004-0.251
								c-0.551-0.219-0.937-0.5-1.2-0.811c0.019,0.336,0.033,0.86,0.033,1.061c0,0.995-1.951,2.103-4.752,2.103
								s-4.752-1.109-4.752-2.103c0-0.196,0.012-0.699,0.028-1.025c-0.266,0.301-0.653,0.574-1.195,0.785
								c-0.003,0.141-0.004,0.237-0.004,0.24C321.116,351.407,323.718,352.845,327.039,352.845z"/>
						</g>
					</g>
					<path id="XMLID_590_" fill="#BA5964" d="M327.05,333.145c-0.344,0.029-1.226,3.993-0.864,4.67
						c0.149,0.28,0.593,0.559,0.864,0.529c0.271,0.029,0.714-0.249,0.864-0.529C328.277,337.139,327.395,333.174,327.05,333.145z"/>
					<g id="XMLID_587_">
						<path id="XMLID_589_" fill="none" stroke="#0F1E42" stroke-width="0.5788" stroke-linecap="round" stroke-miterlimit="10" d="
							M316.33,322.294c0,0,3.207-0.009,4.08,1.804"/>
						<path id="XMLID_588_" fill="none" stroke="#0F1E42" stroke-width="0.5788" stroke-linecap="round" stroke-miterlimit="10" d="
							M316.825,319.234c0,0,3.712,1.383,3.585,5.161"/>
					</g>
				</g>
			</g>
		</g>
		<g id="XMLID_525_">
			<g id="XMLID_582_">
				<circle id="SVGID_8_" fill="#E5F4FB" cx="327.051" cy="252.976" r="23.952"/>
			</g>
			<g id="XMLID_526_">
				<defs>
					<circle id="XMLID_527_" cx="327.051" cy="252.976" r="23.952"/>
				</defs>
				<clipPath id="XMLID_10_">
					<use xlink:href="#XMLID_527_"  overflow="visible"/>
				</clipPath>
				<g id="XMLID_528_" clip-path="url(#XMLID_10_)">
					<g id="XMLID_534_">
						<g id="XMLID_577_">
							<path id="XMLID_581_" fill="#F5978C" d="M318.685,251.682c0,0-1.62-0.583-2.59,0.505c-0.97,1.088-0.494,3.56,1.172,4.277
								c1.596,0.687,2.322-0.142,2.322-0.142L318.685,251.682z"/>
							<path id="XMLID_580_" fill="#BA5964" d="M316.99,252.628c0.421-0.125,1.039-0.068,1.371,0.232
								c0.123,0.111-0.11,0.312-0.231,0.259c-0.686-0.299-1.54-0.383-1.932,0.415c-0.02,0.043-0.049-0.004-0.042-0.034
								C316.272,253.055,316.54,252.761,316.99,252.628z"/>
							<path id="XMLID_578_" fill="#BA5964" d="M317.313,252.711c0.08-0.032,0.245,0.172,0.227,0.224
								c-0.117,0.047-0.306,0.167-0.401,0.315c-0.164,0.253-0.218,0.478-0.211,0.783c0.018,0.702,0.382,1.225,1.054,1.421
								c0.012,0.004,0.03,0.04,0.011,0.044c-0.601,0.115-1.238-0.536-1.345-1.074C316.529,253.828,316.617,252.995,317.313,252.711z
								"/>
						</g>
						<g id="XMLID_573_">
							<path id="XMLID_576_" fill="#F5978C" d="M335.44,251.682c0,0,1.622-0.583,2.593,0.505c0.97,1.088,0.494,3.56-1.172,4.277
								c-1.596,0.687-2.322-0.142-2.322-0.142L335.44,251.682z"/>
							<path id="XMLID_575_" fill="#BA5964" d="M337.137,252.628c-0.421-0.125-1.039-0.068-1.371,0.232
								c-0.123,0.111,0.11,0.312,0.231,0.259c0.686-0.299,1.54-0.383,1.932,0.415c0.021,0.043,0.049-0.004,0.042-0.034
								C337.855,253.055,337.587,252.761,337.137,252.628z"/>
							<path id="XMLID_574_" fill="#BA5964" d="M336.814,252.711c-0.08-0.032-0.245,0.172-0.227,0.224
								c0.117,0.047,0.306,0.167,0.401,0.315c0.164,0.253,0.218,0.478,0.211,0.783c-0.018,0.702-0.381,1.225-1.053,1.421
								c-0.012,0.004-0.03,0.04-0.011,0.044c0.602,0.115,1.239-0.536,1.345-1.074C337.598,253.828,337.511,252.995,336.814,252.711z
								"/>
						</g>
						<g id="XMLID_567_">
							<path id="XMLID_572_" fill="#F5978C" d="M307.316,276.928c0-3.68,1.743-5.879,3.673-6.507c0.88-0.286,7.308-1.93,8.968-2.424
								c1.66-0.494,2.111-1.481,2.111-2.334c0-0.853,0-4.538,0-4.538h9.963c0,0,0,3.686,0,4.538c0,0.853,0.452,1.84,2.111,2.334
								s8.089,2.137,8.969,2.424c1.93,0.628,3.673,2.827,3.673,6.507H307.316z"/>
							<path id="XMLID_570_" fill="#BA5964" d="M322.07,261.126c0,0,0,0.406,0,1.584c0,0,1.81,2.829,4.993,2.829
								c3.183,0,4.97-2.809,4.97-2.809c0-1.186,0-1.604,0-1.604H322.07z"/>
						</g>
						<g id="XMLID_558_">
							<g id="XMLID_559_">
								<path id="XMLID_561_" fill="#5EC2B9" d="M343.112,270.421c-0.88-0.286-7.308-1.93-8.968-2.424
									c-0.201-0.06-0.382-0.127-0.55-0.2c0.16,0.39,0.248,0.801,0.248,1.229c0,2.396-3.041,4.338-6.792,4.338
									s-6.792-1.942-6.792-4.338c0-0.427,0.088-0.839,0.248-1.229c-0.166,0.073-0.349,0.141-0.55,0.2
									c-1.66,0.494-8.089,2.137-8.968,2.424c-1.93,0.628-3.673,2.827-3.673,6.507h39.47
									C346.785,273.248,345.042,271.049,343.112,270.421z"/>
							</g>
						</g>
						<path id="XMLID_556_" fill="#F5978C" d="M331.009,242.436c-1.211-0.694-2.567-1.101-3.946-1.101
							c-1.38,0-2.803,0.341-4.015,1.034c-2.827,1.62-4.397,4.738-4.4,7.943c0,0.004,0,0.009,0,0.014
							c-0.001,0.917,0.052,1.833,0.159,2.744l0.149,1.273c0.117,0.996,0.442,2.921,1.198,4.769c1.5,3.666,4.849,4.864,6.909,4.864
							c2.06,0,5.408-1.198,6.909-4.864c0.756-1.848,1.082-3.773,1.198-4.769l0.149-1.273c0.107-0.911,0.16-1.827,0.159-2.744
							c0-0.004,0-0.01,0-0.014C335.474,247.108,333.836,244.056,331.009,242.436z"/>
						<g id="XMLID_543_">
							<circle id="XMLID_555_" fill="#0E1F31" cx="330.858" cy="252.277" r="0.881"/>
							<path id="XMLID_554_" fill="#0E1F31" d="M329.508,249.625l4.091,1.049c0,0-0.221-1.156-1.657-1.845
								c-0.626-0.301-1.35-0.324-1.807-0.108C329.476,249.033,329.508,249.625,329.508,249.625z"/>
							<path id="XMLID_552_" fill="#0E1F31" d="M324.616,249.625l-4.091,1.049c0,0,0.221-1.156,1.657-1.845
								c0.626-0.301,1.351-0.324,1.807-0.108C324.649,249.033,324.616,249.625,324.616,249.625z"/>
							<g id="XMLID_546_">
								<g id="XMLID_547_">
									<circle id="XMLID_548_" fill="#0E1F31" cx="323.292" cy="252.277" r="0.881"/>
								</g>
							</g>
						</g>
						<g id="XMLID_535_">
							<g id="XMLID_536_">
								<g id="XMLID_541_">
									<path id="XMLID_542_" fill="#0E1F31" d="M318.647,251.878c0,0,0.235-0.07,0.478-0.292c0.205-0.187,0.648-0.647,0.648-2.36
										c0-1.711,0.455-4.82,2.07-5.897c0,0,0.08-0.824-0.34-0.997c-0.566-0.233-1.989,0.08-2.973,1.012
										c-2.126,2.012-1.255,8.214-1.255,8.214C317.632,251.526,318.282,251.618,318.647,251.878z"/>
								</g>
								<g id="XMLID_539_">
									<path id="XMLID_540_" fill="#0E1F31" d="M335.754,251.787c0,0-0.414-0.038-0.639-0.214
										c-0.226-0.176-0.762-0.634-0.762-2.346c0-1.711-0.455-4.82-2.07-5.897c0,0,1.319-1.32,3.196,0
										c1.896,1.333,1.375,8.23,1.375,8.23C336.453,251.539,336.088,251.625,335.754,251.787z"/>
								</g>
								<g id="XMLID_537_">
									<path id="XMLID_538_" fill="#0E1F31" d="M335.756,246.882v4.906c0.33-0.164,0.698-0.242,1.097-0.229
										c1.121-12.088-4.571-14.662-10.643-13.581c-4.474,0.797-5.03,4.938-5.03,4.938l0.664,0.414c0.787,0,1.185,0.518,1.79,0.985
										c0.623,0.48,1.265,0.937,1.951,1.322c1.146,0.643,2.434,1.088,3.748,1.068c0.329-0.004,0.693-0.055,0.909-0.304
										c0.27-0.311,0.193-0.788,0.054-1.177c-0.176-0.495-0.426-0.962-0.736-1.387c0.831,0.687,1.655,1.363,3.261,1.532
										c0.789,0.083,1.289-0.401,0.993-1.226C333.797,244.098,335.756,245.864,335.756,246.882z"/>
								</g>
							</g>
						</g>
					</g>
					<path id="XMLID_533_" fill="#BA5964" d="M327.05,251.738c-0.413,0.029-1.471,3.993-1.036,4.67
						c0.18,0.28,0.711,0.558,1.036,0.529c0.326,0.029,0.856-0.249,1.037-0.529C328.522,255.733,327.464,251.768,327.05,251.738z"/>
					<path id="XMLID_532_" fill="#0E1F31" d="M320.756,242.869c0,0,0.197-3.969,5.402-5.543c4.448-1.345,9.143,0.471,10.514,1.829
						c1.857,1.84,0.353,3.587-1.584,3.222C334.148,242.202,320.756,242.869,320.756,242.869z"/>
					<g id="XMLID_529_">
						<path id="XMLID_531_" fill="none" stroke="#0F1E42" stroke-width="0.5788" stroke-linecap="round" stroke-miterlimit="10" d="
							M317.099,240.815c0,0,3.207-0.009,4.08,1.804"/>
						<path id="XMLID_530_" fill="none" stroke="#0F1E42" stroke-width="0.5788" stroke-linecap="round" stroke-miterlimit="10" d="
							M317.594,237.755c0,0,3.712,1.383,3.585,5.161"/>
					</g>
				</g>
			</g>
		</g>
		<g id="XMLID_472_">
			<g id="XMLID_524_">
				<circle id="SVGID_6_" fill="#E5F4FB" cx="327.051" cy="171.508" r="23.952"/>
			</g>
			<g id="XMLID_473_">
				<defs>
					<circle id="XMLID_474_" cx="327.051" cy="171.508" r="23.952"/>
				</defs>
				<clipPath id="XMLID_11_">
					<use xlink:href="#XMLID_474_"  overflow="visible"/>
				</clipPath>
				<g id="XMLID_475_" clip-path="url(#XMLID_11_)">
					<g id="XMLID_482_">
						<g id="XMLID_521_">
							<path id="XMLID_523_" fill="#0E1F31" d="M336.509,170.104c0,0,2.757-13.081-9.459-13.081
								c-12.216,0-9.772,13.081-9.772,13.081H336.509z"/>
							
								<ellipse id="XMLID_522_" transform="matrix(0.1096 0.994 -0.994 0.1096 445.9183 -184.1085)" fill="#0E1F31" cx="325.721" cy="156.84" rx="4.237" ry="5.11"/>
						</g>
						<g id="XMLID_517_">
							<path id="XMLID_520_" fill="#BA5964" d="M318.647,169.93c0,0-1.605-0.686-2.576,0.402c-0.97,1.088-0.494,3.56,1.172,4.277
								c1.596,0.687,2.322-0.142,2.322-0.142L318.647,169.93z"/>
							<path id="XMLID_519_" fill="#893C49" d="M316.966,170.773c0.421-0.125,1.039-0.068,1.371,0.232
								c0.123,0.111-0.11,0.312-0.231,0.259c-0.686-0.299-1.54-0.383-1.932,0.415c-0.021,0.043-0.049-0.004-0.042-0.034
								C316.248,171.2,316.516,170.907,316.966,170.773z"/>
							<path id="XMLID_518_" fill="#893C49" d="M317.289,170.857c0.08-0.032,0.245,0.172,0.227,0.224
								c-0.117,0.047-0.306,0.167-0.401,0.315c-0.164,0.253-0.218,0.478-0.211,0.783c0.018,0.702,0.382,1.225,1.054,1.421
								c0.012,0.004,0.03,0.04,0.011,0.044c-0.602,0.115-1.239-0.536-1.345-1.074C316.505,171.973,316.592,171.14,317.289,170.857z"
								/>
						</g>
						<g id="XMLID_513_">
							<path id="XMLID_516_" fill="#BA5964" d="M335.427,169.933c0,0,1.611-0.688,2.581,0.399c0.97,1.088,0.494,3.56-1.172,4.277
								c-1.596,0.687-2.322-0.142-2.322-0.142L335.427,169.933z"/>
							<path id="XMLID_515_" fill="#893C49" d="M337.112,170.773c-0.421-0.125-1.039-0.068-1.371,0.232
								c-0.123,0.111,0.11,0.312,0.231,0.259c0.686-0.299,1.54-0.383,1.932,0.415c0.02,0.043,0.049-0.004,0.042-0.034
								C337.831,171.2,337.563,170.907,337.112,170.773z"/>
							<path id="XMLID_514_" fill="#893C49" d="M336.79,170.857c-0.08-0.032-0.245,0.172-0.227,0.224
								c0.117,0.047,0.306,0.167,0.401,0.315c0.164,0.253,0.218,0.478,0.211,0.783c-0.018,0.702-0.382,1.225-1.054,1.421
								c-0.012,0.004-0.03,0.04-0.011,0.044c0.601,0.115,1.238-0.536,1.345-1.074C337.574,171.973,337.486,171.14,336.79,170.857z"
								/>
						</g>
						<g id="XMLID_510_">
							<polygon id="XMLID_512_" fill="#5EC2B9" points="336.124,187.372 331.936,183.946 322.058,183.946 317.952,187.372 							
								"/>
							<polygon id="XMLID_511_" fill="#228C7E" points="322.058,183.946 321.771,186.053 332.305,186.053 331.936,183.946 							
								"/>
						</g>
						<g id="XMLID_507_">
							<path id="XMLID_509_" fill="#BA5964" d="M310.41,195.46c0-3.68,0.583-5.879,2.513-6.507c0.88-0.286,6.148-1.93,7.808-2.424
								c1.66-0.494,2.111-1.481,2.111-2.334c0-0.853,0-3.765,0-3.765h8.416c0,0,0,2.912,0,3.765c0,0.853,0.452,1.84,2.111,2.334
								c1.66,0.494,6.928,2.137,7.808,2.424c1.93,0.628,2.513,2.827,2.513,6.507H310.41z"/>
							<path id="XMLID_508_" fill="#893C49" d="M322.842,181.524c0.004,0.012,0.828,2.422,4.208,2.422
								c3.381,0,4.204-2.411,4.209-2.422c0-0.62,0-1.092,0-1.092h-8.416C322.842,180.432,322.842,180.904,322.842,181.524z"/>
						</g>
						<g id="XMLID_500_">
							<path id="XMLID_506_" fill="#F6B750" d="M323.019,191.161c0,0,1.552,0.954,4.032,0.954c2.48,0,4.017-0.954,4.017-0.954
								l-1.142,4.298h-5.777L323.019,191.161z"/>
							<g id="XMLID_501_">
								<path id="XMLID_505_" fill="#228C7E" d="M321.701,186.635c0-0.192,0.021-0.38,0.063-0.56
									c-0.277,0.176-0.617,0.332-1.033,0.455c-1.66,0.494-6.928,2.137-7.808,2.424c-1.93,0.628-2.513,2.827-2.513,6.507h13.74
									l-1.763-6.822C321.295,188.145,321.701,187.431,321.701,186.635z"/>
								<path id="XMLID_504_" fill="#228C7E" d="M341.179,188.953c-0.88-0.286-6.148-1.93-7.808-2.424
									c-0.434-0.129-0.784-0.293-1.065-0.478c0.045,0.188,0.069,0.382,0.069,0.583c0,0.797,0.389,1.51-0.703,2.003l-1.745,6.822
									h13.765C343.692,191.78,343.109,189.581,341.179,188.953z"/>
								<polygon id="XMLID_503_" fill="#5EC2B9" points="332.305,186.053 336.124,187.372 334.712,189.209 332.23,189.893 
									334.186,191.386 329.926,195.46 								"/>
								<polygon id="XMLID_502_" fill="#5EC2B9" points="321.771,186.053 317.952,187.372 319.364,189.209 321.846,189.893 
									319.891,191.073 324.149,195.46 								"/>
							</g>
						</g>
						<path id="XMLID_499_" fill="#BA5964" d="M330.985,160.968c-1.211-0.694-2.567-1.1-3.946-1.1c-1.379,0-2.735,0.406-3.946,1.1
							c-2.833,1.623-4.472,4.683-4.468,7.895c0,0.01,0,0.02,0,0.03c0.001,0.905,0.053,1.811,0.159,2.71l0.149,1.273
							c0.117,0.997,0.307,1.986,0.615,2.94c1.218,3.769,4.578,6.598,7.492,6.598c2.914,0,6.275-2.829,7.492-6.598
							c0.309-0.955,0.498-1.944,0.615-2.94l0.149-1.273c0.107-0.911,0.16-1.828,0.159-2.744c0-0.004,0-0.01,0-0.014
							C335.45,165.64,333.812,162.588,330.985,160.968z"/>
						<g id="XMLID_494_">
							<circle id="XMLID_498_" fill="#0E1F31" cx="330.833" cy="171.018" r="0.881"/>
							<path id="XMLID_497_" fill="#0E1F31" d="M329.097,168.752l4.091,1.049c0,0-0.165-1.369-1.573-1.713
								C329.902,167.668,329.097,168.752,329.097,168.752z"/>
							<circle id="XMLID_496_" fill="#0E1F31" cx="323.268" cy="171.018" r="0.881"/>
							<path id="XMLID_495_" fill="#0E1F31" d="M325.004,168.752l-4.091,1.049c0,0,0.165-1.369,1.573-1.713
								C324.2,167.668,325.004,168.752,325.004,168.752z"/>
						</g>
						<g id="XMLID_491_">
							<path id="XMLID_493_" fill="#0E1F31" d="M318.535,166.706h5.614c0,0,0.187-2.509,1.357-4.668v4.668h4.183v-4.668
								c0,0,1.144,2.735,1.144,4.668h4.711c0,0-0.447-7.688-8.504-7.688C318.983,159.017,318.535,166.706,318.535,166.706z"/>
						</g>
					</g>
					<path id="XMLID_481_" fill="#893C49" d="M327.051,170.136c-0.344,0.029-1.226,3.993-0.864,4.67
						c0.149,0.28,0.592,0.558,0.864,0.529c0.27,0.029,0.713-0.249,0.864-0.529C328.277,174.131,327.395,170.166,327.051,170.136z"/>
					<g id="XMLID_477_">
						<path id="XMLID_480_" fill="none" stroke="#0F1E42" stroke-width="0.5788" stroke-linecap="round" stroke-miterlimit="10" d="
							M331.043,153.203c0,0,1.149,2.995-0.235,4.455"/>
						<path id="XMLID_479_" fill="none" stroke="#0F1E42" stroke-width="0.5788" stroke-linecap="round" stroke-miterlimit="10" d="
							M334.08,153.203c0,0,0.028,3.961-3.549,5.187"/>
					</g>
				</g>
			</g>
		</g>
		<g id="XMLID_469_">
			<path id="XMLID_471_" fill="#47BA97" d="M536.448,415.874c0,0,0.46-15.281-9.507-26.934
				c-9.966-11.653-28.673-17.173-43.699-14.106c-15.026,3.067-10.58,9.66-5.519,11.959c5.06,2.3,11.193,4.632,6.747,8.142
				c-4.447,3.51-6.593,10.41,0.307,12.403s13.186-0.767,20.699,4.293C512.989,416.692,525.715,418.26,536.448,415.874z"/>
			<path id="XMLID_470_" fill="none" stroke="#495DA7" stroke-width="1.05" stroke-linecap="round" stroke-miterlimit="10" d="
				M481.925,379.19c20.094,1.123,41.468,12.309,50.262,36.684"/>
		</g>
		<g id="XMLID_466_">
			<path id="XMLID_468_" fill="#94CFA7" d="M546.78,415.874c0,0-20.053,3.924-30.137-6.848c-10.085-10.773,2.062-19.33-5.73-27.542
				c-7.793-8.213-14.669-7.754-16.502-15.547c-1.834-7.793,7.689-7.995,6.772-15.787c-0.917-7.793-10.745-11.614-6.516-18.762
				c1.99-3.362,8.692-6.296,18.74,0.298c5.115,3.356,10.99,6.687,16.752,6.687c7.045,0,12.346,2.026,13.15,11.943
				c0.805,9.917,0.672,18.212,8.9,24.135C563.301,382.432,570.64,400.44,546.78,415.874z"/>
			<path id="XMLID_467_" fill="none" stroke="#495DA7" stroke-width="1.05" stroke-linecap="round" stroke-miterlimit="10" d="
				M502.265,333.023c16.913,14.253,37.006,42.644,44.515,82.851"/>
		</g>
	</g>
	<g id="XMLID_355_">
		<g id="XMLID_363_">
			<g id="XMLID_461_">
				<path id="XMLID_464_" fill="#BA5964" d="M146.397,259.627l11.33-3.192c0,0,0.145-3.992,1.662-6.569
					c1.7-2.887,2.064-5.195,2.906-4.216c0.858,0.999,0.776,1.819,0.117,3.662c-0.658,1.843,0.116,3.782,0.116,3.782l6.01-7.05
					c0,0-0.768,4.21-2.295,8.363c-1.158,3.15-2.387,4.939-6.315,7.278c-4.659,2.774-11.539,5.117-11.539,5.117L146.397,259.627z"/>
				<path id="XMLID_463_" fill="#228C7E" d="M127.997,231.218c3.115,2.638,2.839,4.27,5.92,14.242
					c2.61,8.45,4.555,15.975,4.555,15.975l8.739-2.472l1.146,8.158c0,0-12.885,5.82-15.91,5.003
					c-3.775-1.02-13.865-34.311-13.865-34.311C117.797,231.906,123.879,227.276,127.997,231.218z"/>
				<path id="XMLID_462_" fill="none" stroke="#AEDEE1" stroke-width="1.05" stroke-linecap="round" stroke-miterlimit="10" d="
					M147.287,259.208c0,0,1.069,3.089,1.069,7.915"/>
			</g>
			<g id="XMLID_447_">
				<path id="XMLID_460_" fill="#8DC7C4" d="M146.735,412.761c0.386,0.728,0.092,2.195-2.825,3.409
					c-2.917,1.213-8.193,0.699-10.288,0.287c-2.095-0.412-3.372-1.021-6.476-0.372c-3.104,0.649-8.188,0.366-9.73-0.937
					c-0.535-0.617-0.174-1.894-0.174-1.894L146.735,412.761z"/>
				<g id="XMLID_449_">
					<g id="XMLID_459_">
						<path id="SVGID_4_" fill="#228C7E" d="M118.907,403.68c-0.425,2.129-2.16,7.143-1.664,9.575
							c2.181,1.845,6.849,1.972,10.35,1.089c3.501-0.883,5.964,0.912,10.357,1.17c4.311,0.253,7.906-0.946,8.785-2.752
							c0.96-1.969-6.571-3.493-11.702-5.069c-5.742-1.765-8.708-4.595-8.708-4.595L118.907,403.68z"/>
					</g>
					<g id="XMLID_456_">
						<defs>
							<path id="XMLID_457_" d="M118.907,403.68c-0.425,2.129-2.16,7.143-1.664,9.575c2.181,1.845,6.849,1.972,10.35,1.089
								c3.501-0.883,5.964,0.912,10.357,1.17c4.311,0.253,7.906-0.946,8.785-2.752c0.96-1.969-6.571-3.493-11.702-5.069
								c-5.742-1.765-8.708-4.595-8.708-4.595L118.907,403.68z"/>
						</defs>
						<clipPath id="XMLID_12_">
							<use xlink:href="#XMLID_457_"  overflow="visible"/>
						</clipPath>
						
							<path id="XMLID_458_" clip-path="url(#XMLID_12_)" fill="none" stroke="#8DC7C4" stroke-width="0.525" stroke-linecap="round" stroke-miterlimit="10" d="
							M128.064,407.796c0,0,1.032-2.895,2.413-3.831"/>
					</g>
					<g id="XMLID_453_">
						<defs>
							<path id="XMLID_454_" d="M118.907,403.68c-0.425,2.129-2.16,7.143-1.664,9.575c2.181,1.845,6.849,1.972,10.35,1.089
								c3.501-0.883,5.964,0.912,10.357,1.17c4.311,0.253,7.906-0.946,8.785-2.752c0.96-1.969-6.571-3.493-11.702-5.069
								c-5.742-1.765-8.708-4.595-8.708-4.595L118.907,403.68z"/>
						</defs>
						<clipPath id="XMLID_13_">
							<use xlink:href="#XMLID_454_"  overflow="visible"/>
						</clipPath>
						
							<path id="XMLID_455_" clip-path="url(#XMLID_13_)" fill="none" stroke="#8DC7C4" stroke-width="0.525" stroke-linecap="round" stroke-miterlimit="10" d="
							M131.971,409.345c0,0,1.032-2.895,2.413-3.831"/>
					</g>
					<g id="XMLID_450_">
						<defs>
							<path id="XMLID_451_" d="M118.907,403.68c-0.425,2.129-2.16,7.143-1.664,9.575c2.181,1.845,6.849,1.972,10.35,1.089
								c3.501-0.883,5.964,0.912,10.357,1.17c4.311,0.253,7.906-0.946,8.785-2.752c0.96-1.969-6.571-3.493-11.702-5.069
								c-5.742-1.765-8.708-4.595-8.708-4.595L118.907,403.68z"/>
						</defs>
						<clipPath id="XMLID_14_">
							<use xlink:href="#XMLID_451_"  overflow="visible"/>
						</clipPath>
						
							<path id="XMLID_452_" clip-path="url(#XMLID_14_)" fill="none" stroke="#8DC7C4" stroke-width="0.525" stroke-linecap="round" stroke-miterlimit="10" d="
							M135.876,410.895c0,0,1.032-2.895,2.412-3.831"/>
					</g>
				</g>
				<path id="XMLID_448_" fill="#F5978C" d="M118.488,395.795l0.419,7.885c0,0,0.983,0.326,1.394,0.809
					c0.411,0.483,0.972,2.085,1.663,2.113c2.742,0.113,4.362-3.504,4.362-3.504v-8.141L118.488,395.795z"/>
			</g>
			<g id="XMLID_408_">
				<path id="XMLID_443_" fill="#AEDEE1" d="M75.505,414.636c-0.492,0.661-1.943,1.025-4.29-1.091
					c-2.347-2.116-4.143-7.103-4.67-9.172c-0.527-2.07-0.523-3.485-2.44-6.01c-1.917-2.526-3.84-7.241-3.324-9.192
					c0.328-0.747,1.636-0.969,1.636-0.969L75.505,414.636z"/>
				<g id="XMLID_420_">
					<g id="XMLID_441_">
						<path id="SVGID_2_" fill="#00A895" d="M71.781,385.601c-2.105,0.528-7.379,1.11-9.364,2.601
							c-0.733,2.762,1.154,7.033,3.453,9.818c2.299,2.785,1.733,5.779,3.383,9.859c1.62,4.003,4.244,6.737,6.251,6.758
							c2.191,0.023,0.339-7.433-0.436-12.745c-0.867-5.944,0.418-9.837,0.418-9.837L71.781,385.601z"/>
					</g>
					<g id="XMLID_437_">
						<defs>
							<path id="XMLID_439_" d="M71.781,385.601c-2.105,0.528-7.379,1.11-9.364,2.601c-0.733,2.762,1.154,7.033,3.453,9.818
								c2.299,2.785,1.733,5.779,3.383,9.859c1.62,4.003,4.244,6.737,6.251,6.758c2.191,0.023,0.339-7.433-0.436-12.745
								c-0.867-5.944,0.418-9.837,0.418-9.837L71.781,385.601z"/>
						</defs>
						<clipPath id="XMLID_15_">
							<use xlink:href="#XMLID_439_"  overflow="visible"/>
						</clipPath>
						
							<path id="XMLID_440_" clip-path="url(#XMLID_15_)" fill="none" stroke="#AEDEE1" stroke-width="0.525" stroke-linecap="round" stroke-miterlimit="10" d="
							M71.988,395.639c0,0,3.058-0.309,4.496,0.537"/>
					</g>
					<g id="XMLID_431_">
						<defs>
							<path id="XMLID_434_" d="M71.781,385.601c-2.105,0.528-7.379,1.11-9.364,2.601c-0.733,2.762,1.154,7.033,3.453,9.818
								c2.299,2.785,1.733,5.779,3.383,9.859c1.62,4.003,4.244,6.737,6.251,6.758c2.191,0.023,0.339-7.433-0.436-12.745
								c-0.867-5.944,0.418-9.837,0.418-9.837L71.781,385.601z"/>
						</defs>
						<clipPath id="XMLID_16_">
							<use xlink:href="#XMLID_434_"  overflow="visible"/>
						</clipPath>
						
							<path id="XMLID_436_" clip-path="url(#XMLID_16_)" fill="none" stroke="#AEDEE1" stroke-width="0.525" stroke-linecap="round" stroke-miterlimit="10" d="
							M72.262,399.832c0,0,3.058-0.309,4.496,0.537"/>
					</g>
					<g id="XMLID_422_">
						<defs>
							<path id="XMLID_426_" d="M71.781,385.601c-2.105,0.528-7.379,1.11-9.364,2.601c-0.733,2.762,1.154,7.033,3.453,9.818
								c2.299,2.785,1.733,5.779,3.383,9.859c1.62,4.003,4.244,6.737,6.251,6.758c2.191,0.023,0.339-7.433-0.436-12.745
								c-0.867-5.944,0.418-9.837,0.418-9.837L71.781,385.601z"/>
						</defs>
						<clipPath id="XMLID_17_">
							<use xlink:href="#XMLID_426_"  overflow="visible"/>
						</clipPath>
						
							<path id="XMLID_430_" clip-path="url(#XMLID_17_)" fill="none" stroke="#AEDEE1" stroke-width="0.525" stroke-linecap="round" stroke-miterlimit="10" d="
							M72.537,404.025c0,0,3.058-0.309,4.496,0.537"/>
					</g>
				</g>
				<path id="XMLID_419_" fill="#F5978C" d="M76.491,380.762l-4.71,4.838c0,0,0.126,1.028-0.133,1.606
					c-0.261,0.578-1.467,1.773-1.196,2.408c1.073,2.526,5.036,2.439,5.036,2.439l6.797-5.334L76.491,380.762z"/>
			</g>
			<path id="XMLID_404_" fill="#1C4275" d="M134.81,274.205c-9.511,0-17.648,0.716-17.648,0.716
				c-3.042,1.331-8.261,8.245-9.798,12.634c-1.54,4.397-0.912,11.726-0.109,15.501c4.466,21.033,8.38,33.767,10.114,42.107
				c1.061,5.101-4.177,7.475-3.372,16.75c1.001,11.524,4.49,33.883,4.49,33.883s3.623,2.016,7.827,0.09
				c0,0,4.279-41.264,4.828-45.951c0.74-6.308,1.645-10.381,2.332-23.424C134.397,309.007,134.81,274.205,134.81,274.205z"/>
			<line id="XMLID_403_" fill="none" x1="126.315" y1="395.884" x2="131.762" y2="345.162"/>
			<linearGradient id="XMLID_18_" gradientUnits="userSpaceOnUse" x1="104.256" y1="273.5513" x2="107.0469" y2="381.4673">
				<stop  offset="0" style="stop-color:#0980C1"/>
				<stop  offset="1" style="stop-color:#51C3F0"/>
			</linearGradient>
			<path id="XMLID_402_" fill="url(#XMLID_18_)" d="M82.284,386.72c0,0,36.669-26.869,38.884-29.318
				c2.215-2.448,3.498-58.771,4.081-62.386c0,0,9.292-13.213,9.561-20.811l-19.414-2.495c-1.241,4.661-7.801,4.721-12.788,15.868
				c-4.344,9.709,2.324,36.565,4.571,63.252c0,0-3.84,0.05-8.458,3.348c-4.237,3.027-22.23,26.584-22.23,26.584
				S77.854,385.249,82.284,386.72z"/>
			<path id="XMLID_401_" fill="#4F7EAA" d="M115.396,271.71c-1.241,4.661-7.801,4.721-12.788,15.868
				c-4.344,9.709,2.324,36.565,4.571,63.252c0,0-3.84,0.05-8.458,3.348c-4.237,3.027-22.23,26.585-22.23,26.585
				s0.407,1.323,1.483,2.767c3.704-4.658,13.652-15.862,19.467-21.916c7.703-8.02,12.638-8.275,13.007-9.976
				c0.369-1.701-0.021-26.874-1.349-42.589c-1.328-15.714,0-22.073,4.597-27.782c3.183-3.953,4.792-8.101,4.792-8.101
				c7.269,5.908,14.17,4.416,15.877,3.915c0.249-1.014,0.414-1.985,0.446-2.875L115.396,271.71z"/>
			<g id="XMLID_390_">
				<g id="XMLID_398_">
					<defs>
						<path id="XMLID_399_" d="M82.284,386.72c0,0,36.669-26.869,38.884-29.318c2.215-2.448,3.498-58.771,4.081-62.386
							c0,0,9.292-13.213,9.561-20.811l-19.414-2.495c-1.241,4.661-7.801,4.721-12.788,15.868
							c-4.344,9.709,2.324,36.565,4.571,63.252c0,0-3.84,0.05-8.458,3.348c-4.237,3.027-22.23,26.584-22.23,26.584
							S77.854,385.249,82.284,386.72z"/>
					</defs>
					<clipPath id="XMLID_19_">
						<use xlink:href="#XMLID_399_"  overflow="visible"/>
					</clipPath>
					
						<path id="XMLID_400_" clip-path="url(#XMLID_19_)" fill="none" stroke="#274F7B" stroke-width="0.525" stroke-miterlimit="10" d="
						M126.075,269.161c-4.259,8.053-10.536,13.591-12.599,18.96c-2.062,5.369-1.281,16.234-0.888,36.074
						c0.386,19.488,0.846,28.38,0.007,29.711c-0.839,1.331-6.514,2.62-15.407,11.178c-8.893,8.557-19.952,21.638-19.952,21.638"/>
				</g>
				<g id="XMLID_394_">
					<defs>
						<path id="XMLID_395_" d="M82.284,386.72c0,0,36.669-26.869,38.884-29.318c2.215-2.448,3.498-58.771,4.081-62.386
							c0,0,9.292-13.213,9.561-20.811l-19.414-2.495c-1.241,4.661-7.801,4.721-12.788,15.868
							c-4.344,9.709,2.324,36.565,4.571,63.252c0,0-3.84,0.05-8.458,3.348c-4.237,3.027-22.23,26.584-22.23,26.584
							S77.854,385.249,82.284,386.72z"/>
					</defs>
					<clipPath id="XMLID_20_">
						<use xlink:href="#XMLID_395_"  overflow="visible"/>
					</clipPath>
					
						<path id="XMLID_396_" clip-path="url(#XMLID_20_)" fill="none" stroke="#274F7B" stroke-width="0.525" stroke-miterlimit="10" d="
						M131.762,270.779c0,0-1.16,14.099-14.54,11.139"/>
				</g>
				<g id="XMLID_391_">
					<defs>
						<path id="XMLID_392_" d="M82.284,386.72c0,0,36.669-26.869,38.884-29.318c2.215-2.448,3.498-58.771,4.081-62.386
							c0,0,9.292-13.213,9.561-20.811l-19.414-2.495c-1.241,4.661-7.801,4.721-12.788,15.868
							c-4.344,9.709,2.324,36.565,4.571,63.252c0,0-3.84,0.05-8.458,3.348c-4.237,3.027-22.23,26.584-22.23,26.584
							S77.854,385.249,82.284,386.72z"/>
					</defs>
					<clipPath id="XMLID_21_">
						<use xlink:href="#XMLID_392_"  overflow="visible"/>
					</clipPath>
					
						<path id="XMLID_393_" clip-path="url(#XMLID_21_)" fill="none" stroke="#274F7B" stroke-width="0.525" stroke-miterlimit="10" d="
						M77.904,376.633c0.621,3.227,3.723,7.514,8.316,9.28"/>
				</g>
			</g>
			<path id="XMLID_388_" fill="#FAB553" d="M117.842,227.587c0,0-3.071,1.484-5.631,4.522c-2.183,3.013-3.188,11.988-1.917,18.926
				c0.776,4.229,6.241,16.818,3.962,22.234c0,0,12.894,4.335,21.382,0.937c0.504-2.546,0.4-7.178,0.735-14.969
				c1.646-1.788,3.28-5.071,3.428-7.198c0.552-7.915-6.61-11.112-12.429-15.762c-2.345-1.874-4.121-5.717-6.464-7.512
				C119.373,227.587,117.842,227.587,117.842,227.587z"/>
			<g id="XMLID_372_">
				<path id="XMLID_387_" fill="#F5978C" d="M123.092,218.898l-3.642,3.238l-1.608,5.451c0,0,2.287,1.531,3.167,2.858
					c1.073,1.616,3.475,5.502,6.364,5.832c0,0-0.291-3.504,0.147-5.391c0.437-1.887,1.756-5.63,1.756-5.63L123.092,218.898z"/>
				<path id="XMLID_385_" fill="#BA5964" d="M123.092,218.898c0,0-0.784,3.051-0.652,4.599s1.5,4.766,5.079,7.389
					c0.437-1.887,1.756-5.63,1.756-5.63L123.092,218.898z"/>
				<path id="XMLID_383_" fill="#BA5964" d="M138.417,212.037c0.682,2.45,3.489,5.885,2.877,6.497
					c-0.508,0.508-2.898,0.394-2.898,0.394s-1.757-1.694-1.162-4.072C137.828,212.478,138.417,212.037,138.417,212.037z"/>
				<path id="XMLID_382_" fill="#F5978C" d="M132.317,196.722c3.389,0.309,6.789,5.006,6.725,9.281
					c-0.064,4.274-1.052,6.598-0.78,9.617c0.271,3.019,0.253,5.928-1.015,9.092c-0.844,2.105-3.041,2.579-5.966,1.874
					c-2.681-0.647-6.341-3.226-7.184-4.038c-0.843-0.812-1.003-3.65-1.003-3.65s-3.999-0.588-5.831-4.247
					C115.428,210.992,115.76,195.213,132.317,196.722z"/>
				<path id="XMLID_381_" fill="#0E1F31" d="M123.092,218.898c0,0-3.65-1.43-3.325-5.485c0.334-4.163,5.941-4.312,5.712-0.647
					c0,0,3.261-0.289,4.198-1.722s1.845-8.531,1.845-8.531s1.115,1.753,1.692,4.264c0.577,2.51,2.452,2.818,5.722,1.265
					c3.27-1.553,5.565-4.661,6.195-7.674c0,0-2.692-0.072-4.267-0.961c0,0,3.698-0.13,5.236-2.488c0,0-3.687,1.607-6.083,0.342
					s-5.914-4.409-10.388-3.866c-4.474,0.543-6.989,3.3-6.989,3.3s-4.184-1.741-7.314,0.731c-3.13,2.472-5.337,8.857-2.649,15.469
					c2.683,6.601,6.773,9.244,6.773,9.244L123.092,218.898z"/>
				<path id="XMLID_380_" fill="#0E1F31" d="M114.447,198.698c0,0-3.718-4.588-8.979-3.244c-4.86,1.242-7.938,5.041-7.852,12.324
					c0.087,7.488,9.733,18.19,1.506,24.706c0,0,12.283,0.174,9.274-14.744c-2.298-11.393,1.713-15.922,5.178-14.505L114.447,198.698
					z"/>
				<g id="XMLID_373_">
					<g id="XMLID_376_">
						<circle id="XMLID_378_" fill="#0E1F31" cx="134.488" cy="213.158" r="0.982"/>
						<path id="XMLID_377_" fill="#0E1F31" d="M136.278,210.528l-4.487,1.424c0,0,0.097-1.533,1.644-2.006
							C135.315,209.372,136.278,210.528,136.278,210.528z"/>
					</g>
					<path id="XMLID_375_" fill="#BA5964" d="M122.076,212.541c0.608-0.219,1.522-0.187,2.035,0.228
						c0.19,0.154-0.136,0.468-0.319,0.4c-1.033-0.383-2.296-0.437-2.806,0.771c-0.028,0.065-0.073-0.003-0.064-0.046
						C121.055,213.228,121.426,212.775,122.076,212.541z"/>
					<path id="XMLID_374_" fill="#BA5964" d="M122.558,212.637c0.115-0.054,0.375,0.231,0.351,0.311
						c-0.168,0.079-0.436,0.27-0.564,0.496c-0.219,0.387-0.281,0.72-0.245,1.169c0.084,1.03,0.662,1.769,1.667,2.002
						c0.019,0.004,0.048,0.056,0.019,0.064c-0.875,0.218-1.865-0.686-2.066-1.468C121.498,214.343,121.557,213.112,122.558,212.637z
						"/>
				</g>
			</g>
			<path id="XMLID_371_" fill="#5EC2B9" d="M116.002,227.88l2.12-1.207c0,0,8.574,10.011,9.589,17.703
				c0.723,5.483-2.927,26.021-2.927,26.021s-10.036,0.797-15.233-2.912c0,0,3.033-4.906,1.344-12.141
				c-0.941-4.032-1.708-7.558-1.792-12.455C109.004,237.121,110.939,232.118,116.002,227.88z"/>
			<g id="XMLID_364_">
				<path id="XMLID_370_" fill="#00A895" d="M126.075,262.468l-12.599-12.915c0,0.002,0,0.004,0,0.004
					c0.057,0.138,6.535,15.89,8.584,20.906c1.634,0.016,2.723-0.068,2.723-0.068S125.4,266.931,126.075,262.468z"/>
				<path id="XMLID_369_" fill="#5EC2B9" d="M119.053,231.908c-4.362,1.54-9.853,8.147-7.015,14.749
					c2.36,5.49,12.512,24.036,14.267,25.334c1.407,1.04,15.521-4.318,19.277-5.228c0,0-0.752-3.991-1.992-7.491l-12.154,2.496
					c0,0-1.955-4.171-4.049-9.269C124.494,245.456,121.004,236.398,119.053,231.908z"/>
				<path id="XMLID_368_" fill="#0E1F31" d="M159.723,252.738c0.352-0.229,10.962-7.118,14.949-9.707
					c0.814-0.528,1.02-1.63,0.453-2.417l0,0c-0.534-0.741-1.558-0.928-2.319-0.422l-13.198,8.765
					C159.607,248.957,155.791,252.744,159.723,252.738z"/>
				<path id="XMLID_367_" fill="#F5978C" d="M143.591,259.272l11.33-3.192c0,0,0.145-3.992,1.662-6.569
					c1.7-2.887,2.064-5.196,2.906-4.216c0.858,0.999,0.776,1.819,0.117,3.662c-0.658,1.843,0.116,3.782,0.116,3.782l8.816-5.716
					c0,0-1.167,3.906-2.819,6.523c-1.792,2.838-3.035,5.013-7.775,7.647c-4.739,2.633-12.361,5.254-12.361,5.254L143.591,259.272z"
					/>
				<path id="XMLID_366_" fill="#00A895" d="M127.388,252.498c0.038-0.36,0.073-0.716,0.107-1.066l-4.074-8.016L127.388,252.498z"/>
				<path id="XMLID_365_" fill="none" stroke="#AEDEE1" stroke-width="1.05" stroke-linecap="round" stroke-miterlimit="10" d="
					M143.591,258.77c0,0,1.992,2.238,2.199,8.352"/>
			</g>
		</g>
		<g id="XMLID_356_">
			<path id="XMLID_940_" fill="#FFFFFF" d="M196.044,182.601h-73.917c-4.778,0-8.651-3.873-8.651-8.651l0,0
				c0-4.778,3.873-8.651,8.651-8.651h73.917c4.778,0,8.651,3.873,8.651,8.651l0,0C204.696,178.728,200.822,182.601,196.044,182.601z
				"/>
			<g id="XMLID_357_">
				<polygon id="XMLID_362_" fill="#F6B750" points="129.857,168.326 131.527,171.706 135.258,172.249 132.558,174.881 
					133.195,178.597 129.857,176.842 126.52,178.597 127.158,174.881 124.458,172.249 128.189,171.706 				"/>
				<polygon id="XMLID_361_" fill="#F6B750" points="144.649,168.326 146.317,171.706 150.049,172.249 147.349,174.881 
					147.986,178.597 144.649,176.842 141.311,178.597 141.948,174.881 139.248,172.249 142.98,171.706 				"/>
				<polygon id="XMLID_360_" fill="#F6B750" points="159.44,168.326 161.108,171.706 164.839,172.249 162.14,174.881 
					162.777,178.597 159.44,176.842 156.102,178.597 156.74,174.881 154.04,172.249 157.771,171.706 				"/>
				<polygon id="XMLID_359_" fill="#F6B750" points="174.23,168.326 175.9,171.706 179.631,172.249 176.93,174.881 177.568,178.597 
					174.23,176.842 170.893,178.597 171.53,174.881 168.83,172.249 172.562,171.706 				"/>
				<polygon id="XMLID_358_" fill="#F6B750" points="189.021,168.326 190.69,171.706 194.422,172.249 191.722,174.881 
					192.358,178.597 189.021,176.842 185.684,178.597 186.321,174.881 183.621,172.249 187.352,171.706 				"/>
			</g>
		</g>
	</g>
	<g id="XMLID_347_">
		<g id="XMLID_348_">
			<path id="XMLID_492_" fill="#FFFFFF" d="M496.601,176.215h73.917c4.778,0,8.651-3.873,8.651-8.651l0,0
				c0-4.778-3.873-8.651-8.651-8.651h-73.917c-4.778,0-8.651,3.873-8.651,8.651l0,0C487.95,172.342,491.823,176.215,496.601,176.215
				z"/>
			<g id="XMLID_349_">
				<polygon id="XMLID_354_" fill="#F6B750" points="547.996,161.94 546.328,165.321 542.596,165.864 545.296,168.495 
					544.659,172.211 547.996,170.457 551.334,172.211 550.696,168.495 553.396,165.864 549.666,165.321 				"/>
				<polygon id="XMLID_353_" fill="#F6B750" points="562.788,161.94 561.12,165.321 557.388,165.864 560.088,168.495 
					559.451,172.211 562.788,170.457 566.126,172.211 565.488,168.495 568.189,165.864 564.458,165.321 				"/>
				<polygon id="XMLID_352_" fill="#F6B750" points="533.206,161.94 531.536,165.321 527.806,165.864 530.506,168.495 
					529.868,172.211 533.206,170.457 536.543,172.211 535.906,168.495 538.606,165.864 534.874,165.321 				"/>
				<polygon id="XMLID_351_" fill="#F6B750" points="518.415,161.94 516.746,165.321 513.014,165.864 515.714,168.495 
					515.078,172.211 518.415,170.457 521.752,172.211 521.115,168.495 523.815,165.864 520.083,165.321 				"/>
				<polygon id="XMLID_350_" fill="#F6B750" points="503.624,161.94 501.955,165.321 498.224,165.864 500.924,168.495 
					500.286,172.211 503.624,170.457 506.961,172.211 506.324,168.495 509.025,165.864 505.293,165.321 				"/>
			</g>
			<polygon id="XMLID_485_" fill="#FFFFFF" points="518.415,174.78 518.415,186.945 510.8,174.78 			"/>
		</g>
	</g>
	<g id="XMLID_171_">
		<polygon id="XMLID_346_" fill="#F5978C" points="546.452,388.494 546.77,394.288 553.514,394.288 553.921,388.49 		"/>
		<polygon id="XMLID_345_" fill="#F5978C" points="570.971,393.608 570.971,405.646 579.007,405.646 581.168,393.604 		"/>
		<linearGradient id="XMLID_22_" gradientUnits="userSpaceOnUse" x1="550.7133" y1="284.762" x2="586.0651" y2="387.0961">
			<stop  offset="0" style="stop-color:#0980C1"/>
			<stop  offset="1" style="stop-color:#51C3F0"/>
		</linearGradient>
		<path id="XMLID_344_" fill="url(#XMLID_22_)" d="M548.229,286.2l-5.52,60.665l3.742,41.629c3.132,2.169,5.966,1.595,7.47,0
			l4.293-41.926l9.543-42.566l3.754,52.098l-0.539,37.507c3.502,3.496,6.89,3.092,10.197,0l6.432-37.294l2.429-73.808L548.229,286.2
			z"/>
		<g id="XMLID_338_">
			<path id="XMLID_343_" fill="#4F7EAA" d="M567.756,303.999l-9.544,42.57l-4.291,41.921c-0.329,0.347-0.676,0.649-1.058,0.881
				c0.507-16.4,2.228-37.918-0.343-41.174C558.265,344.23,561.361,320.648,567.756,303.999z"/>
			<path id="XMLID_342_" fill="#4F7EAA" d="M590.026,282.503l-0.08,2.517c-1.61,1.067-3.189,7.257-5.146,8.022
				c-11.775,4.669-28.846-1.281-36.673-6.208l0.098-0.631l36.464-3.228L590.026,282.503z"/>
			<path id="XMLID_340_" fill="#4F7EAA" d="M589.946,285.02l-2.348,71.292l-6.43,37.292c-0.72,0.667-1.441,1.21-2.161,1.619
				l5.625-38.679l-0.058-68.767C586.531,287.012,588.336,286.087,589.946,285.02z"/>
		</g>
		<g id="XMLID_319_">
			<path id="XMLID_320_" fill="#242056" d="M589.546,297.009v0.009l-0.036,1.049c-4.829-3.122-9.089-9.463-9.792-12.638l0.872-0.187
				C581.248,288.204,585.179,293.976,589.546,297.009z"/>
		</g>
		<path id="XMLID_318_" fill="#242056" d="M558.444,285.429c-0.786,3.516-5.926,10.92-11.374,13.525l0.096-1.047
			c4.844-2.603,9.553-9.201,10.371-12.531l0.471-0.036L558.444,285.429z"/>
		<g id="XMLID_284_">
			<g id="XMLID_314_">
				<path id="XMLID_317_" fill="#F5978C" d="M557.027,207.136c0,0-2.235-0.804-3.574,0.697s-0.681,4.914,1.618,5.903
					c2.202,0.948,3.205-0.196,3.205-0.196L557.027,207.136z"/>
				<path id="XMLID_316_" fill="#BA5964" d="M554.688,208.442c0.581-0.173,1.434-0.095,1.893,0.32
					c0.169,0.153-0.152,0.431-0.319,0.357c-0.946-0.412-2.126-0.529-2.666,0.573c-0.028,0.059-0.068-0.006-0.058-0.047
					C553.696,209.031,554.067,208.626,554.688,208.442z"/>
				<path id="XMLID_315_" fill="#BA5964" d="M555.133,208.557c0.11-0.044,0.339,0.237,0.313,0.309
					c-0.161,0.065-0.422,0.231-0.554,0.435c-0.226,0.35-0.301,0.659-0.291,1.08c0.025,0.968,0.527,1.69,1.455,1.962
					c0.017,0.005,0.042,0.055,0.015,0.06c-0.83,0.158-1.709-0.74-1.856-1.483C554.051,210.097,554.172,208.949,555.133,208.557z"/>
			</g>
			<g id="XMLID_308_">
				<path id="XMLID_311_" fill="#F5978C" d="M580.151,207.136c0,0,2.239-0.804,3.578,0.697c1.339,1.501,0.681,4.914-1.618,5.903
					c-2.202,0.948-3.205-0.196-3.205-0.196L580.151,207.136z"/>
				<path id="XMLID_310_" fill="#BA5964" d="M582.493,208.442c-0.581-0.173-1.434-0.095-1.893,0.32
					c-0.169,0.153,0.152,0.431,0.319,0.357c0.946-0.412,2.126-0.529,2.666,0.573c0.029,0.059,0.068-0.006,0.058-0.047
					C583.485,209.031,583.114,208.626,582.493,208.442z"/>
				<path id="XMLID_309_" fill="#BA5964" d="M582.047,208.557c-0.11-0.044-0.339,0.237-0.313,0.309
					c0.161,0.065,0.422,0.231,0.554,0.435c0.226,0.35,0.301,0.659,0.291,1.08c-0.025,0.968-0.525,1.69-1.453,1.962
					c-0.017,0.005-0.042,0.055-0.015,0.06c0.831,0.158,1.71-0.74,1.856-1.483C583.13,210.097,583.01,208.949,582.047,208.557z"/>
			</g>
			<path id="XMLID_307_" fill="#F5978C" d="M558.783,221.689c2.29-0.681,2.914-2.044,2.914-3.221s0-5.412,0-5.412h13.75
				c0,0,0,4.235,0,5.412s0.624,2.54,2.914,3.221c2.29,0.681,11.164,2.95,12.378,3.345c2.664,0.867,5.07,3.902,5.07,8.98
				c0,0-19.654,5.193-30.652,1.572C559.085,233.586,557.968,221.931,558.783,221.689z"/>
			<g id="XMLID_304_">
				<g id="XMLID_305_">
					<path id="XMLID_306_" fill="#5EC2B9" d="M590.74,225.032c-1.214-0.395-10.086-2.664-12.378-3.345
						c-0.277-0.082-0.528-0.176-0.759-0.276c0.221,0.538-9.032,7.684-9.032,7.684s-9.253-7.145-9.032-7.684
						c-0.23,0.101-0.481,0.194-0.759,0.276c-1.446,0.43-3.468,0.589-6.355,1.906c-4.696,2.141-9.839,20.711-6.628,36.945
						c1.45,7.332-0.584,23.685,2.431,27.441c15.735,3.765,30.678,3.431,38.061,1.314c2.227-0.639,4.827-2.696,4.68-5.009
						c-1.029-16.153,1.641-34.586,3.01-51.876C593.982,227.33,593.404,225.9,590.74,225.032z"/>
				</g>
			</g>
			<path id="XMLID_303_" fill="#F5978C" d="M574.036,194.376c-1.672-0.957-3.543-1.52-5.446-1.52c-1.905,0-3.869,0.47-5.541,1.428
				c-3.902,2.235-6.069,6.539-6.072,10.963c0,0.006,0,0.012,0,0.02c-0.001,1.266,0.072,2.53,0.22,3.787l0.206,1.757
				c0.161,1.375,0.61,4.031,1.653,6.582c2.071,5.06,6.692,6.713,9.535,6.713s7.464-1.653,9.535-6.713
				c1.043-2.551,1.493-5.207,1.653-6.582l0.206-1.757c0.147-1.257,0.221-2.521,0.22-3.787c0-0.006,0-0.014,0-0.02
				C580.199,200.824,577.938,196.611,574.036,194.376z"/>
			<g id="XMLID_301_">
				<path id="XMLID_302_" fill="#BA5964" d="M577.081,221.15c-2.321,3.522-6.057,4.731-8.494,4.731
					c-2.428,0-6.181-1.218-8.502-4.749c0.347-0.196,0.622-0.427,0.845-0.667c2.312,2.686,5.505,3.638,7.658,3.638
					c2.152,0,5.336-0.952,7.649-3.611C576.458,220.732,576.734,220.954,577.081,221.15z"/>
			</g>
			<g id="XMLID_296_">
				<path id="XMLID_300_" fill="#0E1F31" d="M572.061,209.262l5.829-0.064c0,0-0.708-1.462-2.868-1.868
					c-0.942-0.177-1.915,0.051-2.448,0.502C571.807,208.484,572.061,209.262,572.061,209.262z"/>
				<path id="XMLID_299_" fill="#0E1F31" d="M565.116,209.262l-5.829-0.064c0,0,0.708-1.462,2.868-1.868
					c0.942-0.177,1.917,0.051,2.448,0.502C565.372,208.484,565.116,209.262,565.116,209.262z"/>
				<path id="XMLID_298_" fill="none" stroke="#0F1E42" stroke-width="0.876" stroke-linecap="round" stroke-miterlimit="10" d="
					M561.561,211.91c0-0.529,0.681-0.957,1.521-0.957s1.521,0.428,1.521,0.957"/>
				<path id="XMLID_297_" fill="none" stroke="#0F1E42" stroke-width="0.876" stroke-linecap="round" stroke-miterlimit="10" d="
					M572.61,211.91c0-0.529,0.681-0.957,1.521-0.957s1.521,0.428,1.521,0.957"/>
			</g>
			<path id="XMLID_295_" fill="#BA5964" d="M568.572,210.542c-0.57,0.029-2.03,3.899-1.43,4.56c0.248,0.274,0.982,0.544,1.43,0.517
				c0.449,0.029,1.182-0.243,1.431-0.517C570.603,214.442,569.143,210.571,568.572,210.542z"/>
			<path id="XMLID_294_" fill="#0E1F31" d="M559.885,194.759c0,0,0.271-5.478,7.456-7.651c6.139-1.856,12.619,0.651,14.511,2.525
				c2.563,2.54,0.487,6.178-2.186,5.675C578.369,195.066,559.885,194.759,559.885,194.759z"/>
			<g id="XMLID_285_">
				<g id="XMLID_286_">
					<g id="XMLID_292_">
						<path id="XMLID_293_" fill="#0E1F31" d="M556.975,207.407c0,0,0.324-0.097,0.659-0.403c0.282-0.258,0.895-0.894,0.895-3.257
							c0-2.362,0.628-1.192,2.858-2.678c0,0,0.11-6.598-0.469-6.837c-0.781-0.322-2.745,0.11-4.103,1.397
							c-2.934,2.777-1.732,11.337-1.732,11.337C555.574,206.921,556.47,207.048,556.975,207.407z"/>
					</g>
					<g id="XMLID_290_">
						<path id="XMLID_291_" fill="#0E1F31" d="M580.584,207.282c0,0-0.571-0.053-0.883-0.296c-0.312-0.243-1.052-0.875-1.052-3.238
							c0-2.362-0.628-6.653-2.858-8.14c0,0,1.82-1.822,4.412,0c2.617,1.84,1.898,11.359,1.898,11.359
							C581.55,206.939,581.046,207.057,580.584,207.282z"/>
					</g>
					<g id="XMLID_288_">
						<path id="XMLID_289_" fill="#0E1F31" d="M580.588,204.193v3.088c0.455-0.226,0.964-0.334,1.513-0.315
							c1.547-16.683-6.309-20.236-14.689-18.744c-6.176,1.1-6.943,6.815-6.943,6.815l0.917,6.032c1.086,0,1.635,0.714,2.471,1.36
							c0.859,0.663,1.745,1.293,2.693,1.824c1.582,0.887,3.36,1.501,5.173,1.474c0.454-0.006,0.956-0.076,1.255-0.42
							c0.373-0.43,0.266-1.088,0.075-1.624c-0.243-0.684-0.588-1.328-1.016-1.914c1.146,0.949,2.284,1.882,4.501,2.115
							c1.089,0.114,1.779-0.554,1.371-1.691C577.884,202.13,580.588,202.789,580.588,204.193z"/>
					</g>
				</g>
			</g>
		</g>
		<polygon id="XMLID_283_" fill="#5EC2B9" points="568.572,229.5 564.053,233.769 554.145,223.306 559.54,221.816 		"/>
		<path id="XMLID_280_" fill="#00A895" d="M591.182,264.244c-0.116,1.299-0.331,9.433-0.429,10.687
			c-1.644-7.108-10.695-12.871-15.089-14.57c-2.428-0.934-5.105-1.628-6.279-3.255c-0.142-1.263-0.009-1.645,0.578-1.725
			c0.854-0.125,3.104,1.797,4.989,1.859l8.022,3.931C585.412,261.713,588.451,263.257,591.182,264.244z"/>
		<g id="XMLID_277_">
			<path id="XMLID_279_" fill="none" stroke="#0F1E42" stroke-width="0.7988" stroke-linecap="round" stroke-miterlimit="10" d="
				M554.838,192.543c0,0,4.426-0.012,5.632,2.489"/>
			<path id="XMLID_278_" fill="none" stroke="#0F1E42" stroke-width="0.7988" stroke-linecap="round" stroke-miterlimit="10" d="
				M555.521,188.319c0,0,5.124,1.909,4.948,7.123"/>
		</g>
		<polygon id="XMLID_276_" fill="#00A895" points="556.083,222.84 563.987,235.921 568.572,229.5 564.053,233.769 		"/>
		<polygon id="XMLID_275_" fill="#5EC2B9" points="568.572,229.525 573.091,233.794 582.999,223.331 577.604,221.841 		"/>
		<polygon id="XMLID_274_" fill="#00A895" points="581.061,222.865 573.157,235.946 568.572,229.525 573.091,233.794 		"/>
		<path id="XMLID_273_" fill="#00A895" d="M569.384,257.104c-3.344,4.616-14.531,4.529-22.998,10.719
			c-0.036-1.361-0.089-2.704-0.196-3.967c2.775-1.005,5.656-2.134,8.138-2.686l8.022-3.931c1.835-0.061,5.482-1.946,6.728-1.803
			C570,255.542,570.023,256.215,569.384,257.104z"/>
		<path id="XMLID_272_" fill="#5EC2B9" d="M553.912,261.521c-7.453,1.666-16.613,8.825-17.5,1.847
			c-1.442-11.338,0.17-36.313,6.965-37.548l12.144-3.348l-8.071,24.271l-0.039,6.238l5.502-0.784L553.912,261.521z"/>
		<path id="XMLID_271_" fill="#00A895" d="M553.912,252.03l-5.3,0.08c-1.096-6.61,1.99-13.839,2.226-16.514l-0.875,0.699
			l-3.198,15.856c-1.361,0.153-2.947,1.055-4.638,2.308C544.733,253.185,550.167,253.113,553.912,252.03z"/>
		<path id="XMLID_270_" fill="#242056" d="M571.867,255.903h-6.554c-0.97,0-1.757-0.787-1.757-1.757v-9.867
			c0-0.971,0.787-1.757,1.757-1.757h6.554c0.97,0,1.757,0.787,1.757,1.757v9.867C573.624,255.117,572.838,255.903,571.867,255.903z"
			/>
		<path id="XMLID_269_" fill="#F5978C" d="M570.16,252.061c-0.109-0.493-0.611-0.785-1.095-0.642
			c-0.931,0.275-2.843,0.617-4.151,0.835c-0.713,0.119-1.359-0.431-1.359-1.154l0,0h-0.979c-0.3,0-0.599,0.033-0.891,0.099
			l-8.192,1.288l0.836,8.683l8.022-3.928c3.319,0.544,6.139,0.439,7.951-1.332L570.16,252.061z"/>
		<g id="XMLID_267_">
			<path id="XMLID_268_" fill="#AEDEE1" d="M553.859,262.457c-0.471,0-0.864-0.37-0.888-0.846l-0.467-9.538
				c-0.024-0.491,0.354-0.908,0.845-0.932c0.474-0.049,0.908,0.354,0.932,0.845l0.467,9.538c0.024,0.491-0.354,0.908-0.845,0.932
				C553.889,262.457,553.874,262.457,553.859,262.457z"/>
		</g>
		<path id="XMLID_266_" fill="#F5978C" d="M583.247,252.684l-7.724-1.584h-1.877l-0.044,1.33l-4.524,4.031
			c1.813,1.771,3.028,1.56,6.22,1.67l7.492,2.957L583.247,252.684z"/>
		<path id="XMLID_265_" fill="#5EC2B9" d="M583.392,261.521c7.453,1.666,14.61,8.345,15.498,1.367
			c1.442-11.338,0.054-35.833-6.741-37.068l-9.928-2.814l7.634,23.737l0.039,6.238l-5.502-0.784L583.392,261.521z"/>
		<path id="XMLID_264_" fill="#00A895" d="M583.473,252.521l2.55-0.411c1.096-6.61-0.211-13.839-0.448-16.514l0.875,0.699
			l1.419,15.856c1.361,0.153,2.058,0.166,3.748,1.418C589.013,252.295,587.218,253.605,583.473,252.521z"/>
		<g id="XMLID_262_">
			<path id="XMLID_263_" fill="#AEDEE1" d="M583.444,262.457c0.471,0,0.864-0.37,0.888-0.846l0.467-9.538
				c0.024-0.491-0.354-0.908-0.845-0.932c-0.474-0.049-0.908,0.354-0.932,0.845l-0.467,9.538c-0.024,0.491,0.354,0.908,0.845,0.932
				C583.415,262.457,583.43,262.457,583.444,262.457z"/>
		</g>
		<path id="XMLID_261_" fill="#F5978C" d="M569.078,256.46l4.725,0.225l-0.157-5.586c0,1.33-3.227,1.56-5.074,0.927L569.078,256.46z
			"/>
		<path id="XMLID_260_" fill="#00A895" d="M570.971,403.265v12.04c0,0,8.027,2.753,13.307,1.364c2.127-1.379,1.936-5.406,0-6.809
			c-1.569-0.949-4.717-1.003-4.274-6.644c0.354-4.519-5.121-3.09-5.492-0.571C574.364,403.655,571.892,403.288,570.971,403.265z"/>
		<path id="XMLID_259_" fill="#8DC7C4" d="M585.437,415.242c-0.249,0.578-0.631,1.085-1.156,1.423
			c-5.283,1.396-13.305-1.361-13.305-1.361v-1.61c4.029,1.334,7.382,2.935,11.295,2.312
			C583.525,415.803,584.636,415.58,585.437,415.242z"/>
		<path id="XMLID_257_" fill="#8DC7C4" d="M580.261,406.482c-1.405,0.044-2.953,0.845-3.415,1.414
			c-0.089,0.116-0.213,0.169-0.347,0.169c-0.098,0-0.196-0.036-0.276-0.107c-0.196-0.151-0.222-0.427-0.071-0.623
			c0.614-0.747,2.286-1.61,3.904-1.725C580.1,405.931,580.172,406.215,580.261,406.482z"/>
		<path id="XMLID_254_" fill="#8DC7C4" d="M581.025,407.923c-1.325,0.133-2.713,0.863-3.14,1.396
			c-0.089,0.116-0.222,0.169-0.347,0.169c-0.098,0-0.196-0.036-0.285-0.098c-0.187-0.16-0.213-0.436-0.062-0.631
			c0.534-0.649,1.895-1.405,3.309-1.654C580.652,407.425,580.83,407.692,581.025,407.923z"/>
		<path id="XMLID_252_" fill="#8DC7C4" d="M582.804,409.177c-1.432,0.009-3.059,0.845-3.54,1.432
			c-0.089,0.107-0.213,0.16-0.347,0.16c-0.098,0-0.196-0.036-0.276-0.098c-0.196-0.16-0.222-0.436-0.062-0.631
			c0.498-0.605,1.69-1.29,2.979-1.592h0.009C581.959,408.759,582.386,408.99,582.804,409.177z"/>
		<path id="XMLID_241_" fill="#00A895" d="M553.768,394.063c0.183,5.204,2.96,16.758-3.444,16.589
			c-6.404-0.169-3.758-12.145-3.551-17.078c0.055-1.312,2.201-2.292,4.018-2.111C552.608,391.643,553.726,392.867,553.768,394.063z"
			/>
		<path id="XMLID_184_" fill="none" stroke="#8DC7C4" stroke-linecap="round" stroke-miterlimit="10" d="M547.243,399.377
			c1.423-1.22,5.147-0.291,5.456,0.065"/>
		<path id="XMLID_179_" fill="none" stroke="#8DC7C4" stroke-linecap="round" stroke-miterlimit="10" d="M547.087,401.601
			c1.423-1.22,5.147-0.291,5.456,0.065"/>
		<path id="XMLID_178_" fill="none" stroke="#8DC7C4" stroke-linecap="round" stroke-miterlimit="10" d="M546.932,403.824
			c1.423-1.22,5.147-0.291,5.456,0.065"/>
	</g>
</g>
</svg>
