<?xml version="1.0" encoding="utf-8"?>
<!-- Generator: Adobe Illustrator 16.0.0, SVG Export Plug-In . SVG Version: 6.00 Build 0)  -->
<!DOCTYPE svg PUBLIC "-//W3C//DTD SVG 1.1//EN" "http://www.w3.org/Graphics/SVG/1.1/DTD/svg11.dtd">
<svg version="1.1" id="Layer_1" xmlns="http://www.w3.org/2000/svg" xmlns:xlink="http://www.w3.org/1999/xlink" x="0px" y="0px"
	 width="179.667px" height="44.295px" viewBox="0 0 179.667 44.295" enable-background="new 0 0 179.667 44.295"
	 xml:space="preserve">
<g>
	<g opacity="0.9">
		<path fill="#FFFFFF" d="M57.267,29.797l0.326-0.554l5.839-10.145l1.043-1.794h1.957l-7.077,12.297l-1.24,2.121v9.458h-1.696
			v-9.458l-1.174-2.023l-7.144-12.395h1.958l1.435,2.512l5.48,9.427L57.267,29.797z"/>
		<path fill="#FFFFFF" d="M72.825,24.448c1.174,0,2.283,0.223,3.327,0.668c1.044,0.446,1.952,1.056,2.724,1.827
			c0.771,0.771,1.38,1.68,1.827,2.724c0.446,1.044,0.668,2.153,0.668,3.327v8.154h-1.729v-3.033
			c-0.761,1.044-1.734,1.87-2.919,2.479c-1.185,0.608-2.484,0.912-3.897,0.912c-1.174,0-2.278-0.224-3.312-0.668
			c-1.032-0.445-1.935-1.055-2.707-1.826c-0.772-0.771-1.381-1.675-1.827-2.707c-0.446-1.033-0.668-2.138-0.668-3.312
			s0.222-2.283,0.668-3.327c0.445-1.044,1.055-1.952,1.827-2.724c0.771-0.771,1.674-1.381,2.707-1.827
			C70.546,24.671,71.651,24.448,72.825,24.448z M72.825,26.177c-0.936,0-1.816,0.18-2.643,0.539
			c-0.827,0.357-1.549,0.843-2.169,1.451c-0.62,0.608-1.108,1.333-1.467,2.169c-0.359,0.837-0.54,1.724-0.54,2.658
			c0,0.937,0.181,1.815,0.54,2.642c0.358,0.827,0.847,1.55,1.467,2.17c0.62,0.619,1.342,1.109,2.169,1.468s1.707,0.537,2.643,0.537
			c0.935,0,1.821-0.179,2.658-0.537s1.561-0.849,2.168-1.468c0.609-0.62,1.093-1.343,1.452-2.17
			c0.359-0.826,0.539-1.705,0.539-2.642c0-0.935-0.18-1.821-0.539-2.658c-0.358-0.836-0.842-1.561-1.452-2.169
			c-0.608-0.608-1.332-1.094-2.168-1.451C74.646,26.356,73.76,26.177,72.825,26.177z"/>
		<path fill="#FFFFFF" d="M92.656,24.448c1.174,0,2.283,0.223,3.327,0.668c1.044,0.446,1.952,1.056,2.724,1.827
			c0.771,0.771,1.381,1.68,1.827,2.724c0.444,1.044,0.668,2.153,0.668,3.327v8.154h-1.729v-3.033
			c-0.761,1.044-1.734,1.87-2.919,2.479c-1.186,0.608-2.484,0.912-3.898,0.912c-1.174,0-2.278-0.224-3.311-0.668
			c-1.034-0.445-1.936-1.055-2.708-1.826c-0.772-0.771-1.381-1.675-1.827-2.707c-0.446-1.033-0.668-2.138-0.668-3.312
			s0.223-2.283,0.668-3.327c0.445-1.044,1.055-1.952,1.827-2.724c0.771-0.771,1.674-1.381,2.708-1.827
			C90.377,24.671,91.481,24.448,92.656,24.448z M92.656,26.177c-0.935,0-1.816,0.18-2.642,0.539
			c-0.827,0.357-1.549,0.843-2.169,1.451s-1.109,1.333-1.468,2.169c-0.358,0.837-0.538,1.724-0.538,2.658
			c0,0.937,0.18,1.815,0.538,2.642c0.359,0.827,0.849,1.55,1.468,2.17c0.62,0.619,1.342,1.109,2.169,1.468
			c0.826,0.358,1.707,0.537,2.642,0.537s1.821-0.179,2.658-0.537c0.837-0.358,1.56-0.849,2.17-1.468
			c0.608-0.62,1.092-1.343,1.451-2.17c0.359-0.826,0.538-1.705,0.538-2.642c0-0.935-0.179-1.821-0.538-2.658
			c-0.359-0.836-0.843-1.561-1.451-2.169c-0.61-0.608-1.333-1.094-2.17-1.451C94.477,26.356,93.591,26.177,92.656,26.177z"/>
		<path fill="#FFFFFF" d="M118.832,22.916c-0.358-0.827-0.848-1.55-1.469-2.17c-0.621-0.619-1.343-1.109-2.171-1.468
			c-0.826-0.359-1.705-0.538-2.642-0.538c-0.956,0-1.848,0.179-2.674,0.538s-1.544,0.849-2.152,1.468
			c-0.609,0.62-1.095,1.343-1.451,2.17c-0.359,0.827-0.538,1.708-0.538,2.642v15.623h-1.696V25.558c0-1.174,0.221-2.278,0.667-3.312
			c0.447-1.032,1.055-1.935,1.827-2.707c0.773-0.771,1.674-1.38,2.709-1.827c1.031-0.444,2.136-0.668,3.309-0.668
			c1.177,0,2.279,0.224,3.313,0.668c1.032,0.446,1.934,1.056,2.706,1.827c0.773,0.772,1.381,1.675,1.826,2.707
			c0.445,1.033,0.67,2.137,0.67,3.312v15.623h-1.695V25.558C119.37,24.623,119.19,23.743,118.832,22.916z"/>
		<path fill="#FFFFFF" d="M132.677,24.448c1.175,0,2.282,0.223,3.327,0.668c1.043,0.446,1.95,1.056,2.724,1.827
			c0.772,0.771,1.38,1.68,1.827,2.724c0.445,1.044,0.668,2.153,0.668,3.327v8.154h-1.729v-3.033c-0.761,1.044-1.735,1.87-2.92,2.479
			c-1.185,0.608-2.482,0.912-3.897,0.912c-1.176,0-2.277-0.224-3.311-0.668c-1.033-0.445-1.937-1.055-2.707-1.826
			c-0.772-0.771-1.38-1.675-1.828-2.707c-0.445-1.033-0.668-2.138-0.668-3.312s0.223-2.283,0.668-3.327
			c0.448-1.044,1.056-1.952,1.828-2.724c0.771-0.771,1.674-1.381,2.707-1.827C130.399,24.671,131.501,24.448,132.677,24.448z
			 M132.677,26.177c-0.937,0-1.814,0.18-2.643,0.539c-0.826,0.357-1.55,0.843-2.169,1.451c-0.62,0.608-1.109,1.333-1.469,2.169
			c-0.358,0.837-0.538,1.724-0.538,2.658c0,0.937,0.18,1.815,0.538,2.642c0.359,0.827,0.849,1.55,1.469,2.17
			c0.619,0.619,1.343,1.109,2.169,1.468c0.828,0.358,1.706,0.537,2.643,0.537s1.819-0.179,2.657-0.537s1.56-0.849,2.171-1.468
			c0.609-0.62,1.092-1.343,1.451-2.17c0.358-0.826,0.538-1.705,0.538-2.642c0-0.935-0.18-1.821-0.538-2.658
			c-0.359-0.836-0.842-1.561-1.451-2.169c-0.611-0.608-1.333-1.094-2.171-1.451C134.496,26.356,133.613,26.177,132.677,26.177z"/>
		<path fill="#FFFFFF" d="M152.508,24.448c1.174,0,2.283,0.223,3.326,0.668c1.045,0.446,1.952,1.056,2.725,1.827
			c0.77,0.771,1.381,1.68,1.826,2.724c0.443,1.044,0.668,2.153,0.668,3.327v8.154h-1.729v-3.033c-0.76,1.044-1.733,1.87-2.918,2.479
			c-1.186,0.608-2.486,0.912-3.898,0.912c-1.175,0-2.276-0.224-3.312-0.668c-1.033-0.445-1.935-1.055-2.707-1.826
			c-0.773-0.771-1.38-1.675-1.826-2.707c-0.447-1.033-0.668-2.138-0.668-3.312s0.221-2.283,0.668-3.327
			c0.446-1.044,1.053-1.952,1.826-2.724c0.772-0.771,1.674-1.381,2.707-1.827C150.231,24.671,151.333,24.448,152.508,24.448z
			 M152.508,26.177c-0.936,0-1.817,0.18-2.642,0.539c-0.826,0.357-1.55,0.843-2.171,1.451c-0.619,0.608-1.107,1.333-1.467,2.169
			c-0.358,0.837-0.538,1.724-0.538,2.658c0,0.937,0.18,1.815,0.538,2.642c0.359,0.827,0.848,1.55,1.467,2.17
			c0.621,0.619,1.345,1.109,2.171,1.468c0.824,0.358,1.706,0.537,2.642,0.537c0.935,0,1.82-0.179,2.658-0.537
			s1.56-0.849,2.169-1.468c0.607-0.62,1.094-1.343,1.451-2.17c0.36-0.826,0.538-1.705,0.538-2.642c0-0.935-0.178-1.821-0.538-2.658
			c-0.357-0.836-0.844-1.561-1.451-2.169c-0.609-0.608-1.331-1.094-2.169-1.451C154.328,26.356,153.442,26.177,152.508,26.177z"/>
		<path fill="#FFFFFF" d="M163.825,17.304h1.697v11.091h10.927V17.304h1.695v23.876h-1.695V30.123h-10.927v11.058h-1.697V17.304z"/>
	</g>
	<line fill="none" x1="22.658" y1="16.395" x2="18.129" y2="16.395"/>
	<line fill="none" x1="6.238" y1="26.388" x2="7.455" y2="26.388"/>
	<path fill="#FFFFFF" d="M27.157,3.417l1.495-2.99l1.337,0.669l-1.495,2.99L27.157,3.417z"/>
	<path fill="#FFFFFF" d="M24.093,0h1.496v2.244h-1.496V0z"/>
	<path fill="#FFFFFF" d="M30.597,4.54l2.244-0.747l0.473,1.419L31.07,5.959L30.597,4.54z"/>
	<path fill="#FCFC12" d="M25.004,13.554l-4.859,3.037l-0.989-1.485l-1.126,0.751c0,0,0.998,1.535,1.354,2.031
		c0.198,0.277,0.321,0.56,0.922,0.199l5.417-3.384L25.004,13.554z"/>
	<g>
		<rect y="40.422" fill="#FFFFFF" width="39.742" height="3.873"/>
		<rect y="23.558" fill="#FFFFFF" width="39.742" height="15.292"/>
	</g>
	<rect x="7.692" y="20.588" fill="#FFFFFF" width="24.356" height="1.572"/>
	<g>
		<polygon fill="#FFFFFF" points="12.749,20.588 19.664,7.242 30.579,13.144 26.581,20.588 28.697,20.588 33.1,12.389 18.882,4.701 
			10.649,20.588 		"/>
	</g>
	<polygon fill="#FFFFFF" points="4.404,16.879 0,23.558 1.675,23.558 5.157,18.277 8.161,18.277 8.161,16.879 	"/>
	<polygon fill="#FFFFFF" points="35.337,16.879 39.742,23.558 38.067,23.558 34.584,18.277 31.58,18.277 31.58,16.879 	"/>
</g>
</svg>
